<?xml version="1.0" encoding="utf-8" standalone="no"?>
<!DOCTYPE svg PUBLIC "-//W3C//DTD SVG 1.1//EN"
  "http://www.w3.org/Graphics/SVG/1.1/DTD/svg11.dtd">
<!-- Created with matplotlib (https://matplotlib.org/) -->
<svg height="260.260625pt" version="1.1" viewBox="0 0 401.888125 260.260625" width="401.888125pt" xmlns="http://www.w3.org/2000/svg" xmlns:xlink="http://www.w3.org/1999/xlink">
 <metadata>
  <rdf:RDF xmlns:cc="http://creativecommons.org/ns#" xmlns:dc="http://purl.org/dc/elements/1.1/" xmlns:rdf="http://www.w3.org/1999/02/22-rdf-syntax-ns#">
   <cc:Work>
    <dc:type rdf:resource="http://purl.org/dc/dcmitype/StillImage"/>
    <dc:date>2020-12-14T16:38:06.312733</dc:date>
    <dc:format>image/svg+xml</dc:format>
    <dc:creator>
     <cc:Agent>
      <dc:title>Matplotlib v3.3.0, https://matplotlib.org/</dc:title>
     </cc:Agent>
    </dc:creator>
   </cc:Work>
  </rdf:RDF>
 </metadata>
 <defs>
  <style type="text/css">*{stroke-linecap:butt;stroke-linejoin:round;}</style>
 </defs>
 <g id="figure_1">
  <g id="patch_1">
   <path d="M 0 260.260625 
L 401.888125 260.260625 
L 401.888125 0 
L 0 0 
z
" style="fill:none;"/>
  </g>
  <g id="axes_1">
   <g id="patch_2">
    <path d="M 43.148125 224.64 
L 394.688125 224.64 
L 394.688125 7.2 
L 43.148125 7.2 
z
" style="fill:#ffffff;"/>
   </g>
   <g id="matplotlib.axis_1">
    <g id="xtick_1">
     <g id="line2d_1">
      <defs>
       <path d="M 0 0 
L 0 3.5 
" id="m4c4782fc89" style="stroke:#000000;stroke-width:0.8;"/>
      </defs>
      <g>
       <use style="stroke:#000000;stroke-width:0.8;" x="59.127216" xlink:href="#m4c4782fc89" y="224.64"/>
      </g>
     </g>
     <g id="text_1">
      <!-- $A$ -->
      <g transform="translate(56.367216 237.71875)scale(0.08 -0.08)">
       <defs>
        <path d="M 36.8125 72.90625 
L 48 72.90625 
L 61.53125 0 
L 51.21875 0 
L 48.1875 18.703125 
L 15.375 18.703125 
L 5.078125 0 
L -5.328125 0 
z
M 40.375 63.1875 
L 19.921875 26.90625 
L 46.6875 26.90625 
z
" id="DejaVuSans-Oblique-65"/>
       </defs>
       <use transform="translate(0 0.09375)" xlink:href="#DejaVuSans-Oblique-65"/>
      </g>
     </g>
    </g>
    <g id="xtick_2">
     <g id="line2d_2">
      <g>
       <use style="stroke:#000000;stroke-width:0.8;" x="59.127216" xlink:href="#m4c4782fc89" y="224.64"/>
      </g>
     </g>
     <g id="text_2">
      <!-- $A$ -->
      <g transform="translate(56.367216 237.71875)scale(0.08 -0.08)">
       <use transform="translate(0 0.09375)" xlink:href="#DejaVuSans-Oblique-65"/>
      </g>
     </g>
    </g>
    <g id="xtick_3">
     <g id="line2d_3">
      <g>
       <use style="stroke:#000000;stroke-width:0.8;" x="59.127216" xlink:href="#m4c4782fc89" y="224.64"/>
      </g>
     </g>
     <g id="text_3">
      <!-- $A$ -->
      <g transform="translate(56.367216 237.71875)scale(0.08 -0.08)">
       <use transform="translate(0 0.09375)" xlink:href="#DejaVuSans-Oblique-65"/>
      </g>
     </g>
    </g>
    <g id="xtick_4">
     <g id="line2d_4">
      <g>
       <use style="stroke:#000000;stroke-width:0.8;" x="59.127216" xlink:href="#m4c4782fc89" y="224.64"/>
      </g>
     </g>
     <g id="text_4">
      <!-- $A$ -->
      <g transform="translate(56.367216 237.71875)scale(0.08 -0.08)">
       <use transform="translate(0 0.09375)" xlink:href="#DejaVuSans-Oblique-65"/>
      </g>
     </g>
    </g>
    <g id="xtick_5">
     <g id="line2d_5">
      <g>
       <use style="stroke:#000000;stroke-width:0.8;" x="59.127216" xlink:href="#m4c4782fc89" y="224.64"/>
      </g>
     </g>
     <g id="text_5">
      <!-- $A$ -->
      <g transform="translate(56.367216 237.71875)scale(0.08 -0.08)">
       <use transform="translate(0 0.09375)" xlink:href="#DejaVuSans-Oblique-65"/>
      </g>
     </g>
    </g>
    <g id="xtick_6">
     <g id="line2d_6">
      <g>
       <use style="stroke:#000000;stroke-width:0.8;" x="81.954489" xlink:href="#m4c4782fc89" y="224.64"/>
      </g>
     </g>
     <g id="text_6">
      <!-- $B$ -->
      <g transform="translate(79.194489 237.71875)scale(0.08 -0.08)">
       <defs>
        <path d="M 16.890625 72.90625 
L 42.09375 72.90625 
Q 52.34375 72.90625 57.421875 69.09375 
Q 62.5 65.28125 62.5 57.625 
Q 62.5 50.59375 58.125 45.484375 
Q 53.765625 40.375 46.6875 39.3125 
Q 52.734375 37.9375 55.765625 34.078125 
Q 58.796875 30.21875 58.796875 23.78125 
Q 58.796875 12.796875 50.65625 6.390625 
Q 42.53125 0 28.421875 0 
L 2.6875 0 
z
M 19.28125 34.8125 
L 14.109375 8.109375 
L 29.984375 8.109375 
Q 38.921875 8.109375 43.75 12.203125 
Q 48.578125 16.3125 48.578125 23.78125 
Q 48.578125 29.546875 45.375 32.171875 
Q 42.1875 34.8125 35.109375 34.8125 
z
M 25.09375 64.796875 
L 20.796875 42.828125 
L 35.5 42.828125 
Q 43.359375 42.828125 47.78125 46.234375 
Q 52.203125 49.65625 52.203125 55.71875 
Q 52.203125 60.453125 49.21875 62.625 
Q 46.234375 64.796875 39.703125 64.796875 
z
" id="DejaVuSans-Oblique-66"/>
       </defs>
       <use transform="translate(0 0.09375)" xlink:href="#DejaVuSans-Oblique-66"/>
      </g>
     </g>
    </g>
    <g id="xtick_7">
     <g id="line2d_7">
      <g>
       <use style="stroke:#000000;stroke-width:0.8;" x="81.954489" xlink:href="#m4c4782fc89" y="224.64"/>
      </g>
     </g>
     <g id="text_7">
      <!-- $B$ -->
      <g transform="translate(79.194489 237.71875)scale(0.08 -0.08)">
       <use transform="translate(0 0.09375)" xlink:href="#DejaVuSans-Oblique-66"/>
      </g>
     </g>
    </g>
    <g id="xtick_8">
     <g id="line2d_8">
      <g>
       <use style="stroke:#000000;stroke-width:0.8;" x="81.954489" xlink:href="#m4c4782fc89" y="224.64"/>
      </g>
     </g>
     <g id="text_8">
      <!-- $B$ -->
      <g transform="translate(79.194489 237.71875)scale(0.08 -0.08)">
       <use transform="translate(0 0.09375)" xlink:href="#DejaVuSans-Oblique-66"/>
      </g>
     </g>
    </g>
    <g id="xtick_9">
     <g id="line2d_9">
      <g>
       <use style="stroke:#000000;stroke-width:0.8;" x="81.954489" xlink:href="#m4c4782fc89" y="224.64"/>
      </g>
     </g>
     <g id="text_9">
      <!-- $B$ -->
      <g transform="translate(79.194489 237.71875)scale(0.08 -0.08)">
       <use transform="translate(0 0.09375)" xlink:href="#DejaVuSans-Oblique-66"/>
      </g>
     </g>
    </g>
    <g id="xtick_10">
     <g id="line2d_10">
      <g>
       <use style="stroke:#000000;stroke-width:0.8;" x="81.954489" xlink:href="#m4c4782fc89" y="224.64"/>
      </g>
     </g>
     <g id="text_10">
      <!-- $B$ -->
      <g transform="translate(79.194489 237.71875)scale(0.08 -0.08)">
       <use transform="translate(0 0.09375)" xlink:href="#DejaVuSans-Oblique-66"/>
      </g>
     </g>
    </g>
    <g id="xtick_11">
     <g id="line2d_11">
      <g>
       <use style="stroke:#000000;stroke-width:0.8;" x="104.781761" xlink:href="#m4c4782fc89" y="224.64"/>
      </g>
     </g>
     <g id="text_11">
      <!-- $C$ -->
      <g transform="translate(101.981761 237.71875)scale(0.08 -0.08)">
       <defs>
        <path d="M 69.484375 67.28125 
L 67.484375 56.890625 
Q 62.796875 61.625 57.546875 63.921875 
Q 52.296875 66.21875 46.1875 66.21875 
Q 37.84375 66.21875 31.515625 62.203125 
Q 25.203125 58.203125 20.609375 50 
Q 17.671875 44.734375 16.125 38.84375 
Q 14.59375 32.953125 14.59375 27 
Q 14.59375 17.046875 19.75 11.8125 
Q 24.90625 6.59375 34.71875 6.59375 
Q 41.5 6.59375 47.75 8.765625 
Q 54 10.9375 59.90625 15.28125 
L 57.625 3.609375 
Q 51.8125 1.125 45.875 -0.140625 
Q 39.9375 -1.421875 33.984375 -1.421875 
Q 19.96875 -1.421875 12.078125 6.1875 
Q 4.203125 13.8125 4.203125 27.390625 
Q 4.203125 36.078125 7.203125 44.46875 
Q 10.203125 52.875 15.828125 59.8125 
Q 21.78125 67.1875 29.421875 70.703125 
Q 37.0625 74.21875 47.21875 74.21875 
Q 53.46875 74.21875 59.0625 72.484375 
Q 64.65625 70.75 69.484375 67.28125 
z
" id="DejaVuSans-Oblique-67"/>
       </defs>
       <use transform="translate(0 0.78125)" xlink:href="#DejaVuSans-Oblique-67"/>
      </g>
     </g>
    </g>
    <g id="xtick_12">
     <g id="line2d_12">
      <g>
       <use style="stroke:#000000;stroke-width:0.8;" x="104.781761" xlink:href="#m4c4782fc89" y="224.64"/>
      </g>
     </g>
     <g id="text_12">
      <!-- $C$ -->
      <g transform="translate(101.981761 237.71875)scale(0.08 -0.08)">
       <use transform="translate(0 0.78125)" xlink:href="#DejaVuSans-Oblique-67"/>
      </g>
     </g>
    </g>
    <g id="xtick_13">
     <g id="line2d_13">
      <g>
       <use style="stroke:#000000;stroke-width:0.8;" x="104.781761" xlink:href="#m4c4782fc89" y="224.64"/>
      </g>
     </g>
     <g id="text_13">
      <!-- $C$ -->
      <g transform="translate(101.981761 237.71875)scale(0.08 -0.08)">
       <use transform="translate(0 0.78125)" xlink:href="#DejaVuSans-Oblique-67"/>
      </g>
     </g>
    </g>
    <g id="xtick_14">
     <g id="line2d_14">
      <g>
       <use style="stroke:#000000;stroke-width:0.8;" x="104.781761" xlink:href="#m4c4782fc89" y="224.64"/>
      </g>
     </g>
     <g id="text_14">
      <!-- $C$ -->
      <g transform="translate(101.981761 237.71875)scale(0.08 -0.08)">
       <use transform="translate(0 0.78125)" xlink:href="#DejaVuSans-Oblique-67"/>
      </g>
     </g>
    </g>
    <g id="xtick_15">
     <g id="line2d_15">
      <g>
       <use style="stroke:#000000;stroke-width:0.8;" x="104.781761" xlink:href="#m4c4782fc89" y="224.64"/>
      </g>
     </g>
     <g id="text_15">
      <!-- $C$ -->
      <g transform="translate(101.981761 237.71875)scale(0.08 -0.08)">
       <use transform="translate(0 0.78125)" xlink:href="#DejaVuSans-Oblique-67"/>
      </g>
     </g>
    </g>
    <g id="xtick_16">
     <g id="line2d_16">
      <g>
       <use style="stroke:#000000;stroke-width:0.8;" x="127.609034" xlink:href="#m4c4782fc89" y="224.64"/>
      </g>
     </g>
     <g id="text_16">
      <!-- $D$ -->
      <g transform="translate(124.489034 237.71875)scale(0.08 -0.08)">
       <defs>
        <path d="M 16.890625 72.90625 
L 38.09375 72.90625 
Q 54.984375 72.90625 63.59375 65.75 
Q 72.21875 58.59375 72.21875 44.484375 
Q 72.21875 35.15625 68.9375 26.53125 
Q 65.671875 17.921875 59.90625 12.015625 
Q 54.109375 5.953125 45.171875 2.96875 
Q 36.234375 0 24.03125 0 
L 2.6875 0 
z
M 25.203125 64.796875 
L 14.203125 8.109375 
L 27.09375 8.109375 
Q 43.65625 8.109375 52.734375 17.625 
Q 61.8125 27.15625 61.8125 44.484375 
Q 61.8125 54.984375 55.953125 59.890625 
Q 50.09375 64.796875 37.59375 64.796875 
z
" id="DejaVuSans-Oblique-68"/>
       </defs>
       <use transform="translate(0 0.09375)" xlink:href="#DejaVuSans-Oblique-68"/>
      </g>
     </g>
    </g>
    <g id="xtick_17">
     <g id="line2d_17">
      <g>
       <use style="stroke:#000000;stroke-width:0.8;" x="127.609034" xlink:href="#m4c4782fc89" y="224.64"/>
      </g>
     </g>
     <g id="text_17">
      <!-- $D$ -->
      <g transform="translate(124.489034 237.71875)scale(0.08 -0.08)">
       <use transform="translate(0 0.09375)" xlink:href="#DejaVuSans-Oblique-68"/>
      </g>
     </g>
    </g>
    <g id="xtick_18">
     <g id="line2d_18">
      <g>
       <use style="stroke:#000000;stroke-width:0.8;" x="127.609034" xlink:href="#m4c4782fc89" y="224.64"/>
      </g>
     </g>
     <g id="text_18">
      <!-- $D$ -->
      <g transform="translate(124.489034 237.71875)scale(0.08 -0.08)">
       <use transform="translate(0 0.09375)" xlink:href="#DejaVuSans-Oblique-68"/>
      </g>
     </g>
    </g>
    <g id="xtick_19">
     <g id="line2d_19">
      <g>
       <use style="stroke:#000000;stroke-width:0.8;" x="127.609034" xlink:href="#m4c4782fc89" y="224.64"/>
      </g>
     </g>
     <g id="text_19">
      <!-- $D$ -->
      <g transform="translate(124.489034 237.71875)scale(0.08 -0.08)">
       <use transform="translate(0 0.09375)" xlink:href="#DejaVuSans-Oblique-68"/>
      </g>
     </g>
    </g>
    <g id="xtick_20">
     <g id="line2d_20">
      <g>
       <use style="stroke:#000000;stroke-width:0.8;" x="127.609034" xlink:href="#m4c4782fc89" y="224.64"/>
      </g>
     </g>
     <g id="text_20">
      <!-- $D$ -->
      <g transform="translate(124.489034 237.71875)scale(0.08 -0.08)">
       <use transform="translate(0 0.09375)" xlink:href="#DejaVuSans-Oblique-68"/>
      </g>
     </g>
    </g>
    <g id="xtick_21">
     <g id="line2d_21">
      <g>
       <use style="stroke:#000000;stroke-width:0.8;" x="150.436307" xlink:href="#m4c4782fc89" y="224.64"/>
      </g>
     </g>
     <g id="text_21">
      <!-- $E$ -->
      <g transform="translate(147.876307 237.71875)scale(0.08 -0.08)">
       <defs>
        <path d="M 16.890625 72.90625 
L 62.984375 72.90625 
L 61.375 64.59375 
L 25.09375 64.59375 
L 20.90625 43.015625 
L 55.71875 43.015625 
L 54.109375 34.71875 
L 19.28125 34.71875 
L 14.203125 8.296875 
L 51.3125 8.296875 
L 49.703125 0 
L 2.6875 0 
z
" id="DejaVuSans-Oblique-69"/>
       </defs>
       <use transform="translate(0 0.09375)" xlink:href="#DejaVuSans-Oblique-69"/>
      </g>
     </g>
    </g>
    <g id="xtick_22">
     <g id="line2d_22">
      <g>
       <use style="stroke:#000000;stroke-width:0.8;" x="150.436307" xlink:href="#m4c4782fc89" y="224.64"/>
      </g>
     </g>
     <g id="text_22">
      <!-- $E$ -->
      <g transform="translate(147.876307 237.71875)scale(0.08 -0.08)">
       <use transform="translate(0 0.09375)" xlink:href="#DejaVuSans-Oblique-69"/>
      </g>
     </g>
    </g>
    <g id="xtick_23">
     <g id="line2d_23">
      <g>
       <use style="stroke:#000000;stroke-width:0.8;" x="150.436307" xlink:href="#m4c4782fc89" y="224.64"/>
      </g>
     </g>
     <g id="text_23">
      <!-- $E$ -->
      <g transform="translate(147.876307 237.71875)scale(0.08 -0.08)">
       <use transform="translate(0 0.09375)" xlink:href="#DejaVuSans-Oblique-69"/>
      </g>
     </g>
    </g>
    <g id="xtick_24">
     <g id="line2d_24">
      <g>
       <use style="stroke:#000000;stroke-width:0.8;" x="150.436307" xlink:href="#m4c4782fc89" y="224.64"/>
      </g>
     </g>
     <g id="text_24">
      <!-- $E$ -->
      <g transform="translate(147.876307 237.71875)scale(0.08 -0.08)">
       <use transform="translate(0 0.09375)" xlink:href="#DejaVuSans-Oblique-69"/>
      </g>
     </g>
    </g>
    <g id="xtick_25">
     <g id="line2d_25">
      <g>
       <use style="stroke:#000000;stroke-width:0.8;" x="173.26358" xlink:href="#m4c4782fc89" y="224.64"/>
      </g>
     </g>
     <g id="text_25">
      <!-- $F$ -->
      <g transform="translate(170.94358 237.71875)scale(0.08 -0.08)">
       <defs>
        <path d="M 16.890625 72.90625 
L 58.6875 72.90625 
L 57.078125 64.59375 
L 25.09375 64.59375 
L 20.90625 43.109375 
L 49.8125 43.109375 
L 48.1875 34.8125 
L 19.28125 34.8125 
L 12.5 0 
L 2.6875 0 
z
" id="DejaVuSans-Oblique-70"/>
       </defs>
       <use transform="translate(0 0.09375)" xlink:href="#DejaVuSans-Oblique-70"/>
      </g>
     </g>
    </g>
    <g id="xtick_26">
     <g id="line2d_26">
      <g>
       <use style="stroke:#000000;stroke-width:0.8;" x="173.26358" xlink:href="#m4c4782fc89" y="224.64"/>
      </g>
     </g>
     <g id="text_26">
      <!-- $F$ -->
      <g transform="translate(170.94358 237.71875)scale(0.08 -0.08)">
       <use transform="translate(0 0.09375)" xlink:href="#DejaVuSans-Oblique-70"/>
      </g>
     </g>
    </g>
    <g id="xtick_27">
     <g id="line2d_27">
      <g>
       <use style="stroke:#000000;stroke-width:0.8;" x="173.26358" xlink:href="#m4c4782fc89" y="224.64"/>
      </g>
     </g>
     <g id="text_27">
      <!-- $F$ -->
      <g transform="translate(170.94358 237.71875)scale(0.08 -0.08)">
       <use transform="translate(0 0.09375)" xlink:href="#DejaVuSans-Oblique-70"/>
      </g>
     </g>
    </g>
    <g id="xtick_28">
     <g id="line2d_28">
      <g>
       <use style="stroke:#000000;stroke-width:0.8;" x="173.26358" xlink:href="#m4c4782fc89" y="224.64"/>
      </g>
     </g>
     <g id="text_28">
      <!-- $F$ -->
      <g transform="translate(170.94358 237.71875)scale(0.08 -0.08)">
       <use transform="translate(0 0.09375)" xlink:href="#DejaVuSans-Oblique-70"/>
      </g>
     </g>
    </g>
    <g id="xtick_29">
     <g id="line2d_29">
      <g>
       <use style="stroke:#000000;stroke-width:0.8;" x="173.26358" xlink:href="#m4c4782fc89" y="224.64"/>
      </g>
     </g>
     <g id="text_29">
      <!-- $F$ -->
      <g transform="translate(170.94358 237.71875)scale(0.08 -0.08)">
       <use transform="translate(0 0.09375)" xlink:href="#DejaVuSans-Oblique-70"/>
      </g>
     </g>
    </g>
    <g id="xtick_30">
     <g id="line2d_30">
      <g>
       <use style="stroke:#000000;stroke-width:0.8;" x="196.090852" xlink:href="#m4c4782fc89" y="224.64"/>
      </g>
     </g>
     <g id="text_30">
      <!-- $G$ -->
      <g transform="translate(192.970852 237.71875)scale(0.08 -0.08)">
       <defs>
        <path d="M 54.59375 10.890625 
L 58.40625 29.984375 
L 42.1875 29.984375 
L 43.703125 38.09375 
L 69.578125 38.09375 
L 63.28125 6 
Q 56.78125 2.4375 49.109375 0.5 
Q 41.453125 -1.421875 33.6875 -1.421875 
Q 19.96875 -1.421875 12.234375 6.1875 
Q 4.5 13.8125 4.5 27.390625 
Q 4.5 38.671875 9.203125 48.84375 
Q 13.921875 59.03125 22.21875 65.828125 
Q 27.4375 70.0625 33.640625 72.140625 
Q 39.84375 74.21875 47.40625 74.21875 
Q 54.25 74.21875 60.515625 72.484375 
Q 66.796875 70.75 72.515625 67.28125 
L 70.515625 56.78125 
Q 66.109375 61.375 60.203125 63.796875 
Q 54.296875 66.21875 47.609375 66.21875 
Q 39.84375 66.21875 33.9375 63.25 
Q 28.03125 60.296875 23.390625 54.109375 
Q 19.4375 48.828125 17.15625 41.671875 
Q 14.890625 34.515625 14.890625 27.09375 
Q 14.890625 16.890625 20.109375 11.734375 
Q 25.34375 6.59375 35.6875 6.59375 
Q 40.875 6.59375 45.703125 7.6875 
Q 50.53125 8.796875 54.59375 10.890625 
z
" id="DejaVuSans-Oblique-71"/>
       </defs>
       <use transform="translate(0 0.78125)" xlink:href="#DejaVuSans-Oblique-71"/>
      </g>
     </g>
    </g>
    <g id="xtick_31">
     <g id="line2d_31">
      <g>
       <use style="stroke:#000000;stroke-width:0.8;" x="196.090852" xlink:href="#m4c4782fc89" y="224.64"/>
      </g>
     </g>
     <g id="text_31">
      <!-- $G$ -->
      <g transform="translate(192.970852 237.71875)scale(0.08 -0.08)">
       <use transform="translate(0 0.78125)" xlink:href="#DejaVuSans-Oblique-71"/>
      </g>
     </g>
    </g>
    <g id="xtick_32">
     <g id="line2d_32">
      <g>
       <use style="stroke:#000000;stroke-width:0.8;" x="196.090852" xlink:href="#m4c4782fc89" y="224.64"/>
      </g>
     </g>
     <g id="text_32">
      <!-- $G$ -->
      <g transform="translate(192.970852 237.71875)scale(0.08 -0.08)">
       <use transform="translate(0 0.78125)" xlink:href="#DejaVuSans-Oblique-71"/>
      </g>
     </g>
    </g>
    <g id="xtick_33">
     <g id="line2d_33">
      <g>
       <use style="stroke:#000000;stroke-width:0.8;" x="196.090852" xlink:href="#m4c4782fc89" y="224.64"/>
      </g>
     </g>
     <g id="text_33">
      <!-- $G$ -->
      <g transform="translate(192.970852 237.71875)scale(0.08 -0.08)">
       <use transform="translate(0 0.78125)" xlink:href="#DejaVuSans-Oblique-71"/>
      </g>
     </g>
    </g>
    <g id="xtick_34">
     <g id="line2d_34">
      <g>
       <use style="stroke:#000000;stroke-width:0.8;" x="196.090852" xlink:href="#m4c4782fc89" y="224.64"/>
      </g>
     </g>
     <g id="text_34">
      <!-- $G$ -->
      <g transform="translate(192.970852 237.71875)scale(0.08 -0.08)">
       <use transform="translate(0 0.78125)" xlink:href="#DejaVuSans-Oblique-71"/>
      </g>
     </g>
    </g>
    <g id="xtick_35">
     <g id="line2d_35">
      <g>
       <use style="stroke:#000000;stroke-width:0.8;" x="218.918125" xlink:href="#m4c4782fc89" y="224.64"/>
      </g>
     </g>
     <g id="text_35">
      <!-- $H$ -->
      <g transform="translate(215.878125 237.71875)scale(0.08 -0.08)">
       <defs>
        <path d="M 16.890625 72.90625 
L 26.8125 72.90625 
L 21 43.015625 
L 56.78125 43.015625 
L 62.59375 72.90625 
L 72.515625 72.90625 
L 58.296875 0 
L 48.390625 0 
L 55.171875 34.71875 
L 19.390625 34.71875 
L 12.59375 0 
L 2.6875 0 
z
" id="DejaVuSans-Oblique-72"/>
       </defs>
       <use transform="translate(0 0.09375)" xlink:href="#DejaVuSans-Oblique-72"/>
      </g>
     </g>
    </g>
    <g id="xtick_36">
     <g id="line2d_36">
      <g>
       <use style="stroke:#000000;stroke-width:0.8;" x="218.918125" xlink:href="#m4c4782fc89" y="224.64"/>
      </g>
     </g>
     <g id="text_36">
      <!-- $H$ -->
      <g transform="translate(215.878125 237.71875)scale(0.08 -0.08)">
       <use transform="translate(0 0.09375)" xlink:href="#DejaVuSans-Oblique-72"/>
      </g>
     </g>
    </g>
    <g id="xtick_37">
     <g id="line2d_37">
      <g>
       <use style="stroke:#000000;stroke-width:0.8;" x="218.918125" xlink:href="#m4c4782fc89" y="224.64"/>
      </g>
     </g>
     <g id="text_37">
      <!-- $H$ -->
      <g transform="translate(215.878125 237.71875)scale(0.08 -0.08)">
       <use transform="translate(0 0.09375)" xlink:href="#DejaVuSans-Oblique-72"/>
      </g>
     </g>
    </g>
    <g id="xtick_38">
     <g id="line2d_38">
      <g>
       <use style="stroke:#000000;stroke-width:0.8;" x="218.918125" xlink:href="#m4c4782fc89" y="224.64"/>
      </g>
     </g>
     <g id="text_38">
      <!-- $H$ -->
      <g transform="translate(215.878125 237.71875)scale(0.08 -0.08)">
       <use transform="translate(0 0.09375)" xlink:href="#DejaVuSans-Oblique-72"/>
      </g>
     </g>
    </g>
    <g id="xtick_39">
     <g id="line2d_39">
      <g>
       <use style="stroke:#000000;stroke-width:0.8;" x="218.918125" xlink:href="#m4c4782fc89" y="224.64"/>
      </g>
     </g>
     <g id="text_39">
      <!-- $H$ -->
      <g transform="translate(215.878125 237.71875)scale(0.08 -0.08)">
       <use transform="translate(0 0.09375)" xlink:href="#DejaVuSans-Oblique-72"/>
      </g>
     </g>
    </g>
    <g id="xtick_40">
     <g id="line2d_40">
      <g>
       <use style="stroke:#000000;stroke-width:0.8;" x="241.745398" xlink:href="#m4c4782fc89" y="224.64"/>
      </g>
     </g>
     <g id="text_40">
      <!-- $I$ -->
      <g transform="translate(240.545398 237.71875)scale(0.08 -0.08)">
       <defs>
        <path d="M 16.890625 72.90625 
L 26.8125 72.90625 
L 12.59375 0 
L 2.6875 0 
z
" id="DejaVuSans-Oblique-73"/>
       </defs>
       <use transform="translate(0 0.09375)" xlink:href="#DejaVuSans-Oblique-73"/>
      </g>
     </g>
    </g>
    <g id="xtick_41">
     <g id="line2d_41">
      <g>
       <use style="stroke:#000000;stroke-width:0.8;" x="241.745398" xlink:href="#m4c4782fc89" y="224.64"/>
      </g>
     </g>
     <g id="text_41">
      <!-- $I$ -->
      <g transform="translate(240.545398 237.71875)scale(0.08 -0.08)">
       <use transform="translate(0 0.09375)" xlink:href="#DejaVuSans-Oblique-73"/>
      </g>
     </g>
    </g>
    <g id="xtick_42">
     <g id="line2d_42">
      <g>
       <use style="stroke:#000000;stroke-width:0.8;" x="241.745398" xlink:href="#m4c4782fc89" y="224.64"/>
      </g>
     </g>
     <g id="text_42">
      <!-- $I$ -->
      <g transform="translate(240.545398 237.71875)scale(0.08 -0.08)">
       <use transform="translate(0 0.09375)" xlink:href="#DejaVuSans-Oblique-73"/>
      </g>
     </g>
    </g>
    <g id="xtick_43">
     <g id="line2d_43">
      <g>
       <use style="stroke:#000000;stroke-width:0.8;" x="241.745398" xlink:href="#m4c4782fc89" y="224.64"/>
      </g>
     </g>
     <g id="text_43">
      <!-- $I$ -->
      <g transform="translate(240.545398 237.71875)scale(0.08 -0.08)">
       <use transform="translate(0 0.09375)" xlink:href="#DejaVuSans-Oblique-73"/>
      </g>
     </g>
    </g>
    <g id="xtick_44">
     <g id="line2d_44">
      <g>
       <use style="stroke:#000000;stroke-width:0.8;" x="241.745398" xlink:href="#m4c4782fc89" y="224.64"/>
      </g>
     </g>
     <g id="text_44">
      <!-- $I$ -->
      <g transform="translate(240.545398 237.71875)scale(0.08 -0.08)">
       <use transform="translate(0 0.09375)" xlink:href="#DejaVuSans-Oblique-73"/>
      </g>
     </g>
    </g>
    <g id="xtick_45">
     <g id="line2d_45">
      <g>
       <use style="stroke:#000000;stroke-width:0.8;" x="264.57267" xlink:href="#m4c4782fc89" y="224.64"/>
      </g>
     </g>
     <g id="text_45">
      <!-- $J$ -->
      <g transform="translate(263.37267 237.7025)scale(0.08 -0.08)">
       <defs>
        <path d="M 16.703125 72.90625 
L 26.609375 72.90625 
L 13.375 5.078125 
Q 10.796875 -8.15625 4.65625 -14.078125 
Q -1.46875 -20.015625 -12.5 -20.015625 
L -16.40625 -20.015625 
L -14.796875 -11.71875 
L -11.71875 -11.71875 
Q -5.125 -11.71875 -1.703125 -7.953125 
Q 1.703125 -4.203125 3.515625 5.078125 
z
" id="DejaVuSans-Oblique-74"/>
       </defs>
       <use transform="translate(0 0.09375)" xlink:href="#DejaVuSans-Oblique-74"/>
      </g>
     </g>
    </g>
    <g id="xtick_46">
     <g id="line2d_46">
      <g>
       <use style="stroke:#000000;stroke-width:0.8;" x="264.57267" xlink:href="#m4c4782fc89" y="224.64"/>
      </g>
     </g>
     <g id="text_46">
      <!-- $J$ -->
      <g transform="translate(263.37267 237.7025)scale(0.08 -0.08)">
       <use transform="translate(0 0.09375)" xlink:href="#DejaVuSans-Oblique-74"/>
      </g>
     </g>
    </g>
    <g id="xtick_47">
     <g id="line2d_47">
      <g>
       <use style="stroke:#000000;stroke-width:0.8;" x="264.57267" xlink:href="#m4c4782fc89" y="224.64"/>
      </g>
     </g>
     <g id="text_47">
      <!-- $J$ -->
      <g transform="translate(263.37267 237.7025)scale(0.08 -0.08)">
       <use transform="translate(0 0.09375)" xlink:href="#DejaVuSans-Oblique-74"/>
      </g>
     </g>
    </g>
    <g id="xtick_48">
     <g id="line2d_48">
      <g>
       <use style="stroke:#000000;stroke-width:0.8;" x="264.57267" xlink:href="#m4c4782fc89" y="224.64"/>
      </g>
     </g>
     <g id="text_48">
      <!-- $J$ -->
      <g transform="translate(263.37267 237.7025)scale(0.08 -0.08)">
       <use transform="translate(0 0.09375)" xlink:href="#DejaVuSans-Oblique-74"/>
      </g>
     </g>
    </g>
    <g id="xtick_49">
     <g id="line2d_49">
      <g>
       <use style="stroke:#000000;stroke-width:0.8;" x="264.57267" xlink:href="#m4c4782fc89" y="224.64"/>
      </g>
     </g>
     <g id="text_49">
      <!-- $J$ -->
      <g transform="translate(263.37267 237.7025)scale(0.08 -0.08)">
       <use transform="translate(0 0.09375)" xlink:href="#DejaVuSans-Oblique-74"/>
      </g>
     </g>
    </g>
    <g id="xtick_50">
     <g id="line2d_50">
      <g>
       <use style="stroke:#000000;stroke-width:0.8;" x="287.399943" xlink:href="#m4c4782fc89" y="224.64"/>
      </g>
     </g>
     <g id="text_50">
      <!-- $K$ -->
      <g transform="translate(284.759943 237.71875)scale(0.08 -0.08)">
       <defs>
        <path d="M 16.890625 72.90625 
L 26.8125 72.90625 
L 20.796875 42.1875 
L 59.078125 72.90625 
L 72.21875 72.90625 
L 28.90625 38.09375 
L 60.59375 0 
L 48.578125 0 
L 19.484375 35.5 
L 12.59375 0 
L 2.6875 0 
z
" id="DejaVuSans-Oblique-75"/>
       </defs>
       <use transform="translate(0 0.09375)" xlink:href="#DejaVuSans-Oblique-75"/>
      </g>
     </g>
    </g>
    <g id="xtick_51">
     <g id="line2d_51">
      <g>
       <use style="stroke:#000000;stroke-width:0.8;" x="287.399943" xlink:href="#m4c4782fc89" y="224.64"/>
      </g>
     </g>
     <g id="text_51">
      <!-- $K$ -->
      <g transform="translate(284.759943 237.71875)scale(0.08 -0.08)">
       <use transform="translate(0 0.09375)" xlink:href="#DejaVuSans-Oblique-75"/>
      </g>
     </g>
    </g>
    <g id="xtick_52">
     <g id="line2d_52">
      <g>
       <use style="stroke:#000000;stroke-width:0.8;" x="287.399943" xlink:href="#m4c4782fc89" y="224.64"/>
      </g>
     </g>
     <g id="text_52">
      <!-- $K$ -->
      <g transform="translate(284.759943 237.71875)scale(0.08 -0.08)">
       <use transform="translate(0 0.09375)" xlink:href="#DejaVuSans-Oblique-75"/>
      </g>
     </g>
    </g>
    <g id="xtick_53">
     <g id="line2d_53">
      <g>
       <use style="stroke:#000000;stroke-width:0.8;" x="287.399943" xlink:href="#m4c4782fc89" y="224.64"/>
      </g>
     </g>
     <g id="text_53">
      <!-- $K$ -->
      <g transform="translate(284.759943 237.71875)scale(0.08 -0.08)">
       <use transform="translate(0 0.09375)" xlink:href="#DejaVuSans-Oblique-75"/>
      </g>
     </g>
    </g>
    <g id="xtick_54">
     <g id="line2d_54">
      <g>
       <use style="stroke:#000000;stroke-width:0.8;" x="287.399943" xlink:href="#m4c4782fc89" y="224.64"/>
      </g>
     </g>
     <g id="text_54">
      <!-- $K$ -->
      <g transform="translate(284.759943 237.71875)scale(0.08 -0.08)">
       <use transform="translate(0 0.09375)" xlink:href="#DejaVuSans-Oblique-75"/>
      </g>
     </g>
    </g>
    <g id="xtick_55">
     <g id="line2d_55">
      <g>
       <use style="stroke:#000000;stroke-width:0.8;" x="287.399943" xlink:href="#m4c4782fc89" y="224.64"/>
      </g>
     </g>
     <g id="text_55">
      <!-- $K$ -->
      <g transform="translate(284.759943 237.71875)scale(0.08 -0.08)">
       <use transform="translate(0 0.09375)" xlink:href="#DejaVuSans-Oblique-75"/>
      </g>
     </g>
    </g>
    <g id="xtick_56">
     <g id="line2d_56">
      <g>
       <use style="stroke:#000000;stroke-width:0.8;" x="310.227216" xlink:href="#m4c4782fc89" y="224.64"/>
      </g>
     </g>
     <g id="text_56">
      <!-- $L$ -->
      <g transform="translate(307.987216 237.71875)scale(0.08 -0.08)">
       <defs>
        <path d="M 16.796875 72.90625 
L 26.703125 72.90625 
L 14.203125 8.203125 
L 49.703125 8.203125 
L 48.09375 0 
L 2.6875 0 
z
" id="DejaVuSans-Oblique-76"/>
       </defs>
       <use transform="translate(0 0.09375)" xlink:href="#DejaVuSans-Oblique-76"/>
      </g>
     </g>
    </g>
    <g id="xtick_57">
     <g id="line2d_57">
      <g>
       <use style="stroke:#000000;stroke-width:0.8;" x="310.227216" xlink:href="#m4c4782fc89" y="224.64"/>
      </g>
     </g>
     <g id="text_57">
      <!-- $L$ -->
      <g transform="translate(307.987216 237.71875)scale(0.08 -0.08)">
       <use transform="translate(0 0.09375)" xlink:href="#DejaVuSans-Oblique-76"/>
      </g>
     </g>
    </g>
    <g id="xtick_58">
     <g id="line2d_58">
      <g>
       <use style="stroke:#000000;stroke-width:0.8;" x="310.227216" xlink:href="#m4c4782fc89" y="224.64"/>
      </g>
     </g>
     <g id="text_58">
      <!-- $L$ -->
      <g transform="translate(307.987216 237.71875)scale(0.08 -0.08)">
       <use transform="translate(0 0.09375)" xlink:href="#DejaVuSans-Oblique-76"/>
      </g>
     </g>
    </g>
    <g id="xtick_59">
     <g id="line2d_59">
      <g>
       <use style="stroke:#000000;stroke-width:0.8;" x="310.227216" xlink:href="#m4c4782fc89" y="224.64"/>
      </g>
     </g>
     <g id="text_59">
      <!-- $L$ -->
      <g transform="translate(307.987216 237.71875)scale(0.08 -0.08)">
       <use transform="translate(0 0.09375)" xlink:href="#DejaVuSans-Oblique-76"/>
      </g>
     </g>
    </g>
    <g id="xtick_60">
     <g id="line2d_60">
      <g>
       <use style="stroke:#000000;stroke-width:0.8;" x="310.227216" xlink:href="#m4c4782fc89" y="224.64"/>
      </g>
     </g>
     <g id="text_60">
      <!-- $L$ -->
      <g transform="translate(307.987216 237.71875)scale(0.08 -0.08)">
       <use transform="translate(0 0.09375)" xlink:href="#DejaVuSans-Oblique-76"/>
      </g>
     </g>
    </g>
    <g id="xtick_61">
     <g id="line2d_61">
      <g>
       <use style="stroke:#000000;stroke-width:0.8;" x="333.054489" xlink:href="#m4c4782fc89" y="224.64"/>
      </g>
     </g>
     <g id="text_61">
      <!-- $M$ -->
      <g transform="translate(329.574489 237.71875)scale(0.08 -0.08)">
       <defs>
        <path d="M 16.890625 72.90625 
L 31.6875 72.90625 
L 40.1875 23.78125 
L 68.40625 72.90625 
L 83.59375 72.90625 
L 69.390625 0 
L 59.8125 0 
L 72.21875 63.921875 
L 43.609375 14.015625 
L 33.984375 14.015625 
L 24.703125 64.109375 
L 12.3125 0 
L 2.6875 0 
z
" id="DejaVuSans-Oblique-77"/>
       </defs>
       <use transform="translate(0 0.09375)" xlink:href="#DejaVuSans-Oblique-77"/>
      </g>
     </g>
    </g>
    <g id="xtick_62">
     <g id="line2d_62">
      <g>
       <use style="stroke:#000000;stroke-width:0.8;" x="333.054489" xlink:href="#m4c4782fc89" y="224.64"/>
      </g>
     </g>
     <g id="text_62">
      <!-- $M$ -->
      <g transform="translate(329.574489 237.71875)scale(0.08 -0.08)">
       <use transform="translate(0 0.09375)" xlink:href="#DejaVuSans-Oblique-77"/>
      </g>
     </g>
    </g>
    <g id="xtick_63">
     <g id="line2d_63">
      <g>
       <use style="stroke:#000000;stroke-width:0.8;" x="333.054489" xlink:href="#m4c4782fc89" y="224.64"/>
      </g>
     </g>
     <g id="text_63">
      <!-- $M$ -->
      <g transform="translate(329.574489 237.71875)scale(0.08 -0.08)">
       <use transform="translate(0 0.09375)" xlink:href="#DejaVuSans-Oblique-77"/>
      </g>
     </g>
    </g>
    <g id="xtick_64">
     <g id="line2d_64">
      <g>
       <use style="stroke:#000000;stroke-width:0.8;" x="333.054489" xlink:href="#m4c4782fc89" y="224.64"/>
      </g>
     </g>
     <g id="text_64">
      <!-- $M$ -->
      <g transform="translate(329.574489 237.71875)scale(0.08 -0.08)">
       <use transform="translate(0 0.09375)" xlink:href="#DejaVuSans-Oblique-77"/>
      </g>
     </g>
    </g>
    <g id="xtick_65">
     <g id="line2d_65">
      <g>
       <use style="stroke:#000000;stroke-width:0.8;" x="333.054489" xlink:href="#m4c4782fc89" y="224.64"/>
      </g>
     </g>
     <g id="text_65">
      <!-- $M$ -->
      <g transform="translate(329.574489 237.71875)scale(0.08 -0.08)">
       <use transform="translate(0 0.09375)" xlink:href="#DejaVuSans-Oblique-77"/>
      </g>
     </g>
    </g>
    <g id="xtick_66">
     <g id="line2d_66">
      <g>
       <use style="stroke:#000000;stroke-width:0.8;" x="355.881761" xlink:href="#m4c4782fc89" y="224.64"/>
      </g>
     </g>
     <g id="text_66">
      <!-- $N$ -->
      <g transform="translate(352.881761 237.71875)scale(0.08 -0.08)">
       <defs>
        <path d="M 16.890625 72.90625 
L 30.171875 72.90625 
L 50.296875 10.40625 
L 62.5 72.90625 
L 72.125 72.90625 
L 57.90625 0 
L 44.578125 0 
L 24.515625 62.890625 
L 12.3125 0 
L 2.6875 0 
z
" id="DejaVuSans-Oblique-78"/>
       </defs>
       <use transform="translate(0 0.09375)" xlink:href="#DejaVuSans-Oblique-78"/>
      </g>
     </g>
    </g>
    <g id="xtick_67">
     <g id="line2d_67">
      <g>
       <use style="stroke:#000000;stroke-width:0.8;" x="355.881761" xlink:href="#m4c4782fc89" y="224.64"/>
      </g>
     </g>
     <g id="text_67">
      <!-- $N$ -->
      <g transform="translate(352.881761 237.71875)scale(0.08 -0.08)">
       <use transform="translate(0 0.09375)" xlink:href="#DejaVuSans-Oblique-78"/>
      </g>
     </g>
    </g>
    <g id="xtick_68">
     <g id="line2d_68">
      <g>
       <use style="stroke:#000000;stroke-width:0.8;" x="355.881761" xlink:href="#m4c4782fc89" y="224.64"/>
      </g>
     </g>
     <g id="text_68">
      <!-- $N$ -->
      <g transform="translate(352.881761 237.71875)scale(0.08 -0.08)">
       <use transform="translate(0 0.09375)" xlink:href="#DejaVuSans-Oblique-78"/>
      </g>
     </g>
    </g>
    <g id="xtick_69">
     <g id="line2d_69">
      <g>
       <use style="stroke:#000000;stroke-width:0.8;" x="355.881761" xlink:href="#m4c4782fc89" y="224.64"/>
      </g>
     </g>
     <g id="text_69">
      <!-- $N$ -->
      <g transform="translate(352.881761 237.71875)scale(0.08 -0.08)">
       <use transform="translate(0 0.09375)" xlink:href="#DejaVuSans-Oblique-78"/>
      </g>
     </g>
    </g>
    <g id="xtick_70">
     <g id="line2d_70">
      <g>
       <use style="stroke:#000000;stroke-width:0.8;" x="355.881761" xlink:href="#m4c4782fc89" y="224.64"/>
      </g>
     </g>
     <g id="text_70">
      <!-- $N$ -->
      <g transform="translate(352.881761 237.71875)scale(0.08 -0.08)">
       <use transform="translate(0 0.09375)" xlink:href="#DejaVuSans-Oblique-78"/>
      </g>
     </g>
    </g>
    <g id="xtick_71">
     <g id="line2d_71">
      <g>
       <use style="stroke:#000000;stroke-width:0.8;" x="378.709034" xlink:href="#m4c4782fc89" y="224.64"/>
      </g>
     </g>
     <g id="text_71">
      <!-- $O$ -->
      <g transform="translate(375.549034 237.71875)scale(0.08 -0.08)">
       <defs>
        <path d="M 45.609375 66.21875 
Q 37.5 66.21875 31.296875 62.28125 
Q 25.09375 58.34375 20.515625 50.296875 
Q 17.578125 45.171875 16.03125 39.40625 
Q 14.5 33.640625 14.5 27.78125 
Q 14.5 17.625 19.359375 12.109375 
Q 24.21875 6.59375 33.109375 6.59375 
Q 41.109375 6.59375 47.375 10.5625 
Q 53.65625 14.546875 58.109375 22.40625 
Q 61.078125 27.6875 62.640625 33.46875 
Q 64.203125 39.265625 64.203125 45.015625 
Q 64.203125 55.125 59.3125 60.671875 
Q 54.4375 66.21875 45.609375 66.21875 
z
M 32.8125 -1.421875 
Q 19.390625 -1.421875 11.6875 6.53125 
Q 4 14.5 4 28.328125 
Q 4 36.234375 7 44.484375 
Q 10.015625 52.734375 15.28125 59.1875 
Q 21.484375 66.75 29.09375 70.484375 
Q 36.71875 74.21875 45.90625 74.21875 
Q 59.28125 74.21875 66.984375 66.328125 
Q 74.703125 58.453125 74.703125 44.828125 
Q 74.703125 36.421875 71.765625 28.3125 
Q 68.84375 20.21875 63.375 13.625 
Q 57.125 6 49.578125 2.28125 
Q 42.046875 -1.421875 32.8125 -1.421875 
z
" id="DejaVuSans-Oblique-79"/>
       </defs>
       <use transform="translate(0 0.78125)" xlink:href="#DejaVuSans-Oblique-79"/>
      </g>
     </g>
    </g>
    <g id="xtick_72">
     <g id="line2d_72">
      <g>
       <use style="stroke:#000000;stroke-width:0.8;" x="378.709034" xlink:href="#m4c4782fc89" y="224.64"/>
      </g>
     </g>
     <g id="text_72">
      <!-- $O$ -->
      <g transform="translate(375.549034 237.71875)scale(0.08 -0.08)">
       <use transform="translate(0 0.78125)" xlink:href="#DejaVuSans-Oblique-79"/>
      </g>
     </g>
    </g>
    <g id="xtick_73">
     <g id="line2d_73">
      <g>
       <use style="stroke:#000000;stroke-width:0.8;" x="378.709034" xlink:href="#m4c4782fc89" y="224.64"/>
      </g>
     </g>
     <g id="text_73">
      <!-- $O$ -->
      <g transform="translate(375.549034 237.71875)scale(0.08 -0.08)">
       <use transform="translate(0 0.78125)" xlink:href="#DejaVuSans-Oblique-79"/>
      </g>
     </g>
    </g>
    <g id="xtick_74">
     <g id="line2d_74">
      <g>
       <use style="stroke:#000000;stroke-width:0.8;" x="378.709034" xlink:href="#m4c4782fc89" y="224.64"/>
      </g>
     </g>
     <g id="text_74">
      <!-- $O$ -->
      <g transform="translate(375.549034 237.71875)scale(0.08 -0.08)">
       <use transform="translate(0 0.78125)" xlink:href="#DejaVuSans-Oblique-79"/>
      </g>
     </g>
    </g>
    <g id="xtick_75">
     <g id="line2d_75">
      <g>
       <use style="stroke:#000000;stroke-width:0.8;" x="378.709034" xlink:href="#m4c4782fc89" y="224.64"/>
      </g>
     </g>
     <g id="text_75">
      <!-- $O$ -->
      <g transform="translate(375.549034 237.71875)scale(0.08 -0.08)">
       <use transform="translate(0 0.78125)" xlink:href="#DejaVuSans-Oblique-79"/>
      </g>
     </g>
    </g>
    <g id="text_76">
     <!-- patient -->
     <g transform="translate(201.125156 250.980938)scale(0.1 -0.1)">
      <defs>
       <path d="M 18.109375 8.203125 
L 18.109375 -20.796875 
L 9.078125 -20.796875 
L 9.078125 54.6875 
L 18.109375 54.6875 
L 18.109375 46.390625 
Q 20.953125 51.265625 25.265625 53.625 
Q 29.59375 56 35.59375 56 
Q 45.5625 56 51.78125 48.09375 
Q 58.015625 40.1875 58.015625 27.296875 
Q 58.015625 14.40625 51.78125 6.484375 
Q 45.5625 -1.421875 35.59375 -1.421875 
Q 29.59375 -1.421875 25.265625 0.953125 
Q 20.953125 3.328125 18.109375 8.203125 
z
M 48.6875 27.296875 
Q 48.6875 37.203125 44.609375 42.84375 
Q 40.53125 48.484375 33.40625 48.484375 
Q 26.265625 48.484375 22.1875 42.84375 
Q 18.109375 37.203125 18.109375 27.296875 
Q 18.109375 17.390625 22.1875 11.75 
Q 26.265625 6.109375 33.40625 6.109375 
Q 40.53125 6.109375 44.609375 11.75 
Q 48.6875 17.390625 48.6875 27.296875 
z
" id="DejaVuSans-112"/>
       <path d="M 34.28125 27.484375 
Q 23.390625 27.484375 19.1875 25 
Q 14.984375 22.515625 14.984375 16.5 
Q 14.984375 11.71875 18.140625 8.90625 
Q 21.296875 6.109375 26.703125 6.109375 
Q 34.1875 6.109375 38.703125 11.40625 
Q 43.21875 16.703125 43.21875 25.484375 
L 43.21875 27.484375 
z
M 52.203125 31.203125 
L 52.203125 0 
L 43.21875 0 
L 43.21875 8.296875 
Q 40.140625 3.328125 35.546875 0.953125 
Q 30.953125 -1.421875 24.3125 -1.421875 
Q 15.921875 -1.421875 10.953125 3.296875 
Q 6 8.015625 6 15.921875 
Q 6 25.140625 12.171875 29.828125 
Q 18.359375 34.515625 30.609375 34.515625 
L 43.21875 34.515625 
L 43.21875 35.40625 
Q 43.21875 41.609375 39.140625 45 
Q 35.0625 48.390625 27.6875 48.390625 
Q 23 48.390625 18.546875 47.265625 
Q 14.109375 46.140625 10.015625 43.890625 
L 10.015625 52.203125 
Q 14.9375 54.109375 19.578125 55.046875 
Q 24.21875 56 28.609375 56 
Q 40.484375 56 46.34375 49.84375 
Q 52.203125 43.703125 52.203125 31.203125 
z
" id="DejaVuSans-97"/>
       <path d="M 18.3125 70.21875 
L 18.3125 54.6875 
L 36.8125 54.6875 
L 36.8125 47.703125 
L 18.3125 47.703125 
L 18.3125 18.015625 
Q 18.3125 11.328125 20.140625 9.421875 
Q 21.96875 7.515625 27.59375 7.515625 
L 36.8125 7.515625 
L 36.8125 0 
L 27.59375 0 
Q 17.1875 0 13.234375 3.875 
Q 9.28125 7.765625 9.28125 18.015625 
L 9.28125 47.703125 
L 2.6875 47.703125 
L 2.6875 54.6875 
L 9.28125 54.6875 
L 9.28125 70.21875 
z
" id="DejaVuSans-116"/>
       <path d="M 9.421875 54.6875 
L 18.40625 54.6875 
L 18.40625 0 
L 9.421875 0 
z
M 9.421875 75.984375 
L 18.40625 75.984375 
L 18.40625 64.59375 
L 9.421875 64.59375 
z
" id="DejaVuSans-105"/>
       <path d="M 56.203125 29.59375 
L 56.203125 25.203125 
L 14.890625 25.203125 
Q 15.484375 15.921875 20.484375 11.0625 
Q 25.484375 6.203125 34.421875 6.203125 
Q 39.59375 6.203125 44.453125 7.46875 
Q 49.3125 8.734375 54.109375 11.28125 
L 54.109375 2.78125 
Q 49.265625 0.734375 44.1875 -0.34375 
Q 39.109375 -1.421875 33.890625 -1.421875 
Q 20.796875 -1.421875 13.15625 6.1875 
Q 5.515625 13.8125 5.515625 26.8125 
Q 5.515625 40.234375 12.765625 48.109375 
Q 20.015625 56 32.328125 56 
Q 43.359375 56 49.78125 48.890625 
Q 56.203125 41.796875 56.203125 29.59375 
z
M 47.21875 32.234375 
Q 47.125 39.59375 43.09375 43.984375 
Q 39.0625 48.390625 32.421875 48.390625 
Q 24.90625 48.390625 20.390625 44.140625 
Q 15.875 39.890625 15.1875 32.171875 
z
" id="DejaVuSans-101"/>
       <path d="M 54.890625 33.015625 
L 54.890625 0 
L 45.90625 0 
L 45.90625 32.71875 
Q 45.90625 40.484375 42.875 44.328125 
Q 39.84375 48.1875 33.796875 48.1875 
Q 26.515625 48.1875 22.3125 43.546875 
Q 18.109375 38.921875 18.109375 30.90625 
L 18.109375 0 
L 9.078125 0 
L 9.078125 54.6875 
L 18.109375 54.6875 
L 18.109375 46.1875 
Q 21.34375 51.125 25.703125 53.5625 
Q 30.078125 56 35.796875 56 
Q 45.21875 56 50.046875 50.171875 
Q 54.890625 44.34375 54.890625 33.015625 
z
" id="DejaVuSans-110"/>
      </defs>
      <use xlink:href="#DejaVuSans-112"/>
      <use x="63.476562" xlink:href="#DejaVuSans-97"/>
      <use x="124.755859" xlink:href="#DejaVuSans-116"/>
      <use x="163.964844" xlink:href="#DejaVuSans-105"/>
      <use x="191.748047" xlink:href="#DejaVuSans-101"/>
      <use x="253.271484" xlink:href="#DejaVuSans-110"/>
      <use x="316.650391" xlink:href="#DejaVuSans-116"/>
     </g>
    </g>
   </g>
   <g id="matplotlib.axis_2">
    <g id="ytick_1">
     <g id="line2d_76">
      <path clip-path="url(#p7110130362)" d="M 43.148125 213.768823 
L 394.688125 213.768823 
" style="fill:none;stroke:#b0b0b0;stroke-linecap:square;stroke-width:0.8;"/>
     </g>
     <g id="line2d_77">
      <defs>
       <path d="M 0 0 
L -3.5 0 
" id="m6f632028a4" style="stroke:#000000;stroke-width:0.8;"/>
      </defs>
      <g>
       <use style="stroke:#000000;stroke-width:0.8;" x="43.148125" xlink:href="#m6f632028a4" y="213.768823"/>
      </g>
     </g>
     <g id="text_77">
      <!-- 88 -->
      <g transform="translate(25.968125 216.808198)scale(0.08 -0.08)">
       <defs>
        <path d="M 31.78125 34.625 
Q 24.75 34.625 20.71875 30.859375 
Q 16.703125 27.09375 16.703125 20.515625 
Q 16.703125 13.921875 20.71875 10.15625 
Q 24.75 6.390625 31.78125 6.390625 
Q 38.8125 6.390625 42.859375 10.171875 
Q 46.921875 13.96875 46.921875 20.515625 
Q 46.921875 27.09375 42.890625 30.859375 
Q 38.875 34.625 31.78125 34.625 
z
M 21.921875 38.8125 
Q 15.578125 40.375 12.03125 44.71875 
Q 8.5 49.078125 8.5 55.328125 
Q 8.5 64.0625 14.71875 69.140625 
Q 20.953125 74.21875 31.78125 74.21875 
Q 42.671875 74.21875 48.875 69.140625 
Q 55.078125 64.0625 55.078125 55.328125 
Q 55.078125 49.078125 51.53125 44.71875 
Q 48 40.375 41.703125 38.8125 
Q 48.828125 37.15625 52.796875 32.3125 
Q 56.78125 27.484375 56.78125 20.515625 
Q 56.78125 9.90625 50.3125 4.234375 
Q 43.84375 -1.421875 31.78125 -1.421875 
Q 19.734375 -1.421875 13.25 4.234375 
Q 6.78125 9.90625 6.78125 20.515625 
Q 6.78125 27.484375 10.78125 32.3125 
Q 14.796875 37.15625 21.921875 38.8125 
z
M 18.3125 54.390625 
Q 18.3125 48.734375 21.84375 45.5625 
Q 25.390625 42.390625 31.78125 42.390625 
Q 38.140625 42.390625 41.71875 45.5625 
Q 45.3125 48.734375 45.3125 54.390625 
Q 45.3125 60.0625 41.71875 63.234375 
Q 38.140625 66.40625 31.78125 66.40625 
Q 25.390625 66.40625 21.84375 63.234375 
Q 18.3125 60.0625 18.3125 54.390625 
z
" id="DejaVuSans-56"/>
       </defs>
       <use xlink:href="#DejaVuSans-56"/>
       <use x="63.623047" xlink:href="#DejaVuSans-56"/>
      </g>
     </g>
    </g>
    <g id="ytick_2">
     <g id="line2d_78">
      <path clip-path="url(#p7110130362)" d="M 43.148125 180.8508 
L 394.688125 180.8508 
" style="fill:none;stroke:#b0b0b0;stroke-linecap:square;stroke-width:0.8;"/>
     </g>
     <g id="line2d_79">
      <g>
       <use style="stroke:#000000;stroke-width:0.8;" x="43.148125" xlink:href="#m6f632028a4" y="180.8508"/>
      </g>
     </g>
     <g id="text_78">
      <!-- 90 -->
      <g transform="translate(25.968125 183.890175)scale(0.08 -0.08)">
       <defs>
        <path d="M 10.984375 1.515625 
L 10.984375 10.5 
Q 14.703125 8.734375 18.5 7.8125 
Q 22.3125 6.890625 25.984375 6.890625 
Q 35.75 6.890625 40.890625 13.453125 
Q 46.046875 20.015625 46.78125 33.40625 
Q 43.953125 29.203125 39.59375 26.953125 
Q 35.25 24.703125 29.984375 24.703125 
Q 19.046875 24.703125 12.671875 31.3125 
Q 6.296875 37.9375 6.296875 49.421875 
Q 6.296875 60.640625 12.9375 67.421875 
Q 19.578125 74.21875 30.609375 74.21875 
Q 43.265625 74.21875 49.921875 64.515625 
Q 56.59375 54.828125 56.59375 36.375 
Q 56.59375 19.140625 48.40625 8.859375 
Q 40.234375 -1.421875 26.421875 -1.421875 
Q 22.703125 -1.421875 18.890625 -0.6875 
Q 15.09375 0.046875 10.984375 1.515625 
z
M 30.609375 32.421875 
Q 37.25 32.421875 41.125 36.953125 
Q 45.015625 41.5 45.015625 49.421875 
Q 45.015625 57.28125 41.125 61.84375 
Q 37.25 66.40625 30.609375 66.40625 
Q 23.96875 66.40625 20.09375 61.84375 
Q 16.21875 57.28125 16.21875 49.421875 
Q 16.21875 41.5 20.09375 36.953125 
Q 23.96875 32.421875 30.609375 32.421875 
z
" id="DejaVuSans-57"/>
        <path d="M 31.78125 66.40625 
Q 24.171875 66.40625 20.328125 58.90625 
Q 16.5 51.421875 16.5 36.375 
Q 16.5 21.390625 20.328125 13.890625 
Q 24.171875 6.390625 31.78125 6.390625 
Q 39.453125 6.390625 43.28125 13.890625 
Q 47.125 21.390625 47.125 36.375 
Q 47.125 51.421875 43.28125 58.90625 
Q 39.453125 66.40625 31.78125 66.40625 
z
M 31.78125 74.21875 
Q 44.046875 74.21875 50.515625 64.515625 
Q 56.984375 54.828125 56.984375 36.375 
Q 56.984375 17.96875 50.515625 8.265625 
Q 44.046875 -1.421875 31.78125 -1.421875 
Q 19.53125 -1.421875 13.0625 8.265625 
Q 6.59375 17.96875 6.59375 36.375 
Q 6.59375 54.828125 13.0625 64.515625 
Q 19.53125 74.21875 31.78125 74.21875 
z
" id="DejaVuSans-48"/>
       </defs>
       <use xlink:href="#DejaVuSans-57"/>
       <use x="63.623047" xlink:href="#DejaVuSans-48"/>
      </g>
     </g>
    </g>
    <g id="ytick_3">
     <g id="line2d_80">
      <path clip-path="url(#p7110130362)" d="M 43.148125 147.932777 
L 394.688125 147.932777 
" style="fill:none;stroke:#b0b0b0;stroke-linecap:square;stroke-width:0.8;"/>
     </g>
     <g id="line2d_81">
      <g>
       <use style="stroke:#000000;stroke-width:0.8;" x="43.148125" xlink:href="#m6f632028a4" y="147.932777"/>
      </g>
     </g>
     <g id="text_79">
      <!-- 92 -->
      <g transform="translate(25.968125 150.972152)scale(0.08 -0.08)">
       <defs>
        <path d="M 19.1875 8.296875 
L 53.609375 8.296875 
L 53.609375 0 
L 7.328125 0 
L 7.328125 8.296875 
Q 12.9375 14.109375 22.625 23.890625 
Q 32.328125 33.6875 34.8125 36.53125 
Q 39.546875 41.84375 41.421875 45.53125 
Q 43.3125 49.21875 43.3125 52.78125 
Q 43.3125 58.59375 39.234375 62.25 
Q 35.15625 65.921875 28.609375 65.921875 
Q 23.96875 65.921875 18.8125 64.3125 
Q 13.671875 62.703125 7.8125 59.421875 
L 7.8125 69.390625 
Q 13.765625 71.78125 18.9375 73 
Q 24.125 74.21875 28.421875 74.21875 
Q 39.75 74.21875 46.484375 68.546875 
Q 53.21875 62.890625 53.21875 53.421875 
Q 53.21875 48.921875 51.53125 44.890625 
Q 49.859375 40.875 45.40625 35.40625 
Q 44.1875 33.984375 37.640625 27.21875 
Q 31.109375 20.453125 19.1875 8.296875 
z
" id="DejaVuSans-50"/>
       </defs>
       <use xlink:href="#DejaVuSans-57"/>
       <use x="63.623047" xlink:href="#DejaVuSans-50"/>
      </g>
     </g>
    </g>
    <g id="ytick_4">
     <g id="line2d_82">
      <path clip-path="url(#p7110130362)" d="M 43.148125 115.014754 
L 394.688125 115.014754 
" style="fill:none;stroke:#b0b0b0;stroke-linecap:square;stroke-width:0.8;"/>
     </g>
     <g id="line2d_83">
      <g>
       <use style="stroke:#000000;stroke-width:0.8;" x="43.148125" xlink:href="#m6f632028a4" y="115.014754"/>
      </g>
     </g>
     <g id="text_80">
      <!-- 94 -->
      <g transform="translate(25.968125 118.054129)scale(0.08 -0.08)">
       <defs>
        <path d="M 37.796875 64.3125 
L 12.890625 25.390625 
L 37.796875 25.390625 
z
M 35.203125 72.90625 
L 47.609375 72.90625 
L 47.609375 25.390625 
L 58.015625 25.390625 
L 58.015625 17.1875 
L 47.609375 17.1875 
L 47.609375 0 
L 37.796875 0 
L 37.796875 17.1875 
L 4.890625 17.1875 
L 4.890625 26.703125 
z
" id="DejaVuSans-52"/>
       </defs>
       <use xlink:href="#DejaVuSans-57"/>
       <use x="63.623047" xlink:href="#DejaVuSans-52"/>
      </g>
     </g>
    </g>
    <g id="ytick_5">
     <g id="line2d_84">
      <path clip-path="url(#p7110130362)" d="M 43.148125 82.096732 
L 394.688125 82.096732 
" style="fill:none;stroke:#b0b0b0;stroke-linecap:square;stroke-width:0.8;"/>
     </g>
     <g id="line2d_85">
      <g>
       <use style="stroke:#000000;stroke-width:0.8;" x="43.148125" xlink:href="#m6f632028a4" y="82.096732"/>
      </g>
     </g>
     <g id="text_81">
      <!-- 96 -->
      <g transform="translate(25.968125 85.136107)scale(0.08 -0.08)">
       <defs>
        <path d="M 33.015625 40.375 
Q 26.375 40.375 22.484375 35.828125 
Q 18.609375 31.296875 18.609375 23.390625 
Q 18.609375 15.53125 22.484375 10.953125 
Q 26.375 6.390625 33.015625 6.390625 
Q 39.65625 6.390625 43.53125 10.953125 
Q 47.40625 15.53125 47.40625 23.390625 
Q 47.40625 31.296875 43.53125 35.828125 
Q 39.65625 40.375 33.015625 40.375 
z
M 52.59375 71.296875 
L 52.59375 62.3125 
Q 48.875 64.0625 45.09375 64.984375 
Q 41.3125 65.921875 37.59375 65.921875 
Q 27.828125 65.921875 22.671875 59.328125 
Q 17.53125 52.734375 16.796875 39.40625 
Q 19.671875 43.65625 24.015625 45.921875 
Q 28.375 48.1875 33.59375 48.1875 
Q 44.578125 48.1875 50.953125 41.515625 
Q 57.328125 34.859375 57.328125 23.390625 
Q 57.328125 12.15625 50.6875 5.359375 
Q 44.046875 -1.421875 33.015625 -1.421875 
Q 20.359375 -1.421875 13.671875 8.265625 
Q 6.984375 17.96875 6.984375 36.375 
Q 6.984375 53.65625 15.1875 63.9375 
Q 23.390625 74.21875 37.203125 74.21875 
Q 40.921875 74.21875 44.703125 73.484375 
Q 48.484375 72.75 52.59375 71.296875 
z
" id="DejaVuSans-54"/>
       </defs>
       <use xlink:href="#DejaVuSans-57"/>
       <use x="63.623047" xlink:href="#DejaVuSans-54"/>
      </g>
     </g>
    </g>
    <g id="ytick_6">
     <g id="line2d_86">
      <path clip-path="url(#p7110130362)" d="M 43.148125 49.178709 
L 394.688125 49.178709 
" style="fill:none;stroke:#b0b0b0;stroke-linecap:square;stroke-width:0.8;"/>
     </g>
     <g id="line2d_87">
      <g>
       <use style="stroke:#000000;stroke-width:0.8;" x="43.148125" xlink:href="#m6f632028a4" y="49.178709"/>
      </g>
     </g>
     <g id="text_82">
      <!-- 98 -->
      <g transform="translate(25.968125 52.218084)scale(0.08 -0.08)">
       <use xlink:href="#DejaVuSans-57"/>
       <use x="63.623047" xlink:href="#DejaVuSans-56"/>
      </g>
     </g>
    </g>
    <g id="ytick_7">
     <g id="line2d_88">
      <path clip-path="url(#p7110130362)" d="M 43.148125 16.260686 
L 394.688125 16.260686 
" style="fill:none;stroke:#b0b0b0;stroke-linecap:square;stroke-width:0.8;"/>
     </g>
     <g id="line2d_89">
      <g>
       <use style="stroke:#000000;stroke-width:0.8;" x="43.148125" xlink:href="#m6f632028a4" y="16.260686"/>
      </g>
     </g>
     <g id="text_83">
      <!-- 100 -->
      <g transform="translate(20.878125 19.300061)scale(0.08 -0.08)">
       <defs>
        <path d="M 12.40625 8.296875 
L 28.515625 8.296875 
L 28.515625 63.921875 
L 10.984375 60.40625 
L 10.984375 69.390625 
L 28.421875 72.90625 
L 38.28125 72.90625 
L 38.28125 8.296875 
L 54.390625 8.296875 
L 54.390625 0 
L 12.40625 0 
z
" id="DejaVuSans-49"/>
       </defs>
       <use xlink:href="#DejaVuSans-49"/>
       <use x="63.623047" xlink:href="#DejaVuSans-48"/>
       <use x="127.246094" xlink:href="#DejaVuSans-48"/>
      </g>
     </g>
    </g>
    <g id="text_84">
     <!-- PTV coverage (V100%) in % -->
     <g transform="translate(14.798438 185.905156)rotate(-90)scale(0.1 -0.1)">
      <defs>
       <path d="M 19.671875 64.796875 
L 19.671875 37.40625 
L 32.078125 37.40625 
Q 38.96875 37.40625 42.71875 40.96875 
Q 46.484375 44.53125 46.484375 51.125 
Q 46.484375 57.671875 42.71875 61.234375 
Q 38.96875 64.796875 32.078125 64.796875 
z
M 9.8125 72.90625 
L 32.078125 72.90625 
Q 44.34375 72.90625 50.609375 67.359375 
Q 56.890625 61.8125 56.890625 51.125 
Q 56.890625 40.328125 50.609375 34.8125 
Q 44.34375 29.296875 32.078125 29.296875 
L 19.671875 29.296875 
L 19.671875 0 
L 9.8125 0 
z
" id="DejaVuSans-80"/>
       <path d="M -0.296875 72.90625 
L 61.375 72.90625 
L 61.375 64.59375 
L 35.5 64.59375 
L 35.5 0 
L 25.59375 0 
L 25.59375 64.59375 
L -0.296875 64.59375 
z
" id="DejaVuSans-84"/>
       <path d="M 28.609375 0 
L 0.78125 72.90625 
L 11.078125 72.90625 
L 34.1875 11.53125 
L 57.328125 72.90625 
L 67.578125 72.90625 
L 39.796875 0 
z
" id="DejaVuSans-86"/>
       <path id="DejaVuSans-32"/>
       <path d="M 48.78125 52.59375 
L 48.78125 44.1875 
Q 44.96875 46.296875 41.140625 47.34375 
Q 37.3125 48.390625 33.40625 48.390625 
Q 24.65625 48.390625 19.8125 42.84375 
Q 14.984375 37.3125 14.984375 27.296875 
Q 14.984375 17.28125 19.8125 11.734375 
Q 24.65625 6.203125 33.40625 6.203125 
Q 37.3125 6.203125 41.140625 7.25 
Q 44.96875 8.296875 48.78125 10.40625 
L 48.78125 2.09375 
Q 45.015625 0.34375 40.984375 -0.53125 
Q 36.96875 -1.421875 32.421875 -1.421875 
Q 20.0625 -1.421875 12.78125 6.34375 
Q 5.515625 14.109375 5.515625 27.296875 
Q 5.515625 40.671875 12.859375 48.328125 
Q 20.21875 56 33.015625 56 
Q 37.15625 56 41.109375 55.140625 
Q 45.0625 54.296875 48.78125 52.59375 
z
" id="DejaVuSans-99"/>
       <path d="M 30.609375 48.390625 
Q 23.390625 48.390625 19.1875 42.75 
Q 14.984375 37.109375 14.984375 27.296875 
Q 14.984375 17.484375 19.15625 11.84375 
Q 23.34375 6.203125 30.609375 6.203125 
Q 37.796875 6.203125 41.984375 11.859375 
Q 46.1875 17.53125 46.1875 27.296875 
Q 46.1875 37.015625 41.984375 42.703125 
Q 37.796875 48.390625 30.609375 48.390625 
z
M 30.609375 56 
Q 42.328125 56 49.015625 48.375 
Q 55.71875 40.765625 55.71875 27.296875 
Q 55.71875 13.875 49.015625 6.21875 
Q 42.328125 -1.421875 30.609375 -1.421875 
Q 18.84375 -1.421875 12.171875 6.21875 
Q 5.515625 13.875 5.515625 27.296875 
Q 5.515625 40.765625 12.171875 48.375 
Q 18.84375 56 30.609375 56 
z
" id="DejaVuSans-111"/>
       <path d="M 2.984375 54.6875 
L 12.5 54.6875 
L 29.59375 8.796875 
L 46.6875 54.6875 
L 56.203125 54.6875 
L 35.6875 0 
L 23.484375 0 
z
" id="DejaVuSans-118"/>
       <path d="M 41.109375 46.296875 
Q 39.59375 47.171875 37.8125 47.578125 
Q 36.03125 48 33.890625 48 
Q 26.265625 48 22.1875 43.046875 
Q 18.109375 38.09375 18.109375 28.8125 
L 18.109375 0 
L 9.078125 0 
L 9.078125 54.6875 
L 18.109375 54.6875 
L 18.109375 46.1875 
Q 20.953125 51.171875 25.484375 53.578125 
Q 30.03125 56 36.53125 56 
Q 37.453125 56 38.578125 55.875 
Q 39.703125 55.765625 41.0625 55.515625 
z
" id="DejaVuSans-114"/>
       <path d="M 45.40625 27.984375 
Q 45.40625 37.75 41.375 43.109375 
Q 37.359375 48.484375 30.078125 48.484375 
Q 22.859375 48.484375 18.828125 43.109375 
Q 14.796875 37.75 14.796875 27.984375 
Q 14.796875 18.265625 18.828125 12.890625 
Q 22.859375 7.515625 30.078125 7.515625 
Q 37.359375 7.515625 41.375 12.890625 
Q 45.40625 18.265625 45.40625 27.984375 
z
M 54.390625 6.78125 
Q 54.390625 -7.171875 48.1875 -13.984375 
Q 42 -20.796875 29.203125 -20.796875 
Q 24.46875 -20.796875 20.265625 -20.09375 
Q 16.0625 -19.390625 12.109375 -17.921875 
L 12.109375 -9.1875 
Q 16.0625 -11.328125 19.921875 -12.34375 
Q 23.78125 -13.375 27.78125 -13.375 
Q 36.625 -13.375 41.015625 -8.765625 
Q 45.40625 -4.15625 45.40625 5.171875 
L 45.40625 9.625 
Q 42.625 4.78125 38.28125 2.390625 
Q 33.9375 0 27.875 0 
Q 17.828125 0 11.671875 7.65625 
Q 5.515625 15.328125 5.515625 27.984375 
Q 5.515625 40.671875 11.671875 48.328125 
Q 17.828125 56 27.875 56 
Q 33.9375 56 38.28125 53.609375 
Q 42.625 51.21875 45.40625 46.390625 
L 45.40625 54.6875 
L 54.390625 54.6875 
z
" id="DejaVuSans-103"/>
       <path d="M 31 75.875 
Q 24.46875 64.65625 21.28125 53.65625 
Q 18.109375 42.671875 18.109375 31.390625 
Q 18.109375 20.125 21.3125 9.0625 
Q 24.515625 -2 31 -13.1875 
L 23.1875 -13.1875 
Q 15.875 -1.703125 12.234375 9.375 
Q 8.59375 20.453125 8.59375 31.390625 
Q 8.59375 42.28125 12.203125 53.3125 
Q 15.828125 64.359375 23.1875 75.875 
z
" id="DejaVuSans-40"/>
       <path d="M 72.703125 32.078125 
Q 68.453125 32.078125 66.03125 28.46875 
Q 63.625 24.859375 63.625 18.40625 
Q 63.625 12.0625 66.03125 8.421875 
Q 68.453125 4.78125 72.703125 4.78125 
Q 76.859375 4.78125 79.265625 8.421875 
Q 81.6875 12.0625 81.6875 18.40625 
Q 81.6875 24.8125 79.265625 28.4375 
Q 76.859375 32.078125 72.703125 32.078125 
z
M 72.703125 38.28125 
Q 80.421875 38.28125 84.953125 32.90625 
Q 89.5 27.546875 89.5 18.40625 
Q 89.5 9.28125 84.9375 3.921875 
Q 80.375 -1.421875 72.703125 -1.421875 
Q 64.890625 -1.421875 60.34375 3.921875 
Q 55.8125 9.28125 55.8125 18.40625 
Q 55.8125 27.59375 60.375 32.9375 
Q 64.9375 38.28125 72.703125 38.28125 
z
M 22.3125 68.015625 
Q 18.109375 68.015625 15.6875 64.375 
Q 13.28125 60.75 13.28125 54.390625 
Q 13.28125 47.953125 15.671875 44.328125 
Q 18.0625 40.71875 22.3125 40.71875 
Q 26.5625 40.71875 28.96875 44.328125 
Q 31.390625 47.953125 31.390625 54.390625 
Q 31.390625 60.6875 28.953125 64.34375 
Q 26.515625 68.015625 22.3125 68.015625 
z
M 66.40625 74.21875 
L 74.21875 74.21875 
L 28.609375 -1.421875 
L 20.796875 -1.421875 
z
M 22.3125 74.21875 
Q 30.03125 74.21875 34.609375 68.875 
Q 39.203125 63.53125 39.203125 54.390625 
Q 39.203125 45.171875 34.640625 39.84375 
Q 30.078125 34.515625 22.3125 34.515625 
Q 14.546875 34.515625 10.03125 39.859375 
Q 5.515625 45.21875 5.515625 54.390625 
Q 5.515625 63.484375 10.046875 68.84375 
Q 14.59375 74.21875 22.3125 74.21875 
z
" id="DejaVuSans-37"/>
       <path d="M 8.015625 75.875 
L 15.828125 75.875 
Q 23.140625 64.359375 26.78125 53.3125 
Q 30.421875 42.28125 30.421875 31.390625 
Q 30.421875 20.453125 26.78125 9.375 
Q 23.140625 -1.703125 15.828125 -13.1875 
L 8.015625 -13.1875 
Q 14.5 -2 17.703125 9.0625 
Q 20.90625 20.125 20.90625 31.390625 
Q 20.90625 42.671875 17.703125 53.65625 
Q 14.5 64.65625 8.015625 75.875 
z
" id="DejaVuSans-41"/>
      </defs>
      <use xlink:href="#DejaVuSans-80"/>
      <use x="60.302734" xlink:href="#DejaVuSans-84"/>
      <use x="121.386719" xlink:href="#DejaVuSans-86"/>
      <use x="189.794922" xlink:href="#DejaVuSans-32"/>
      <use x="221.582031" xlink:href="#DejaVuSans-99"/>
      <use x="276.5625" xlink:href="#DejaVuSans-111"/>
      <use x="337.744141" xlink:href="#DejaVuSans-118"/>
      <use x="396.923828" xlink:href="#DejaVuSans-101"/>
      <use x="458.447266" xlink:href="#DejaVuSans-114"/>
      <use x="499.560547" xlink:href="#DejaVuSans-97"/>
      <use x="560.839844" xlink:href="#DejaVuSans-103"/>
      <use x="624.316406" xlink:href="#DejaVuSans-101"/>
      <use x="685.839844" xlink:href="#DejaVuSans-32"/>
      <use x="717.626953" xlink:href="#DejaVuSans-40"/>
      <use x="756.640625" xlink:href="#DejaVuSans-86"/>
      <use x="825.048828" xlink:href="#DejaVuSans-49"/>
      <use x="888.671875" xlink:href="#DejaVuSans-48"/>
      <use x="952.294922" xlink:href="#DejaVuSans-48"/>
      <use x="1015.917969" xlink:href="#DejaVuSans-37"/>
      <use x="1110.9375" xlink:href="#DejaVuSans-41"/>
      <use x="1149.951172" xlink:href="#DejaVuSans-32"/>
      <use x="1181.738281" xlink:href="#DejaVuSans-105"/>
      <use x="1209.521484" xlink:href="#DejaVuSans-110"/>
      <use x="1272.900391" xlink:href="#DejaVuSans-32"/>
      <use x="1304.6875" xlink:href="#DejaVuSans-37"/>
     </g>
    </g>
   </g>
   <g id="line2d_90">
    <path clip-path="url(#p7110130362)" d="M 59.127216 132.527143 
L 59.127216 31.370058 
" style="fill:none;stroke:#00afa5;stroke-linecap:square;stroke-opacity:0.5;"/>
   </g>
   <g id="line2d_91">
    <path clip-path="url(#p7110130362)" d="M 81.954489 77.916143 
L 81.954489 32.357599 
" style="fill:none;stroke:#00afa5;stroke-linecap:square;stroke-opacity:0.5;"/>
   </g>
   <g id="line2d_92">
    <path clip-path="url(#p7110130362)" d="M 104.781761 51.31838 
L 104.781761 38.875367 
" style="fill:none;stroke:#00afa5;stroke-linecap:square;stroke-opacity:0.5;"/>
   </g>
   <g id="line2d_93">
    <path clip-path="url(#p7110130362)" d="M 127.609034 214.756364 
L 127.609034 102.900922 
" style="fill:none;stroke:#00afa5;stroke-linecap:square;stroke-opacity:0.5;"/>
   </g>
   <g id="line2d_94">
    <path clip-path="url(#p7110130362)" d="M 150.436307 31.649861 
L 150.436307 29.757075 
" style="fill:none;stroke:#00afa5;stroke-linecap:square;stroke-opacity:0.5;"/>
   </g>
   <g id="line2d_95">
    <path clip-path="url(#p7110130362)" d="M 173.26358 39.105794 
L 173.26358 43.023038 
" style="fill:none;stroke:#ae0060;stroke-linecap:square;stroke-opacity:0.5;"/>
   </g>
   <g id="line2d_96">
    <path clip-path="url(#p7110130362)" d="M 196.090852 39.17163 
L 196.090852 21.889668 
" style="fill:none;stroke:#00afa5;stroke-linecap:square;stroke-opacity:0.5;"/>
   </g>
   <g id="line2d_97">
    <path clip-path="url(#p7110130362)" d="M 218.918125 181.34457 
L 218.918125 51.120872 
" style="fill:none;stroke:#00afa5;stroke-linecap:square;stroke-opacity:0.5;"/>
   </g>
   <g id="line2d_98">
    <path clip-path="url(#p7110130362)" d="M 241.745398 144.640975 
L 241.745398 110.307477 
" style="fill:none;stroke:#00afa5;stroke-linecap:square;stroke-opacity:0.5;"/>
   </g>
   <g id="line2d_99">
    <path clip-path="url(#p7110130362)" d="M 264.57267 25.642322 
L 264.57267 17.083636 
" style="fill:none;stroke:#00afa5;stroke-linecap:square;stroke-opacity:0.5;"/>
   </g>
   <g id="line2d_100">
    <path clip-path="url(#p7110130362)" d="M 287.399943 18.263199 
L 287.399943 26.245819 
" style="fill:none;stroke:#ae0060;stroke-linecap:square;stroke-opacity:0.5;"/>
   </g>
   <g id="line2d_101">
    <path clip-path="url(#p7110130362)" d="M 310.227216 112.24964 
L 310.227216 108.793248 
" style="fill:none;stroke:#00afa5;stroke-linecap:square;stroke-opacity:0.5;"/>
   </g>
   <g id="line2d_102">
    <path clip-path="url(#p7110130362)" d="M 333.054489 67.349457 
L 333.054489 61.819229 
" style="fill:none;stroke:#00afa5;stroke-linecap:square;stroke-opacity:0.5;"/>
   </g>
   <g id="line2d_103">
    <path clip-path="url(#p7110130362)" d="M 355.881761 179.237817 
L 355.881761 140.987074 
" style="fill:none;stroke:#00afa5;stroke-linecap:square;stroke-opacity:0.5;"/>
   </g>
   <g id="line2d_104">
    <path clip-path="url(#p7110130362)" d="M 378.709034 24.556028 
L 378.709034 24.556028 
" style="fill:none;stroke:#00afa5;stroke-linecap:square;stroke-opacity:0.5;"/>
   </g>
   <g id="patch_3">
    <path d="M 43.148125 224.64 
L 43.148125 7.2 
" style="fill:none;stroke:#000000;stroke-linecap:square;stroke-linejoin:miter;stroke-width:0.8;"/>
   </g>
   <g id="patch_4">
    <path d="M 394.688125 224.64 
L 394.688125 7.2 
" style="fill:none;stroke:#000000;stroke-linecap:square;stroke-linejoin:miter;stroke-width:0.8;"/>
   </g>
   <g id="patch_5">
    <path d="M 43.148125 224.64 
L 394.688125 224.64 
" style="fill:none;stroke:#000000;stroke-linecap:square;stroke-linejoin:miter;stroke-width:0.8;"/>
   </g>
   <g id="patch_6">
    <path d="M 43.148125 7.2 
L 394.688125 7.2 
" style="fill:none;stroke:#000000;stroke-linecap:square;stroke-linejoin:miter;stroke-width:0.8;"/>
   </g>
   <g id="PathCollection_1">
    <defs>
     <path d="M -2.738613 0 
L 2.738613 0 
M 0 2.738613 
L 0 -2.738613 
" id="m0bffd4db37" style="stroke:#005ea8;stroke-width:1.5;"/>
    </defs>
    <g clip-path="url(#p7110130362)">
     <use style="fill:#005ea8;stroke:#005ea8;stroke-width:1.5;" x="59.127216" xlink:href="#m0bffd4db37" y="132.527143"/>
     <use style="fill:#005ea8;stroke:#005ea8;stroke-width:1.5;" x="81.954489" xlink:href="#m0bffd4db37" y="77.916143"/>
     <use style="fill:#005ea8;stroke:#005ea8;stroke-width:1.5;" x="104.781761" xlink:href="#m0bffd4db37" y="51.31838"/>
     <use style="fill:#005ea8;stroke:#005ea8;stroke-width:1.5;" x="127.609034" xlink:href="#m0bffd4db37" y="214.756364"/>
     <use style="fill:#005ea8;stroke:#005ea8;stroke-width:1.5;" x="150.436307" xlink:href="#m0bffd4db37" y="31.649861"/>
     <use style="fill:#005ea8;stroke:#005ea8;stroke-width:1.5;" x="173.26358" xlink:href="#m0bffd4db37" y="39.105794"/>
     <use style="fill:#005ea8;stroke:#005ea8;stroke-width:1.5;" x="196.090852" xlink:href="#m0bffd4db37" y="39.17163"/>
     <use style="fill:#005ea8;stroke:#005ea8;stroke-width:1.5;" x="218.918125" xlink:href="#m0bffd4db37" y="181.34457"/>
     <use style="fill:#005ea8;stroke:#005ea8;stroke-width:1.5;" x="241.745398" xlink:href="#m0bffd4db37" y="144.640975"/>
     <use style="fill:#005ea8;stroke:#005ea8;stroke-width:1.5;" x="264.57267" xlink:href="#m0bffd4db37" y="25.642322"/>
     <use style="fill:#005ea8;stroke:#005ea8;stroke-width:1.5;" x="287.399943" xlink:href="#m0bffd4db37" y="18.263199"/>
     <use style="fill:#005ea8;stroke:#005ea8;stroke-width:1.5;" x="310.227216" xlink:href="#m0bffd4db37" y="112.24964"/>
     <use style="fill:#005ea8;stroke:#005ea8;stroke-width:1.5;" x="333.054489" xlink:href="#m0bffd4db37" y="67.349457"/>
     <use style="fill:#005ea8;stroke:#005ea8;stroke-width:1.5;" x="355.881761" xlink:href="#m0bffd4db37" y="179.237817"/>
     <use style="fill:#005ea8;stroke:#005ea8;stroke-width:1.5;" x="378.709034" xlink:href="#m0bffd4db37" y="24.556028"/>
    </g>
   </g>
   <g id="PathCollection_2">
    <defs>
     <path d="M -2.236068 2.236068 
L 2.236068 -2.236068 
M -2.236068 -2.236068 
L 2.236068 2.236068 
" id="m2a0e74f7f1" style="stroke:#f17900;stroke-width:1.5;"/>
    </defs>
    <g clip-path="url(#p7110130362)">
     <use style="fill:#f17900;stroke:#f17900;stroke-width:1.5;" x="59.127216" xlink:href="#m2a0e74f7f1" y="31.370058"/>
     <use style="fill:#f17900;stroke:#f17900;stroke-width:1.5;" x="81.954489" xlink:href="#m2a0e74f7f1" y="32.357599"/>
     <use style="fill:#f17900;stroke:#f17900;stroke-width:1.5;" x="104.781761" xlink:href="#m2a0e74f7f1" y="38.875367"/>
     <use style="fill:#f17900;stroke:#f17900;stroke-width:1.5;" x="127.609034" xlink:href="#m2a0e74f7f1" y="102.900922"/>
     <use style="fill:#f17900;stroke:#f17900;stroke-width:1.5;" x="150.436307" xlink:href="#m2a0e74f7f1" y="29.757075"/>
     <use style="fill:#f17900;stroke:#f17900;stroke-width:1.5;" x="173.26358" xlink:href="#m2a0e74f7f1" y="43.023038"/>
     <use style="fill:#f17900;stroke:#f17900;stroke-width:1.5;" x="196.090852" xlink:href="#m2a0e74f7f1" y="21.889668"/>
     <use style="fill:#f17900;stroke:#f17900;stroke-width:1.5;" x="218.918125" xlink:href="#m2a0e74f7f1" y="51.120872"/>
     <use style="fill:#f17900;stroke:#f17900;stroke-width:1.5;" x="241.745398" xlink:href="#m2a0e74f7f1" y="110.307477"/>
     <use style="fill:#f17900;stroke:#f17900;stroke-width:1.5;" x="264.57267" xlink:href="#m2a0e74f7f1" y="17.083636"/>
     <use style="fill:#f17900;stroke:#f17900;stroke-width:1.5;" x="287.399943" xlink:href="#m2a0e74f7f1" y="26.245819"/>
     <use style="fill:#f17900;stroke:#f17900;stroke-width:1.5;" x="310.227216" xlink:href="#m2a0e74f7f1" y="108.793248"/>
     <use style="fill:#f17900;stroke:#f17900;stroke-width:1.5;" x="333.054489" xlink:href="#m2a0e74f7f1" y="61.819229"/>
     <use style="fill:#f17900;stroke:#f17900;stroke-width:1.5;" x="355.881761" xlink:href="#m2a0e74f7f1" y="140.987074"/>
     <use style="fill:#f17900;stroke:#f17900;stroke-width:1.5;" x="378.709034" xlink:href="#m2a0e74f7f1" y="24.556028"/>
    </g>
   </g>
   <g id="legend_1">
    <g id="patch_7">
     <path d="M 269.050625 220.64 
L 389.088125 220.64 
Q 390.688125 220.64 390.688125 219.04 
L 390.688125 196.355 
Q 390.688125 194.755 389.088125 194.755 
L 269.050625 194.755 
Q 267.450625 194.755 267.450625 196.355 
L 267.450625 219.04 
Q 267.450625 220.64 269.050625 220.64 
z
" style="fill:#ffffff;opacity:0.8;stroke:#cccccc;stroke-linejoin:miter;"/>
    </g>
    <g id="PathCollection_3">
     <g>
      <use style="fill:#005ea8;stroke:#005ea8;stroke-width:1.5;" x="278.650625" xlink:href="#m0bffd4db37" y="201.93375"/>
     </g>
    </g>
    <g id="text_85">
     <!-- non-adaptive (average) -->
     <g transform="translate(293.050625 204.03375)scale(0.08 -0.08)">
      <defs>
       <path d="M 4.890625 31.390625 
L 31.203125 31.390625 
L 31.203125 23.390625 
L 4.890625 23.390625 
z
" id="DejaVuSans-45"/>
       <path d="M 45.40625 46.390625 
L 45.40625 75.984375 
L 54.390625 75.984375 
L 54.390625 0 
L 45.40625 0 
L 45.40625 8.203125 
Q 42.578125 3.328125 38.25 0.953125 
Q 33.9375 -1.421875 27.875 -1.421875 
Q 17.96875 -1.421875 11.734375 6.484375 
Q 5.515625 14.40625 5.515625 27.296875 
Q 5.515625 40.1875 11.734375 48.09375 
Q 17.96875 56 27.875 56 
Q 33.9375 56 38.25 53.625 
Q 42.578125 51.265625 45.40625 46.390625 
z
M 14.796875 27.296875 
Q 14.796875 17.390625 18.875 11.75 
Q 22.953125 6.109375 30.078125 6.109375 
Q 37.203125 6.109375 41.296875 11.75 
Q 45.40625 17.390625 45.40625 27.296875 
Q 45.40625 37.203125 41.296875 42.84375 
Q 37.203125 48.484375 30.078125 48.484375 
Q 22.953125 48.484375 18.875 42.84375 
Q 14.796875 37.203125 14.796875 27.296875 
z
" id="DejaVuSans-100"/>
      </defs>
      <use xlink:href="#DejaVuSans-110"/>
      <use x="63.378906" xlink:href="#DejaVuSans-111"/>
      <use x="124.560547" xlink:href="#DejaVuSans-110"/>
      <use x="187.939453" xlink:href="#DejaVuSans-45"/>
      <use x="224.023438" xlink:href="#DejaVuSans-97"/>
      <use x="285.302734" xlink:href="#DejaVuSans-100"/>
      <use x="348.779297" xlink:href="#DejaVuSans-97"/>
      <use x="410.058594" xlink:href="#DejaVuSans-112"/>
      <use x="473.535156" xlink:href="#DejaVuSans-116"/>
      <use x="512.744141" xlink:href="#DejaVuSans-105"/>
      <use x="540.527344" xlink:href="#DejaVuSans-118"/>
      <use x="599.707031" xlink:href="#DejaVuSans-101"/>
      <use x="661.230469" xlink:href="#DejaVuSans-32"/>
      <use x="693.017578" xlink:href="#DejaVuSans-40"/>
      <use x="732.03125" xlink:href="#DejaVuSans-97"/>
      <use x="793.310547" xlink:href="#DejaVuSans-118"/>
      <use x="852.490234" xlink:href="#DejaVuSans-101"/>
      <use x="914.013672" xlink:href="#DejaVuSans-114"/>
      <use x="955.126953" xlink:href="#DejaVuSans-97"/>
      <use x="1016.40625" xlink:href="#DejaVuSans-103"/>
      <use x="1079.882812" xlink:href="#DejaVuSans-101"/>
      <use x="1141.40625" xlink:href="#DejaVuSans-41"/>
     </g>
    </g>
    <g id="PathCollection_4">
     <g>
      <use style="fill:#f17900;stroke:#f17900;stroke-width:1.5;" x="278.650625" xlink:href="#m2a0e74f7f1" y="213.67625"/>
     </g>
    </g>
    <g id="text_86">
     <!-- adaptive (average) -->
     <g transform="translate(293.050625 215.77625)scale(0.08 -0.08)">
      <use xlink:href="#DejaVuSans-97"/>
      <use x="61.279297" xlink:href="#DejaVuSans-100"/>
      <use x="124.755859" xlink:href="#DejaVuSans-97"/>
      <use x="186.035156" xlink:href="#DejaVuSans-112"/>
      <use x="249.511719" xlink:href="#DejaVuSans-116"/>
      <use x="288.720703" xlink:href="#DejaVuSans-105"/>
      <use x="316.503906" xlink:href="#DejaVuSans-118"/>
      <use x="375.683594" xlink:href="#DejaVuSans-101"/>
      <use x="437.207031" xlink:href="#DejaVuSans-32"/>
      <use x="468.994141" xlink:href="#DejaVuSans-40"/>
      <use x="508.007812" xlink:href="#DejaVuSans-97"/>
      <use x="569.287109" xlink:href="#DejaVuSans-118"/>
      <use x="628.466797" xlink:href="#DejaVuSans-101"/>
      <use x="689.990234" xlink:href="#DejaVuSans-114"/>
      <use x="731.103516" xlink:href="#DejaVuSans-97"/>
      <use x="792.382812" xlink:href="#DejaVuSans-103"/>
      <use x="855.859375" xlink:href="#DejaVuSans-101"/>
      <use x="917.382812" xlink:href="#DejaVuSans-41"/>
     </g>
    </g>
   </g>
  </g>
 </g>
 <defs>
  <clipPath id="p7110130362">
   <rect height="217.44" width="351.54" x="43.148125" y="7.2"/>
  </clipPath>
 </defs>
</svg>
