<?xml version="1.0" encoding="utf-8" standalone="no"?>
<!DOCTYPE svg PUBLIC "-//W3C//DTD SVG 1.1//EN"
  "http://www.w3.org/Graphics/SVG/1.1/DTD/svg11.dtd">
<!-- Created with matplotlib (https://matplotlib.org/) -->
<svg height="461.99952pt" version="1.1" viewBox="0 0 461.99952 461.99952" width="461.99952pt" xmlns="http://www.w3.org/2000/svg" xmlns:xlink="http://www.w3.org/1999/xlink">
 <metadata>
  <rdf:RDF xmlns:cc="http://creativecommons.org/ns#" xmlns:dc="http://purl.org/dc/elements/1.1/" xmlns:rdf="http://www.w3.org/1999/02/22-rdf-syntax-ns#">
   <cc:Work>
    <dc:type rdf:resource="http://purl.org/dc/dcmitype/StillImage"/>
    <dc:date>2021-01-20T16:32:54.709614</dc:date>
    <dc:format>image/svg+xml</dc:format>
    <dc:creator>
     <cc:Agent>
      <dc:title>Matplotlib v3.3.0, https://matplotlib.org/</dc:title>
     </cc:Agent>
    </dc:creator>
   </cc:Work>
  </rdf:RDF>
 </metadata>
 <defs>
  <style type="text/css">*{stroke-linecap:butt;stroke-linejoin:round;}</style>
 </defs>
 <g id="figure_1">
  <g id="patch_1">
   <path d="M 0 461.99952 
L 461.99952 461.99952 
L 461.99952 0 
L 0 0 
z
" style="fill:none;"/>
  </g>
  <g id="axes_1">
   <g id="patch_2">
    <path d="M 39.671875 426.378895 
L 454.79952 426.378895 
L 454.79952 20.798437 
L 39.671875 20.798437 
z
" style="fill:#ffffff;"/>
   </g>
   <g id="matplotlib.axis_1">
    <g id="xtick_1">
     <g id="line2d_1">
      <path clip-path="url(#p34dc4b8090)" d="M 42.860566 426.378895 
L 42.860566 20.798437 
" style="fill:none;stroke:#b0b0b0;stroke-linecap:square;stroke-width:0.8;"/>
     </g>
     <g id="line2d_2">
      <defs>
       <path d="M 0 0 
L 0 3.5 
" id="m7159190ca3" style="stroke:#000000;stroke-width:0.8;"/>
      </defs>
      <g>
       <use style="stroke:#000000;stroke-width:0.8;" x="42.860566" xlink:href="#m7159190ca3" y="426.378895"/>
      </g>
     </g>
     <g id="text_1">
      <!-- −7.5 -->
      <g transform="translate(33.147441 439.457645)scale(0.08 -0.08)">
       <defs>
        <path d="M 10.59375 35.5 
L 73.1875 35.5 
L 73.1875 27.203125 
L 10.59375 27.203125 
z
" id="DejaVuSans-8722"/>
        <path d="M 8.203125 72.90625 
L 55.078125 72.90625 
L 55.078125 68.703125 
L 28.609375 0 
L 18.3125 0 
L 43.21875 64.59375 
L 8.203125 64.59375 
z
" id="DejaVuSans-55"/>
        <path d="M 10.6875 12.40625 
L 21 12.40625 
L 21 0 
L 10.6875 0 
z
" id="DejaVuSans-46"/>
        <path d="M 10.796875 72.90625 
L 49.515625 72.90625 
L 49.515625 64.59375 
L 19.828125 64.59375 
L 19.828125 46.734375 
Q 21.96875 47.46875 24.109375 47.828125 
Q 26.265625 48.1875 28.421875 48.1875 
Q 40.625 48.1875 47.75 41.5 
Q 54.890625 34.8125 54.890625 23.390625 
Q 54.890625 11.625 47.5625 5.09375 
Q 40.234375 -1.421875 26.90625 -1.421875 
Q 22.3125 -1.421875 17.546875 -0.640625 
Q 12.796875 0.140625 7.71875 1.703125 
L 7.71875 11.625 
Q 12.109375 9.234375 16.796875 8.0625 
Q 21.484375 6.890625 26.703125 6.890625 
Q 35.15625 6.890625 40.078125 11.328125 
Q 45.015625 15.765625 45.015625 23.390625 
Q 45.015625 31 40.078125 35.4375 
Q 35.15625 39.890625 26.703125 39.890625 
Q 22.75 39.890625 18.8125 39.015625 
Q 14.890625 38.140625 10.796875 36.28125 
z
" id="DejaVuSans-53"/>
       </defs>
       <use xlink:href="#DejaVuSans-8722"/>
       <use x="83.789062" xlink:href="#DejaVuSans-55"/>
       <use x="147.412109" xlink:href="#DejaVuSans-46"/>
       <use x="179.199219" xlink:href="#DejaVuSans-53"/>
      </g>
     </g>
    </g>
    <g id="xtick_2">
     <g id="line2d_3">
      <path clip-path="url(#p34dc4b8090)" d="M 92.683855 426.378895 
L 92.683855 20.798437 
" style="fill:none;stroke:#b0b0b0;stroke-linecap:square;stroke-width:0.8;"/>
     </g>
     <g id="line2d_4">
      <g>
       <use style="stroke:#000000;stroke-width:0.8;" x="92.683855" xlink:href="#m7159190ca3" y="426.378895"/>
      </g>
     </g>
     <g id="text_2">
      <!-- −5.0 -->
      <g transform="translate(82.97073 439.457645)scale(0.08 -0.08)">
       <defs>
        <path d="M 31.78125 66.40625 
Q 24.171875 66.40625 20.328125 58.90625 
Q 16.5 51.421875 16.5 36.375 
Q 16.5 21.390625 20.328125 13.890625 
Q 24.171875 6.390625 31.78125 6.390625 
Q 39.453125 6.390625 43.28125 13.890625 
Q 47.125 21.390625 47.125 36.375 
Q 47.125 51.421875 43.28125 58.90625 
Q 39.453125 66.40625 31.78125 66.40625 
z
M 31.78125 74.21875 
Q 44.046875 74.21875 50.515625 64.515625 
Q 56.984375 54.828125 56.984375 36.375 
Q 56.984375 17.96875 50.515625 8.265625 
Q 44.046875 -1.421875 31.78125 -1.421875 
Q 19.53125 -1.421875 13.0625 8.265625 
Q 6.59375 17.96875 6.59375 36.375 
Q 6.59375 54.828125 13.0625 64.515625 
Q 19.53125 74.21875 31.78125 74.21875 
z
" id="DejaVuSans-48"/>
       </defs>
       <use xlink:href="#DejaVuSans-8722"/>
       <use x="83.789062" xlink:href="#DejaVuSans-53"/>
       <use x="147.412109" xlink:href="#DejaVuSans-46"/>
       <use x="179.199219" xlink:href="#DejaVuSans-48"/>
      </g>
     </g>
    </g>
    <g id="xtick_3">
     <g id="line2d_5">
      <path clip-path="url(#p34dc4b8090)" d="M 142.507144 426.378895 
L 142.507144 20.798437 
" style="fill:none;stroke:#b0b0b0;stroke-linecap:square;stroke-width:0.8;"/>
     </g>
     <g id="line2d_6">
      <g>
       <use style="stroke:#000000;stroke-width:0.8;" x="142.507144" xlink:href="#m7159190ca3" y="426.378895"/>
      </g>
     </g>
     <g id="text_3">
      <!-- −2.5 -->
      <g transform="translate(132.794019 439.457645)scale(0.08 -0.08)">
       <defs>
        <path d="M 19.1875 8.296875 
L 53.609375 8.296875 
L 53.609375 0 
L 7.328125 0 
L 7.328125 8.296875 
Q 12.9375 14.109375 22.625 23.890625 
Q 32.328125 33.6875 34.8125 36.53125 
Q 39.546875 41.84375 41.421875 45.53125 
Q 43.3125 49.21875 43.3125 52.78125 
Q 43.3125 58.59375 39.234375 62.25 
Q 35.15625 65.921875 28.609375 65.921875 
Q 23.96875 65.921875 18.8125 64.3125 
Q 13.671875 62.703125 7.8125 59.421875 
L 7.8125 69.390625 
Q 13.765625 71.78125 18.9375 73 
Q 24.125 74.21875 28.421875 74.21875 
Q 39.75 74.21875 46.484375 68.546875 
Q 53.21875 62.890625 53.21875 53.421875 
Q 53.21875 48.921875 51.53125 44.890625 
Q 49.859375 40.875 45.40625 35.40625 
Q 44.1875 33.984375 37.640625 27.21875 
Q 31.109375 20.453125 19.1875 8.296875 
z
" id="DejaVuSans-50"/>
       </defs>
       <use xlink:href="#DejaVuSans-8722"/>
       <use x="83.789062" xlink:href="#DejaVuSans-50"/>
       <use x="147.412109" xlink:href="#DejaVuSans-46"/>
       <use x="179.199219" xlink:href="#DejaVuSans-53"/>
      </g>
     </g>
    </g>
    <g id="xtick_4">
     <g id="line2d_7">
      <path clip-path="url(#p34dc4b8090)" d="M 192.330433 426.378895 
L 192.330433 20.798437 
" style="fill:none;stroke:#b0b0b0;stroke-linecap:square;stroke-width:0.8;"/>
     </g>
     <g id="line2d_8">
      <g>
       <use style="stroke:#000000;stroke-width:0.8;" x="192.330433" xlink:href="#m7159190ca3" y="426.378895"/>
      </g>
     </g>
     <g id="text_4">
      <!-- 0.0 -->
      <g transform="translate(185.969183 439.457645)scale(0.08 -0.08)">
       <use xlink:href="#DejaVuSans-48"/>
       <use x="63.623047" xlink:href="#DejaVuSans-46"/>
       <use x="95.410156" xlink:href="#DejaVuSans-48"/>
      </g>
     </g>
    </g>
    <g id="xtick_5">
     <g id="line2d_9">
      <path clip-path="url(#p34dc4b8090)" d="M 242.153722 426.378895 
L 242.153722 20.798437 
" style="fill:none;stroke:#b0b0b0;stroke-linecap:square;stroke-width:0.8;"/>
     </g>
     <g id="line2d_10">
      <g>
       <use style="stroke:#000000;stroke-width:0.8;" x="242.153722" xlink:href="#m7159190ca3" y="426.378895"/>
      </g>
     </g>
     <g id="text_5">
      <!-- 2.5 -->
      <g transform="translate(235.792472 439.457645)scale(0.08 -0.08)">
       <use xlink:href="#DejaVuSans-50"/>
       <use x="63.623047" xlink:href="#DejaVuSans-46"/>
       <use x="95.410156" xlink:href="#DejaVuSans-53"/>
      </g>
     </g>
    </g>
    <g id="xtick_6">
     <g id="line2d_11">
      <path clip-path="url(#p34dc4b8090)" d="M 291.977011 426.378895 
L 291.977011 20.798437 
" style="fill:none;stroke:#b0b0b0;stroke-linecap:square;stroke-width:0.8;"/>
     </g>
     <g id="line2d_12">
      <g>
       <use style="stroke:#000000;stroke-width:0.8;" x="291.977011" xlink:href="#m7159190ca3" y="426.378895"/>
      </g>
     </g>
     <g id="text_6">
      <!-- 5.0 -->
      <g transform="translate(285.615761 439.457645)scale(0.08 -0.08)">
       <use xlink:href="#DejaVuSans-53"/>
       <use x="63.623047" xlink:href="#DejaVuSans-46"/>
       <use x="95.410156" xlink:href="#DejaVuSans-48"/>
      </g>
     </g>
    </g>
    <g id="xtick_7">
     <g id="line2d_13">
      <path clip-path="url(#p34dc4b8090)" d="M 341.8003 426.378895 
L 341.8003 20.798437 
" style="fill:none;stroke:#b0b0b0;stroke-linecap:square;stroke-width:0.8;"/>
     </g>
     <g id="line2d_14">
      <g>
       <use style="stroke:#000000;stroke-width:0.8;" x="341.8003" xlink:href="#m7159190ca3" y="426.378895"/>
      </g>
     </g>
     <g id="text_7">
      <!-- 7.5 -->
      <g transform="translate(335.43905 439.457645)scale(0.08 -0.08)">
       <use xlink:href="#DejaVuSans-55"/>
       <use x="63.623047" xlink:href="#DejaVuSans-46"/>
       <use x="95.410156" xlink:href="#DejaVuSans-53"/>
      </g>
     </g>
    </g>
    <g id="xtick_8">
     <g id="line2d_15">
      <path clip-path="url(#p34dc4b8090)" d="M 391.623589 426.378895 
L 391.623589 20.798437 
" style="fill:none;stroke:#b0b0b0;stroke-linecap:square;stroke-width:0.8;"/>
     </g>
     <g id="line2d_16">
      <g>
       <use style="stroke:#000000;stroke-width:0.8;" x="391.623589" xlink:href="#m7159190ca3" y="426.378895"/>
      </g>
     </g>
     <g id="text_8">
      <!-- 10.0 -->
      <g transform="translate(382.717339 439.457645)scale(0.08 -0.08)">
       <defs>
        <path d="M 12.40625 8.296875 
L 28.515625 8.296875 
L 28.515625 63.921875 
L 10.984375 60.40625 
L 10.984375 69.390625 
L 28.421875 72.90625 
L 38.28125 72.90625 
L 38.28125 8.296875 
L 54.390625 8.296875 
L 54.390625 0 
L 12.40625 0 
z
" id="DejaVuSans-49"/>
       </defs>
       <use xlink:href="#DejaVuSans-49"/>
       <use x="63.623047" xlink:href="#DejaVuSans-48"/>
       <use x="127.246094" xlink:href="#DejaVuSans-46"/>
       <use x="159.033203" xlink:href="#DejaVuSans-48"/>
      </g>
     </g>
    </g>
    <g id="xtick_9">
     <g id="line2d_17">
      <path clip-path="url(#p34dc4b8090)" d="M 441.446879 426.378895 
L 441.446879 20.798437 
" style="fill:none;stroke:#b0b0b0;stroke-linecap:square;stroke-width:0.8;"/>
     </g>
     <g id="line2d_18">
      <g>
       <use style="stroke:#000000;stroke-width:0.8;" x="441.446879" xlink:href="#m7159190ca3" y="426.378895"/>
      </g>
     </g>
     <g id="text_9">
      <!-- 12.5 -->
      <g transform="translate(432.540629 439.457645)scale(0.08 -0.08)">
       <use xlink:href="#DejaVuSans-49"/>
       <use x="63.623047" xlink:href="#DejaVuSans-50"/>
       <use x="127.246094" xlink:href="#DejaVuSans-46"/>
       <use x="159.033203" xlink:href="#DejaVuSans-53"/>
      </g>
     </g>
    </g>
    <g id="text_10">
     <!-- ΔV100% (PTV) [%] -->
     <g transform="translate(200.879447 452.719832)scale(0.1 -0.1)">
      <defs>
       <path d="M 34.1875 63.1875 
L 14.15625 8.203125 
L 54.25 8.203125 
z
M 0.78125 0 
L 28.609375 72.90625 
L 39.796875 72.90625 
L 67.578125 0 
z
" id="DejaVuSans-916"/>
       <path d="M 28.609375 0 
L 0.78125 72.90625 
L 11.078125 72.90625 
L 34.1875 11.53125 
L 57.328125 72.90625 
L 67.578125 72.90625 
L 39.796875 0 
z
" id="DejaVuSans-86"/>
       <path d="M 72.703125 32.078125 
Q 68.453125 32.078125 66.03125 28.46875 
Q 63.625 24.859375 63.625 18.40625 
Q 63.625 12.0625 66.03125 8.421875 
Q 68.453125 4.78125 72.703125 4.78125 
Q 76.859375 4.78125 79.265625 8.421875 
Q 81.6875 12.0625 81.6875 18.40625 
Q 81.6875 24.8125 79.265625 28.4375 
Q 76.859375 32.078125 72.703125 32.078125 
z
M 72.703125 38.28125 
Q 80.421875 38.28125 84.953125 32.90625 
Q 89.5 27.546875 89.5 18.40625 
Q 89.5 9.28125 84.9375 3.921875 
Q 80.375 -1.421875 72.703125 -1.421875 
Q 64.890625 -1.421875 60.34375 3.921875 
Q 55.8125 9.28125 55.8125 18.40625 
Q 55.8125 27.59375 60.375 32.9375 
Q 64.9375 38.28125 72.703125 38.28125 
z
M 22.3125 68.015625 
Q 18.109375 68.015625 15.6875 64.375 
Q 13.28125 60.75 13.28125 54.390625 
Q 13.28125 47.953125 15.671875 44.328125 
Q 18.0625 40.71875 22.3125 40.71875 
Q 26.5625 40.71875 28.96875 44.328125 
Q 31.390625 47.953125 31.390625 54.390625 
Q 31.390625 60.6875 28.953125 64.34375 
Q 26.515625 68.015625 22.3125 68.015625 
z
M 66.40625 74.21875 
L 74.21875 74.21875 
L 28.609375 -1.421875 
L 20.796875 -1.421875 
z
M 22.3125 74.21875 
Q 30.03125 74.21875 34.609375 68.875 
Q 39.203125 63.53125 39.203125 54.390625 
Q 39.203125 45.171875 34.640625 39.84375 
Q 30.078125 34.515625 22.3125 34.515625 
Q 14.546875 34.515625 10.03125 39.859375 
Q 5.515625 45.21875 5.515625 54.390625 
Q 5.515625 63.484375 10.046875 68.84375 
Q 14.59375 74.21875 22.3125 74.21875 
z
" id="DejaVuSans-37"/>
       <path id="DejaVuSans-32"/>
       <path d="M 31 75.875 
Q 24.46875 64.65625 21.28125 53.65625 
Q 18.109375 42.671875 18.109375 31.390625 
Q 18.109375 20.125 21.3125 9.0625 
Q 24.515625 -2 31 -13.1875 
L 23.1875 -13.1875 
Q 15.875 -1.703125 12.234375 9.375 
Q 8.59375 20.453125 8.59375 31.390625 
Q 8.59375 42.28125 12.203125 53.3125 
Q 15.828125 64.359375 23.1875 75.875 
z
" id="DejaVuSans-40"/>
       <path d="M 19.671875 64.796875 
L 19.671875 37.40625 
L 32.078125 37.40625 
Q 38.96875 37.40625 42.71875 40.96875 
Q 46.484375 44.53125 46.484375 51.125 
Q 46.484375 57.671875 42.71875 61.234375 
Q 38.96875 64.796875 32.078125 64.796875 
z
M 9.8125 72.90625 
L 32.078125 72.90625 
Q 44.34375 72.90625 50.609375 67.359375 
Q 56.890625 61.8125 56.890625 51.125 
Q 56.890625 40.328125 50.609375 34.8125 
Q 44.34375 29.296875 32.078125 29.296875 
L 19.671875 29.296875 
L 19.671875 0 
L 9.8125 0 
z
" id="DejaVuSans-80"/>
       <path d="M -0.296875 72.90625 
L 61.375 72.90625 
L 61.375 64.59375 
L 35.5 64.59375 
L 35.5 0 
L 25.59375 0 
L 25.59375 64.59375 
L -0.296875 64.59375 
z
" id="DejaVuSans-84"/>
       <path d="M 8.015625 75.875 
L 15.828125 75.875 
Q 23.140625 64.359375 26.78125 53.3125 
Q 30.421875 42.28125 30.421875 31.390625 
Q 30.421875 20.453125 26.78125 9.375 
Q 23.140625 -1.703125 15.828125 -13.1875 
L 8.015625 -13.1875 
Q 14.5 -2 17.703125 9.0625 
Q 20.90625 20.125 20.90625 31.390625 
Q 20.90625 42.671875 17.703125 53.65625 
Q 14.5 64.65625 8.015625 75.875 
z
" id="DejaVuSans-41"/>
       <path d="M 8.59375 75.984375 
L 29.296875 75.984375 
L 29.296875 69 
L 17.578125 69 
L 17.578125 -6.203125 
L 29.296875 -6.203125 
L 29.296875 -13.1875 
L 8.59375 -13.1875 
z
" id="DejaVuSans-91"/>
       <path d="M 30.421875 75.984375 
L 30.421875 -13.1875 
L 9.71875 -13.1875 
L 9.71875 -6.203125 
L 21.390625 -6.203125 
L 21.390625 69 
L 9.71875 69 
L 9.71875 75.984375 
z
" id="DejaVuSans-93"/>
      </defs>
      <use xlink:href="#DejaVuSans-916"/>
      <use x="68.408203" xlink:href="#DejaVuSans-86"/>
      <use x="136.816406" xlink:href="#DejaVuSans-49"/>
      <use x="200.439453" xlink:href="#DejaVuSans-48"/>
      <use x="264.0625" xlink:href="#DejaVuSans-48"/>
      <use x="327.685547" xlink:href="#DejaVuSans-37"/>
      <use x="422.705078" xlink:href="#DejaVuSans-32"/>
      <use x="454.492188" xlink:href="#DejaVuSans-40"/>
      <use x="493.505859" xlink:href="#DejaVuSans-80"/>
      <use x="553.808594" xlink:href="#DejaVuSans-84"/>
      <use x="614.892578" xlink:href="#DejaVuSans-86"/>
      <use x="683.300781" xlink:href="#DejaVuSans-41"/>
      <use x="722.314453" xlink:href="#DejaVuSans-32"/>
      <use x="754.101562" xlink:href="#DejaVuSans-91"/>
      <use x="793.115234" xlink:href="#DejaVuSans-37"/>
      <use x="888.134766" xlink:href="#DejaVuSans-93"/>
     </g>
    </g>
   </g>
   <g id="matplotlib.axis_2">
    <g id="ytick_1">
     <g id="line2d_19">
      <path clip-path="url(#p34dc4b8090)" d="M 39.671875 424.144151 
L 454.79952 424.144151 
" style="fill:none;stroke:#b0b0b0;stroke-linecap:square;stroke-width:0.8;"/>
     </g>
     <g id="line2d_20">
      <defs>
       <path d="M 0 0 
L -3.5 0 
" id="m4554d6462e" style="stroke:#000000;stroke-width:0.8;"/>
      </defs>
      <g>
       <use style="stroke:#000000;stroke-width:0.8;" x="39.671875" xlink:href="#m4554d6462e" y="424.144151"/>
      </g>
     </g>
     <g id="text_11">
      <!-- −3 -->
      <g transform="translate(20.878125 427.183526)scale(0.08 -0.08)">
       <defs>
        <path d="M 40.578125 39.3125 
Q 47.65625 37.796875 51.625 33 
Q 55.609375 28.21875 55.609375 21.1875 
Q 55.609375 10.40625 48.1875 4.484375 
Q 40.765625 -1.421875 27.09375 -1.421875 
Q 22.515625 -1.421875 17.65625 -0.515625 
Q 12.796875 0.390625 7.625 2.203125 
L 7.625 11.71875 
Q 11.71875 9.328125 16.59375 8.109375 
Q 21.484375 6.890625 26.8125 6.890625 
Q 36.078125 6.890625 40.9375 10.546875 
Q 45.796875 14.203125 45.796875 21.1875 
Q 45.796875 27.640625 41.28125 31.265625 
Q 36.765625 34.90625 28.71875 34.90625 
L 20.21875 34.90625 
L 20.21875 43.015625 
L 29.109375 43.015625 
Q 36.375 43.015625 40.234375 45.921875 
Q 44.09375 48.828125 44.09375 54.296875 
Q 44.09375 59.90625 40.109375 62.90625 
Q 36.140625 65.921875 28.71875 65.921875 
Q 24.65625 65.921875 20.015625 65.03125 
Q 15.375 64.15625 9.8125 62.3125 
L 9.8125 71.09375 
Q 15.4375 72.65625 20.34375 73.4375 
Q 25.25 74.21875 29.59375 74.21875 
Q 40.828125 74.21875 47.359375 69.109375 
Q 53.90625 64.015625 53.90625 55.328125 
Q 53.90625 49.265625 50.4375 45.09375 
Q 46.96875 40.921875 40.578125 39.3125 
z
" id="DejaVuSans-51"/>
       </defs>
       <use xlink:href="#DejaVuSans-8722"/>
       <use x="83.789062" xlink:href="#DejaVuSans-51"/>
      </g>
     </g>
    </g>
    <g id="ytick_2">
     <g id="line2d_21">
      <path clip-path="url(#p34dc4b8090)" d="M 39.671875 363.751123 
L 454.79952 363.751123 
" style="fill:none;stroke:#b0b0b0;stroke-linecap:square;stroke-width:0.8;"/>
     </g>
     <g id="line2d_22">
      <g>
       <use style="stroke:#000000;stroke-width:0.8;" x="39.671875" xlink:href="#m4554d6462e" y="363.751123"/>
      </g>
     </g>
     <g id="text_12">
      <!-- −2 -->
      <g transform="translate(20.878125 366.790498)scale(0.08 -0.08)">
       <use xlink:href="#DejaVuSans-8722"/>
       <use x="83.789062" xlink:href="#DejaVuSans-50"/>
      </g>
     </g>
    </g>
    <g id="ytick_3">
     <g id="line2d_23">
      <path clip-path="url(#p34dc4b8090)" d="M 39.671875 303.358095 
L 454.79952 303.358095 
" style="fill:none;stroke:#b0b0b0;stroke-linecap:square;stroke-width:0.8;"/>
     </g>
     <g id="line2d_24">
      <g>
       <use style="stroke:#000000;stroke-width:0.8;" x="39.671875" xlink:href="#m4554d6462e" y="303.358095"/>
      </g>
     </g>
     <g id="text_13">
      <!-- −1 -->
      <g transform="translate(20.878125 306.39747)scale(0.08 -0.08)">
       <use xlink:href="#DejaVuSans-8722"/>
       <use x="83.789062" xlink:href="#DejaVuSans-49"/>
      </g>
     </g>
    </g>
    <g id="ytick_4">
     <g id="line2d_25">
      <path clip-path="url(#p34dc4b8090)" d="M 39.671875 242.965066 
L 454.79952 242.965066 
" style="fill:none;stroke:#b0b0b0;stroke-linecap:square;stroke-width:0.8;"/>
     </g>
     <g id="line2d_26">
      <g>
       <use style="stroke:#000000;stroke-width:0.8;" x="39.671875" xlink:href="#m4554d6462e" y="242.965066"/>
      </g>
     </g>
     <g id="text_14">
      <!-- 0 -->
      <g transform="translate(27.581875 246.004441)scale(0.08 -0.08)">
       <use xlink:href="#DejaVuSans-48"/>
      </g>
     </g>
    </g>
    <g id="ytick_5">
     <g id="line2d_27">
      <path clip-path="url(#p34dc4b8090)" d="M 39.671875 182.572038 
L 454.79952 182.572038 
" style="fill:none;stroke:#b0b0b0;stroke-linecap:square;stroke-width:0.8;"/>
     </g>
     <g id="line2d_28">
      <g>
       <use style="stroke:#000000;stroke-width:0.8;" x="39.671875" xlink:href="#m4554d6462e" y="182.572038"/>
      </g>
     </g>
     <g id="text_15">
      <!-- 1 -->
      <g transform="translate(27.581875 185.611413)scale(0.08 -0.08)">
       <use xlink:href="#DejaVuSans-49"/>
      </g>
     </g>
    </g>
    <g id="ytick_6">
     <g id="line2d_29">
      <path clip-path="url(#p34dc4b8090)" d="M 39.671875 122.17901 
L 454.79952 122.17901 
" style="fill:none;stroke:#b0b0b0;stroke-linecap:square;stroke-width:0.8;"/>
     </g>
     <g id="line2d_30">
      <g>
       <use style="stroke:#000000;stroke-width:0.8;" x="39.671875" xlink:href="#m4554d6462e" y="122.17901"/>
      </g>
     </g>
     <g id="text_16">
      <!-- 2 -->
      <g transform="translate(27.581875 125.218385)scale(0.08 -0.08)">
       <use xlink:href="#DejaVuSans-50"/>
      </g>
     </g>
    </g>
    <g id="ytick_7">
     <g id="line2d_31">
      <path clip-path="url(#p34dc4b8090)" d="M 39.671875 61.785981 
L 454.79952 61.785981 
" style="fill:none;stroke:#b0b0b0;stroke-linecap:square;stroke-width:0.8;"/>
     </g>
     <g id="line2d_32">
      <g>
       <use style="stroke:#000000;stroke-width:0.8;" x="39.671875" xlink:href="#m4554d6462e" y="61.785981"/>
      </g>
     </g>
     <g id="text_17">
      <!-- 3 -->
      <g transform="translate(27.581875 64.825356)scale(0.08 -0.08)">
       <use xlink:href="#DejaVuSans-51"/>
      </g>
     </g>
    </g>
    <g id="text_18">
     <!-- ΔD1cc (max) [Gy] -->
     <g transform="translate(14.798438 268.24726)rotate(-90)scale(0.1 -0.1)">
      <defs>
       <path d="M 19.671875 64.796875 
L 19.671875 8.109375 
L 31.59375 8.109375 
Q 46.6875 8.109375 53.6875 14.9375 
Q 60.6875 21.78125 60.6875 36.53125 
Q 60.6875 51.171875 53.6875 57.984375 
Q 46.6875 64.796875 31.59375 64.796875 
z
M 9.8125 72.90625 
L 30.078125 72.90625 
Q 51.265625 72.90625 61.171875 64.09375 
Q 71.09375 55.28125 71.09375 36.53125 
Q 71.09375 17.671875 61.125 8.828125 
Q 51.171875 0 30.078125 0 
L 9.8125 0 
z
" id="DejaVuSans-68"/>
       <path d="M 48.78125 52.59375 
L 48.78125 44.1875 
Q 44.96875 46.296875 41.140625 47.34375 
Q 37.3125 48.390625 33.40625 48.390625 
Q 24.65625 48.390625 19.8125 42.84375 
Q 14.984375 37.3125 14.984375 27.296875 
Q 14.984375 17.28125 19.8125 11.734375 
Q 24.65625 6.203125 33.40625 6.203125 
Q 37.3125 6.203125 41.140625 7.25 
Q 44.96875 8.296875 48.78125 10.40625 
L 48.78125 2.09375 
Q 45.015625 0.34375 40.984375 -0.53125 
Q 36.96875 -1.421875 32.421875 -1.421875 
Q 20.0625 -1.421875 12.78125 6.34375 
Q 5.515625 14.109375 5.515625 27.296875 
Q 5.515625 40.671875 12.859375 48.328125 
Q 20.21875 56 33.015625 56 
Q 37.15625 56 41.109375 55.140625 
Q 45.0625 54.296875 48.78125 52.59375 
z
" id="DejaVuSans-99"/>
       <path d="M 52 44.1875 
Q 55.375 50.25 60.0625 53.125 
Q 64.75 56 71.09375 56 
Q 79.640625 56 84.28125 50.015625 
Q 88.921875 44.046875 88.921875 33.015625 
L 88.921875 0 
L 79.890625 0 
L 79.890625 32.71875 
Q 79.890625 40.578125 77.09375 44.375 
Q 74.3125 48.1875 68.609375 48.1875 
Q 61.625 48.1875 57.5625 43.546875 
Q 53.515625 38.921875 53.515625 30.90625 
L 53.515625 0 
L 44.484375 0 
L 44.484375 32.71875 
Q 44.484375 40.625 41.703125 44.40625 
Q 38.921875 48.1875 33.109375 48.1875 
Q 26.21875 48.1875 22.15625 43.53125 
Q 18.109375 38.875 18.109375 30.90625 
L 18.109375 0 
L 9.078125 0 
L 9.078125 54.6875 
L 18.109375 54.6875 
L 18.109375 46.1875 
Q 21.1875 51.21875 25.484375 53.609375 
Q 29.78125 56 35.6875 56 
Q 41.65625 56 45.828125 52.96875 
Q 50 49.953125 52 44.1875 
z
" id="DejaVuSans-109"/>
       <path d="M 34.28125 27.484375 
Q 23.390625 27.484375 19.1875 25 
Q 14.984375 22.515625 14.984375 16.5 
Q 14.984375 11.71875 18.140625 8.90625 
Q 21.296875 6.109375 26.703125 6.109375 
Q 34.1875 6.109375 38.703125 11.40625 
Q 43.21875 16.703125 43.21875 25.484375 
L 43.21875 27.484375 
z
M 52.203125 31.203125 
L 52.203125 0 
L 43.21875 0 
L 43.21875 8.296875 
Q 40.140625 3.328125 35.546875 0.953125 
Q 30.953125 -1.421875 24.3125 -1.421875 
Q 15.921875 -1.421875 10.953125 3.296875 
Q 6 8.015625 6 15.921875 
Q 6 25.140625 12.171875 29.828125 
Q 18.359375 34.515625 30.609375 34.515625 
L 43.21875 34.515625 
L 43.21875 35.40625 
Q 43.21875 41.609375 39.140625 45 
Q 35.0625 48.390625 27.6875 48.390625 
Q 23 48.390625 18.546875 47.265625 
Q 14.109375 46.140625 10.015625 43.890625 
L 10.015625 52.203125 
Q 14.9375 54.109375 19.578125 55.046875 
Q 24.21875 56 28.609375 56 
Q 40.484375 56 46.34375 49.84375 
Q 52.203125 43.703125 52.203125 31.203125 
z
" id="DejaVuSans-97"/>
       <path d="M 54.890625 54.6875 
L 35.109375 28.078125 
L 55.90625 0 
L 45.3125 0 
L 29.390625 21.484375 
L 13.484375 0 
L 2.875 0 
L 24.125 28.609375 
L 4.6875 54.6875 
L 15.28125 54.6875 
L 29.78125 35.203125 
L 44.28125 54.6875 
z
" id="DejaVuSans-120"/>
       <path d="M 59.515625 10.40625 
L 59.515625 29.984375 
L 43.40625 29.984375 
L 43.40625 38.09375 
L 69.28125 38.09375 
L 69.28125 6.78125 
Q 63.578125 2.734375 56.6875 0.65625 
Q 49.8125 -1.421875 42 -1.421875 
Q 24.90625 -1.421875 15.25 8.5625 
Q 5.609375 18.5625 5.609375 36.375 
Q 5.609375 54.25 15.25 64.234375 
Q 24.90625 74.21875 42 74.21875 
Q 49.125 74.21875 55.546875 72.453125 
Q 61.96875 70.703125 67.390625 67.28125 
L 67.390625 56.78125 
Q 61.921875 61.421875 55.765625 63.765625 
Q 49.609375 66.109375 42.828125 66.109375 
Q 29.4375 66.109375 22.71875 58.640625 
Q 16.015625 51.171875 16.015625 36.375 
Q 16.015625 21.625 22.71875 14.15625 
Q 29.4375 6.6875 42.828125 6.6875 
Q 48.046875 6.6875 52.140625 7.59375 
Q 56.25 8.5 59.515625 10.40625 
z
" id="DejaVuSans-71"/>
       <path d="M 32.171875 -5.078125 
Q 28.375 -14.84375 24.75 -17.8125 
Q 21.140625 -20.796875 15.09375 -20.796875 
L 7.90625 -20.796875 
L 7.90625 -13.28125 
L 13.1875 -13.28125 
Q 16.890625 -13.28125 18.9375 -11.515625 
Q 21 -9.765625 23.484375 -3.21875 
L 25.09375 0.875 
L 2.984375 54.6875 
L 12.5 54.6875 
L 29.59375 11.921875 
L 46.6875 54.6875 
L 56.203125 54.6875 
z
" id="DejaVuSans-121"/>
      </defs>
      <use xlink:href="#DejaVuSans-916"/>
      <use x="68.408203" xlink:href="#DejaVuSans-68"/>
      <use x="145.410156" xlink:href="#DejaVuSans-49"/>
      <use x="209.033203" xlink:href="#DejaVuSans-99"/>
      <use x="264.013672" xlink:href="#DejaVuSans-99"/>
      <use x="318.994141" xlink:href="#DejaVuSans-32"/>
      <use x="350.78125" xlink:href="#DejaVuSans-40"/>
      <use x="389.794922" xlink:href="#DejaVuSans-109"/>
      <use x="487.207031" xlink:href="#DejaVuSans-97"/>
      <use x="548.486328" xlink:href="#DejaVuSans-120"/>
      <use x="607.666016" xlink:href="#DejaVuSans-41"/>
      <use x="646.679688" xlink:href="#DejaVuSans-32"/>
      <use x="678.466797" xlink:href="#DejaVuSans-91"/>
      <use x="717.480469" xlink:href="#DejaVuSans-71"/>
      <use x="794.970703" xlink:href="#DejaVuSans-121"/>
      <use x="854.150391" xlink:href="#DejaVuSans-93"/>
     </g>
    </g>
   </g>
   <g id="line2d_33">
    <path clip-path="url(#p34dc4b8090)" d="M 192.330433 426.378895 
L 192.330433 20.798437 
" style="fill:none;stroke:#000000;stroke-linecap:square;stroke-width:1.5;"/>
   </g>
   <g id="line2d_34">
    <path clip-path="url(#p34dc4b8090)" d="M 39.671875 242.965066 
L 454.79952 242.965066 
" style="fill:none;stroke:#000000;stroke-linecap:square;stroke-width:1.5;"/>
   </g>
   <g id="patch_3">
    <path d="M 39.671875 426.378895 
L 39.671875 20.798437 
" style="fill:none;stroke:#000000;stroke-linecap:square;stroke-linejoin:miter;stroke-width:0.8;"/>
   </g>
   <g id="patch_4">
    <path d="M 454.79952 426.378895 
L 454.79952 20.798437 
" style="fill:none;stroke:#000000;stroke-linecap:square;stroke-linejoin:miter;stroke-width:0.8;"/>
   </g>
   <g id="patch_5">
    <path d="M 39.671875 426.378895 
L 454.79952 426.378895 
" style="fill:none;stroke:#000000;stroke-linecap:square;stroke-linejoin:miter;stroke-width:0.8;"/>
   </g>
   <g id="patch_6">
    <path d="M 39.671875 20.798437 
L 454.79952 20.798437 
" style="fill:none;stroke:#000000;stroke-linecap:square;stroke-linejoin:miter;stroke-width:0.8;"/>
   </g>
   <g id="PathCollection_1">
    <defs>
     <path d="M 0.654426 -2.738613 
L 1.494909 -2.738613 
L 2.511471 2.738613 
L 1.736724 2.738613 
L 1.508996 1.333504 
L -0.956108 1.333504 
L -1.729681 2.738613 
L -2.511471 2.738613 
z
M 0.922066 -2.008473 
L -0.614515 0.717228 
L 1.396305 0.717228 
z
" id="m64deeb4f73" style="stroke:#1f77b4;stroke-width:0.5;"/>
    </defs>
    <g clip-path="url(#p34dc4b8090)">
     <use style="fill:#1f77b4;stroke:#1f77b4;stroke-width:0.5;" x="398.59885" xlink:href="#m64deeb4f73" y="329.704355"/>
    </g>
   </g>
   <g id="PathCollection_2">
    <g clip-path="url(#p34dc4b8090)">
     <use style="fill:#1f77b4;stroke:#1f77b4;stroke-width:0.5;" x="383.651863" xlink:href="#m64deeb4f73" y="248.416838"/>
    </g>
   </g>
   <g id="PathCollection_3">
    <g clip-path="url(#p34dc4b8090)">
     <use style="fill:#1f77b4;stroke:#1f77b4;stroke-width:0.5;" x="210.665403" xlink:href="#m64deeb4f73" y="301.944861"/>
    </g>
   </g>
   <g id="PathCollection_4">
    <g clip-path="url(#p34dc4b8090)">
     <use style="fill:#1f77b4;stroke:#1f77b4;stroke-width:0.5;" x="314.297845" xlink:href="#m64deeb4f73" y="365.985867"/>
    </g>
   </g>
   <g id="PathCollection_5">
    <g clip-path="url(#p34dc4b8090)">
     <use style="fill:#1f77b4;stroke:#1f77b4;stroke-width:0.5;" x="266.866073" xlink:href="#m64deeb4f73" y="307.158822"/>
    </g>
   </g>
   <g id="PathCollection_6">
    <defs>
     <path d="M -1.078776 -2.738613 
L 0.814658 -2.738613 
Q 1.584709 -2.738613 1.966214 -2.452191 
Q 2.347718 -2.16577 2.347718 -1.590579 
Q 2.347718 -1.062342 2.019037 -0.67849 
Q 1.691531 -0.294639 1.159773 -0.214816 
Q 1.614056 -0.111517 1.841785 0.178427 
Q 2.069513 0.46837 2.069513 0.952 
Q 2.069513 1.777222 1.457933 2.258505 
Q 0.847526 2.738613 -0.212468 2.738613 
L -2.145814 2.738613 
z
M -0.899176 0.123255 
L -1.287723 2.12938 
L -0.095083 2.12938 
Q 0.576365 2.12938 0.939087 1.821829 
Q 1.30181 1.513104 1.30181 0.952 
Q 1.30181 0.518846 1.061168 0.321637 
Q 0.821701 0.123255 0.289943 0.123255 
z
M -0.4625 -2.12938 
L -0.785312 -0.478934 
L 0.31929 -0.478934 
Q 0.909741 -0.478934 1.241943 -0.734836 
Q 1.574145 -0.991911 1.574145 -1.447368 
Q 1.574145 -1.803047 1.349938 -1.966214 
Q 1.125731 -2.12938 0.635058 -2.12938 
z
" id="m2789118da1" style="stroke:#aec7e8;stroke-width:0.5;"/>
    </defs>
    <g clip-path="url(#p34dc4b8090)">
     <use style="fill:#aec7e8;stroke:#aec7e8;stroke-width:0.5;" x="205.683074" xlink:href="#m2789118da1" y="85.348621"/>
    </g>
   </g>
   <g id="PathCollection_7">
    <g clip-path="url(#p34dc4b8090)">
     <use style="fill:#aec7e8;stroke:#aec7e8;stroke-width:0.5;" x="184.159413" xlink:href="#m2789118da1" y="218.864011"/>
    </g>
   </g>
   <g id="PathCollection_8">
    <g clip-path="url(#p34dc4b8090)">
     <use style="fill:#aec7e8;stroke:#aec7e8;stroke-width:0.5;" x="198.508521" xlink:href="#m2789118da1" y="109.598823"/>
    </g>
   </g>
   <g id="PathCollection_9">
    <g clip-path="url(#p34dc4b8090)">
     <use style="fill:#aec7e8;stroke:#aec7e8;stroke-width:0.5;" x="291.379132" xlink:href="#m2789118da1" y="193.636925"/>
    </g>
   </g>
   <g id="PathCollection_10">
    <g clip-path="url(#p34dc4b8090)">
     <use style="fill:#aec7e8;stroke:#aec7e8;stroke-width:0.5;" x="357.743753" xlink:href="#m2789118da1" y="228.119157"/>
    </g>
   </g>
   <g id="PathCollection_11">
    <defs>
     <path d="M 2.515722 -2.23626 
L 2.3709 -1.483863 
Q 2.031473 -1.826685 1.651314 -1.993004 
Q 1.271155 -2.159323 0.828768 -2.159323 
Q 0.224588 -2.159323 -0.233639 -1.868547 
Q -0.690735 -1.578903 -1.023373 -0.984905 
Q -1.236081 -0.603615 -1.348092 -0.177068 
Q -1.458972 0.249479 -1.458972 0.680552 
Q -1.458972 1.401269 -1.085602 1.780296 
Q -0.712232 2.158192 -0.001697 2.158192 
Q 0.489341 2.158192 0.941911 2.000924 
Q 1.394481 1.843656 1.822159 1.52912 
L 1.656971 2.374294 
Q 1.236081 2.554191 0.80614 2.645836 
Q 0.376199 2.738613 -0.054874 2.738613 
Q -1.069762 2.738613 -1.641131 2.187609 
Q -2.211369 1.635474 -2.211369 0.652266 
Q -2.211369 0.023194 -1.994136 -0.584381 
Q -1.776902 -1.193087 -1.369589 -1.695439 
Q -0.938517 -2.229472 -0.38525 -2.484042 
Q 0.168017 -2.738613 0.903442 -2.738613 
Q 1.356012 -2.738613 1.761062 -2.613025 
Q 2.166112 -2.487437 2.515722 -2.23626 
z
" id="m711443ef3b" style="stroke:#ff7f0e;stroke-width:0.5;"/>
    </defs>
    <g clip-path="url(#p34dc4b8090)">
     <use style="fill:#ff7f0e;stroke:#ff7f0e;stroke-width:0.5;" x="208.473179" xlink:href="#m711443ef3b" y="143.928065"/>
    </g>
   </g>
   <g id="PathCollection_12">
    <g clip-path="url(#p34dc4b8090)">
     <use style="fill:#ff7f0e;stroke:#ff7f0e;stroke-width:0.5;" x="202.89297" xlink:href="#m711443ef3b" y="223.598439"/>
    </g>
   </g>
   <g id="PathCollection_13">
    <g clip-path="url(#p34dc4b8090)">
     <use style="fill:#ff7f0e;stroke:#ff7f0e;stroke-width:0.5;" x="197.113469" xlink:href="#m711443ef3b" y="185.872614"/>
    </g>
   </g>
   <g id="PathCollection_14">
    <g clip-path="url(#p34dc4b8090)">
     <use style="fill:#ff7f0e;stroke:#ff7f0e;stroke-width:0.5;" x="247.335344" xlink:href="#m711443ef3b" y="200.423327"/>
    </g>
   </g>
   <g id="PathCollection_15">
    <g clip-path="url(#p34dc4b8090)">
     <use style="fill:#ff7f0e;stroke:#ff7f0e;stroke-width:0.5;" x="181.170016" xlink:href="#m711443ef3b" y="228.790831"/>
    </g>
   </g>
   <g id="PathCollection_16">
    <defs>
     <path d="M -1.443846 -2.738613 
L 0.14908 -2.738613 
Q 1.418022 -2.738613 2.064818 -2.200985 
Q 2.712788 -1.663358 2.712788 -0.603363 
Q 2.712788 0.09743 2.466278 0.7454 
Q 2.220941 1.392197 1.787787 1.835915 
Q 1.352285 2.291373 0.680838 2.51558 
Q 0.009391 2.738613 -0.907393 2.738613 
L -2.510884 2.738613 
z
M -0.819354 -2.12938 
L -1.64575 2.12938 
L -0.677317 2.12938 
Q 0.566974 2.12938 1.248986 1.4145 
Q 1.930998 0.698446 1.930998 -0.603363 
Q 1.930998 -1.392197 1.490801 -1.760788 
Q 1.050604 -2.12938 0.111517 -2.12938 
z
" id="mbbc8d4abd6" style="stroke:#ffbb78;stroke-width:0.5;"/>
    </defs>
    <g clip-path="url(#p34dc4b8090)">
     <use style="fill:#ffbb78;stroke:#ffbb78;stroke-width:0.5;" x="301.343789" xlink:href="#mbbc8d4abd6" y="283.353964"/>
    </g>
   </g>
   <g id="PathCollection_17">
    <g clip-path="url(#p34dc4b8090)">
     <use style="fill:#ffbb78;stroke:#ffbb78;stroke-width:0.5;" x="354.156476" xlink:href="#mbbc8d4abd6" y="303.911635"/>
    </g>
   </g>
   <g id="PathCollection_18">
    <g clip-path="url(#p34dc4b8090)">
     <use style="fill:#ffbb78;stroke:#ffbb78;stroke-width:0.5;" x="282.012353" xlink:href="#mbbc8d4abd6" y="262.895404"/>
    </g>
   </g>
   <g id="PathCollection_19">
    <g clip-path="url(#p34dc4b8090)">
     <use style="fill:#ffbb78;stroke:#ffbb78;stroke-width:0.5;" x="351.366372" xlink:href="#mbbc8d4abd6" y="281.502488"/>
    </g>
   </g>
   <g id="PathCollection_20">
    <g clip-path="url(#p34dc4b8090)">
     <use style="fill:#ffbb78;stroke:#ffbb78;stroke-width:0.5;" x="349.97132" xlink:href="#mbbc8d4abd6" y="284.848639"/>
    </g>
   </g>
   <g id="PathCollection_21">
    <defs>
     <path d="M -1.096971 -2.738613 
L 2.365913 -2.738613 
L 2.245005 -2.11412 
L -0.480695 -2.11412 
L -0.795289 -0.493021 
L 1.820068 -0.493021 
L 1.699161 0.130298 
L -0.917371 0.130298 
L -1.298875 2.115294 
L 1.48904 2.115294 
L 1.368133 2.738613 
L -2.164009 2.738613 
z
" id="me33fca8e1d" style="stroke:#2ca02c;stroke-width:0.5;"/>
    </defs>
    <g clip-path="url(#p34dc4b8090)">
     <use style="fill:#2ca02c;stroke:#2ca02c;stroke-width:0.5;" x="202.095798" xlink:href="#me33fca8e1d" y="255.036443"/>
    </g>
   </g>
   <g id="PathCollection_22">
    <g clip-path="url(#p34dc4b8090)">
     <use style="fill:#2ca02c;stroke:#2ca02c;stroke-width:0.5;" x="196.515589" xlink:href="#me33fca8e1d" y="223.033669"/>
    </g>
   </g>
   <g id="PathCollection_23">
    <g clip-path="url(#p34dc4b8090)">
     <use style="fill:#2ca02c;stroke:#2ca02c;stroke-width:0.5;" x="186.750225" xlink:href="#me33fca8e1d" y="269.67378"/>
    </g>
   </g>
   <g id="PathCollection_24">
    <g clip-path="url(#p34dc4b8090)">
     <use style="fill:#2ca02c;stroke:#2ca02c;stroke-width:0.5;" x="193.127606" xlink:href="#me33fca8e1d" y="206.140383"/>
    </g>
   </g>
   <g id="PathCollection_25">
    <defs>
     <path d="M -0.935566 -2.738613 
L 2.204507 -2.738613 
L 2.0836 -2.11412 
L -0.31929 -2.11412 
L -0.633884 -0.500064 
L 1.537755 -0.500064 
L 1.415674 0.123255 
L -0.755965 0.123255 
L -1.26542 2.738613 
L -2.002603 2.738613 
z
" id="mad416e2d2c" style="stroke:#98df8a;stroke-width:0.5;"/>
    </defs>
    <g clip-path="url(#p34dc4b8090)">
     <use style="fill:#98df8a;stroke:#98df8a;stroke-width:0.5;" x="199.504987" xlink:href="#mad416e2d2c" y="244.953385"/>
    </g>
   </g>
   <g id="PathCollection_26">
    <g clip-path="url(#p34dc4b8090)">
     <use style="fill:#98df8a;stroke:#98df8a;stroke-width:0.5;" x="182.963655" xlink:href="#mad416e2d2c" y="248.920479"/>
    </g>
   </g>
   <g id="PathCollection_27">
    <g clip-path="url(#p34dc4b8090)">
     <use style="fill:#98df8a;stroke:#98df8a;stroke-width:0.5;" x="172.60041" xlink:href="#mad416e2d2c" y="255.610504"/>
    </g>
   </g>
   <g id="PathCollection_28">
    <g clip-path="url(#p34dc4b8090)">
     <use style="fill:#98df8a;stroke:#98df8a;stroke-width:0.5;" x="196.914175" xlink:href="#mad416e2d2c" y="236.177305"/>
    </g>
   </g>
   <g id="PathCollection_29">
    <g clip-path="url(#p34dc4b8090)">
     <use style="fill:#98df8a;stroke:#98df8a;stroke-width:0.5;" x="185.953052" xlink:href="#mad416e2d2c" y="241.456165"/>
    </g>
   </g>
   <g id="PathCollection_30">
    <defs>
     <path d="M 1.327727 1.84705 
L 1.603794 0.46445 
L 0.429376 0.46445 
L 0.539124 -0.12276 
L 2.412763 -0.12276 
L 1.956799 2.201186 
Q 1.486126 2.459151 0.930597 2.599448 
Q 0.376199 2.738613 -0.186119 2.738613 
Q -1.17951 2.738613 -1.739565 2.187609 
Q -2.29962 1.635474 -2.29962 0.652266 
Q -2.29962 -0.164622 -1.959061 -0.90118 
Q -1.617371 -1.638868 -1.016585 -2.131038 
Q -0.638689 -2.437654 -0.189514 -2.588133 
Q 0.259662 -2.738613 0.807271 -2.738613 
Q 1.302835 -2.738613 1.756536 -2.613025 
Q 2.211369 -2.487437 2.62547 -2.23626 
L 2.480648 -1.475943 
Q 2.161586 -1.808582 1.733908 -1.983953 
Q 1.306229 -2.159323 0.82198 -2.159323 
Q 0.259662 -2.159323 -0.168017 -1.944353 
Q -0.595695 -1.730514 -0.931728 -1.28247 
Q -1.217978 -0.900048 -1.383166 -0.381856 
Q -1.547223 0.136337 -1.547223 0.673763 
Q -1.547223 1.412583 -1.169327 1.785953 
Q -0.7903 2.158192 -0.041297 2.158192 
Q 0.334336 2.158192 0.683946 2.078992 
Q 1.033556 1.998661 1.327727 1.84705 
z
" id="m7135c3a3fc" style="stroke:#d62728;stroke-width:0.5;"/>
    </defs>
    <g clip-path="url(#p34dc4b8090)">
     <use style="fill:#d62728;stroke:#d62728;stroke-width:0.5;" x="206.878833" xlink:href="#m7135c3a3fc" y="247.346717"/>
    </g>
   </g>
   <g id="PathCollection_31">
    <g clip-path="url(#p34dc4b8090)">
     <use style="fill:#d62728;stroke:#d62728;stroke-width:0.5;" x="189.141742" xlink:href="#m7135c3a3fc" y="270.592113"/>
    </g>
   </g>
   <g id="PathCollection_32">
    <g clip-path="url(#p34dc4b8090)">
     <use style="fill:#d62728;stroke:#d62728;stroke-width:0.5;" x="230.993305" xlink:href="#m7135c3a3fc" y="258.270903"/>
    </g>
   </g>
   <g id="PathCollection_33">
    <g clip-path="url(#p34dc4b8090)">
     <use style="fill:#d62728;stroke:#d62728;stroke-width:0.5;" x="221.227941" xlink:href="#m7135c3a3fc" y="266.022863"/>
    </g>
   </g>
   <g id="PathCollection_34">
    <g clip-path="url(#p34dc4b8090)">
     <use style="fill:#d62728;stroke:#d62728;stroke-width:0.5;" x="218.03925" xlink:href="#m7135c3a3fc" y="257.398511"/>
    </g>
   </g>
   <g id="PathCollection_35">
    <defs>
     <path d="M -1.454998 -2.738613 
L -0.709598 -2.738613 
L -1.146273 -0.493021 
L 1.541864 -0.493021 
L 1.978539 -2.738613 
L 2.72394 -2.738613 
L 1.655728 2.738613 
L 0.911501 2.738613 
L 1.420956 0.130298 
L -1.267181 0.130298 
L -1.777809 2.738613 
L -2.522036 2.738613 
z
" id="ma9fc2d4dc9" style="stroke:#ff9896;stroke-width:0.5;"/>
    </defs>
    <g clip-path="url(#p34dc4b8090)">
     <use style="fill:#ff9896;stroke:#ff9896;stroke-width:0.5;" x="366.313359" xlink:href="#ma9fc2d4dc9" y="119.579654"/>
    </g>
   </g>
   <g id="PathCollection_36">
    <g clip-path="url(#p34dc4b8090)">
     <use style="fill:#ff9896;stroke:#ff9896;stroke-width:0.5;" x="360.533857" xlink:href="#ma9fc2d4dc9" y="263.217058"/>
    </g>
   </g>
   <g id="PathCollection_37">
    <g clip-path="url(#p34dc4b8090)">
     <use style="fill:#ff9896;stroke:#ff9896;stroke-width:0.5;" x="434.870204" xlink:href="#ma9fc2d4dc9" y="269.993792"/>
    </g>
   </g>
   <g id="PathCollection_38">
    <g clip-path="url(#p34dc4b8090)">
     <use style="fill:#ff9896;stroke:#ff9896;stroke-width:0.5;" x="396.008039" xlink:href="#ma9fc2d4dc9" y="287.033695"/>
    </g>
   </g>
   <g id="PathCollection_39">
    <g clip-path="url(#p34dc4b8090)">
     <use style="fill:#ff9896;stroke:#ff9896;stroke-width:0.5;" x="192.330433" xlink:href="#ma9fc2d4dc9" y="242.965066"/>
    </g>
   </g>
   <g id="PathCollection_40">
    <defs>
     <path d="M 0.261771 -2.738613 
L 1.007171 -2.738613 
L -0.061041 2.738613 
L -0.805267 2.738613 
z
" id="m16e143ec7a" style="stroke:#9467bd;stroke-width:0.5;"/>
    </defs>
    <g clip-path="url(#p34dc4b8090)">
     <use style="fill:#9467bd;stroke:#9467bd;stroke-width:0.5;" x="227.605322" xlink:href="#m16e143ec7a" y="250.603896"/>
    </g>
   </g>
   <g id="PathCollection_41">
    <g clip-path="url(#p34dc4b8090)">
     <use style="fill:#9467bd;stroke:#9467bd;stroke-width:0.5;" x="167.418788" xlink:href="#m16e143ec7a" y="246.625043"/>
    </g>
   </g>
   <g id="PathCollection_42">
    <g clip-path="url(#p34dc4b8090)">
     <use style="fill:#9467bd;stroke:#9467bd;stroke-width:0.5;" x="260.488692" xlink:href="#m16e143ec7a" y="248.365817"/>
    </g>
   </g>
   <g id="PathCollection_43">
    <g clip-path="url(#p34dc4b8090)">
     <use style="fill:#9467bd;stroke:#9467bd;stroke-width:0.5;" x="251.121914" xlink:href="#m16e143ec7a" y="248.295904"/>
    </g>
   </g>
   <g id="PathCollection_44">
    <g clip-path="url(#p34dc4b8090)">
     <use style="fill:#9467bd;stroke:#9467bd;stroke-width:0.5;" x="262.88021" xlink:href="#m16e143ec7a" y="252.287257"/>
    </g>
   </g>
   <g id="PathCollection_45">
    <defs>
     <path d="M 0.683847 -2.738613 
L 1.267765 -2.738613 
L 0.487673 1.259476 
Q 0.335707 2.039569 -0.026249 2.38863 
Q -0.387283 2.738613 -1.037514 2.738613 
L -1.267765 2.738613 
L -1.172902 2.249558 
L -0.991463 2.249558 
Q -0.602799 2.249558 -0.401098 2.027596 
Q -0.200319 1.806554 -0.093482 1.259476 
z
" id="mcdef86014b" style="stroke:#c5b0d5;stroke-width:0.5;"/>
    </defs>
    <g clip-path="url(#p34dc4b8090)">
     <use style="fill:#c5b0d5;stroke:#c5b0d5;stroke-width:0.5;" x="195.519123" xlink:href="#mcdef86014b" y="238.224207"/>
    </g>
   </g>
   <g id="PathCollection_46">
    <g clip-path="url(#p34dc4b8090)">
     <use style="fill:#c5b0d5;stroke:#c5b0d5;stroke-width:0.5;" x="192.330433" xlink:href="#mcdef86014b" y="253.73335"/>
    </g>
   </g>
   <g id="PathCollection_47">
    <g clip-path="url(#p34dc4b8090)">
     <use style="fill:#c5b0d5;stroke:#c5b0d5;stroke-width:0.5;" x="192.330433" xlink:href="#mcdef86014b" y="256.133094"/>
    </g>
   </g>
   <g id="PathCollection_48">
    <g clip-path="url(#p34dc4b8090)">
     <use style="fill:#c5b0d5;stroke:#c5b0d5;stroke-width:0.5;" x="228.801081" xlink:href="#mcdef86014b" y="246.529713"/>
    </g>
   </g>
   <g id="PathCollection_49">
    <g clip-path="url(#p34dc4b8090)">
     <use style="fill:#c5b0d5;stroke:#c5b0d5;stroke-width:0.5;" x="204.487315" xlink:href="#mcdef86014b" y="234.692067"/>
    </g>
   </g>
   <g id="PathCollection_50">
    <defs>
     <path d="M -1.443846 -2.738613 
L -0.698446 -2.738613 
L -1.150382 -0.430806 
L 1.725573 -2.738613 
L 2.712788 -2.738613 
L -0.541149 -0.123255 
L 1.839437 2.738613 
L 0.936739 2.738613 
L -1.248986 0.071605 
L -1.766658 2.738613 
L -2.510884 2.738613 
z
" id="m84687b9125" style="stroke:#8c564b;stroke-width:0.5;"/>
    </defs>
    <g clip-path="url(#p34dc4b8090)">
     <use style="fill:#8c564b;stroke:#8c564b;stroke-width:0.5;" x="186.152345" xlink:href="#m84687b9125" y="236.93372"/>
    </g>
   </g>
   <g id="PathCollection_51">
    <g clip-path="url(#p34dc4b8090)">
     <use style="fill:#8c564b;stroke:#8c564b;stroke-width:0.5;" x="188.34457" xlink:href="#m84687b9125" y="247.227736"/>
    </g>
   </g>
   <g id="PathCollection_52">
    <g clip-path="url(#p34dc4b8090)">
     <use style="fill:#8c564b;stroke:#8c564b;stroke-width:0.5;" x="191.53326" xlink:href="#m84687b9125" y="238.556812"/>
    </g>
   </g>
   <g id="PathCollection_53">
    <g clip-path="url(#p34dc4b8090)">
     <use style="fill:#8c564b;stroke:#8c564b;stroke-width:0.5;" x="170.607479" xlink:href="#m84687b9125" y="242.682575"/>
    </g>
   </g>
   <g id="PathCollection_54">
    <g clip-path="url(#p34dc4b8090)">
     <use style="fill:#8c564b;stroke:#8c564b;stroke-width:0.5;" x="173.19829" xlink:href="#m84687b9125" y="238.637554"/>
    </g>
   </g>
   <g id="PathCollection_55">
    <g clip-path="url(#p34dc4b8090)">
     <use style="fill:#8c564b;stroke:#8c564b;stroke-width:0.5;" x="186.152345" xlink:href="#m84687b9125" y="243.075028"/>
    </g>
   </g>
   <g id="PathCollection_56">
    <defs>
     <path d="M -0.605124 -2.738613 
L 0.139102 -2.738613 
L -0.799985 2.122337 
L 1.867023 2.122337 
L 1.746115 2.738613 
L -1.665119 2.738613 
z
" id="mbce35d08a0" style="stroke:#c49c94;stroke-width:0.5;"/>
    </defs>
    <g clip-path="url(#p34dc4b8090)">
     <use style="fill:#c49c94;stroke:#c49c94;stroke-width:0.5;" x="103.246392" xlink:href="#mbce35d08a0" y="109.56201"/>
    </g>
   </g>
   <g id="PathCollection_57">
    <g clip-path="url(#p34dc4b8090)">
     <use style="fill:#c49c94;stroke:#c49c94;stroke-width:0.5;" x="190.736088" xlink:href="#mbce35d08a0" y="199.861062"/>
    </g>
   </g>
   <g id="PathCollection_58">
    <g clip-path="url(#p34dc4b8090)">
     <use style="fill:#c49c94;stroke:#c49c94;stroke-width:0.5;" x="144.500075" xlink:href="#mbce35d08a0" y="81.191466"/>
    </g>
   </g>
   <g id="PathCollection_59">
    <g clip-path="url(#p34dc4b8090)">
     <use style="fill:#c49c94;stroke:#c49c94;stroke-width:0.5;" x="256.901416" xlink:href="#mbce35d08a0" y="275.968066"/>
    </g>
   </g>
   <g id="PathCollection_60">
    <g clip-path="url(#p34dc4b8090)">
     <use style="fill:#c49c94;stroke:#c49c94;stroke-width:0.5;" x="287.193975" xlink:href="#mbce35d08a0" y="253.728348"/>
    </g>
   </g>
   <g id="PathCollection_61">
    <defs>
     <path d="M -1.631906 -2.38848 
L -0.662386 -2.38848 
L -0.105449 0.830286 
L 1.743498 -2.38848 
L 2.738613 -2.38848 
L 1.807996 2.38848 
L 1.180419 2.38848 
L 1.993301 -1.799806 
L 0.118759 1.470149 
L -0.51189 1.470149 
L -1.120016 -1.812091 
L -1.931874 2.38848 
L -2.562523 2.38848 
z
" id="m31c56e147b" style="stroke:#e377c2;stroke-width:0.5;"/>
    </defs>
    <g clip-path="url(#p34dc4b8090)">
     <use style="fill:#e377c2;stroke:#e377c2;stroke-width:0.5;" x="196.515589" xlink:href="#m31c56e147b" y="246.629766"/>
    </g>
   </g>
   <g id="PathCollection_62">
    <g clip-path="url(#p34dc4b8090)">
     <use style="fill:#e377c2;stroke:#e377c2;stroke-width:0.5;" x="209.270351" xlink:href="#m31c56e147b" y="245.088513"/>
    </g>
   </g>
   <g id="PathCollection_63">
    <g clip-path="url(#p34dc4b8090)">
     <use style="fill:#e377c2;stroke:#e377c2;stroke-width:0.5;" x="188.743156" xlink:href="#m31c56e147b" y="242.953669"/>
    </g>
   </g>
   <g id="PathCollection_64">
    <g clip-path="url(#p34dc4b8090)">
     <use style="fill:#e377c2;stroke:#e377c2;stroke-width:0.5;" x="189.540329" xlink:href="#m31c56e147b" y="251.75379"/>
    </g>
   </g>
   <g id="PathCollection_65">
    <g clip-path="url(#p34dc4b8090)">
     <use style="fill:#e377c2;stroke:#e377c2;stroke-width:0.5;" x="211.06399" xlink:href="#m31c56e147b" y="243.917111"/>
    </g>
   </g>
   <g id="PathCollection_66">
    <defs>
     <path d="M -1.440325 -2.738613 
L -0.442545 -2.738613 
L 1.069385 1.956823 
L 1.986169 -2.738613 
L 2.709266 -2.738613 
L 1.641055 2.738613 
L 0.639753 2.738613 
L -0.867482 -1.986169 
L -1.784266 2.738613 
L -2.507363 2.738613 
z
" id="m6aea40da88" style="stroke:#f7b6d2;stroke-width:0.5;"/>
    </defs>
    <g clip-path="url(#p34dc4b8090)">
     <use style="fill:#f7b6d2;stroke:#f7b6d2;stroke-width:0.5;" x="281.414474" xlink:href="#m6aea40da88" y="225.998584"/>
    </g>
   </g>
   <g id="PathCollection_67">
    <g clip-path="url(#p34dc4b8090)">
     <use style="fill:#f7b6d2;stroke:#f7b6d2;stroke-width:0.5;" x="59.601191" xlink:href="#m6aea40da88" y="177.706719"/>
    </g>
   </g>
   <g id="PathCollection_68">
    <g clip-path="url(#p34dc4b8090)">
     <use style="fill:#f7b6d2;stroke:#f7b6d2;stroke-width:0.5;" x="240.559377" xlink:href="#m6aea40da88" y="195.122863"/>
    </g>
   </g>
   <g id="PathCollection_69">
    <g clip-path="url(#p34dc4b8090)">
     <use style="fill:#f7b6d2;stroke:#f7b6d2;stroke-width:0.5;" x="262.481624" xlink:href="#m6aea40da88" y="207.828131"/>
    </g>
   </g>
   <g id="PathCollection_70">
    <g clip-path="url(#p34dc4b8090)">
     <use style="fill:#f7b6d2;stroke:#f7b6d2;stroke-width:0.5;" x="349.174147" xlink:href="#m6aea40da88" y="116.31792"/>
    </g>
   </g>
   <g id="PathCollection_71">
    <defs>
     <path d="M 0.597958 -2.159323 
Q 0.010749 -2.159323 -0.438427 -1.874205 
Q -0.887602 -1.589086 -1.21911 -1.006402 
Q -1.431818 -0.635295 -1.543829 -0.217799 
Q -1.654708 0.199696 -1.654708 0.623981 
Q -1.654708 1.359406 -1.302835 1.758799 
Q -0.950962 2.158192 -0.307182 2.158192 
Q 0.272108 2.158192 0.725809 1.87081 
Q 1.180641 1.582297 1.503097 1.013191 
Q 1.718068 0.630769 1.83121 0.212142 
Q 1.944353 -0.207616 1.944353 -0.623981 
Q 1.944353 -1.356012 1.590217 -1.757668 
Q 1.237213 -2.159323 0.597958 -2.159323 
z
M -0.328679 2.738613 
Q -1.300572 2.738613 -1.858365 2.162718 
Q -2.415025 1.585691 -2.415025 0.584381 
Q -2.415025 0.01188 -2.197792 -0.585512 
Q -1.979427 -1.182904 -1.598137 -1.650183 
Q -1.148961 -2.197792 -0.597958 -2.468202 
Q -0.045823 -2.738613 0.619455 -2.738613 
Q 1.587954 -2.738613 2.145746 -2.167243 
Q 2.70467 -1.597006 2.70467 -0.610403 
Q 2.70467 -0.001697 2.491962 0.585512 
Q 2.280386 1.17159 1.884387 1.649051 
Q 1.431818 2.201186 0.88534 2.470465 
Q 0.339993 2.738613 -0.328679 2.738613 
z
" id="m668f02c5fa" style="stroke:#7f7f7f;stroke-width:0.5;"/>
    </defs>
    <g clip-path="url(#p34dc4b8090)">
     <use style="fill:#7f7f7f;stroke:#7f7f7f;stroke-width:0.5;" x="192.330433" xlink:href="#m668f02c5fa" y="242.965066"/>
    </g>
   </g>
   <g id="PathCollection_72">
    <g clip-path="url(#p34dc4b8090)">
     <use style="fill:#7f7f7f;stroke:#7f7f7f;stroke-width:0.5;" x="192.330433" xlink:href="#m668f02c5fa" y="242.965066"/>
    </g>
   </g>
   <g id="PathCollection_73">
    <g clip-path="url(#p34dc4b8090)">
     <use style="fill:#7f7f7f;stroke:#7f7f7f;stroke-width:0.5;" x="192.330433" xlink:href="#m668f02c5fa" y="242.965066"/>
    </g>
   </g>
   <g id="PathCollection_74">
    <g clip-path="url(#p34dc4b8090)">
     <use style="fill:#7f7f7f;stroke:#7f7f7f;stroke-width:0.5;" x="192.330433" xlink:href="#m668f02c5fa" y="242.965066"/>
    </g>
   </g>
   <g id="PathCollection_75">
    <g clip-path="url(#p34dc4b8090)">
     <use style="fill:#7f7f7f;stroke:#7f7f7f;stroke-width:0.5;" x="192.330433" xlink:href="#m668f02c5fa" y="242.965066"/>
    </g>
   </g>
   <g id="text_19">
    <!-- improvement -->
    <g style="fill:#00afa5;opacity:0.5;" transform="translate(371.694274 43.668073)scale(0.1 -0.1)">
     <defs>
      <path d="M 8.40625 54.6875 
L 25.875 54.6875 
L 25.875 0 
L 8.40625 0 
z
M 8.40625 75.984375 
L 25.875 75.984375 
L 25.875 61.71875 
L 8.40625 61.71875 
z
" id="DejaVuSans-Bold-105"/>
      <path d="M 59.078125 45.609375 
Q 62.40625 50.6875 66.96875 53.34375 
Q 71.53125 56 77 56 
Q 86.421875 56 91.359375 50.1875 
Q 96.296875 44.390625 96.296875 33.296875 
L 96.296875 0 
L 78.71875 0 
L 78.71875 28.515625 
Q 78.765625 29.15625 78.78125 29.828125 
Q 78.8125 30.515625 78.8125 31.78125 
Q 78.8125 37.59375 77.09375 40.203125 
Q 75.390625 42.828125 71.578125 42.828125 
Q 66.609375 42.828125 63.890625 38.71875 
Q 61.1875 34.625 61.078125 26.859375 
L 61.078125 0 
L 43.5 0 
L 43.5 28.515625 
Q 43.5 37.59375 41.9375 40.203125 
Q 40.375 42.828125 36.375 42.828125 
Q 31.34375 42.828125 28.609375 38.703125 
Q 25.875 34.578125 25.875 26.90625 
L 25.875 0 
L 8.296875 0 
L 8.296875 54.6875 
L 25.875 54.6875 
L 25.875 46.6875 
Q 29.109375 51.3125 33.28125 53.65625 
Q 37.453125 56 42.484375 56 
Q 48.140625 56 52.484375 53.265625 
Q 56.84375 50.53125 59.078125 45.609375 
z
" id="DejaVuSans-Bold-109"/>
      <path d="M 25.875 7.90625 
L 25.875 -20.796875 
L 8.40625 -20.796875 
L 8.40625 54.6875 
L 25.875 54.6875 
L 25.875 46.6875 
Q 29.5 51.46875 33.890625 53.734375 
Q 38.28125 56 44 56 
Q 54.109375 56 60.59375 47.96875 
Q 67.09375 39.9375 67.09375 27.296875 
Q 67.09375 14.65625 60.59375 6.609375 
Q 54.109375 -1.421875 44 -1.421875 
Q 38.28125 -1.421875 33.890625 0.84375 
Q 29.5 3.125 25.875 7.90625 
z
M 37.5 43.3125 
Q 31.890625 43.3125 28.875 39.1875 
Q 25.875 35.0625 25.875 27.296875 
Q 25.875 19.53125 28.875 15.40625 
Q 31.890625 11.28125 37.5 11.28125 
Q 43.109375 11.28125 46.0625 15.375 
Q 49.03125 19.484375 49.03125 27.296875 
Q 49.03125 35.109375 46.0625 39.203125 
Q 43.109375 43.3125 37.5 43.3125 
z
" id="DejaVuSans-Bold-112"/>
      <path d="M 49.03125 39.796875 
Q 46.734375 40.875 44.453125 41.375 
Q 42.1875 41.890625 39.890625 41.890625 
Q 33.15625 41.890625 29.515625 37.5625 
Q 25.875 33.25 25.875 25.203125 
L 25.875 0 
L 8.40625 0 
L 8.40625 54.6875 
L 25.875 54.6875 
L 25.875 45.703125 
Q 29.25 51.078125 33.609375 53.53125 
Q 37.984375 56 44.09375 56 
Q 44.96875 56 45.984375 55.921875 
Q 47.015625 55.859375 48.96875 55.609375 
z
" id="DejaVuSans-Bold-114"/>
      <path d="M 34.421875 43.5 
Q 28.609375 43.5 25.5625 39.328125 
Q 22.515625 35.15625 22.515625 27.296875 
Q 22.515625 19.4375 25.5625 15.25 
Q 28.609375 11.078125 34.421875 11.078125 
Q 40.140625 11.078125 43.15625 15.25 
Q 46.1875 19.4375 46.1875 27.296875 
Q 46.1875 35.15625 43.15625 39.328125 
Q 40.140625 43.5 34.421875 43.5 
z
M 34.421875 56 
Q 48.53125 56 56.46875 48.375 
Q 64.40625 40.765625 64.40625 27.296875 
Q 64.40625 13.8125 56.46875 6.1875 
Q 48.53125 -1.421875 34.421875 -1.421875 
Q 20.265625 -1.421875 12.28125 6.1875 
Q 4.296875 13.8125 4.296875 27.296875 
Q 4.296875 40.765625 12.28125 48.375 
Q 20.265625 56 34.421875 56 
z
" id="DejaVuSans-Bold-111"/>
      <path d="M 1.515625 54.6875 
L 19 54.6875 
L 32.625 16.890625 
L 46.1875 54.6875 
L 63.71875 54.6875 
L 42.1875 0 
L 23 0 
z
" id="DejaVuSans-Bold-118"/>
      <path d="M 62.984375 27.484375 
L 62.984375 22.515625 
L 22.125 22.515625 
Q 22.75 16.359375 26.5625 13.28125 
Q 30.375 10.203125 37.203125 10.203125 
Q 42.71875 10.203125 48.5 11.84375 
Q 54.296875 13.484375 60.40625 16.796875 
L 60.40625 3.328125 
Q 54.203125 0.984375 48 -0.21875 
Q 41.796875 -1.421875 35.59375 -1.421875 
Q 20.75 -1.421875 12.515625 6.125 
Q 4.296875 13.671875 4.296875 27.296875 
Q 4.296875 40.671875 12.375 48.328125 
Q 20.453125 56 34.625 56 
Q 47.515625 56 55.25 48.234375 
Q 62.984375 40.484375 62.984375 27.484375 
z
M 45.015625 33.296875 
Q 45.015625 38.28125 42.109375 41.328125 
Q 39.203125 44.390625 34.515625 44.390625 
Q 29.4375 44.390625 26.265625 41.53125 
Q 23.09375 38.671875 22.3125 33.296875 
z
" id="DejaVuSans-Bold-101"/>
      <path d="M 63.375 33.296875 
L 63.375 0 
L 45.796875 0 
L 45.796875 5.421875 
L 45.796875 25.484375 
Q 45.796875 32.5625 45.484375 35.25 
Q 45.171875 37.9375 44.390625 39.203125 
Q 43.359375 40.921875 41.59375 41.875 
Q 39.84375 42.828125 37.59375 42.828125 
Q 32.125 42.828125 29 38.59375 
Q 25.875 34.375 25.875 26.90625 
L 25.875 0 
L 8.40625 0 
L 8.40625 54.6875 
L 25.875 54.6875 
L 25.875 46.6875 
Q 29.828125 51.46875 34.265625 53.734375 
Q 38.71875 56 44.09375 56 
Q 53.5625 56 58.46875 50.1875 
Q 63.375 44.390625 63.375 33.296875 
z
" id="DejaVuSans-Bold-110"/>
      <path d="M 27.484375 70.21875 
L 27.484375 54.6875 
L 45.515625 54.6875 
L 45.515625 42.1875 
L 27.484375 42.1875 
L 27.484375 19 
Q 27.484375 15.1875 29 13.84375 
Q 30.515625 12.5 35.015625 12.5 
L 44 12.5 
L 44 0 
L 29 0 
Q 18.65625 0 14.328125 4.3125 
Q 10.015625 8.640625 10.015625 19 
L 10.015625 42.1875 
L 1.3125 42.1875 
L 1.3125 54.6875 
L 10.015625 54.6875 
L 10.015625 70.21875 
z
" id="DejaVuSans-Bold-116"/>
     </defs>
     <use xlink:href="#DejaVuSans-Bold-105"/>
     <use x="34.277344" xlink:href="#DejaVuSans-Bold-109"/>
     <use x="138.476562" xlink:href="#DejaVuSans-Bold-112"/>
     <use x="210.058594" xlink:href="#DejaVuSans-Bold-114"/>
     <use x="259.375" xlink:href="#DejaVuSans-Bold-111"/>
     <use x="328.076172" xlink:href="#DejaVuSans-Bold-118"/>
     <use x="393.261719" xlink:href="#DejaVuSans-Bold-101"/>
     <use x="461.083984" xlink:href="#DejaVuSans-Bold-109"/>
     <use x="565.283203" xlink:href="#DejaVuSans-Bold-101"/>
     <use x="633.105469" xlink:href="#DejaVuSans-Bold-110"/>
     <use x="704.296875" xlink:href="#DejaVuSans-Bold-116"/>
    </g>
   </g>
   <g id="text_20">
    <!-- compromise -->
    <g style="fill:#f17900;opacity:0.5;" transform="translate(72.754539 43.668073)scale(0.1 -0.1)">
     <defs>
      <path d="M 52.59375 52.984375 
L 52.59375 38.71875 
Q 49.03125 41.15625 45.4375 42.328125 
Q 41.84375 43.5 37.984375 43.5 
Q 30.671875 43.5 26.59375 39.234375 
Q 22.515625 34.96875 22.515625 27.296875 
Q 22.515625 19.625 26.59375 15.34375 
Q 30.671875 11.078125 37.984375 11.078125 
Q 42.09375 11.078125 45.78125 12.296875 
Q 49.46875 13.53125 52.59375 15.921875 
L 52.59375 1.609375 
Q 48.484375 0.09375 44.265625 -0.65625 
Q 40.046875 -1.421875 35.796875 -1.421875 
Q 21 -1.421875 12.640625 6.171875 
Q 4.296875 13.765625 4.296875 27.296875 
Q 4.296875 40.828125 12.640625 48.40625 
Q 21 56 35.796875 56 
Q 40.09375 56 44.265625 55.25 
Q 48.4375 54.5 52.59375 52.984375 
z
" id="DejaVuSans-Bold-99"/>
      <path d="M 51.125 52.984375 
L 51.125 39.703125 
Q 45.515625 42.046875 40.28125 43.21875 
Q 35.0625 44.390625 30.421875 44.390625 
Q 25.4375 44.390625 23.015625 43.140625 
Q 20.609375 41.890625 20.609375 39.3125 
Q 20.609375 37.203125 22.4375 36.078125 
Q 24.265625 34.96875 29 34.421875 
L 32.078125 33.984375 
Q 45.515625 32.28125 50.140625 28.375 
Q 54.78125 24.46875 54.78125 16.109375 
Q 54.78125 7.375 48.328125 2.96875 
Q 41.890625 -1.421875 29.109375 -1.421875 
Q 23.6875 -1.421875 17.890625 -0.5625 
Q 12.109375 0.296875 6 2 
L 6 15.28125 
Q 11.234375 12.75 16.71875 11.46875 
Q 22.21875 10.203125 27.875 10.203125 
Q 33.015625 10.203125 35.59375 11.609375 
Q 38.1875 13.03125 38.1875 15.828125 
Q 38.1875 18.171875 36.40625 19.3125 
Q 34.625 20.453125 29.296875 21.09375 
L 26.21875 21.484375 
Q 14.546875 22.953125 9.859375 26.90625 
Q 5.171875 30.859375 5.171875 38.921875 
Q 5.171875 47.609375 11.125 51.796875 
Q 17.09375 56 29.390625 56 
Q 34.234375 56 39.546875 55.265625 
Q 44.875 54.546875 51.125 52.984375 
z
" id="DejaVuSans-Bold-115"/>
     </defs>
     <use xlink:href="#DejaVuSans-Bold-99"/>
     <use x="59.277344" xlink:href="#DejaVuSans-Bold-111"/>
     <use x="127.978516" xlink:href="#DejaVuSans-Bold-109"/>
     <use x="232.177734" xlink:href="#DejaVuSans-Bold-112"/>
     <use x="303.759766" xlink:href="#DejaVuSans-Bold-114"/>
     <use x="353.076172" xlink:href="#DejaVuSans-Bold-111"/>
     <use x="421.777344" xlink:href="#DejaVuSans-Bold-109"/>
     <use x="525.976562" xlink:href="#DejaVuSans-Bold-105"/>
     <use x="560.253906" xlink:href="#DejaVuSans-Bold-115"/>
     <use x="619.775391" xlink:href="#DejaVuSans-Bold-101"/>
    </g>
   </g>
   <g id="text_21">
    <!-- compromise -->
    <g style="fill:#f17900;opacity:0.5;" transform="translate(371.694274 393.947637)scale(0.1 -0.1)">
     <use xlink:href="#DejaVuSans-Bold-99"/>
     <use x="59.277344" xlink:href="#DejaVuSans-Bold-111"/>
     <use x="127.978516" xlink:href="#DejaVuSans-Bold-109"/>
     <use x="232.177734" xlink:href="#DejaVuSans-Bold-112"/>
     <use x="303.759766" xlink:href="#DejaVuSans-Bold-114"/>
     <use x="353.076172" xlink:href="#DejaVuSans-Bold-111"/>
     <use x="421.777344" xlink:href="#DejaVuSans-Bold-109"/>
     <use x="525.976562" xlink:href="#DejaVuSans-Bold-105"/>
     <use x="560.253906" xlink:href="#DejaVuSans-Bold-115"/>
     <use x="619.775391" xlink:href="#DejaVuSans-Bold-101"/>
    </g>
   </g>
   <g id="text_22">
    <!-- worsening -->
    <g style="fill:#ae0060;opacity:0.5;" transform="translate(72.754539 393.947637)scale(0.1 -0.1)">
     <defs>
      <path d="M 3.515625 54.6875 
L 20.515625 54.6875 
L 29.6875 17 
L 38.921875 54.6875 
L 53.515625 54.6875 
L 62.703125 17.390625 
L 71.921875 54.6875 
L 88.921875 54.6875 
L 74.515625 0 
L 55.421875 0 
L 46.1875 37.59375 
L 37.015625 0 
L 17.921875 0 
z
" id="DejaVuSans-Bold-119"/>
      <path d="M 45.609375 9.28125 
Q 42 4.5 37.640625 2.25 
Q 33.296875 0 27.59375 0 
Q 17.578125 0 11.03125 7.875 
Q 4.5 15.765625 4.5 27.984375 
Q 4.5 40.234375 11.03125 48.0625 
Q 17.578125 55.90625 27.59375 55.90625 
Q 33.296875 55.90625 37.640625 53.65625 
Q 42 51.421875 45.609375 46.578125 
L 45.609375 54.6875 
L 63.1875 54.6875 
L 63.1875 5.515625 
Q 63.1875 -7.671875 54.859375 -14.625 
Q 46.53125 -21.578125 30.71875 -21.578125 
Q 25.59375 -21.578125 20.796875 -20.796875 
Q 16.015625 -20.015625 11.1875 -18.40625 
L 11.1875 -4.78125 
Q 15.765625 -7.421875 20.15625 -8.71875 
Q 24.5625 -10.015625 29 -10.015625 
Q 37.59375 -10.015625 41.59375 -6.25 
Q 45.609375 -2.484375 45.609375 5.515625 
z
M 34.078125 43.3125 
Q 28.65625 43.3125 25.625 39.296875 
Q 22.609375 35.296875 22.609375 27.984375 
Q 22.609375 20.453125 25.53125 16.578125 
Q 28.46875 12.703125 34.078125 12.703125 
Q 39.546875 12.703125 42.578125 16.703125 
Q 45.609375 20.703125 45.609375 27.984375 
Q 45.609375 35.296875 42.578125 39.296875 
Q 39.546875 43.3125 34.078125 43.3125 
z
" id="DejaVuSans-Bold-103"/>
     </defs>
     <use xlink:href="#DejaVuSans-Bold-119"/>
     <use x="92.382812" xlink:href="#DejaVuSans-Bold-111"/>
     <use x="161.083984" xlink:href="#DejaVuSans-Bold-114"/>
     <use x="210.400391" xlink:href="#DejaVuSans-Bold-115"/>
     <use x="269.921875" xlink:href="#DejaVuSans-Bold-101"/>
     <use x="337.744141" xlink:href="#DejaVuSans-Bold-110"/>
     <use x="408.935547" xlink:href="#DejaVuSans-Bold-105"/>
     <use x="443.212891" xlink:href="#DejaVuSans-Bold-110"/>
     <use x="514.404297" xlink:href="#DejaVuSans-Bold-103"/>
    </g>
   </g>
   <g id="text_23">
    <!-- PTV coverage vs OAR dose -->
    <g transform="translate(172.01226 14.798437)scale(0.1 -0.1)">
     <defs>
      <path d="M 9.1875 72.90625 
L 40.375 72.90625 
Q 54.296875 72.90625 61.734375 66.71875 
Q 69.1875 60.546875 69.1875 49.125 
Q 69.1875 37.640625 61.734375 31.46875 
Q 54.296875 25.296875 40.375 25.296875 
L 27.984375 25.296875 
L 27.984375 0 
L 9.1875 0 
z
M 27.984375 59.28125 
L 27.984375 38.921875 
L 38.375 38.921875 
Q 43.84375 38.921875 46.828125 41.578125 
Q 49.8125 44.234375 49.8125 49.125 
Q 49.8125 54 46.828125 56.640625 
Q 43.84375 59.28125 38.375 59.28125 
z
" id="DejaVuSans-Bold-80"/>
      <path d="M 0.484375 72.90625 
L 67.671875 72.90625 
L 67.671875 58.6875 
L 43.5 58.6875 
L 43.5 0 
L 24.703125 0 
L 24.703125 58.6875 
L 0.484375 58.6875 
z
" id="DejaVuSans-Bold-84"/>
      <path d="M 0.484375 72.90625 
L 19.390625 72.90625 
L 38.71875 19.09375 
L 58.015625 72.90625 
L 76.90625 72.90625 
L 49.90625 0 
L 27.484375 0 
z
" id="DejaVuSans-Bold-86"/>
      <path id="DejaVuSans-Bold-32"/>
      <path d="M 32.90625 24.609375 
Q 27.4375 24.609375 24.671875 22.75 
Q 21.921875 20.90625 21.921875 17.28125 
Q 21.921875 13.96875 24.140625 12.078125 
Q 26.375 10.203125 30.328125 10.203125 
Q 35.25 10.203125 38.625 13.734375 
Q 42 17.28125 42 22.609375 
L 42 24.609375 
z
M 59.625 31.203125 
L 59.625 0 
L 42 0 
L 42 8.109375 
Q 38.484375 3.125 34.078125 0.84375 
Q 29.6875 -1.421875 23.390625 -1.421875 
Q 14.890625 -1.421875 9.59375 3.53125 
Q 4.296875 8.5 4.296875 16.40625 
Q 4.296875 26.03125 10.90625 30.515625 
Q 17.53125 35.015625 31.6875 35.015625 
L 42 35.015625 
L 42 36.375 
Q 42 40.53125 38.71875 42.453125 
Q 35.453125 44.390625 28.515625 44.390625 
Q 22.90625 44.390625 18.0625 43.265625 
Q 13.234375 42.140625 9.078125 39.890625 
L 9.078125 53.21875 
Q 14.703125 54.59375 20.359375 55.296875 
Q 26.03125 56 31.6875 56 
Q 46.484375 56 53.046875 50.171875 
Q 59.625 44.34375 59.625 31.203125 
z
" id="DejaVuSans-Bold-97"/>
      <path d="M 42.484375 60.59375 
Q 33.890625 60.59375 29.15625 54.25 
Q 24.421875 47.90625 24.421875 36.375 
Q 24.421875 24.90625 29.15625 18.546875 
Q 33.890625 12.203125 42.484375 12.203125 
Q 51.125 12.203125 55.859375 18.546875 
Q 60.59375 24.90625 60.59375 36.375 
Q 60.59375 47.90625 55.859375 54.25 
Q 51.125 60.59375 42.484375 60.59375 
z
M 42.484375 74.21875 
Q 60.0625 74.21875 70.015625 64.15625 
Q 79.984375 54.109375 79.984375 36.375 
Q 79.984375 18.703125 70.015625 8.640625 
Q 60.0625 -1.421875 42.484375 -1.421875 
Q 24.953125 -1.421875 14.96875 8.640625 
Q 4.984375 18.703125 4.984375 36.375 
Q 4.984375 54.109375 14.96875 64.15625 
Q 24.953125 74.21875 42.484375 74.21875 
z
" id="DejaVuSans-Bold-79"/>
      <path d="M 53.421875 13.28125 
L 24.03125 13.28125 
L 19.390625 0 
L 0.484375 0 
L 27.484375 72.90625 
L 49.90625 72.90625 
L 76.90625 0 
L 58.015625 0 
z
M 28.71875 26.8125 
L 48.6875 26.8125 
L 38.71875 55.8125 
z
" id="DejaVuSans-Bold-65"/>
      <path d="M 35.890625 40.578125 
Q 41.796875 40.578125 44.359375 42.765625 
Q 46.921875 44.96875 46.921875 50 
Q 46.921875 54.984375 44.359375 57.125 
Q 41.796875 59.28125 35.890625 59.28125 
L 27.984375 59.28125 
L 27.984375 40.578125 
z
M 27.984375 27.59375 
L 27.984375 0 
L 9.1875 0 
L 9.1875 72.90625 
L 37.890625 72.90625 
Q 52.296875 72.90625 59 68.0625 
Q 65.71875 63.234375 65.71875 52.78125 
Q 65.71875 45.5625 62.21875 40.921875 
Q 58.734375 36.28125 51.703125 34.078125 
Q 55.5625 33.203125 58.609375 30.09375 
Q 61.671875 27 64.796875 20.703125 
L 75 0 
L 54.984375 0 
L 46.09375 18.109375 
Q 43.40625 23.578125 40.640625 25.578125 
Q 37.890625 27.59375 33.296875 27.59375 
z
" id="DejaVuSans-Bold-82"/>
      <path d="M 45.609375 46.6875 
L 45.609375 75.984375 
L 63.1875 75.984375 
L 63.1875 0 
L 45.609375 0 
L 45.609375 7.90625 
Q 42 3.078125 37.640625 0.828125 
Q 33.296875 -1.421875 27.59375 -1.421875 
Q 17.484375 -1.421875 10.984375 6.609375 
Q 4.5 14.65625 4.5 27.296875 
Q 4.5 39.9375 10.984375 47.96875 
Q 17.484375 56 27.59375 56 
Q 33.25 56 37.625 53.734375 
Q 42 51.46875 45.609375 46.6875 
z
M 34.078125 11.28125 
Q 39.703125 11.28125 42.65625 15.375 
Q 45.609375 19.484375 45.609375 27.296875 
Q 45.609375 35.109375 42.65625 39.203125 
Q 39.703125 43.3125 34.078125 43.3125 
Q 28.515625 43.3125 25.5625 39.203125 
Q 22.609375 35.109375 22.609375 27.296875 
Q 22.609375 19.484375 25.5625 15.375 
Q 28.515625 11.28125 34.078125 11.28125 
z
" id="DejaVuSans-Bold-100"/>
     </defs>
     <use xlink:href="#DejaVuSans-Bold-80"/>
     <use x="73.291016" xlink:href="#DejaVuSans-Bold-84"/>
     <use x="141.503906" xlink:href="#DejaVuSans-Bold-86"/>
     <use x="218.896484" xlink:href="#DejaVuSans-Bold-32"/>
     <use x="253.710938" xlink:href="#DejaVuSans-Bold-99"/>
     <use x="312.988281" xlink:href="#DejaVuSans-Bold-111"/>
     <use x="381.689453" xlink:href="#DejaVuSans-Bold-118"/>
     <use x="446.875" xlink:href="#DejaVuSans-Bold-101"/>
     <use x="514.697266" xlink:href="#DejaVuSans-Bold-114"/>
     <use x="564.013672" xlink:href="#DejaVuSans-Bold-97"/>
     <use x="631.494141" xlink:href="#DejaVuSans-Bold-103"/>
     <use x="703.076172" xlink:href="#DejaVuSans-Bold-101"/>
     <use x="770.898438" xlink:href="#DejaVuSans-Bold-32"/>
     <use x="805.712891" xlink:href="#DejaVuSans-Bold-118"/>
     <use x="870.898438" xlink:href="#DejaVuSans-Bold-115"/>
     <use x="930.419922" xlink:href="#DejaVuSans-Bold-32"/>
     <use x="965.234375" xlink:href="#DejaVuSans-Bold-79"/>
     <use x="1047.619141" xlink:href="#DejaVuSans-Bold-65"/>
     <use x="1125.011719" xlink:href="#DejaVuSans-Bold-82"/>
     <use x="1202.013672" xlink:href="#DejaVuSans-Bold-32"/>
     <use x="1236.828125" xlink:href="#DejaVuSans-Bold-100"/>
     <use x="1308.410156" xlink:href="#DejaVuSans-Bold-111"/>
     <use x="1377.111328" xlink:href="#DejaVuSans-Bold-115"/>
     <use x="1436.632812" xlink:href="#DejaVuSans-Bold-101"/>
    </g>
   </g>
  </g>
 </g>
 <defs>
  <clipPath id="p34dc4b8090">
   <rect height="405.580458" width="415.127645" x="39.671875" y="20.798437"/>
  </clipPath>
 </defs>
</svg>
