<?xml version="1.0" encoding="utf-8" standalone="no"?>
<!DOCTYPE svg PUBLIC "-//W3C//DTD SVG 1.1//EN"
  "http://www.w3.org/Graphics/SVG/1.1/DTD/svg11.dtd">
<!-- Created with matplotlib (https://matplotlib.org/) -->
<svg height="262.19625pt" version="1.1" viewBox="0 0 392.980625 262.19625" width="392.980625pt" xmlns="http://www.w3.org/2000/svg" xmlns:xlink="http://www.w3.org/1999/xlink">
 <metadata>
  <rdf:RDF xmlns:cc="http://creativecommons.org/ns#" xmlns:dc="http://purl.org/dc/elements/1.1/" xmlns:rdf="http://www.w3.org/1999/02/22-rdf-syntax-ns#">
   <cc:Work>
    <dc:type rdf:resource="http://purl.org/dc/dcmitype/StillImage"/>
    <dc:date>2020-12-14T11:09:26.020048</dc:date>
    <dc:format>image/svg+xml</dc:format>
    <dc:creator>
     <cc:Agent>
      <dc:title>Matplotlib v3.3.0, https://matplotlib.org/</dc:title>
     </cc:Agent>
    </dc:creator>
   </cc:Work>
  </rdf:RDF>
 </metadata>
 <defs>
  <style type="text/css">*{stroke-linecap:butt;stroke-linejoin:round;}</style>
 </defs>
 <g id="figure_1">
  <g id="patch_1">
   <path d="M 0 262.19625 
L 392.980625 262.19625 
L 392.980625 0 
L 0 0 
z
" style="fill:none;"/>
  </g>
  <g id="axes_1">
   <g id="patch_2">
    <path d="M 34.240625 224.64 
L 385.780625 224.64 
L 385.780625 7.2 
L 34.240625 7.2 
z
" style="fill:#ffffff;"/>
   </g>
   <g id="patch_3">
    <path clip-path="url(#pd882c1670f)" d="M 34.240625 226.879914 
L 101.521008 226.879914 
L 101.521008 -8.528836 
L 34.240625 -8.528836 
z
" style="fill:url(#he0ecea22a2);opacity:0;"/>
   </g>
   <g id="matplotlib.axis_1">
    <g id="xtick_1">
     <g id="line2d_1">
      <path clip-path="url(#pd882c1670f)" d="M 101.521008 224.64 
L 101.521008 7.2 
" style="fill:none;stroke:#b0b0b0;stroke-linecap:square;stroke-width:0.8;"/>
     </g>
     <g id="line2d_2">
      <defs>
       <path d="M 0 0 
L 0 3.5 
" id="m36c7ab1a6c" style="stroke:#000000;stroke-width:0.8;"/>
      </defs>
      <g>
       <use style="stroke:#000000;stroke-width:0.8;" x="101.521008" xlink:href="#m36c7ab1a6c" y="224.64"/>
      </g>
     </g>
     <g id="text_1">
      <!-- 0 -->
      <g transform="translate(98.339758 239.238437)scale(0.1 -0.1)">
       <defs>
        <path d="M 31.78125 66.40625 
Q 24.171875 66.40625 20.328125 58.90625 
Q 16.5 51.421875 16.5 36.375 
Q 16.5 21.390625 20.328125 13.890625 
Q 24.171875 6.390625 31.78125 6.390625 
Q 39.453125 6.390625 43.28125 13.890625 
Q 47.125 21.390625 47.125 36.375 
Q 47.125 51.421875 43.28125 58.90625 
Q 39.453125 66.40625 31.78125 66.40625 
z
M 31.78125 74.21875 
Q 44.046875 74.21875 50.515625 64.515625 
Q 56.984375 54.828125 56.984375 36.375 
Q 56.984375 17.96875 50.515625 8.265625 
Q 44.046875 -1.421875 31.78125 -1.421875 
Q 19.53125 -1.421875 13.0625 8.265625 
Q 6.59375 17.96875 6.59375 36.375 
Q 6.59375 54.828125 13.0625 64.515625 
Q 19.53125 74.21875 31.78125 74.21875 
z
" id="DejaVuSans-48"/>
       </defs>
       <use xlink:href="#DejaVuSans-48"/>
      </g>
     </g>
    </g>
    <g id="xtick_2">
     <g id="line2d_3">
      <path clip-path="url(#pd882c1670f)" d="M 168.801391 224.64 
L 168.801391 7.2 
" style="fill:none;stroke:#b0b0b0;stroke-linecap:square;stroke-width:0.8;"/>
     </g>
     <g id="line2d_4">
      <g>
       <use style="stroke:#000000;stroke-width:0.8;" x="168.801391" xlink:href="#m36c7ab1a6c" y="224.64"/>
      </g>
     </g>
     <g id="text_2">
      <!-- 2 -->
      <g transform="translate(165.620141 239.238437)scale(0.1 -0.1)">
       <defs>
        <path d="M 19.1875 8.296875 
L 53.609375 8.296875 
L 53.609375 0 
L 7.328125 0 
L 7.328125 8.296875 
Q 12.9375 14.109375 22.625 23.890625 
Q 32.328125 33.6875 34.8125 36.53125 
Q 39.546875 41.84375 41.421875 45.53125 
Q 43.3125 49.21875 43.3125 52.78125 
Q 43.3125 58.59375 39.234375 62.25 
Q 35.15625 65.921875 28.609375 65.921875 
Q 23.96875 65.921875 18.8125 64.3125 
Q 13.671875 62.703125 7.8125 59.421875 
L 7.8125 69.390625 
Q 13.765625 71.78125 18.9375 73 
Q 24.125 74.21875 28.421875 74.21875 
Q 39.75 74.21875 46.484375 68.546875 
Q 53.21875 62.890625 53.21875 53.421875 
Q 53.21875 48.921875 51.53125 44.890625 
Q 49.859375 40.875 45.40625 35.40625 
Q 44.1875 33.984375 37.640625 27.21875 
Q 31.109375 20.453125 19.1875 8.296875 
z
" id="DejaVuSans-50"/>
       </defs>
       <use xlink:href="#DejaVuSans-50"/>
      </g>
     </g>
    </g>
    <g id="xtick_3">
     <g id="line2d_5">
      <path clip-path="url(#pd882c1670f)" d="M 236.081773 224.64 
L 236.081773 7.2 
" style="fill:none;stroke:#b0b0b0;stroke-linecap:square;stroke-width:0.8;"/>
     </g>
     <g id="line2d_6">
      <g>
       <use style="stroke:#000000;stroke-width:0.8;" x="236.081773" xlink:href="#m36c7ab1a6c" y="224.64"/>
      </g>
     </g>
     <g id="text_3">
      <!-- 4 -->
      <g transform="translate(232.900523 239.238437)scale(0.1 -0.1)">
       <defs>
        <path d="M 37.796875 64.3125 
L 12.890625 25.390625 
L 37.796875 25.390625 
z
M 35.203125 72.90625 
L 47.609375 72.90625 
L 47.609375 25.390625 
L 58.015625 25.390625 
L 58.015625 17.1875 
L 47.609375 17.1875 
L 47.609375 0 
L 37.796875 0 
L 37.796875 17.1875 
L 4.890625 17.1875 
L 4.890625 26.703125 
z
" id="DejaVuSans-52"/>
       </defs>
       <use xlink:href="#DejaVuSans-52"/>
      </g>
     </g>
    </g>
    <g id="xtick_4">
     <g id="line2d_7">
      <path clip-path="url(#pd882c1670f)" d="M 303.362156 224.64 
L 303.362156 7.2 
" style="fill:none;stroke:#b0b0b0;stroke-linecap:square;stroke-width:0.8;"/>
     </g>
     <g id="line2d_8">
      <g>
       <use style="stroke:#000000;stroke-width:0.8;" x="303.362156" xlink:href="#m36c7ab1a6c" y="224.64"/>
      </g>
     </g>
     <g id="text_4">
      <!-- 6 -->
      <g transform="translate(300.180906 239.238437)scale(0.1 -0.1)">
       <defs>
        <path d="M 33.015625 40.375 
Q 26.375 40.375 22.484375 35.828125 
Q 18.609375 31.296875 18.609375 23.390625 
Q 18.609375 15.53125 22.484375 10.953125 
Q 26.375 6.390625 33.015625 6.390625 
Q 39.65625 6.390625 43.53125 10.953125 
Q 47.40625 15.53125 47.40625 23.390625 
Q 47.40625 31.296875 43.53125 35.828125 
Q 39.65625 40.375 33.015625 40.375 
z
M 52.59375 71.296875 
L 52.59375 62.3125 
Q 48.875 64.0625 45.09375 64.984375 
Q 41.3125 65.921875 37.59375 65.921875 
Q 27.828125 65.921875 22.671875 59.328125 
Q 17.53125 52.734375 16.796875 39.40625 
Q 19.671875 43.65625 24.015625 45.921875 
Q 28.375 48.1875 33.59375 48.1875 
Q 44.578125 48.1875 50.953125 41.515625 
Q 57.328125 34.859375 57.328125 23.390625 
Q 57.328125 12.15625 50.6875 5.359375 
Q 44.046875 -1.421875 33.015625 -1.421875 
Q 20.359375 -1.421875 13.671875 8.265625 
Q 6.984375 17.96875 6.984375 36.375 
Q 6.984375 53.65625 15.1875 63.9375 
Q 23.390625 74.21875 37.203125 74.21875 
Q 40.921875 74.21875 44.703125 73.484375 
Q 48.484375 72.75 52.59375 71.296875 
z
" id="DejaVuSans-54"/>
       </defs>
       <use xlink:href="#DejaVuSans-54"/>
      </g>
     </g>
    </g>
    <g id="xtick_5">
     <g id="line2d_9">
      <path clip-path="url(#pd882c1670f)" d="M 370.642539 224.64 
L 370.642539 7.2 
" style="fill:none;stroke:#b0b0b0;stroke-linecap:square;stroke-width:0.8;"/>
     </g>
     <g id="line2d_10">
      <g>
       <use style="stroke:#000000;stroke-width:0.8;" x="370.642539" xlink:href="#m36c7ab1a6c" y="224.64"/>
      </g>
     </g>
     <g id="text_5">
      <!-- 8 -->
      <g transform="translate(367.461289 239.238437)scale(0.1 -0.1)">
       <defs>
        <path d="M 31.78125 34.625 
Q 24.75 34.625 20.71875 30.859375 
Q 16.703125 27.09375 16.703125 20.515625 
Q 16.703125 13.921875 20.71875 10.15625 
Q 24.75 6.390625 31.78125 6.390625 
Q 38.8125 6.390625 42.859375 10.171875 
Q 46.921875 13.96875 46.921875 20.515625 
Q 46.921875 27.09375 42.890625 30.859375 
Q 38.875 34.625 31.78125 34.625 
z
M 21.921875 38.8125 
Q 15.578125 40.375 12.03125 44.71875 
Q 8.5 49.078125 8.5 55.328125 
Q 8.5 64.0625 14.71875 69.140625 
Q 20.953125 74.21875 31.78125 74.21875 
Q 42.671875 74.21875 48.875 69.140625 
Q 55.078125 64.0625 55.078125 55.328125 
Q 55.078125 49.078125 51.53125 44.71875 
Q 48 40.375 41.703125 38.8125 
Q 48.828125 37.15625 52.796875 32.3125 
Q 56.78125 27.484375 56.78125 20.515625 
Q 56.78125 9.90625 50.3125 4.234375 
Q 43.84375 -1.421875 31.78125 -1.421875 
Q 19.734375 -1.421875 13.25 4.234375 
Q 6.78125 9.90625 6.78125 20.515625 
Q 6.78125 27.484375 10.78125 32.3125 
Q 14.796875 37.15625 21.921875 38.8125 
z
M 18.3125 54.390625 
Q 18.3125 48.734375 21.84375 45.5625 
Q 25.390625 42.390625 31.78125 42.390625 
Q 38.140625 42.390625 41.71875 45.5625 
Q 45.3125 48.734375 45.3125 54.390625 
Q 45.3125 60.0625 41.71875 63.234375 
Q 38.140625 66.40625 31.78125 66.40625 
Q 25.390625 66.40625 21.84375 63.234375 
Q 18.3125 60.0625 18.3125 54.390625 
z
" id="DejaVuSans-56"/>
       </defs>
       <use xlink:href="#DejaVuSans-56"/>
      </g>
     </g>
    </g>
    <g id="text_6">
     <!-- minimal distance to OAR [mm] -->
     <g transform="translate(132.922344 252.916562)scale(0.1 -0.1)">
      <defs>
       <path d="M 52 44.1875 
Q 55.375 50.25 60.0625 53.125 
Q 64.75 56 71.09375 56 
Q 79.640625 56 84.28125 50.015625 
Q 88.921875 44.046875 88.921875 33.015625 
L 88.921875 0 
L 79.890625 0 
L 79.890625 32.71875 
Q 79.890625 40.578125 77.09375 44.375 
Q 74.3125 48.1875 68.609375 48.1875 
Q 61.625 48.1875 57.5625 43.546875 
Q 53.515625 38.921875 53.515625 30.90625 
L 53.515625 0 
L 44.484375 0 
L 44.484375 32.71875 
Q 44.484375 40.625 41.703125 44.40625 
Q 38.921875 48.1875 33.109375 48.1875 
Q 26.21875 48.1875 22.15625 43.53125 
Q 18.109375 38.875 18.109375 30.90625 
L 18.109375 0 
L 9.078125 0 
L 9.078125 54.6875 
L 18.109375 54.6875 
L 18.109375 46.1875 
Q 21.1875 51.21875 25.484375 53.609375 
Q 29.78125 56 35.6875 56 
Q 41.65625 56 45.828125 52.96875 
Q 50 49.953125 52 44.1875 
z
" id="DejaVuSans-109"/>
       <path d="M 9.421875 54.6875 
L 18.40625 54.6875 
L 18.40625 0 
L 9.421875 0 
z
M 9.421875 75.984375 
L 18.40625 75.984375 
L 18.40625 64.59375 
L 9.421875 64.59375 
z
" id="DejaVuSans-105"/>
       <path d="M 54.890625 33.015625 
L 54.890625 0 
L 45.90625 0 
L 45.90625 32.71875 
Q 45.90625 40.484375 42.875 44.328125 
Q 39.84375 48.1875 33.796875 48.1875 
Q 26.515625 48.1875 22.3125 43.546875 
Q 18.109375 38.921875 18.109375 30.90625 
L 18.109375 0 
L 9.078125 0 
L 9.078125 54.6875 
L 18.109375 54.6875 
L 18.109375 46.1875 
Q 21.34375 51.125 25.703125 53.5625 
Q 30.078125 56 35.796875 56 
Q 45.21875 56 50.046875 50.171875 
Q 54.890625 44.34375 54.890625 33.015625 
z
" id="DejaVuSans-110"/>
       <path d="M 34.28125 27.484375 
Q 23.390625 27.484375 19.1875 25 
Q 14.984375 22.515625 14.984375 16.5 
Q 14.984375 11.71875 18.140625 8.90625 
Q 21.296875 6.109375 26.703125 6.109375 
Q 34.1875 6.109375 38.703125 11.40625 
Q 43.21875 16.703125 43.21875 25.484375 
L 43.21875 27.484375 
z
M 52.203125 31.203125 
L 52.203125 0 
L 43.21875 0 
L 43.21875 8.296875 
Q 40.140625 3.328125 35.546875 0.953125 
Q 30.953125 -1.421875 24.3125 -1.421875 
Q 15.921875 -1.421875 10.953125 3.296875 
Q 6 8.015625 6 15.921875 
Q 6 25.140625 12.171875 29.828125 
Q 18.359375 34.515625 30.609375 34.515625 
L 43.21875 34.515625 
L 43.21875 35.40625 
Q 43.21875 41.609375 39.140625 45 
Q 35.0625 48.390625 27.6875 48.390625 
Q 23 48.390625 18.546875 47.265625 
Q 14.109375 46.140625 10.015625 43.890625 
L 10.015625 52.203125 
Q 14.9375 54.109375 19.578125 55.046875 
Q 24.21875 56 28.609375 56 
Q 40.484375 56 46.34375 49.84375 
Q 52.203125 43.703125 52.203125 31.203125 
z
" id="DejaVuSans-97"/>
       <path d="M 9.421875 75.984375 
L 18.40625 75.984375 
L 18.40625 0 
L 9.421875 0 
z
" id="DejaVuSans-108"/>
       <path id="DejaVuSans-32"/>
       <path d="M 45.40625 46.390625 
L 45.40625 75.984375 
L 54.390625 75.984375 
L 54.390625 0 
L 45.40625 0 
L 45.40625 8.203125 
Q 42.578125 3.328125 38.25 0.953125 
Q 33.9375 -1.421875 27.875 -1.421875 
Q 17.96875 -1.421875 11.734375 6.484375 
Q 5.515625 14.40625 5.515625 27.296875 
Q 5.515625 40.1875 11.734375 48.09375 
Q 17.96875 56 27.875 56 
Q 33.9375 56 38.25 53.625 
Q 42.578125 51.265625 45.40625 46.390625 
z
M 14.796875 27.296875 
Q 14.796875 17.390625 18.875 11.75 
Q 22.953125 6.109375 30.078125 6.109375 
Q 37.203125 6.109375 41.296875 11.75 
Q 45.40625 17.390625 45.40625 27.296875 
Q 45.40625 37.203125 41.296875 42.84375 
Q 37.203125 48.484375 30.078125 48.484375 
Q 22.953125 48.484375 18.875 42.84375 
Q 14.796875 37.203125 14.796875 27.296875 
z
" id="DejaVuSans-100"/>
       <path d="M 44.28125 53.078125 
L 44.28125 44.578125 
Q 40.484375 46.53125 36.375 47.5 
Q 32.28125 48.484375 27.875 48.484375 
Q 21.1875 48.484375 17.84375 46.4375 
Q 14.5 44.390625 14.5 40.28125 
Q 14.5 37.15625 16.890625 35.375 
Q 19.28125 33.59375 26.515625 31.984375 
L 29.59375 31.296875 
Q 39.15625 29.25 43.1875 25.515625 
Q 47.21875 21.78125 47.21875 15.09375 
Q 47.21875 7.46875 41.1875 3.015625 
Q 35.15625 -1.421875 24.609375 -1.421875 
Q 20.21875 -1.421875 15.453125 -0.5625 
Q 10.6875 0.296875 5.421875 2 
L 5.421875 11.28125 
Q 10.40625 8.6875 15.234375 7.390625 
Q 20.0625 6.109375 24.8125 6.109375 
Q 31.15625 6.109375 34.5625 8.28125 
Q 37.984375 10.453125 37.984375 14.40625 
Q 37.984375 18.0625 35.515625 20.015625 
Q 33.0625 21.96875 24.703125 23.78125 
L 21.578125 24.515625 
Q 13.234375 26.265625 9.515625 29.90625 
Q 5.8125 33.546875 5.8125 39.890625 
Q 5.8125 47.609375 11.28125 51.796875 
Q 16.75 56 26.8125 56 
Q 31.78125 56 36.171875 55.265625 
Q 40.578125 54.546875 44.28125 53.078125 
z
" id="DejaVuSans-115"/>
       <path d="M 18.3125 70.21875 
L 18.3125 54.6875 
L 36.8125 54.6875 
L 36.8125 47.703125 
L 18.3125 47.703125 
L 18.3125 18.015625 
Q 18.3125 11.328125 20.140625 9.421875 
Q 21.96875 7.515625 27.59375 7.515625 
L 36.8125 7.515625 
L 36.8125 0 
L 27.59375 0 
Q 17.1875 0 13.234375 3.875 
Q 9.28125 7.765625 9.28125 18.015625 
L 9.28125 47.703125 
L 2.6875 47.703125 
L 2.6875 54.6875 
L 9.28125 54.6875 
L 9.28125 70.21875 
z
" id="DejaVuSans-116"/>
       <path d="M 48.78125 52.59375 
L 48.78125 44.1875 
Q 44.96875 46.296875 41.140625 47.34375 
Q 37.3125 48.390625 33.40625 48.390625 
Q 24.65625 48.390625 19.8125 42.84375 
Q 14.984375 37.3125 14.984375 27.296875 
Q 14.984375 17.28125 19.8125 11.734375 
Q 24.65625 6.203125 33.40625 6.203125 
Q 37.3125 6.203125 41.140625 7.25 
Q 44.96875 8.296875 48.78125 10.40625 
L 48.78125 2.09375 
Q 45.015625 0.34375 40.984375 -0.53125 
Q 36.96875 -1.421875 32.421875 -1.421875 
Q 20.0625 -1.421875 12.78125 6.34375 
Q 5.515625 14.109375 5.515625 27.296875 
Q 5.515625 40.671875 12.859375 48.328125 
Q 20.21875 56 33.015625 56 
Q 37.15625 56 41.109375 55.140625 
Q 45.0625 54.296875 48.78125 52.59375 
z
" id="DejaVuSans-99"/>
       <path d="M 56.203125 29.59375 
L 56.203125 25.203125 
L 14.890625 25.203125 
Q 15.484375 15.921875 20.484375 11.0625 
Q 25.484375 6.203125 34.421875 6.203125 
Q 39.59375 6.203125 44.453125 7.46875 
Q 49.3125 8.734375 54.109375 11.28125 
L 54.109375 2.78125 
Q 49.265625 0.734375 44.1875 -0.34375 
Q 39.109375 -1.421875 33.890625 -1.421875 
Q 20.796875 -1.421875 13.15625 6.1875 
Q 5.515625 13.8125 5.515625 26.8125 
Q 5.515625 40.234375 12.765625 48.109375 
Q 20.015625 56 32.328125 56 
Q 43.359375 56 49.78125 48.890625 
Q 56.203125 41.796875 56.203125 29.59375 
z
M 47.21875 32.234375 
Q 47.125 39.59375 43.09375 43.984375 
Q 39.0625 48.390625 32.421875 48.390625 
Q 24.90625 48.390625 20.390625 44.140625 
Q 15.875 39.890625 15.1875 32.171875 
z
" id="DejaVuSans-101"/>
       <path d="M 30.609375 48.390625 
Q 23.390625 48.390625 19.1875 42.75 
Q 14.984375 37.109375 14.984375 27.296875 
Q 14.984375 17.484375 19.15625 11.84375 
Q 23.34375 6.203125 30.609375 6.203125 
Q 37.796875 6.203125 41.984375 11.859375 
Q 46.1875 17.53125 46.1875 27.296875 
Q 46.1875 37.015625 41.984375 42.703125 
Q 37.796875 48.390625 30.609375 48.390625 
z
M 30.609375 56 
Q 42.328125 56 49.015625 48.375 
Q 55.71875 40.765625 55.71875 27.296875 
Q 55.71875 13.875 49.015625 6.21875 
Q 42.328125 -1.421875 30.609375 -1.421875 
Q 18.84375 -1.421875 12.171875 6.21875 
Q 5.515625 13.875 5.515625 27.296875 
Q 5.515625 40.765625 12.171875 48.375 
Q 18.84375 56 30.609375 56 
z
" id="DejaVuSans-111"/>
       <path d="M 39.40625 66.21875 
Q 28.65625 66.21875 22.328125 58.203125 
Q 16.015625 50.203125 16.015625 36.375 
Q 16.015625 22.609375 22.328125 14.59375 
Q 28.65625 6.59375 39.40625 6.59375 
Q 50.140625 6.59375 56.421875 14.59375 
Q 62.703125 22.609375 62.703125 36.375 
Q 62.703125 50.203125 56.421875 58.203125 
Q 50.140625 66.21875 39.40625 66.21875 
z
M 39.40625 74.21875 
Q 54.734375 74.21875 63.90625 63.9375 
Q 73.09375 53.65625 73.09375 36.375 
Q 73.09375 19.140625 63.90625 8.859375 
Q 54.734375 -1.421875 39.40625 -1.421875 
Q 24.03125 -1.421875 14.8125 8.828125 
Q 5.609375 19.09375 5.609375 36.375 
Q 5.609375 53.65625 14.8125 63.9375 
Q 24.03125 74.21875 39.40625 74.21875 
z
" id="DejaVuSans-79"/>
       <path d="M 34.1875 63.1875 
L 20.796875 26.90625 
L 47.609375 26.90625 
z
M 28.609375 72.90625 
L 39.796875 72.90625 
L 67.578125 0 
L 57.328125 0 
L 50.6875 18.703125 
L 17.828125 18.703125 
L 11.1875 0 
L 0.78125 0 
z
" id="DejaVuSans-65"/>
       <path d="M 44.390625 34.1875 
Q 47.5625 33.109375 50.5625 29.59375 
Q 53.5625 26.078125 56.59375 19.921875 
L 66.609375 0 
L 56 0 
L 46.6875 18.703125 
Q 43.0625 26.03125 39.671875 28.421875 
Q 36.28125 30.8125 30.421875 30.8125 
L 19.671875 30.8125 
L 19.671875 0 
L 9.8125 0 
L 9.8125 72.90625 
L 32.078125 72.90625 
Q 44.578125 72.90625 50.734375 67.671875 
Q 56.890625 62.453125 56.890625 51.90625 
Q 56.890625 45.015625 53.6875 40.46875 
Q 50.484375 35.9375 44.390625 34.1875 
z
M 19.671875 64.796875 
L 19.671875 38.921875 
L 32.078125 38.921875 
Q 39.203125 38.921875 42.84375 42.21875 
Q 46.484375 45.515625 46.484375 51.90625 
Q 46.484375 58.296875 42.84375 61.546875 
Q 39.203125 64.796875 32.078125 64.796875 
z
" id="DejaVuSans-82"/>
       <path d="M 8.59375 75.984375 
L 29.296875 75.984375 
L 29.296875 69 
L 17.578125 69 
L 17.578125 -6.203125 
L 29.296875 -6.203125 
L 29.296875 -13.1875 
L 8.59375 -13.1875 
z
" id="DejaVuSans-91"/>
       <path d="M 30.421875 75.984375 
L 30.421875 -13.1875 
L 9.71875 -13.1875 
L 9.71875 -6.203125 
L 21.390625 -6.203125 
L 21.390625 69 
L 9.71875 69 
L 9.71875 75.984375 
z
" id="DejaVuSans-93"/>
      </defs>
      <use xlink:href="#DejaVuSans-109"/>
      <use x="97.412109" xlink:href="#DejaVuSans-105"/>
      <use x="125.195312" xlink:href="#DejaVuSans-110"/>
      <use x="188.574219" xlink:href="#DejaVuSans-105"/>
      <use x="216.357422" xlink:href="#DejaVuSans-109"/>
      <use x="313.769531" xlink:href="#DejaVuSans-97"/>
      <use x="375.048828" xlink:href="#DejaVuSans-108"/>
      <use x="402.832031" xlink:href="#DejaVuSans-32"/>
      <use x="434.619141" xlink:href="#DejaVuSans-100"/>
      <use x="498.095703" xlink:href="#DejaVuSans-105"/>
      <use x="525.878906" xlink:href="#DejaVuSans-115"/>
      <use x="577.978516" xlink:href="#DejaVuSans-116"/>
      <use x="617.1875" xlink:href="#DejaVuSans-97"/>
      <use x="678.466797" xlink:href="#DejaVuSans-110"/>
      <use x="741.845703" xlink:href="#DejaVuSans-99"/>
      <use x="796.826172" xlink:href="#DejaVuSans-101"/>
      <use x="858.349609" xlink:href="#DejaVuSans-32"/>
      <use x="890.136719" xlink:href="#DejaVuSans-116"/>
      <use x="929.345703" xlink:href="#DejaVuSans-111"/>
      <use x="990.527344" xlink:href="#DejaVuSans-32"/>
      <use x="1022.314453" xlink:href="#DejaVuSans-79"/>
      <use x="1099.275391" xlink:href="#DejaVuSans-65"/>
      <use x="1167.683594" xlink:href="#DejaVuSans-82"/>
      <use x="1237.166016" xlink:href="#DejaVuSans-32"/>
      <use x="1268.953125" xlink:href="#DejaVuSans-91"/>
      <use x="1307.966797" xlink:href="#DejaVuSans-109"/>
      <use x="1405.378906" xlink:href="#DejaVuSans-109"/>
      <use x="1502.791016" xlink:href="#DejaVuSans-93"/>
     </g>
    </g>
   </g>
   <g id="matplotlib.axis_2">
    <g id="ytick_1">
     <g id="line2d_11">
      <path clip-path="url(#pd882c1670f)" d="M 34.240625 203.339039 
L 385.780625 203.339039 
" style="fill:none;stroke:#b0b0b0;stroke-linecap:square;stroke-width:0.8;"/>
     </g>
     <g id="line2d_12">
      <defs>
       <path d="M 0 0 
L -3.5 0 
" id="m0e24e98937" style="stroke:#000000;stroke-width:0.8;"/>
      </defs>
      <g>
       <use style="stroke:#000000;stroke-width:0.8;" x="34.240625" xlink:href="#m0e24e98937" y="203.339039"/>
      </g>
     </g>
     <g id="text_7">
      <!-- 0 -->
      <g transform="translate(20.878125 207.138258)scale(0.1 -0.1)">
       <use xlink:href="#DejaVuSans-48"/>
      </g>
     </g>
    </g>
    <g id="ytick_2">
     <g id="line2d_13">
      <path clip-path="url(#pd882c1670f)" d="M 34.240625 156.257289 
L 385.780625 156.257289 
" style="fill:none;stroke:#b0b0b0;stroke-linecap:square;stroke-width:0.8;"/>
     </g>
     <g id="line2d_14">
      <g>
       <use style="stroke:#000000;stroke-width:0.8;" x="34.240625" xlink:href="#m0e24e98937" y="156.257289"/>
      </g>
     </g>
     <g id="text_8">
      <!-- 2 -->
      <g transform="translate(20.878125 160.056508)scale(0.1 -0.1)">
       <use xlink:href="#DejaVuSans-50"/>
      </g>
     </g>
    </g>
    <g id="ytick_3">
     <g id="line2d_15">
      <path clip-path="url(#pd882c1670f)" d="M 34.240625 109.175539 
L 385.780625 109.175539 
" style="fill:none;stroke:#b0b0b0;stroke-linecap:square;stroke-width:0.8;"/>
     </g>
     <g id="line2d_16">
      <g>
       <use style="stroke:#000000;stroke-width:0.8;" x="34.240625" xlink:href="#m0e24e98937" y="109.175539"/>
      </g>
     </g>
     <g id="text_9">
      <!-- 4 -->
      <g transform="translate(20.878125 112.974758)scale(0.1 -0.1)">
       <use xlink:href="#DejaVuSans-52"/>
      </g>
     </g>
    </g>
    <g id="ytick_4">
     <g id="line2d_17">
      <path clip-path="url(#pd882c1670f)" d="M 34.240625 62.093789 
L 385.780625 62.093789 
" style="fill:none;stroke:#b0b0b0;stroke-linecap:square;stroke-width:0.8;"/>
     </g>
     <g id="line2d_18">
      <g>
       <use style="stroke:#000000;stroke-width:0.8;" x="34.240625" xlink:href="#m0e24e98937" y="62.093789"/>
      </g>
     </g>
     <g id="text_10">
      <!-- 6 -->
      <g transform="translate(20.878125 65.893008)scale(0.1 -0.1)">
       <use xlink:href="#DejaVuSans-54"/>
      </g>
     </g>
    </g>
    <g id="ytick_5">
     <g id="line2d_19">
      <path clip-path="url(#pd882c1670f)" d="M 34.240625 15.012039 
L 385.780625 15.012039 
" style="fill:none;stroke:#b0b0b0;stroke-linecap:square;stroke-width:0.8;"/>
     </g>
     <g id="line2d_20">
      <g>
       <use style="stroke:#000000;stroke-width:0.8;" x="34.240625" xlink:href="#m0e24e98937" y="15.012039"/>
      </g>
     </g>
     <g id="text_11">
      <!-- 8 -->
      <g transform="translate(20.878125 18.811258)scale(0.1 -0.1)">
       <use xlink:href="#DejaVuSans-56"/>
      </g>
     </g>
    </g>
    <g id="text_12">
     <!-- $\Delta V_{100\%}(PTV)$ [%] -->
     <g transform="translate(14.798438 156.57)rotate(-90)scale(0.1 -0.1)">
      <defs>
       <path d="M 34.1875 63.1875 
L 14.15625 8.203125 
L 54.25 8.203125 
z
M 0.78125 0 
L 28.609375 72.90625 
L 39.796875 72.90625 
L 67.578125 0 
z
" id="DejaVuSans-916"/>
       <path d="M 20.609375 0 
L 7.8125 72.90625 
L 17.484375 72.90625 
L 28.078125 10.203125 
L 63.484375 72.90625 
L 74.21875 72.90625 
L 32.078125 0 
z
" id="DejaVuSans-Oblique-86"/>
       <path d="M 12.40625 8.296875 
L 28.515625 8.296875 
L 28.515625 63.921875 
L 10.984375 60.40625 
L 10.984375 69.390625 
L 28.421875 72.90625 
L 38.28125 72.90625 
L 38.28125 8.296875 
L 54.390625 8.296875 
L 54.390625 0 
L 12.40625 0 
z
" id="DejaVuSans-49"/>
       <path d="M 72.703125 32.078125 
Q 68.453125 32.078125 66.03125 28.46875 
Q 63.625 24.859375 63.625 18.40625 
Q 63.625 12.0625 66.03125 8.421875 
Q 68.453125 4.78125 72.703125 4.78125 
Q 76.859375 4.78125 79.265625 8.421875 
Q 81.6875 12.0625 81.6875 18.40625 
Q 81.6875 24.8125 79.265625 28.4375 
Q 76.859375 32.078125 72.703125 32.078125 
z
M 72.703125 38.28125 
Q 80.421875 38.28125 84.953125 32.90625 
Q 89.5 27.546875 89.5 18.40625 
Q 89.5 9.28125 84.9375 3.921875 
Q 80.375 -1.421875 72.703125 -1.421875 
Q 64.890625 -1.421875 60.34375 3.921875 
Q 55.8125 9.28125 55.8125 18.40625 
Q 55.8125 27.59375 60.375 32.9375 
Q 64.9375 38.28125 72.703125 38.28125 
z
M 22.3125 68.015625 
Q 18.109375 68.015625 15.6875 64.375 
Q 13.28125 60.75 13.28125 54.390625 
Q 13.28125 47.953125 15.671875 44.328125 
Q 18.0625 40.71875 22.3125 40.71875 
Q 26.5625 40.71875 28.96875 44.328125 
Q 31.390625 47.953125 31.390625 54.390625 
Q 31.390625 60.6875 28.953125 64.34375 
Q 26.515625 68.015625 22.3125 68.015625 
z
M 66.40625 74.21875 
L 74.21875 74.21875 
L 28.609375 -1.421875 
L 20.796875 -1.421875 
z
M 22.3125 74.21875 
Q 30.03125 74.21875 34.609375 68.875 
Q 39.203125 63.53125 39.203125 54.390625 
Q 39.203125 45.171875 34.640625 39.84375 
Q 30.078125 34.515625 22.3125 34.515625 
Q 14.546875 34.515625 10.03125 39.859375 
Q 5.515625 45.21875 5.515625 54.390625 
Q 5.515625 63.484375 10.046875 68.84375 
Q 14.59375 74.21875 22.3125 74.21875 
z
" id="DejaVuSans-37"/>
       <path d="M 31 75.875 
Q 24.46875 64.65625 21.28125 53.65625 
Q 18.109375 42.671875 18.109375 31.390625 
Q 18.109375 20.125 21.3125 9.0625 
Q 24.515625 -2 31 -13.1875 
L 23.1875 -13.1875 
Q 15.875 -1.703125 12.234375 9.375 
Q 8.59375 20.453125 8.59375 31.390625 
Q 8.59375 42.28125 12.203125 53.3125 
Q 15.828125 64.359375 23.1875 75.875 
z
" id="DejaVuSans-40"/>
       <path d="M 16.890625 72.90625 
L 39.703125 72.90625 
Q 49.65625 72.90625 54.875 68.265625 
Q 60.109375 63.625 60.109375 54.6875 
Q 60.109375 42.671875 52.390625 35.984375 
Q 44.671875 29.296875 30.71875 29.296875 
L 18.3125 29.296875 
L 12.59375 0 
L 2.6875 0 
z
M 25.203125 64.796875 
L 19.921875 37.40625 
L 32.328125 37.40625 
Q 40.71875 37.40625 45.203125 41.703125 
Q 49.703125 46 49.703125 54 
Q 49.703125 59.125 46.65625 61.953125 
Q 43.609375 64.796875 38.09375 64.796875 
z
" id="DejaVuSans-Oblique-80"/>
       <path d="M 5.90625 72.90625 
L 67.578125 72.90625 
L 66.015625 64.59375 
L 39.984375 64.59375 
L 27.484375 0 
L 17.578125 0 
L 30.078125 64.59375 
L 4.296875 64.59375 
z
" id="DejaVuSans-Oblique-84"/>
       <path d="M 8.015625 75.875 
L 15.828125 75.875 
Q 23.140625 64.359375 26.78125 53.3125 
Q 30.421875 42.28125 30.421875 31.390625 
Q 30.421875 20.453125 26.78125 9.375 
Q 23.140625 -1.703125 15.828125 -13.1875 
L 8.015625 -13.1875 
Q 14.5 -2 17.703125 9.0625 
Q 20.90625 20.125 20.90625 31.390625 
Q 20.90625 42.671875 17.703125 53.65625 
Q 14.5 64.65625 8.015625 75.875 
z
" id="DejaVuSans-41"/>
      </defs>
      <use transform="translate(0 0.015625)" xlink:href="#DejaVuSans-916"/>
      <use transform="translate(68.408203 0.015625)" xlink:href="#DejaVuSans-Oblique-86"/>
      <use transform="translate(136.816406 -16.390625)scale(0.7)" xlink:href="#DejaVuSans-49"/>
      <use transform="translate(181.352539 -16.390625)scale(0.7)" xlink:href="#DejaVuSans-48"/>
      <use transform="translate(225.888672 -16.390625)scale(0.7)" xlink:href="#DejaVuSans-48"/>
      <use transform="translate(270.424805 -16.390625)scale(0.7)" xlink:href="#DejaVuSans-37"/>
      <use transform="translate(339.672852 0.015625)" xlink:href="#DejaVuSans-40"/>
      <use transform="translate(378.686523 0.015625)" xlink:href="#DejaVuSans-Oblique-80"/>
      <use transform="translate(438.989258 0.015625)" xlink:href="#DejaVuSans-Oblique-84"/>
      <use transform="translate(500.073242 0.015625)" xlink:href="#DejaVuSans-Oblique-86"/>
      <use transform="translate(568.481445 0.015625)" xlink:href="#DejaVuSans-41"/>
      <use transform="translate(607.495117 0.015625)" xlink:href="#DejaVuSans-32"/>
      <use transform="translate(639.282227 0.015625)" xlink:href="#DejaVuSans-91"/>
      <use transform="translate(678.295898 0.015625)" xlink:href="#DejaVuSans-37"/>
      <use transform="translate(773.31543 0.015625)" xlink:href="#DejaVuSans-93"/>
     </g>
    </g>
   </g>
   <g id="line2d_21">
    <path clip-path="url(#pd882c1670f)" d="M 101.521008 224.64 
L 101.521008 7.2 
" style="fill:none;stroke:#000000;stroke-linecap:square;stroke-width:1.5;"/>
   </g>
   <g id="patch_4">
    <path d="M 34.240625 224.64 
L 34.240625 7.2 
" style="fill:none;stroke:#000000;stroke-linecap:square;stroke-linejoin:miter;stroke-width:0.8;"/>
   </g>
   <g id="patch_5">
    <path d="M 385.780625 224.64 
L 385.780625 7.2 
" style="fill:none;stroke:#000000;stroke-linecap:square;stroke-linejoin:miter;stroke-width:0.8;"/>
   </g>
   <g id="patch_6">
    <path d="M 34.240625 224.64 
L 385.780625 224.64 
" style="fill:none;stroke:#000000;stroke-linecap:square;stroke-linejoin:miter;stroke-width:0.8;"/>
   </g>
   <g id="patch_7">
    <path d="M 34.240625 7.2 
L 385.780625 7.2 
" style="fill:none;stroke:#000000;stroke-linecap:square;stroke-linejoin:miter;stroke-width:0.8;"/>
   </g>
   <g id="PathCollection_1">
    <defs>
     <path d="M 0.844861 -3.535534 
L 1.92992 -3.535534 
L 3.242295 3.535534 
L 2.242101 3.535534 
L 1.948105 1.721546 
L -1.23433 1.721546 
L -2.233009 3.535534 
L -3.242295 3.535534 
z
M 1.190382 -2.592927 
L -0.793336 0.925937 
L 1.802622 0.925937 
z
" id="m543b0a70ae" style="stroke:#00afa5;stroke-width:0.5;"/>
    </defs>
    <g clip-path="url(#pd882c1670f)">
     <use style="fill:#00afa5;stroke:#00afa5;stroke-width:0.5;" x="104.885027" xlink:href="#m543b0a70ae" y="58.656822"/>
    </g>
   </g>
   <g id="PathCollection_2">
    <defs>
     <path d="M -1.392694 -3.535534 
L 1.051719 -3.535534 
Q 2.045851 -3.535534 2.538371 -3.165765 
Q 3.030891 -2.795997 3.030891 -2.053428 
Q 3.030891 -1.371478 2.606566 -0.875927 
Q 2.183757 -0.380377 1.49726 -0.277326 
Q 2.083737 -0.143967 2.377734 0.230348 
Q 2.67173 0.604663 2.67173 1.229026 
Q 2.67173 2.294384 1.882183 2.915717 
Q 1.094152 3.535534 -0.274296 3.535534 
L -2.770234 3.535534 
z
M -1.160831 0.159122 
L -1.662444 2.749018 
L -0.122751 2.749018 
Q 0.744084 2.749018 1.212356 2.351971 
Q 1.680629 1.953409 1.680629 1.229026 
Q 1.680629 0.669827 1.369963 0.415232 
Q 1.060812 0.159122 0.374315 0.159122 
z
M -0.597085 -2.749018 
L -1.013833 -0.618302 
L 0.412201 -0.618302 
Q 1.17447 -0.618302 1.603341 -0.948669 
Q 2.032212 -1.280551 2.032212 -1.868544 
Q 2.032212 -2.327724 1.742762 -2.538371 
Q 1.453312 -2.749018 0.819856 -2.749018 
z
" id="m1cc7a3d486" style="stroke:#00afa5;stroke-width:0.5;"/>
    </defs>
    <g clip-path="url(#pd882c1670f)">
     <use style="fill:#00afa5;stroke:#00afa5;stroke-width:0.5;" x="108.249046" xlink:href="#m1cc7a3d486" y="138.177897"/>
    </g>
   </g>
   <g id="PathCollection_3">
    <defs>
     <path d="M 3.247783 -2.887 
L 3.060819 -1.915659 
Q 2.62262 -2.35824 2.131837 -2.572957 
Q 1.641054 -2.787675 1.069935 -2.787675 
Q 0.289942 -2.787675 -0.301627 -2.412284 
Q -0.891735 -2.038355 -1.321169 -1.271507 
Q -1.595774 -0.779264 -1.74038 -0.228594 
Q -1.883524 0.322076 -1.883524 0.878589 
Q -1.883524 1.809031 -1.401506 2.298353 
Q -0.919487 2.786214 -0.002191 2.786214 
Q 0.631737 2.786214 1.216002 2.583182 
Q 1.800267 2.38015 2.352397 1.974086 
L 2.13914 3.065201 
Q 1.595774 3.297446 1.040722 3.41576 
Q 0.48567 3.535534 -0.070842 3.535534 
Q -1.381057 3.535534 -2.118691 2.824191 
Q -2.854865 2.111388 -2.854865 0.842072 
Q -2.854865 0.029944 -2.574418 -0.754432 
Q -2.293971 -1.540269 -1.768132 -2.188803 
Q -1.21162 -2.878236 -0.497356 -3.206885 
Q 0.216908 -3.535534 1.166339 -3.535534 
Q 1.750604 -3.535534 2.273521 -3.3734 
Q 2.796439 -3.211267 3.247783 -2.887 
z
" id="m62215944f1" style="stroke:#00afa5;stroke-width:0.5;"/>
    </defs>
    <g clip-path="url(#pd882c1670f)">
     <use style="fill:#00afa5;stroke:#00afa5;stroke-width:0.5;" x="121.705123" xlink:href="#m62215944f1" y="185.542138"/>
    </g>
   </g>
   <g id="PathCollection_4">
    <defs>
     <path d="M -1.863998 -3.535534 
L 0.192462 -3.535534 
Q 1.830658 -3.535534 2.665668 -2.84146 
Q 3.502194 -2.147386 3.502194 -0.778939 
Q 3.502194 0.125782 3.183951 0.962308 
Q 2.867223 1.797318 2.308023 2.370156 
Q 1.745793 2.958149 0.878958 3.247599 
Q 0.012124 3.535534 -1.171439 3.535534 
L -3.241538 3.535534 
z
M -1.057781 -2.749018 
L -2.124654 2.749018 
L -0.874412 2.749018 
Q 0.73196 2.749018 1.612434 1.826112 
Q 2.492908 0.90169 2.492908 -0.778939 
Q 2.492908 -1.797318 1.924616 -2.273168 
Q 1.356324 -2.749018 0.143967 -2.749018 
z
" id="m9587316c42" style="stroke:#005ea8;stroke-width:0.5;"/>
    </defs>
    <g clip-path="url(#pd882c1670f)">
     <use style="fill:#005ea8;stroke:#005ea8;stroke-width:0.5;" x="67.880816" xlink:href="#m9587316c42" y="43.355253"/>
    </g>
   </g>
   <g id="PathCollection_5">
    <defs>
     <path d="M -1.416184 -3.535534 
L 3.05438 -3.535534 
L 2.898289 -2.729317 
L -0.620575 -2.729317 
L -1.026714 -0.636487 
L 2.349698 -0.636487 
L 2.193607 0.168214 
L -1.184321 0.168214 
L -1.67684 2.730832 
L 1.922342 2.730832 
L 1.766252 3.535534 
L -2.793723 3.535534 
z
" id="mcf20bc51d1" style="stroke:#005ea8;stroke-width:0.5;"/>
    </defs>
    <g clip-path="url(#pd882c1670f)">
     <use style="fill:#005ea8;stroke:#005ea8;stroke-width:0.5;" x="185.621486" xlink:href="#mcf20bc51d1" y="200.631839"/>
    </g>
   </g>
   <g id="PathCollection_6">
    <defs>
     <path d="M -1.20781 -3.535534 
L 2.846006 -3.535534 
L 2.689915 -2.729317 
L -0.412201 -2.729317 
L -0.81834 -0.64558 
L 1.985233 -0.64558 
L 1.827627 0.159122 
L -0.975947 0.159122 
L -1.63365 3.535534 
L -2.58535 3.535534 
z
" id="meb446ad55d" style="stroke:#00afa5;stroke-width:0.5;"/>
    </defs>
    <g clip-path="url(#pd882c1670f)">
     <use style="fill:#00afa5;stroke:#00afa5;stroke-width:0.5;" x="252.901869" xlink:href="#meb446ad55d" y="208.941768"/>
    </g>
   </g>
   <g id="PathCollection_7">
    <defs>
     <path d="M 1.714088 2.384532 
L 2.070489 0.599602 
L 0.554321 0.599602 
L 0.696006 -0.158482 
L 3.114863 -0.158482 
L 2.526216 2.841719 
Q 1.91858 3.17475 1.201395 3.355872 
Q 0.48567 3.535534 -0.240279 3.535534 
Q -1.522741 3.535534 -2.245769 2.824191 
Q -2.968797 2.111388 -2.968797 0.842072 
Q -2.968797 -0.212526 -2.529137 -1.163418 
Q -2.088017 -2.11577 -1.312405 -2.751158 
Q -0.824544 -3.146998 -0.244661 -3.341266 
Q 0.335222 -3.535534 1.042183 -3.535534 
Q 1.681953 -3.535534 2.267679 -3.3734 
Q 2.854865 -3.211267 3.389468 -2.887 
L 3.202503 -1.905434 
Q 2.790596 -2.334869 2.238465 -2.561272 
Q 1.686335 -2.787675 1.061171 -2.787675 
Q 0.335222 -2.787675 -0.216908 -2.510149 
Q -0.769039 -2.234083 -1.202856 -1.655661 
Q -1.572403 -1.161957 -1.78566 -0.492974 
Q -1.997456 0.17601 -1.997456 0.869825 
Q -1.997456 1.823637 -1.509595 2.305656 
Q -1.020273 2.786214 -0.053314 2.786214 
Q 0.431626 2.786214 0.882971 2.683968 
Q 1.334315 2.580261 1.714088 2.384532 
z
" id="m94e3e06a35" style="stroke:#f17900;stroke-width:0.5;"/>
    </defs>
    <g clip-path="url(#pd882c1670f)">
     <use style="fill:#f17900;stroke:#f17900;stroke-width:0.5;" x="202.441582" xlink:href="#m94e3e06a35" y="178.621121"/>
    </g>
   </g>
   <g id="PathCollection_8">
    <defs>
     <path d="M -1.878394 -3.535534 
L -0.916087 -3.535534 
L -1.479832 -0.636487 
L 1.990537 -0.636487 
L 2.554283 -3.535534 
L 3.516591 -3.535534 
L 2.137536 3.535534 
L 1.176743 3.535534 
L 1.834447 0.168214 
L -1.635923 0.168214 
L -2.295142 3.535534 
L -3.255934 3.535534 
z
" id="m5b69b83e3c" style="stroke:#00afa5;stroke-width:0.5;"/>
    </defs>
    <g clip-path="url(#pd882c1670f)">
     <use style="fill:#00afa5;stroke:#00afa5;stroke-width:0.5;" x="67.880816" xlink:href="#m5b69b83e3c" y="17.083636"/>
    </g>
   </g>
   <g id="PathCollection_9">
    <defs>
     <path d="M 0.337944 -3.535534 
L 1.300252 -3.535534 
L -0.078803 3.535534 
L -1.039595 3.535534 
z
" id="m793a90f6ab" style="stroke:#00afa5;stroke-width:0.5;"/>
    </defs>
    <g clip-path="url(#pd882c1670f)">
     <use style="fill:#00afa5;stroke:#00afa5;stroke-width:0.5;" x="108.249046" xlink:href="#m793a90f6ab" y="154.232774"/>
    </g>
   </g>
   <g id="PathCollection_10">
    <defs>
     <path d="M 0.882843 -3.535534 
L 1.636678 -3.535534 
L 0.629583 1.625977 
Q 0.433396 2.633072 -0.033887 3.083708 
Q -0.49998 3.535534 -1.339425 3.535534 
L -1.636678 3.535534 
L -1.51421 2.904167 
L -1.279974 2.904167 
Q -0.77821 2.904167 -0.517816 2.617615 
Q -0.258611 2.332251 -0.120685 1.625977 
z
" id="mc128f1007c" style="stroke:#00afa5;stroke-width:0.5;"/>
    </defs>
    <g clip-path="url(#pd882c1670f)">
     <use style="fill:#00afa5;stroke:#00afa5;stroke-width:0.5;" x="337.002347" xlink:href="#mc128f1007c" y="191.097784"/>
    </g>
   </g>
   <g id="PathCollection_11">
    <defs>
     <path d="M -1.863998 -3.535534 
L -0.90169 -3.535534 
L -1.485136 -0.556168 
L 2.227705 -3.535534 
L 3.502194 -3.535534 
L -0.69862 -0.159122 
L 2.374703 3.535534 
L 1.209325 3.535534 
L -1.612434 0.092442 
L -2.280745 3.535534 
L -3.241538 3.535534 
z
" id="mf9ec4721d0" style="stroke:#005ea8;stroke-width:0.5;"/>
    </defs>
    <g clip-path="url(#pd882c1670f)">
     <use style="fill:#005ea8;stroke:#005ea8;stroke-width:0.5;" x="370.642539" xlink:href="#mf9ec4721d0" y="214.756364"/>
    </g>
   </g>
   <g id="PathCollection_12">
    <defs>
     <path d="M -0.781212 -3.535534 
L 0.17958 -3.535534 
L -1.032776 2.739925 
L 2.410316 2.739925 
L 2.254225 3.535534 
L -2.149659 3.535534 
z
" id="m87ef483fb1" style="stroke:#005ea8;stroke-width:0.5;"/>
    </defs>
    <g clip-path="url(#pd882c1670f)">
     <use style="fill:#005ea8;stroke:#005ea8;stroke-width:0.5;" x="67.880816" xlink:href="#m87ef483fb1" y="198.395456"/>
    </g>
   </g>
   <g id="PathCollection_13">
    <defs>
     <path d="M -2.106782 -3.083514 
L -0.855137 -3.083514 
L -0.136135 1.071895 
L 2.250846 -3.083514 
L 3.535534 -3.083514 
L 2.334113 3.083514 
L 1.523914 3.083514 
L 2.57334 -2.32354 
L 0.153317 1.897954 
L -0.660847 1.897954 
L -1.445934 -2.3394 
L -2.494038 3.083514 
L -3.308202 3.083514 
z
" id="m4da3619ce6" style="stroke:#005ea8;stroke-width:0.5;"/>
    </defs>
    <g clip-path="url(#pd882c1670f)">
     <use style="fill:#005ea8;stroke:#005ea8;stroke-width:0.5;" x="202.441582" xlink:href="#m4da3619ce6" y="195.429305"/>
    </g>
   </g>
   <g id="PathCollection_14">
    <defs>
     <path d="M -1.859451 -3.535534 
L -0.571323 -3.535534 
L 1.380571 2.526247 
L 2.564133 -3.535534 
L 3.497648 -3.535534 
L 2.118593 3.535534 
L 0.825918 3.535534 
L -1.119914 -2.564133 
L -2.303477 3.535534 
L -3.236991 3.535534 
z
" id="m121f1924e9" style="stroke:#f17900;stroke-width:0.5;"/>
    </defs>
    <g clip-path="url(#pd882c1670f)">
     <use style="fill:#f17900;stroke:#f17900;stroke-width:0.5;" x="67.880816" xlink:href="#m121f1924e9" y="148.630046"/>
    </g>
   </g>
   <g id="PathCollection_15">
    <defs>
     <path d="M 0.77196 -2.787675 
Q 0.013876 -2.787675 -0.566007 -2.419588 
Q -1.14589 -2.051501 -1.573864 -1.299259 
Q -1.848469 -0.820162 -1.993074 -0.281178 
Q -2.136219 0.257807 -2.136219 0.805555 
Q -2.136219 1.754986 -1.681953 2.2706 
Q -1.227687 2.786214 -0.39657 2.786214 
Q 0.351289 2.786214 0.937015 2.415206 
Q 1.524201 2.042737 1.94049 1.308023 
Q 2.218016 0.814319 2.364082 0.273874 
Q 2.510149 -0.268032 2.510149 -0.805555 
Q 2.510149 -1.750604 2.052961 -2.269139 
Q 1.597235 -2.787675 0.77196 -2.787675 
z
M -0.424322 3.535534 
Q -1.679032 3.535534 -2.399138 2.792057 
Q -3.117784 2.047119 -3.117784 0.754432 
Q -3.117784 0.015337 -2.837337 -0.755893 
Q -2.555429 -1.527123 -2.063186 -2.130376 
Q -1.483303 -2.837337 -0.77196 -3.186436 
Q -0.059157 -3.535534 0.799713 -3.535534 
Q 2.05004 -3.535534 2.770147 -2.797899 
Q 3.491714 -2.061725 3.491714 -0.788027 
Q 3.491714 -0.002191 3.217109 0.755893 
Q 2.943966 1.512516 2.432734 2.128916 
Q 1.848469 2.841719 1.142969 3.189357 
Q 0.438929 3.535534 -0.424322 3.535534 
z
" id="med1aaadfd3" style="stroke:#00afa5;stroke-width:0.5;"/>
    </defs>
    <g clip-path="url(#pd882c1670f)">
     <use style="fill:#00afa5;stroke:#00afa5;stroke-width:0.5;" x="236.081773" xlink:href="#med1aaadfd3" y="203.339039"/>
    </g>
   </g>
   <g id="text_13">
    <!-- overlap -->
    <g transform="translate(51.060721 219.817652)scale(0.1 -0.1)">
     <defs>
      <path d="M 34.421875 43.5 
Q 28.609375 43.5 25.5625 39.328125 
Q 22.515625 35.15625 22.515625 27.296875 
Q 22.515625 19.4375 25.5625 15.25 
Q 28.609375 11.078125 34.421875 11.078125 
Q 40.140625 11.078125 43.15625 15.25 
Q 46.1875 19.4375 46.1875 27.296875 
Q 46.1875 35.15625 43.15625 39.328125 
Q 40.140625 43.5 34.421875 43.5 
z
M 34.421875 56 
Q 48.53125 56 56.46875 48.375 
Q 64.40625 40.765625 64.40625 27.296875 
Q 64.40625 13.8125 56.46875 6.1875 
Q 48.53125 -1.421875 34.421875 -1.421875 
Q 20.265625 -1.421875 12.28125 6.1875 
Q 4.296875 13.8125 4.296875 27.296875 
Q 4.296875 40.765625 12.28125 48.375 
Q 20.265625 56 34.421875 56 
z
" id="DejaVuSans-Bold-111"/>
      <path d="M 1.515625 54.6875 
L 19 54.6875 
L 32.625 16.890625 
L 46.1875 54.6875 
L 63.71875 54.6875 
L 42.1875 0 
L 23 0 
z
" id="DejaVuSans-Bold-118"/>
      <path d="M 62.984375 27.484375 
L 62.984375 22.515625 
L 22.125 22.515625 
Q 22.75 16.359375 26.5625 13.28125 
Q 30.375 10.203125 37.203125 10.203125 
Q 42.71875 10.203125 48.5 11.84375 
Q 54.296875 13.484375 60.40625 16.796875 
L 60.40625 3.328125 
Q 54.203125 0.984375 48 -0.21875 
Q 41.796875 -1.421875 35.59375 -1.421875 
Q 20.75 -1.421875 12.515625 6.125 
Q 4.296875 13.671875 4.296875 27.296875 
Q 4.296875 40.671875 12.375 48.328125 
Q 20.453125 56 34.625 56 
Q 47.515625 56 55.25 48.234375 
Q 62.984375 40.484375 62.984375 27.484375 
z
M 45.015625 33.296875 
Q 45.015625 38.28125 42.109375 41.328125 
Q 39.203125 44.390625 34.515625 44.390625 
Q 29.4375 44.390625 26.265625 41.53125 
Q 23.09375 38.671875 22.3125 33.296875 
z
" id="DejaVuSans-Bold-101"/>
      <path d="M 49.03125 39.796875 
Q 46.734375 40.875 44.453125 41.375 
Q 42.1875 41.890625 39.890625 41.890625 
Q 33.15625 41.890625 29.515625 37.5625 
Q 25.875 33.25 25.875 25.203125 
L 25.875 0 
L 8.40625 0 
L 8.40625 54.6875 
L 25.875 54.6875 
L 25.875 45.703125 
Q 29.25 51.078125 33.609375 53.53125 
Q 37.984375 56 44.09375 56 
Q 44.96875 56 45.984375 55.921875 
Q 47.015625 55.859375 48.96875 55.609375 
z
" id="DejaVuSans-Bold-114"/>
      <path d="M 8.40625 75.984375 
L 25.875 75.984375 
L 25.875 0 
L 8.40625 0 
z
" id="DejaVuSans-Bold-108"/>
      <path d="M 32.90625 24.609375 
Q 27.4375 24.609375 24.671875 22.75 
Q 21.921875 20.90625 21.921875 17.28125 
Q 21.921875 13.96875 24.140625 12.078125 
Q 26.375 10.203125 30.328125 10.203125 
Q 35.25 10.203125 38.625 13.734375 
Q 42 17.28125 42 22.609375 
L 42 24.609375 
z
M 59.625 31.203125 
L 59.625 0 
L 42 0 
L 42 8.109375 
Q 38.484375 3.125 34.078125 0.84375 
Q 29.6875 -1.421875 23.390625 -1.421875 
Q 14.890625 -1.421875 9.59375 3.53125 
Q 4.296875 8.5 4.296875 16.40625 
Q 4.296875 26.03125 10.90625 30.515625 
Q 17.53125 35.015625 31.6875 35.015625 
L 42 35.015625 
L 42 36.375 
Q 42 40.53125 38.71875 42.453125 
Q 35.453125 44.390625 28.515625 44.390625 
Q 22.90625 44.390625 18.0625 43.265625 
Q 13.234375 42.140625 9.078125 39.890625 
L 9.078125 53.21875 
Q 14.703125 54.59375 20.359375 55.296875 
Q 26.03125 56 31.6875 56 
Q 46.484375 56 53.046875 50.171875 
Q 59.625 44.34375 59.625 31.203125 
z
" id="DejaVuSans-Bold-97"/>
      <path d="M 25.875 7.90625 
L 25.875 -20.796875 
L 8.40625 -20.796875 
L 8.40625 54.6875 
L 25.875 54.6875 
L 25.875 46.6875 
Q 29.5 51.46875 33.890625 53.734375 
Q 38.28125 56 44 56 
Q 54.109375 56 60.59375 47.96875 
Q 67.09375 39.9375 67.09375 27.296875 
Q 67.09375 14.65625 60.59375 6.609375 
Q 54.109375 -1.421875 44 -1.421875 
Q 38.28125 -1.421875 33.890625 0.84375 
Q 29.5 3.125 25.875 7.90625 
z
M 37.5 43.3125 
Q 31.890625 43.3125 28.875 39.1875 
Q 25.875 35.0625 25.875 27.296875 
Q 25.875 19.53125 28.875 15.40625 
Q 31.890625 11.28125 37.5 11.28125 
Q 43.109375 11.28125 46.0625 15.375 
Q 49.03125 19.484375 49.03125 27.296875 
Q 49.03125 35.109375 46.0625 39.203125 
Q 43.109375 43.3125 37.5 43.3125 
z
" id="DejaVuSans-Bold-112"/>
     </defs>
     <use xlink:href="#DejaVuSans-Bold-111"/>
     <use x="68.701172" xlink:href="#DejaVuSans-Bold-118"/>
     <use x="133.886719" xlink:href="#DejaVuSans-Bold-101"/>
     <use x="201.708984" xlink:href="#DejaVuSans-Bold-114"/>
     <use x="251.025391" xlink:href="#DejaVuSans-Bold-108"/>
     <use x="285.302734" xlink:href="#DejaVuSans-Bold-97"/>
     <use x="352.783203" xlink:href="#DejaVuSans-Bold-112"/>
    </g>
   </g>
   <g id="legend_1">
    <g id="patch_8">
     <path d="M 308.543303 62.771512 
L 379.949625 62.771512 
Q 381.615625 62.771512 381.615625 61.105512 
L 381.615625 13.031 
Q 381.615625 11.365 379.949625 11.365 
L 308.543303 11.365 
Q 306.877303 11.365 306.877303 13.031 
L 306.877303 61.105512 
Q 306.877303 62.771512 308.543303 62.771512 
z
" style="fill:#ffffff;opacity:0.8;stroke:#cccccc;stroke-linejoin:miter;"/>
    </g>
    <g id="line2d_22">
     <path d="M 310.209303 18.110998 
L 326.869303 18.110998 
" style="fill:none;stroke:#005ea8;stroke-linecap:square;stroke-width:2;"/>
    </g>
    <g id="line2d_23"/>
    <g id="text_14">
     <!-- bowel -->
     <g transform="translate(333.533303 21.026498)scale(0.0833 -0.0833)">
      <defs>
       <path d="M 48.6875 27.296875 
Q 48.6875 37.203125 44.609375 42.84375 
Q 40.53125 48.484375 33.40625 48.484375 
Q 26.265625 48.484375 22.1875 42.84375 
Q 18.109375 37.203125 18.109375 27.296875 
Q 18.109375 17.390625 22.1875 11.75 
Q 26.265625 6.109375 33.40625 6.109375 
Q 40.53125 6.109375 44.609375 11.75 
Q 48.6875 17.390625 48.6875 27.296875 
z
M 18.109375 46.390625 
Q 20.953125 51.265625 25.265625 53.625 
Q 29.59375 56 35.59375 56 
Q 45.5625 56 51.78125 48.09375 
Q 58.015625 40.1875 58.015625 27.296875 
Q 58.015625 14.40625 51.78125 6.484375 
Q 45.5625 -1.421875 35.59375 -1.421875 
Q 29.59375 -1.421875 25.265625 0.953125 
Q 20.953125 3.328125 18.109375 8.203125 
L 18.109375 0 
L 9.078125 0 
L 9.078125 75.984375 
L 18.109375 75.984375 
z
" id="DejaVuSans-98"/>
       <path d="M 4.203125 54.6875 
L 13.1875 54.6875 
L 24.421875 12.015625 
L 35.59375 54.6875 
L 46.1875 54.6875 
L 57.421875 12.015625 
L 68.609375 54.6875 
L 77.59375 54.6875 
L 63.28125 0 
L 52.6875 0 
L 40.921875 44.828125 
L 29.109375 0 
L 18.5 0 
z
" id="DejaVuSans-119"/>
      </defs>
      <use xlink:href="#DejaVuSans-98"/>
      <use x="63.476562" xlink:href="#DejaVuSans-111"/>
      <use x="124.658203" xlink:href="#DejaVuSans-119"/>
      <use x="206.445312" xlink:href="#DejaVuSans-101"/>
      <use x="267.96875" xlink:href="#DejaVuSans-108"/>
     </g>
    </g>
    <g id="line2d_24">
     <path d="M 310.209303 30.337877 
L 326.869303 30.337877 
" style="fill:none;stroke:#f17900;stroke-linecap:square;stroke-width:2;"/>
    </g>
    <g id="line2d_25"/>
    <g id="text_15">
     <!-- stomach -->
     <g transform="translate(333.533303 33.253377)scale(0.0833 -0.0833)">
      <defs>
       <path d="M 54.890625 33.015625 
L 54.890625 0 
L 45.90625 0 
L 45.90625 32.71875 
Q 45.90625 40.484375 42.875 44.328125 
Q 39.84375 48.1875 33.796875 48.1875 
Q 26.515625 48.1875 22.3125 43.546875 
Q 18.109375 38.921875 18.109375 30.90625 
L 18.109375 0 
L 9.078125 0 
L 9.078125 75.984375 
L 18.109375 75.984375 
L 18.109375 46.1875 
Q 21.34375 51.125 25.703125 53.5625 
Q 30.078125 56 35.796875 56 
Q 45.21875 56 50.046875 50.171875 
Q 54.890625 44.34375 54.890625 33.015625 
z
" id="DejaVuSans-104"/>
      </defs>
      <use xlink:href="#DejaVuSans-115"/>
      <use x="52.099609" xlink:href="#DejaVuSans-116"/>
      <use x="91.308594" xlink:href="#DejaVuSans-111"/>
      <use x="152.490234" xlink:href="#DejaVuSans-109"/>
      <use x="249.902344" xlink:href="#DejaVuSans-97"/>
      <use x="311.181641" xlink:href="#DejaVuSans-99"/>
      <use x="366.162109" xlink:href="#DejaVuSans-104"/>
     </g>
    </g>
    <g id="line2d_26">
     <path d="M 310.209303 42.564755 
L 326.869303 42.564755 
" style="fill:none;stroke:#ae0060;stroke-linecap:square;stroke-width:2;"/>
    </g>
    <g id="line2d_27"/>
    <g id="text_16">
     <!-- duodenum -->
     <g transform="translate(333.533303 45.480255)scale(0.0833 -0.0833)">
      <defs>
       <path d="M 8.5 21.578125 
L 8.5 54.6875 
L 17.484375 54.6875 
L 17.484375 21.921875 
Q 17.484375 14.15625 20.5 10.265625 
Q 23.53125 6.390625 29.59375 6.390625 
Q 36.859375 6.390625 41.078125 11.03125 
Q 45.3125 15.671875 45.3125 23.6875 
L 45.3125 54.6875 
L 54.296875 54.6875 
L 54.296875 0 
L 45.3125 0 
L 45.3125 8.40625 
Q 42.046875 3.421875 37.71875 1 
Q 33.40625 -1.421875 27.6875 -1.421875 
Q 18.265625 -1.421875 13.375 4.4375 
Q 8.5 10.296875 8.5 21.578125 
z
M 31.109375 56 
z
" id="DejaVuSans-117"/>
      </defs>
      <use xlink:href="#DejaVuSans-100"/>
      <use x="63.476562" xlink:href="#DejaVuSans-117"/>
      <use x="126.855469" xlink:href="#DejaVuSans-111"/>
      <use x="188.037109" xlink:href="#DejaVuSans-100"/>
      <use x="251.513672" xlink:href="#DejaVuSans-101"/>
      <use x="313.037109" xlink:href="#DejaVuSans-110"/>
      <use x="376.416016" xlink:href="#DejaVuSans-117"/>
      <use x="439.794922" xlink:href="#DejaVuSans-109"/>
     </g>
    </g>
    <g id="line2d_28">
     <path d="M 310.209303 54.791633 
L 326.869303 54.791633 
" style="fill:none;stroke:#00afa5;stroke-linecap:square;stroke-width:2;"/>
    </g>
    <g id="line2d_29"/>
    <g id="text_17">
     <!-- heart -->
     <g transform="translate(333.533303 57.707133)scale(0.0833 -0.0833)">
      <defs>
       <path d="M 41.109375 46.296875 
Q 39.59375 47.171875 37.8125 47.578125 
Q 36.03125 48 33.890625 48 
Q 26.265625 48 22.1875 43.046875 
Q 18.109375 38.09375 18.109375 28.8125 
L 18.109375 0 
L 9.078125 0 
L 9.078125 54.6875 
L 18.109375 54.6875 
L 18.109375 46.1875 
Q 20.953125 51.171875 25.484375 53.578125 
Q 30.03125 56 36.53125 56 
Q 37.453125 56 38.578125 55.875 
Q 39.703125 55.765625 41.0625 55.515625 
z
" id="DejaVuSans-114"/>
      </defs>
      <use xlink:href="#DejaVuSans-104"/>
      <use x="63.378906" xlink:href="#DejaVuSans-101"/>
      <use x="124.902344" xlink:href="#DejaVuSans-97"/>
      <use x="186.181641" xlink:href="#DejaVuSans-114"/>
      <use x="227.294922" xlink:href="#DejaVuSans-116"/>
     </g>
    </g>
   </g>
  </g>
 </g>
 <defs>
  <clipPath id="pd882c1670f">
   <rect height="217.44" width="351.54" x="34.240625" y="7.2"/>
  </clipPath>
 </defs>
 <defs>
  <pattern height="72" id="he0ecea22a2" patternUnits="userSpaceOnUse" width="72" x="0" y="0">
   <rect fill="none" height="73" width="73" x="0" y="0"/>
   <path d="M -36 36 
L 36 -36 
M -32 40 
L 40 -32 
M -28 44 
L 44 -28 
M -24 48 
L 48 -24 
M -20 52 
L 52 -20 
M -16 56 
L 56 -16 
M -12 60 
L 60 -12 
M -8 64 
L 64 -8 
M -4 68 
L 68 -4 
M 0 72 
L 72 0 
M 4 76 
L 76 4 
M 8 80 
L 80 8 
M 12 84 
L 84 12 
M 16 88 
L 88 16 
M 20 92 
L 92 20 
M 24 96 
L 96 24 
M 28 100 
L 100 28 
M 32 104 
L 104 32 
M 36 108 
L 108 36 
" style="fill:#c5d5db;stroke:#c5d5db;stroke-linecap:butt;stroke-linejoin:miter;stroke-width:1.0;"/>
  </pattern>
 </defs>
</svg>
