<?xml version="1.0" encoding="utf-8" standalone="no"?>
<!DOCTYPE svg PUBLIC "-//W3C//DTD SVG 1.1//EN"
  "http://www.w3.org/Graphics/SVG/1.1/DTD/svg11.dtd">
<!-- Created with matplotlib (https://matplotlib.org/) -->
<svg height="288pt" version="1.1" viewBox="0 0 453.6 288" width="453.6pt" xmlns="http://www.w3.org/2000/svg" xmlns:xlink="http://www.w3.org/1999/xlink">
 <metadata>
  <rdf:RDF xmlns:cc="http://creativecommons.org/ns#" xmlns:dc="http://purl.org/dc/elements/1.1/" xmlns:rdf="http://www.w3.org/1999/02/22-rdf-syntax-ns#">
   <cc:Work>
    <dc:type rdf:resource="http://purl.org/dc/dcmitype/StillImage"/>
    <dc:date>2020-11-23T19:11:56.778048</dc:date>
    <dc:format>image/svg+xml</dc:format>
    <dc:creator>
     <cc:Agent>
      <dc:title>Matplotlib v3.3.0, https://matplotlib.org/</dc:title>
     </cc:Agent>
    </dc:creator>
   </cc:Work>
  </rdf:RDF>
 </metadata>
 <defs>
  <style type="text/css">*{stroke-linecap:butt;stroke-linejoin:round;}</style>
 </defs>
 <g id="figure_1">
  <g id="patch_1">
   <path d="M 0 288 
L 453.6 288 
L 453.6 0 
L 0 0 
z
" style="fill:none;"/>
  </g>
  <g id="axes_1">
   <g id="patch_2">
    <path d="M 106.809771 256.579135 
L 346.790229 256.579135 
L 346.790229 16.598677 
L 106.809771 16.598677 
z
" style="fill:#ffffff;"/>
   </g>
   <g id="matplotlib.axis_1">
    <g id="xtick_1">
     <g id="line2d_1">
      <path clip-path="url(#p15c8f1798a)" d="M 123.48821 256.579135 
L 123.48821 16.598677 
" style="fill:none;stroke:#b0b0b0;stroke-linecap:square;stroke-width:0.8;"/>
     </g>
     <g id="line2d_2">
      <defs>
       <path d="M 0 0 
L 0 3.5 
" id="m26a4cc5a80" style="stroke:#000000;stroke-width:0.8;"/>
      </defs>
      <g>
       <use style="stroke:#000000;stroke-width:0.8;" x="123.48821" xlink:href="#m26a4cc5a80" y="256.579135"/>
      </g>
     </g>
     <g id="text_1">
      <!-- 4 -->
      <g transform="translate(120.94321 269.657885)scale(0.08 -0.08)">
       <defs>
        <path d="M 37.796875 64.3125 
L 12.890625 25.390625 
L 37.796875 25.390625 
z
M 35.203125 72.90625 
L 47.609375 72.90625 
L 47.609375 25.390625 
L 58.015625 25.390625 
L 58.015625 17.1875 
L 47.609375 17.1875 
L 47.609375 0 
L 37.796875 0 
L 37.796875 17.1875 
L 4.890625 17.1875 
L 4.890625 26.703125 
z
" id="DejaVuSans-52"/>
       </defs>
       <use xlink:href="#DejaVuSans-52"/>
      </g>
     </g>
    </g>
    <g id="xtick_2">
     <g id="line2d_3">
      <path clip-path="url(#p15c8f1798a)" d="M 159.480113 256.579135 
L 159.480113 16.598677 
" style="fill:none;stroke:#b0b0b0;stroke-linecap:square;stroke-width:0.8;"/>
     </g>
     <g id="line2d_4">
      <g>
       <use style="stroke:#000000;stroke-width:0.8;" x="159.480113" xlink:href="#m26a4cc5a80" y="256.579135"/>
      </g>
     </g>
     <g id="text_2">
      <!-- 6 -->
      <g transform="translate(156.935113 269.657885)scale(0.08 -0.08)">
       <defs>
        <path d="M 33.015625 40.375 
Q 26.375 40.375 22.484375 35.828125 
Q 18.609375 31.296875 18.609375 23.390625 
Q 18.609375 15.53125 22.484375 10.953125 
Q 26.375 6.390625 33.015625 6.390625 
Q 39.65625 6.390625 43.53125 10.953125 
Q 47.40625 15.53125 47.40625 23.390625 
Q 47.40625 31.296875 43.53125 35.828125 
Q 39.65625 40.375 33.015625 40.375 
z
M 52.59375 71.296875 
L 52.59375 62.3125 
Q 48.875 64.0625 45.09375 64.984375 
Q 41.3125 65.921875 37.59375 65.921875 
Q 27.828125 65.921875 22.671875 59.328125 
Q 17.53125 52.734375 16.796875 39.40625 
Q 19.671875 43.65625 24.015625 45.921875 
Q 28.375 48.1875 33.59375 48.1875 
Q 44.578125 48.1875 50.953125 41.515625 
Q 57.328125 34.859375 57.328125 23.390625 
Q 57.328125 12.15625 50.6875 5.359375 
Q 44.046875 -1.421875 33.015625 -1.421875 
Q 20.359375 -1.421875 13.671875 8.265625 
Q 6.984375 17.96875 6.984375 36.375 
Q 6.984375 53.65625 15.1875 63.9375 
Q 23.390625 74.21875 37.203125 74.21875 
Q 40.921875 74.21875 44.703125 73.484375 
Q 48.484375 72.75 52.59375 71.296875 
z
" id="DejaVuSans-54"/>
       </defs>
       <use xlink:href="#DejaVuSans-54"/>
      </g>
     </g>
    </g>
    <g id="xtick_3">
     <g id="line2d_5">
      <path clip-path="url(#p15c8f1798a)" d="M 195.472016 256.579135 
L 195.472016 16.598677 
" style="fill:none;stroke:#b0b0b0;stroke-linecap:square;stroke-width:0.8;"/>
     </g>
     <g id="line2d_6">
      <g>
       <use style="stroke:#000000;stroke-width:0.8;" x="195.472016" xlink:href="#m26a4cc5a80" y="256.579135"/>
      </g>
     </g>
     <g id="text_3">
      <!-- 8 -->
      <g transform="translate(192.927016 269.657885)scale(0.08 -0.08)">
       <defs>
        <path d="M 31.78125 34.625 
Q 24.75 34.625 20.71875 30.859375 
Q 16.703125 27.09375 16.703125 20.515625 
Q 16.703125 13.921875 20.71875 10.15625 
Q 24.75 6.390625 31.78125 6.390625 
Q 38.8125 6.390625 42.859375 10.171875 
Q 46.921875 13.96875 46.921875 20.515625 
Q 46.921875 27.09375 42.890625 30.859375 
Q 38.875 34.625 31.78125 34.625 
z
M 21.921875 38.8125 
Q 15.578125 40.375 12.03125 44.71875 
Q 8.5 49.078125 8.5 55.328125 
Q 8.5 64.0625 14.71875 69.140625 
Q 20.953125 74.21875 31.78125 74.21875 
Q 42.671875 74.21875 48.875 69.140625 
Q 55.078125 64.0625 55.078125 55.328125 
Q 55.078125 49.078125 51.53125 44.71875 
Q 48 40.375 41.703125 38.8125 
Q 48.828125 37.15625 52.796875 32.3125 
Q 56.78125 27.484375 56.78125 20.515625 
Q 56.78125 9.90625 50.3125 4.234375 
Q 43.84375 -1.421875 31.78125 -1.421875 
Q 19.734375 -1.421875 13.25 4.234375 
Q 6.78125 9.90625 6.78125 20.515625 
Q 6.78125 27.484375 10.78125 32.3125 
Q 14.796875 37.15625 21.921875 38.8125 
z
M 18.3125 54.390625 
Q 18.3125 48.734375 21.84375 45.5625 
Q 25.390625 42.390625 31.78125 42.390625 
Q 38.140625 42.390625 41.71875 45.5625 
Q 45.3125 48.734375 45.3125 54.390625 
Q 45.3125 60.0625 41.71875 63.234375 
Q 38.140625 66.40625 31.78125 66.40625 
Q 25.390625 66.40625 21.84375 63.234375 
Q 18.3125 60.0625 18.3125 54.390625 
z
" id="DejaVuSans-56"/>
       </defs>
       <use xlink:href="#DejaVuSans-56"/>
      </g>
     </g>
    </g>
    <g id="xtick_4">
     <g id="line2d_7">
      <path clip-path="url(#p15c8f1798a)" d="M 231.46392 256.579135 
L 231.46392 16.598677 
" style="fill:none;stroke:#b0b0b0;stroke-linecap:square;stroke-width:0.8;"/>
     </g>
     <g id="line2d_8">
      <g>
       <use style="stroke:#000000;stroke-width:0.8;" x="231.46392" xlink:href="#m26a4cc5a80" y="256.579135"/>
      </g>
     </g>
     <g id="text_4">
      <!-- 10 -->
      <g transform="translate(226.37392 269.657885)scale(0.08 -0.08)">
       <defs>
        <path d="M 12.40625 8.296875 
L 28.515625 8.296875 
L 28.515625 63.921875 
L 10.984375 60.40625 
L 10.984375 69.390625 
L 28.421875 72.90625 
L 38.28125 72.90625 
L 38.28125 8.296875 
L 54.390625 8.296875 
L 54.390625 0 
L 12.40625 0 
z
" id="DejaVuSans-49"/>
        <path d="M 31.78125 66.40625 
Q 24.171875 66.40625 20.328125 58.90625 
Q 16.5 51.421875 16.5 36.375 
Q 16.5 21.390625 20.328125 13.890625 
Q 24.171875 6.390625 31.78125 6.390625 
Q 39.453125 6.390625 43.28125 13.890625 
Q 47.125 21.390625 47.125 36.375 
Q 47.125 51.421875 43.28125 58.90625 
Q 39.453125 66.40625 31.78125 66.40625 
z
M 31.78125 74.21875 
Q 44.046875 74.21875 50.515625 64.515625 
Q 56.984375 54.828125 56.984375 36.375 
Q 56.984375 17.96875 50.515625 8.265625 
Q 44.046875 -1.421875 31.78125 -1.421875 
Q 19.53125 -1.421875 13.0625 8.265625 
Q 6.59375 17.96875 6.59375 36.375 
Q 6.59375 54.828125 13.0625 64.515625 
Q 19.53125 74.21875 31.78125 74.21875 
z
" id="DejaVuSans-48"/>
       </defs>
       <use xlink:href="#DejaVuSans-49"/>
       <use x="63.623047" xlink:href="#DejaVuSans-48"/>
      </g>
     </g>
    </g>
    <g id="xtick_5">
     <g id="line2d_9">
      <path clip-path="url(#p15c8f1798a)" d="M 267.455823 256.579135 
L 267.455823 16.598677 
" style="fill:none;stroke:#b0b0b0;stroke-linecap:square;stroke-width:0.8;"/>
     </g>
     <g id="line2d_10">
      <g>
       <use style="stroke:#000000;stroke-width:0.8;" x="267.455823" xlink:href="#m26a4cc5a80" y="256.579135"/>
      </g>
     </g>
     <g id="text_5">
      <!-- 12 -->
      <g transform="translate(262.365823 269.657885)scale(0.08 -0.08)">
       <defs>
        <path d="M 19.1875 8.296875 
L 53.609375 8.296875 
L 53.609375 0 
L 7.328125 0 
L 7.328125 8.296875 
Q 12.9375 14.109375 22.625 23.890625 
Q 32.328125 33.6875 34.8125 36.53125 
Q 39.546875 41.84375 41.421875 45.53125 
Q 43.3125 49.21875 43.3125 52.78125 
Q 43.3125 58.59375 39.234375 62.25 
Q 35.15625 65.921875 28.609375 65.921875 
Q 23.96875 65.921875 18.8125 64.3125 
Q 13.671875 62.703125 7.8125 59.421875 
L 7.8125 69.390625 
Q 13.765625 71.78125 18.9375 73 
Q 24.125 74.21875 28.421875 74.21875 
Q 39.75 74.21875 46.484375 68.546875 
Q 53.21875 62.890625 53.21875 53.421875 
Q 53.21875 48.921875 51.53125 44.890625 
Q 49.859375 40.875 45.40625 35.40625 
Q 44.1875 33.984375 37.640625 27.21875 
Q 31.109375 20.453125 19.1875 8.296875 
z
" id="DejaVuSans-50"/>
       </defs>
       <use xlink:href="#DejaVuSans-49"/>
       <use x="63.623047" xlink:href="#DejaVuSans-50"/>
      </g>
     </g>
    </g>
    <g id="xtick_6">
     <g id="line2d_11">
      <path clip-path="url(#p15c8f1798a)" d="M 303.447726 256.579135 
L 303.447726 16.598677 
" style="fill:none;stroke:#b0b0b0;stroke-linecap:square;stroke-width:0.8;"/>
     </g>
     <g id="line2d_12">
      <g>
       <use style="stroke:#000000;stroke-width:0.8;" x="303.447726" xlink:href="#m26a4cc5a80" y="256.579135"/>
      </g>
     </g>
     <g id="text_6">
      <!-- 14 -->
      <g transform="translate(298.357726 269.657885)scale(0.08 -0.08)">
       <use xlink:href="#DejaVuSans-49"/>
       <use x="63.623047" xlink:href="#DejaVuSans-52"/>
      </g>
     </g>
    </g>
    <g id="xtick_7">
     <g id="line2d_13">
      <path clip-path="url(#p15c8f1798a)" d="M 339.439629 256.579135 
L 339.439629 16.598677 
" style="fill:none;stroke:#b0b0b0;stroke-linecap:square;stroke-width:0.8;"/>
     </g>
     <g id="line2d_14">
      <g>
       <use style="stroke:#000000;stroke-width:0.8;" x="339.439629" xlink:href="#m26a4cc5a80" y="256.579135"/>
      </g>
     </g>
     <g id="text_7">
      <!-- 16 -->
      <g transform="translate(334.349629 269.657885)scale(0.08 -0.08)">
       <use xlink:href="#DejaVuSans-49"/>
       <use x="63.623047" xlink:href="#DejaVuSans-54"/>
      </g>
     </g>
    </g>
    <g id="text_8">
     <!-- non-adaptive [Gy] -->
     <g transform="translate(181.413281 282.920073)scale(0.1 -0.1)">
      <defs>
       <path d="M 54.890625 33.015625 
L 54.890625 0 
L 45.90625 0 
L 45.90625 32.71875 
Q 45.90625 40.484375 42.875 44.328125 
Q 39.84375 48.1875 33.796875 48.1875 
Q 26.515625 48.1875 22.3125 43.546875 
Q 18.109375 38.921875 18.109375 30.90625 
L 18.109375 0 
L 9.078125 0 
L 9.078125 54.6875 
L 18.109375 54.6875 
L 18.109375 46.1875 
Q 21.34375 51.125 25.703125 53.5625 
Q 30.078125 56 35.796875 56 
Q 45.21875 56 50.046875 50.171875 
Q 54.890625 44.34375 54.890625 33.015625 
z
" id="DejaVuSans-110"/>
       <path d="M 30.609375 48.390625 
Q 23.390625 48.390625 19.1875 42.75 
Q 14.984375 37.109375 14.984375 27.296875 
Q 14.984375 17.484375 19.15625 11.84375 
Q 23.34375 6.203125 30.609375 6.203125 
Q 37.796875 6.203125 41.984375 11.859375 
Q 46.1875 17.53125 46.1875 27.296875 
Q 46.1875 37.015625 41.984375 42.703125 
Q 37.796875 48.390625 30.609375 48.390625 
z
M 30.609375 56 
Q 42.328125 56 49.015625 48.375 
Q 55.71875 40.765625 55.71875 27.296875 
Q 55.71875 13.875 49.015625 6.21875 
Q 42.328125 -1.421875 30.609375 -1.421875 
Q 18.84375 -1.421875 12.171875 6.21875 
Q 5.515625 13.875 5.515625 27.296875 
Q 5.515625 40.765625 12.171875 48.375 
Q 18.84375 56 30.609375 56 
z
" id="DejaVuSans-111"/>
       <path d="M 4.890625 31.390625 
L 31.203125 31.390625 
L 31.203125 23.390625 
L 4.890625 23.390625 
z
" id="DejaVuSans-45"/>
       <path d="M 34.28125 27.484375 
Q 23.390625 27.484375 19.1875 25 
Q 14.984375 22.515625 14.984375 16.5 
Q 14.984375 11.71875 18.140625 8.90625 
Q 21.296875 6.109375 26.703125 6.109375 
Q 34.1875 6.109375 38.703125 11.40625 
Q 43.21875 16.703125 43.21875 25.484375 
L 43.21875 27.484375 
z
M 52.203125 31.203125 
L 52.203125 0 
L 43.21875 0 
L 43.21875 8.296875 
Q 40.140625 3.328125 35.546875 0.953125 
Q 30.953125 -1.421875 24.3125 -1.421875 
Q 15.921875 -1.421875 10.953125 3.296875 
Q 6 8.015625 6 15.921875 
Q 6 25.140625 12.171875 29.828125 
Q 18.359375 34.515625 30.609375 34.515625 
L 43.21875 34.515625 
L 43.21875 35.40625 
Q 43.21875 41.609375 39.140625 45 
Q 35.0625 48.390625 27.6875 48.390625 
Q 23 48.390625 18.546875 47.265625 
Q 14.109375 46.140625 10.015625 43.890625 
L 10.015625 52.203125 
Q 14.9375 54.109375 19.578125 55.046875 
Q 24.21875 56 28.609375 56 
Q 40.484375 56 46.34375 49.84375 
Q 52.203125 43.703125 52.203125 31.203125 
z
" id="DejaVuSans-97"/>
       <path d="M 45.40625 46.390625 
L 45.40625 75.984375 
L 54.390625 75.984375 
L 54.390625 0 
L 45.40625 0 
L 45.40625 8.203125 
Q 42.578125 3.328125 38.25 0.953125 
Q 33.9375 -1.421875 27.875 -1.421875 
Q 17.96875 -1.421875 11.734375 6.484375 
Q 5.515625 14.40625 5.515625 27.296875 
Q 5.515625 40.1875 11.734375 48.09375 
Q 17.96875 56 27.875 56 
Q 33.9375 56 38.25 53.625 
Q 42.578125 51.265625 45.40625 46.390625 
z
M 14.796875 27.296875 
Q 14.796875 17.390625 18.875 11.75 
Q 22.953125 6.109375 30.078125 6.109375 
Q 37.203125 6.109375 41.296875 11.75 
Q 45.40625 17.390625 45.40625 27.296875 
Q 45.40625 37.203125 41.296875 42.84375 
Q 37.203125 48.484375 30.078125 48.484375 
Q 22.953125 48.484375 18.875 42.84375 
Q 14.796875 37.203125 14.796875 27.296875 
z
" id="DejaVuSans-100"/>
       <path d="M 18.109375 8.203125 
L 18.109375 -20.796875 
L 9.078125 -20.796875 
L 9.078125 54.6875 
L 18.109375 54.6875 
L 18.109375 46.390625 
Q 20.953125 51.265625 25.265625 53.625 
Q 29.59375 56 35.59375 56 
Q 45.5625 56 51.78125 48.09375 
Q 58.015625 40.1875 58.015625 27.296875 
Q 58.015625 14.40625 51.78125 6.484375 
Q 45.5625 -1.421875 35.59375 -1.421875 
Q 29.59375 -1.421875 25.265625 0.953125 
Q 20.953125 3.328125 18.109375 8.203125 
z
M 48.6875 27.296875 
Q 48.6875 37.203125 44.609375 42.84375 
Q 40.53125 48.484375 33.40625 48.484375 
Q 26.265625 48.484375 22.1875 42.84375 
Q 18.109375 37.203125 18.109375 27.296875 
Q 18.109375 17.390625 22.1875 11.75 
Q 26.265625 6.109375 33.40625 6.109375 
Q 40.53125 6.109375 44.609375 11.75 
Q 48.6875 17.390625 48.6875 27.296875 
z
" id="DejaVuSans-112"/>
       <path d="M 18.3125 70.21875 
L 18.3125 54.6875 
L 36.8125 54.6875 
L 36.8125 47.703125 
L 18.3125 47.703125 
L 18.3125 18.015625 
Q 18.3125 11.328125 20.140625 9.421875 
Q 21.96875 7.515625 27.59375 7.515625 
L 36.8125 7.515625 
L 36.8125 0 
L 27.59375 0 
Q 17.1875 0 13.234375 3.875 
Q 9.28125 7.765625 9.28125 18.015625 
L 9.28125 47.703125 
L 2.6875 47.703125 
L 2.6875 54.6875 
L 9.28125 54.6875 
L 9.28125 70.21875 
z
" id="DejaVuSans-116"/>
       <path d="M 9.421875 54.6875 
L 18.40625 54.6875 
L 18.40625 0 
L 9.421875 0 
z
M 9.421875 75.984375 
L 18.40625 75.984375 
L 18.40625 64.59375 
L 9.421875 64.59375 
z
" id="DejaVuSans-105"/>
       <path d="M 2.984375 54.6875 
L 12.5 54.6875 
L 29.59375 8.796875 
L 46.6875 54.6875 
L 56.203125 54.6875 
L 35.6875 0 
L 23.484375 0 
z
" id="DejaVuSans-118"/>
       <path d="M 56.203125 29.59375 
L 56.203125 25.203125 
L 14.890625 25.203125 
Q 15.484375 15.921875 20.484375 11.0625 
Q 25.484375 6.203125 34.421875 6.203125 
Q 39.59375 6.203125 44.453125 7.46875 
Q 49.3125 8.734375 54.109375 11.28125 
L 54.109375 2.78125 
Q 49.265625 0.734375 44.1875 -0.34375 
Q 39.109375 -1.421875 33.890625 -1.421875 
Q 20.796875 -1.421875 13.15625 6.1875 
Q 5.515625 13.8125 5.515625 26.8125 
Q 5.515625 40.234375 12.765625 48.109375 
Q 20.015625 56 32.328125 56 
Q 43.359375 56 49.78125 48.890625 
Q 56.203125 41.796875 56.203125 29.59375 
z
M 47.21875 32.234375 
Q 47.125 39.59375 43.09375 43.984375 
Q 39.0625 48.390625 32.421875 48.390625 
Q 24.90625 48.390625 20.390625 44.140625 
Q 15.875 39.890625 15.1875 32.171875 
z
" id="DejaVuSans-101"/>
       <path id="DejaVuSans-32"/>
       <path d="M 8.59375 75.984375 
L 29.296875 75.984375 
L 29.296875 69 
L 17.578125 69 
L 17.578125 -6.203125 
L 29.296875 -6.203125 
L 29.296875 -13.1875 
L 8.59375 -13.1875 
z
" id="DejaVuSans-91"/>
       <path d="M 59.515625 10.40625 
L 59.515625 29.984375 
L 43.40625 29.984375 
L 43.40625 38.09375 
L 69.28125 38.09375 
L 69.28125 6.78125 
Q 63.578125 2.734375 56.6875 0.65625 
Q 49.8125 -1.421875 42 -1.421875 
Q 24.90625 -1.421875 15.25 8.5625 
Q 5.609375 18.5625 5.609375 36.375 
Q 5.609375 54.25 15.25 64.234375 
Q 24.90625 74.21875 42 74.21875 
Q 49.125 74.21875 55.546875 72.453125 
Q 61.96875 70.703125 67.390625 67.28125 
L 67.390625 56.78125 
Q 61.921875 61.421875 55.765625 63.765625 
Q 49.609375 66.109375 42.828125 66.109375 
Q 29.4375 66.109375 22.71875 58.640625 
Q 16.015625 51.171875 16.015625 36.375 
Q 16.015625 21.625 22.71875 14.15625 
Q 29.4375 6.6875 42.828125 6.6875 
Q 48.046875 6.6875 52.140625 7.59375 
Q 56.25 8.5 59.515625 10.40625 
z
" id="DejaVuSans-71"/>
       <path d="M 32.171875 -5.078125 
Q 28.375 -14.84375 24.75 -17.8125 
Q 21.140625 -20.796875 15.09375 -20.796875 
L 7.90625 -20.796875 
L 7.90625 -13.28125 
L 13.1875 -13.28125 
Q 16.890625 -13.28125 18.9375 -11.515625 
Q 21 -9.765625 23.484375 -3.21875 
L 25.09375 0.875 
L 2.984375 54.6875 
L 12.5 54.6875 
L 29.59375 11.921875 
L 46.6875 54.6875 
L 56.203125 54.6875 
z
" id="DejaVuSans-121"/>
       <path d="M 30.421875 75.984375 
L 30.421875 -13.1875 
L 9.71875 -13.1875 
L 9.71875 -6.203125 
L 21.390625 -6.203125 
L 21.390625 69 
L 9.71875 69 
L 9.71875 75.984375 
z
" id="DejaVuSans-93"/>
      </defs>
      <use xlink:href="#DejaVuSans-110"/>
      <use x="63.378906" xlink:href="#DejaVuSans-111"/>
      <use x="124.560547" xlink:href="#DejaVuSans-110"/>
      <use x="187.939453" xlink:href="#DejaVuSans-45"/>
      <use x="224.023438" xlink:href="#DejaVuSans-97"/>
      <use x="285.302734" xlink:href="#DejaVuSans-100"/>
      <use x="348.779297" xlink:href="#DejaVuSans-97"/>
      <use x="410.058594" xlink:href="#DejaVuSans-112"/>
      <use x="473.535156" xlink:href="#DejaVuSans-116"/>
      <use x="512.744141" xlink:href="#DejaVuSans-105"/>
      <use x="540.527344" xlink:href="#DejaVuSans-118"/>
      <use x="599.707031" xlink:href="#DejaVuSans-101"/>
      <use x="661.230469" xlink:href="#DejaVuSans-32"/>
      <use x="693.017578" xlink:href="#DejaVuSans-91"/>
      <use x="732.03125" xlink:href="#DejaVuSans-71"/>
      <use x="809.521484" xlink:href="#DejaVuSans-121"/>
      <use x="868.701172" xlink:href="#DejaVuSans-93"/>
     </g>
    </g>
   </g>
   <g id="matplotlib.axis_2">
    <g id="ytick_1">
     <g id="line2d_15">
      <path clip-path="url(#p15c8f1798a)" d="M 106.809771 229.212837 
L 346.790229 229.212837 
" style="fill:none;stroke:#b0b0b0;stroke-linecap:square;stroke-width:0.8;"/>
     </g>
     <g id="line2d_16">
      <defs>
       <path d="M 0 0 
L -3.5 0 
" id="m70ece39170" style="stroke:#000000;stroke-width:0.8;"/>
      </defs>
      <g>
       <use style="stroke:#000000;stroke-width:0.8;" x="106.809771" xlink:href="#m70ece39170" y="229.212837"/>
      </g>
     </g>
     <g id="text_9">
      <!-- 6 -->
      <g transform="translate(94.719771 232.252212)scale(0.08 -0.08)">
       <use xlink:href="#DejaVuSans-54"/>
      </g>
     </g>
    </g>
    <g id="ytick_2">
     <g id="line2d_17">
      <path clip-path="url(#p15c8f1798a)" d="M 106.809771 188.816153 
L 346.790229 188.816153 
" style="fill:none;stroke:#b0b0b0;stroke-linecap:square;stroke-width:0.8;"/>
     </g>
     <g id="line2d_18">
      <g>
       <use style="stroke:#000000;stroke-width:0.8;" x="106.809771" xlink:href="#m70ece39170" y="188.816153"/>
      </g>
     </g>
     <g id="text_10">
      <!-- 8 -->
      <g transform="translate(94.719771 191.855528)scale(0.08 -0.08)">
       <use xlink:href="#DejaVuSans-56"/>
      </g>
     </g>
    </g>
    <g id="ytick_3">
     <g id="line2d_19">
      <path clip-path="url(#p15c8f1798a)" d="M 106.809771 148.41947 
L 346.790229 148.41947 
" style="fill:none;stroke:#b0b0b0;stroke-linecap:square;stroke-width:0.8;"/>
     </g>
     <g id="line2d_20">
      <g>
       <use style="stroke:#000000;stroke-width:0.8;" x="106.809771" xlink:href="#m70ece39170" y="148.41947"/>
      </g>
     </g>
     <g id="text_11">
      <!-- 10 -->
      <g transform="translate(89.629771 151.458845)scale(0.08 -0.08)">
       <use xlink:href="#DejaVuSans-49"/>
       <use x="63.623047" xlink:href="#DejaVuSans-48"/>
      </g>
     </g>
    </g>
    <g id="ytick_4">
     <g id="line2d_21">
      <path clip-path="url(#p15c8f1798a)" d="M 106.809771 108.022787 
L 346.790229 108.022787 
" style="fill:none;stroke:#b0b0b0;stroke-linecap:square;stroke-width:0.8;"/>
     </g>
     <g id="line2d_22">
      <g>
       <use style="stroke:#000000;stroke-width:0.8;" x="106.809771" xlink:href="#m70ece39170" y="108.022787"/>
      </g>
     </g>
     <g id="text_12">
      <!-- 12 -->
      <g transform="translate(89.629771 111.062162)scale(0.08 -0.08)">
       <use xlink:href="#DejaVuSans-49"/>
       <use x="63.623047" xlink:href="#DejaVuSans-50"/>
      </g>
     </g>
    </g>
    <g id="ytick_5">
     <g id="line2d_23">
      <path clip-path="url(#p15c8f1798a)" d="M 106.809771 67.626104 
L 346.790229 67.626104 
" style="fill:none;stroke:#b0b0b0;stroke-linecap:square;stroke-width:0.8;"/>
     </g>
     <g id="line2d_24">
      <g>
       <use style="stroke:#000000;stroke-width:0.8;" x="106.809771" xlink:href="#m70ece39170" y="67.626104"/>
      </g>
     </g>
     <g id="text_13">
      <!-- 14 -->
      <g transform="translate(89.629771 70.665479)scale(0.08 -0.08)">
       <use xlink:href="#DejaVuSans-49"/>
       <use x="63.623047" xlink:href="#DejaVuSans-52"/>
      </g>
     </g>
    </g>
    <g id="ytick_6">
     <g id="line2d_25">
      <path clip-path="url(#p15c8f1798a)" d="M 106.809771 27.22942 
L 346.790229 27.22942 
" style="fill:none;stroke:#b0b0b0;stroke-linecap:square;stroke-width:0.8;"/>
     </g>
     <g id="line2d_26">
      <g>
       <use style="stroke:#000000;stroke-width:0.8;" x="106.809771" xlink:href="#m70ece39170" y="27.22942"/>
      </g>
     </g>
     <g id="text_14">
      <!-- 16 -->
      <g transform="translate(89.629771 30.268795)scale(0.08 -0.08)">
       <use xlink:href="#DejaVuSans-49"/>
       <use x="63.623047" xlink:href="#DejaVuSans-54"/>
      </g>
     </g>
    </g>
    <g id="text_15">
     <!-- adaptive [Gy] -->
     <g transform="translate(83.550084 170.774844)rotate(-90)scale(0.1 -0.1)">
      <use xlink:href="#DejaVuSans-97"/>
      <use x="61.279297" xlink:href="#DejaVuSans-100"/>
      <use x="124.755859" xlink:href="#DejaVuSans-97"/>
      <use x="186.035156" xlink:href="#DejaVuSans-112"/>
      <use x="249.511719" xlink:href="#DejaVuSans-116"/>
      <use x="288.720703" xlink:href="#DejaVuSans-105"/>
      <use x="316.503906" xlink:href="#DejaVuSans-118"/>
      <use x="375.683594" xlink:href="#DejaVuSans-101"/>
      <use x="437.207031" xlink:href="#DejaVuSans-32"/>
      <use x="468.994141" xlink:href="#DejaVuSans-91"/>
      <use x="508.007812" xlink:href="#DejaVuSans-71"/>
      <use x="585.498047" xlink:href="#DejaVuSans-121"/>
      <use x="644.677734" xlink:href="#DejaVuSans-93"/>
     </g>
    </g>
   </g>
   <g id="line2d_27">
    <path clip-path="url(#p15c8f1798a)" d="M 135.097786 256.579135 
L 346.790229 18.979236 
" style="fill:none;stroke:#000000;stroke-linecap:square;stroke-width:1.5;"/>
   </g>
   <g id="patch_3">
    <path d="M 106.809771 256.579135 
L 106.809771 16.598677 
" style="fill:none;stroke:#000000;stroke-linecap:square;stroke-linejoin:miter;stroke-width:0.8;"/>
   </g>
   <g id="patch_4">
    <path d="M 346.790229 256.579135 
L 346.790229 16.598677 
" style="fill:none;stroke:#000000;stroke-linecap:square;stroke-linejoin:miter;stroke-width:0.8;"/>
   </g>
   <g id="patch_5">
    <path d="M 106.809771 256.579135 
L 346.790229 256.579135 
" style="fill:none;stroke:#000000;stroke-linecap:square;stroke-linejoin:miter;stroke-width:0.8;"/>
   </g>
   <g id="patch_6">
    <path d="M 106.809771 16.598677 
L 346.790229 16.598677 
" style="fill:none;stroke:#000000;stroke-linecap:square;stroke-linejoin:miter;stroke-width:0.8;"/>
   </g>
   <g id="PathCollection_1">
    <defs>
     <path d="M 0.597407 -2.5 
L 1.364659 -2.5 
L 2.292649 2.5 
L 1.585405 2.5 
L 1.377518 1.217317 
L -0.872803 1.217317 
L -1.578976 2.5 
L -2.292649 2.5 
z
M 0.841727 -1.833476 
L -0.560973 0.654736 
L 1.274646 0.654736 
z
" id="mf924f61417" style="stroke:#1f77b4;stroke-width:0.5;"/>
    </defs>
    <g clip-path="url(#p15c8f1798a)">
     <use style="fill:#1f77b4;stroke:#1f77b4;stroke-width:0.5;" x="261.223353" xlink:href="#mf924f61417" y="102.823702"/>
    </g>
   </g>
   <g id="PathCollection_2">
    <g clip-path="url(#p15c8f1798a)">
     <use style="fill:#1f77b4;stroke:#1f77b4;stroke-width:0.5;" x="262.128475" xlink:href="#mf924f61417" y="103.431322"/>
    </g>
   </g>
   <g id="PathCollection_3">
    <g clip-path="url(#p15c8f1798a)">
     <use style="fill:#1f77b4;stroke:#1f77b4;stroke-width:0.5;" x="269.311266" xlink:href="#mf924f61417" y="99.69132"/>
    </g>
   </g>
   <g id="PathCollection_4">
    <g clip-path="url(#p15c8f1798a)">
     <use style="fill:#1f77b4;stroke:#1f77b4;stroke-width:0.5;" x="268.753744" xlink:href="#mf924f61417" y="101.549459"/>
    </g>
   </g>
   <g id="PathCollection_5">
    <g clip-path="url(#p15c8f1798a)">
     <use style="fill:#1f77b4;stroke:#1f77b4;stroke-width:0.5;" x="267.12911" xlink:href="#mf924f61417" y="101.542797"/>
    </g>
   </g>
   <g id="PathCollection_6">
    <defs>
     <path d="M -0.984784 -2.5 
L 0.743678 -2.5 
Q 1.446635 -2.5 1.794899 -2.238534 
Q 2.143163 -1.977068 2.143163 -1.451993 
Q 2.143163 -0.969781 1.84312 -0.619374 
Q 1.544149 -0.268967 1.058723 -0.196099 
Q 1.473425 -0.1018 1.681312 0.16288 
Q 1.889198 0.427561 1.889198 0.869053 
Q 1.889198 1.622375 1.330904 2.061723 
Q 0.773682 2.5 -0.193956 2.5 
L -1.958851 2.5 
z
M -0.820832 0.112516 
L -1.175525 1.943849 
L -0.086798 1.943849 
Q 0.526147 1.943849 0.857265 1.663095 
Q 1.188384 1.381269 1.188384 0.869053 
Q 1.188384 0.473639 0.96871 0.293613 
Q 0.750107 0.112516 0.264681 0.112516 
z
M -0.422203 -1.943849 
L -0.716888 -0.437205 
L 0.29147 -0.437205 
Q 0.830476 -0.437205 1.133733 -0.67081 
Q 1.436991 -0.905486 1.436991 -1.32126 
Q 1.436991 -1.645949 1.232319 -1.794899 
Q 1.027647 -1.943849 0.579726 -1.943849 
z
" id="m8551dca62b" style="stroke:#aec7e8;stroke-width:0.5;"/>
    </defs>
    <g clip-path="url(#p15c8f1798a)">
     <use style="fill:#aec7e8;stroke:#aec7e8;stroke-width:0.5;" x="271.057024" xlink:href="#m8551dca62b" y="96.970565"/>
    </g>
   </g>
   <g id="PathCollection_7">
    <g clip-path="url(#p15c8f1798a)">
     <use style="fill:#aec7e8;stroke:#aec7e8;stroke-width:0.5;" x="270.72419" xlink:href="#m8551dca62b" y="103.229709"/>
    </g>
   </g>
   <g id="PathCollection_8">
    <g clip-path="url(#p15c8f1798a)">
     <use style="fill:#aec7e8;stroke:#aec7e8;stroke-width:0.5;" x="268.879654" xlink:href="#m8551dca62b" y="108.90218"/>
    </g>
   </g>
   <g id="PathCollection_9">
    <g clip-path="url(#p15c8f1798a)">
     <use style="fill:#aec7e8;stroke:#aec7e8;stroke-width:0.5;" x="271.81841" xlink:href="#m8551dca62b" y="104.190185"/>
    </g>
   </g>
   <g id="PathCollection_10">
    <g clip-path="url(#p15c8f1798a)">
     <use style="fill:#aec7e8;stroke:#aec7e8;stroke-width:0.5;" x="266.792692" xlink:href="#m8551dca62b" y="99.08272"/>
    </g>
   </g>
   <g id="PathCollection_11">
    <defs>
     <path d="M 2.29653 -2.041417 
L 2.164326 -1.354576 
Q 1.854472 -1.667527 1.507436 -1.819356 
Q 1.160401 -1.971184 0.756559 -1.971184 
Q 0.20502 -1.971184 -0.213282 -1.705743 
Q -0.630552 -1.441334 -0.934208 -0.899091 
Q -1.128383 -0.551023 -1.230634 -0.16164 
Q -1.331853 0.227742 -1.331853 0.621256 
Q -1.331853 1.279178 -0.991014 1.625181 
Q -0.650176 1.970151 -0.001549 1.970151 
Q 0.446705 1.970151 0.859843 1.826585 
Q 1.272981 1.68302 1.663396 1.395889 
L 1.512601 2.167424 
Q 1.128383 2.331646 0.735902 2.415307 
Q 0.343421 2.5 -0.050093 2.5 
Q -0.976554 2.5 -1.498141 1.997005 
Q -2.018694 1.492977 -2.018694 0.595435 
Q -2.018694 0.021173 -1.820388 -0.533464 
Q -1.622082 -1.089134 -1.250258 -1.547717 
Q -0.856744 -2.03522 -0.351684 -2.26761 
Q 0.153377 -2.5 0.824726 -2.5 
Q 1.237864 -2.5 1.607622 -2.385354 
Q 1.977381 -2.270709 2.29653 -2.041417 
z
" id="m31b47582d0" style="stroke:#ff7f0e;stroke-width:0.5;"/>
    </defs>
    <g clip-path="url(#p15c8f1798a)">
     <use style="fill:#ff7f0e;stroke:#ff7f0e;stroke-width:0.5;" x="274.298996" xlink:href="#m31b47582d0" y="98.452869"/>
    </g>
   </g>
   <g id="PathCollection_12">
    <g clip-path="url(#p15c8f1798a)">
     <use style="fill:#ff7f0e;stroke:#ff7f0e;stroke-width:0.5;" x="273.750216" xlink:href="#m31b47582d0" y="100.189358"/>
    </g>
   </g>
   <g id="PathCollection_13">
    <g clip-path="url(#p15c8f1798a)">
     <use style="fill:#ff7f0e;stroke:#ff7f0e;stroke-width:0.5;" x="274.241555" xlink:href="#m31b47582d0" y="101.98453"/>
    </g>
   </g>
   <g id="PathCollection_14">
    <g clip-path="url(#p15c8f1798a)">
     <use style="fill:#ff7f0e;stroke:#ff7f0e;stroke-width:0.5;" x="267.811798" xlink:href="#m31b47582d0" y="101.60942"/>
    </g>
   </g>
   <g id="PathCollection_15">
    <g clip-path="url(#p15c8f1798a)">
     <use style="fill:#ff7f0e;stroke:#ff7f0e;stroke-width:0.5;" x="276.878022" xlink:href="#m31b47582d0" y="101.620031"/>
    </g>
   </g>
   <g id="PathCollection_16">
    <defs>
     <path d="M -1.318045 -2.5 
L 0.136091 -2.5 
Q 1.294471 -2.5 1.884912 -2.009216 
Q 2.476425 -1.518431 2.476425 -0.550793 
Q 2.476425 0.088941 2.251393 0.680454 
Q 2.027432 1.270896 1.632019 1.675954 
Q 1.234462 2.091727 0.621517 2.296399 
Q 0.008573 2.5 -0.828333 2.5 
L -2.292113 2.5 
z
M -0.747964 -1.943849 
L -1.502357 1.943849 
L -0.618303 1.943849 
Q 0.517574 1.943849 1.140163 1.291256 
Q 1.762752 0.637591 1.762752 -0.550793 
Q 1.762752 -1.270896 1.360909 -1.607372 
Q 0.959066 -1.943849 0.1018 -1.943849 
z
" id="m8dbf480cd2" style="stroke:#ffbb78;stroke-width:0.5;"/>
    </defs>
    <g clip-path="url(#p15c8f1798a)">
     <use style="fill:#ffbb78;stroke:#ffbb78;stroke-width:0.5;" x="137.883591" xlink:href="#m8dbf480cd2" y="230.135551"/>
    </g>
   </g>
   <g id="PathCollection_17">
    <g clip-path="url(#p15c8f1798a)">
     <use style="fill:#ffbb78;stroke:#ffbb78;stroke-width:0.5;" x="130.295403" xlink:href="#m8dbf480cd2" y="222.16557"/>
    </g>
   </g>
   <g id="PathCollection_18">
    <g clip-path="url(#p15c8f1798a)">
     <use style="fill:#ffbb78;stroke:#ffbb78;stroke-width:0.5;" x="137.080626" xlink:href="#m8dbf480cd2" y="235.427511"/>
    </g>
   </g>
   <g id="PathCollection_19">
    <g clip-path="url(#p15c8f1798a)">
     <use style="fill:#ffbb78;stroke:#ffbb78;stroke-width:0.5;" x="124.805723" xlink:href="#m8dbf480cd2" y="231.396816"/>
    </g>
   </g>
   <g id="PathCollection_20">
    <g clip-path="url(#p15c8f1798a)">
     <use style="fill:#ffbb78;stroke:#ffbb78;stroke-width:0.5;" x="139.665923" xlink:href="#m8dbf480cd2" y="220.501121"/>
    </g>
   </g>
   <g id="PathCollection_21">
    <defs>
     <path d="M -1.001393 -2.5 
L 2.159773 -2.5 
L 2.0494 -1.929919 
L -0.438813 -1.929919 
L -0.725997 -0.450064 
L 1.661487 -0.450064 
L 1.551114 0.118946 
L -0.837441 0.118946 
L -1.185705 1.93099 
L 1.359301 1.93099 
L 1.248928 2.5 
L -1.975461 2.5 
z
" id="m479d9e3fd5" style="stroke:#2ca02c;stroke-width:0.5;"/>
    </defs>
    <g clip-path="url(#p15c8f1798a)">
     <use style="fill:#2ca02c;stroke:#2ca02c;stroke-width:0.5;" x="326.876768" xlink:href="#m479d9e3fd5" y="41.998458"/>
    </g>
   </g>
   <g id="PathCollection_22">
    <g clip-path="url(#p15c8f1798a)">
     <use style="fill:#2ca02c;stroke:#2ca02c;stroke-width:0.5;" x="327.575068" xlink:href="#m479d9e3fd5" y="42.907449"/>
    </g>
   </g>
   <g id="PathCollection_23">
    <g clip-path="url(#p15c8f1798a)">
     <use style="fill:#2ca02c;stroke:#2ca02c;stroke-width:0.5;" x="328.794277" xlink:href="#m479d9e3fd5" y="38.874707"/>
    </g>
   </g>
   <g id="PathCollection_24">
    <g clip-path="url(#p15c8f1798a)">
     <use style="fill:#2ca02c;stroke:#2ca02c;stroke-width:0.5;" x="328.476985" xlink:href="#m479d9e3fd5" y="36.797019"/>
    </g>
   </g>
   <g id="PathCollection_25">
    <defs>
     <path d="M -0.854051 -2.5 
L 2.01243 -2.5 
L 1.902057 -1.929919 
L -0.29147 -1.929919 
L -0.578654 -0.456494 
L 1.403772 -0.456494 
L 1.292327 0.112516 
L -0.690099 0.112516 
L -1.155165 2.5 
L -1.828118 2.5 
z
" id="m2b178f6959" style="stroke:#98df8a;stroke-width:0.5;"/>
    </defs>
    <g clip-path="url(#p15c8f1798a)">
     <use style="fill:#98df8a;stroke:#98df8a;stroke-width:0.5;" x="280.574024" xlink:href="#m2b178f6959" y="91.75807"/>
    </g>
   </g>
   <g id="PathCollection_26">
    <g clip-path="url(#p15c8f1798a)">
     <use style="fill:#98df8a;stroke:#98df8a;stroke-width:0.5;" x="280.056112" xlink:href="#m2b178f6959" y="92.490224"/>
    </g>
   </g>
   <g id="PathCollection_27">
    <g clip-path="url(#p15c8f1798a)">
     <use style="fill:#98df8a;stroke:#98df8a;stroke-width:0.5;" x="290.30161" xlink:href="#m2b178f6959" y="94.057956"/>
    </g>
   </g>
   <g id="PathCollection_28">
    <g clip-path="url(#p15c8f1798a)">
     <use style="fill:#98df8a;stroke:#98df8a;stroke-width:0.5;" x="269.831591" xlink:href="#m2b178f6959" y="93.447442"/>
    </g>
   </g>
   <g id="PathCollection_29">
    <g clip-path="url(#p15c8f1798a)">
     <use style="fill:#98df8a;stroke:#98df8a;stroke-width:0.5;" x="271.966645" xlink:href="#m2b178f6959" y="94.215635"/>
    </g>
   </g>
   <g id="PathCollection_30">
    <defs>
     <path d="M 1.212043 1.686119 
L 1.464057 0.423983 
L 0.391964 0.423983 
L 0.49215 -0.112064 
L 2.202541 -0.112064 
L 1.786304 2.009399 
Q 1.356641 2.244887 0.849515 2.37296 
Q 0.343421 2.5 -0.169903 2.5 
Q -1.07674 2.5 -1.587998 1.997005 
Q -2.099256 1.492977 -2.099256 0.595435 
Q -2.099256 -0.150279 -1.78837 -0.822661 
Q -1.476451 -1.496075 -0.928011 -1.945363 
Q -0.583041 -2.225263 -0.173001 -2.362632 
Q 0.237038 -2.5 0.736935 -2.5 
Q 1.18932 -2.5 1.603491 -2.385354 
Q 2.018694 -2.270709 2.396716 -2.041417 
L 2.264511 -1.347346 
Q 1.973249 -1.651002 1.582834 -1.811093 
Q 1.192419 -1.971184 0.750361 -1.971184 
Q 0.237038 -1.971184 -0.153377 -1.774943 
Q -0.543793 -1.579736 -0.850547 -1.170729 
Q -1.111857 -0.821628 -1.262652 -0.348585 
Q -1.412415 0.124458 -1.412415 0.615059 
Q -1.412415 1.289506 -1.067445 1.630345 
Q -0.721442 1.970151 -0.037699 1.970151 
Q 0.305206 1.970151 0.624354 1.897852 
Q 0.943503 1.82452 1.212043 1.686119 
z
" id="m1cf8e0a2d8" style="stroke:#d62728;stroke-width:0.5;"/>
    </defs>
    <g clip-path="url(#p15c8f1798a)">
     <use style="fill:#d62728;stroke:#d62728;stroke-width:0.5;" x="285.602448" xlink:href="#m1cf8e0a2d8" y="85.84873"/>
    </g>
   </g>
   <g id="PathCollection_31">
    <g clip-path="url(#p15c8f1798a)">
     <use style="fill:#d62728;stroke:#d62728;stroke-width:0.5;" x="286.82589" xlink:href="#m1cf8e0a2d8" y="87.433226"/>
    </g>
   </g>
   <g id="PathCollection_32">
    <g clip-path="url(#p15c8f1798a)">
     <use style="fill:#d62728;stroke:#d62728;stroke-width:0.5;" x="284.48494" xlink:href="#m1cf8e0a2d8" y="88.716374"/>
    </g>
   </g>
   <g id="PathCollection_33">
    <g clip-path="url(#p15c8f1798a)">
     <use style="fill:#d62728;stroke:#d62728;stroke-width:0.5;" x="284.885666" xlink:href="#m1cf8e0a2d8" y="85.946498"/>
    </g>
   </g>
   <g id="PathCollection_34">
    <g clip-path="url(#p15c8f1798a)">
     <use style="fill:#d62728;stroke:#d62728;stroke-width:0.5;" x="284.152704" xlink:href="#m1cf8e0a2d8" y="86.917315"/>
    </g>
   </g>
   <g id="PathCollection_35">
    <defs>
     <path d="M -1.328225 -2.5 
L -0.647771 -2.5 
L -1.046399 -0.450064 
L 1.407523 -0.450064 
L 1.806151 -2.5 
L 2.486605 -2.5 
L 1.511466 2.5 
L 0.832083 2.5 
L 1.29715 0.118946 
L -1.156772 0.118946 
L -1.62291 2.5 
L -2.302293 2.5 
z
" id="medbc833cd7" style="stroke:#ff9896;stroke-width:0.5;"/>
    </defs>
    <g clip-path="url(#p15c8f1798a)">
     <use style="fill:#ff9896;stroke:#ff9896;stroke-width:0.5;" x="253.387285" xlink:href="#medbc833cd7" y="114.393172"/>
    </g>
   </g>
   <g id="PathCollection_36">
    <g clip-path="url(#p15c8f1798a)">
     <use style="fill:#ff9896;stroke:#ff9896;stroke-width:0.5;" x="289.030374" xlink:href="#medbc833cd7" y="92.077414"/>
    </g>
   </g>
   <g id="PathCollection_37">
    <g clip-path="url(#p15c8f1798a)">
     <use style="fill:#ff9896;stroke:#ff9896;stroke-width:0.5;" x="252.923512" xlink:href="#medbc833cd7" y="95.096974"/>
    </g>
   </g>
   <g id="PathCollection_38">
    <g clip-path="url(#p15c8f1798a)">
     <use style="fill:#ff9896;stroke:#ff9896;stroke-width:0.5;" x="242.727315" xlink:href="#medbc833cd7" y="88.85395"/>
    </g>
   </g>
   <g id="PathCollection_39">
    <g clip-path="url(#p15c8f1798a)">
     <use style="fill:#ff9896;stroke:#ff9896;stroke-width:0.5;" x="280.455164" xlink:href="#medbc833cd7" y="93.432553"/>
    </g>
   </g>
   <g id="PathCollection_40">
    <defs>
     <path d="M 0.238963 -2.5 
L 0.919417 -2.5 
L -0.055722 2.5 
L -0.735105 2.5 
z
" id="me729b8706c" style="stroke:#9467bd;stroke-width:0.5;"/>
    </defs>
    <g clip-path="url(#p15c8f1798a)">
     <use style="fill:#9467bd;stroke:#9467bd;stroke-width:0.5;" x="227.975713" xlink:href="#me729b8706c" y="151.800917"/>
    </g>
   </g>
   <g id="PathCollection_41">
    <g clip-path="url(#p15c8f1798a)">
     <use style="fill:#9467bd;stroke:#9467bd;stroke-width:0.5;" x="229.206089" xlink:href="#me729b8706c" y="153.721282"/>
    </g>
   </g>
   <g id="PathCollection_42">
    <g clip-path="url(#p15c8f1798a)">
     <use style="fill:#9467bd;stroke:#9467bd;stroke-width:0.5;" x="228.760427" xlink:href="#me729b8706c" y="148.609823"/>
    </g>
   </g>
   <g id="PathCollection_43">
    <g clip-path="url(#p15c8f1798a)">
     <use style="fill:#9467bd;stroke:#9467bd;stroke-width:0.5;" x="229.049522" xlink:href="#me729b8706c" y="150.991492"/>
    </g>
   </g>
   <g id="PathCollection_44">
    <g clip-path="url(#p15c8f1798a)">
     <use style="fill:#9467bd;stroke:#9467bd;stroke-width:0.5;" x="229.14137" xlink:href="#me729b8706c" y="154.195833"/>
    </g>
   </g>
   <g id="PathCollection_45">
    <defs>
     <path d="M 0.624264 -2.5 
L 1.157306 -2.5 
L 0.445182 1.149739 
Q 0.306457 1.861863 -0.023962 2.180511 
Q -0.35354 2.5 -0.947116 2.5 
L -1.157306 2.5 
L -1.070708 2.053556 
L -0.905078 2.053556 
Q -0.550277 2.053556 -0.366151 1.850933 
Q -0.182865 1.649151 -0.085337 1.149739 
z
" id="mfa1346e0a5" style="stroke:#c5b0d5;stroke-width:0.5;"/>
    </defs>
    <g clip-path="url(#p15c8f1798a)">
     <use style="fill:#c5b0d5;stroke:#c5b0d5;stroke-width:0.5;" x="281.925646" xlink:href="#mfa1346e0a5" y="88.942838"/>
    </g>
   </g>
   <g id="PathCollection_46">
    <g clip-path="url(#p15c8f1798a)">
     <use style="fill:#c5b0d5;stroke:#c5b0d5;stroke-width:0.5;" x="283.892678" xlink:href="#mfa1346e0a5" y="90.296679"/>
    </g>
   </g>
   <g id="PathCollection_47">
    <g clip-path="url(#p15c8f1798a)">
     <use style="fill:#c5b0d5;stroke:#c5b0d5;stroke-width:0.5;" x="280.161518" xlink:href="#mfa1346e0a5" y="92.972468"/>
    </g>
   </g>
   <g id="PathCollection_48">
    <g clip-path="url(#p15c8f1798a)">
     <use style="fill:#c5b0d5;stroke:#c5b0d5;stroke-width:0.5;" x="278.731175" xlink:href="#mfa1346e0a5" y="87.436584"/>
    </g>
   </g>
   <g id="PathCollection_49">
    <g clip-path="url(#p15c8f1798a)">
     <use style="fill:#c5b0d5;stroke:#c5b0d5;stroke-width:0.5;" x="280.67474" xlink:href="#mfa1346e0a5" y="88.436748"/>
    </g>
   </g>
   <g id="PathCollection_50">
    <defs>
     <path d="M -1.318045 -2.5 
L -0.637591 -2.5 
L -1.05015 -0.39327 
L 1.575225 -2.5 
L 2.476425 -2.5 
L -0.493999 -0.112516 
L 1.679168 2.5 
L 0.855122 2.5 
L -1.140163 0.065366 
L -1.61273 2.5 
L -2.292113 2.5 
z
" id="me442fc6608" style="stroke:#8c564b;stroke-width:0.5;"/>
    </defs>
    <g clip-path="url(#p15c8f1798a)">
     <use style="fill:#8c564b;stroke:#8c564b;stroke-width:0.5;" x="155.323172" xlink:href="#me442fc6608" y="235.302995"/>
    </g>
   </g>
   <g id="PathCollection_51">
    <g clip-path="url(#p15c8f1798a)">
     <use style="fill:#8c564b;stroke:#8c564b;stroke-width:0.5;" x="154.795804" xlink:href="#me442fc6608" y="234.496367"/>
    </g>
   </g>
   <g id="PathCollection_52">
    <g clip-path="url(#p15c8f1798a)">
     <use style="fill:#8c564b;stroke:#8c564b;stroke-width:0.5;" x="155.272563" xlink:href="#me442fc6608" y="235.255348"/>
    </g>
   </g>
   <g id="PathCollection_53">
    <g clip-path="url(#p15c8f1798a)">
     <use style="fill:#8c564b;stroke:#8c564b;stroke-width:0.5;" x="154.708046" xlink:href="#me442fc6608" y="236.380793"/>
    </g>
   </g>
   <g id="PathCollection_54">
    <g clip-path="url(#p15c8f1798a)">
     <use style="fill:#8c564b;stroke:#8c564b;stroke-width:0.5;" x="155.213456" xlink:href="#me442fc6608" y="235.468775"/>
    </g>
   </g>
   <g id="PathCollection_55">
    <g clip-path="url(#p15c8f1798a)">
     <use style="fill:#8c564b;stroke:#8c564b;stroke-width:0.5;" x="155.171115" xlink:href="#me442fc6608" y="234.940063"/>
    </g>
   </g>
   <g id="PathCollection_56">
    <defs>
     <path d="M -0.5524 -2.5 
L 0.126982 -2.5 
L -0.730283 1.93742 
L 1.704351 1.93742 
L 1.593978 2.5 
L -1.520039 2.5 
z
" id="m3517d4fbf8" style="stroke:#c49c94;stroke-width:0.5;"/>
    </defs>
    <g clip-path="url(#p15c8f1798a)">
     <use style="fill:#c49c94;stroke:#c49c94;stroke-width:0.5;" x="271.643352" xlink:href="#m3517d4fbf8" y="113.355149"/>
    </g>
   </g>
   <g id="PathCollection_57">
    <g clip-path="url(#p15c8f1798a)">
     <use style="fill:#c49c94;stroke:#c49c94;stroke-width:0.5;" x="278.90957" xlink:href="#m3517d4fbf8" y="110.140518"/>
    </g>
   </g>
   <g id="PathCollection_58">
    <g clip-path="url(#p15c8f1798a)">
     <use style="fill:#c49c94;stroke:#c49c94;stroke-width:0.5;" x="278.291472" xlink:href="#m3517d4fbf8" y="95.550683"/>
    </g>
   </g>
   <g id="PathCollection_59">
    <g clip-path="url(#p15c8f1798a)">
     <use style="fill:#c49c94;stroke:#c49c94;stroke-width:0.5;" x="275.348755" xlink:href="#m3517d4fbf8" y="104.888648"/>
    </g>
   </g>
   <g id="PathCollection_60">
    <g clip-path="url(#p15c8f1798a)">
     <use style="fill:#c49c94;stroke:#c49c94;stroke-width:0.5;" x="273.18404" xlink:href="#m3517d4fbf8" y="99.289999"/>
    </g>
   </g>
   <g id="PathCollection_61">
    <defs>
     <path d="M -1.48972 -2.180374 
L -0.604673 -2.180374 
L -0.096262 0.757944 
L 1.591589 -2.180374 
L 2.5 -2.180374 
L 1.650467 2.180374 
L 1.07757 2.180374 
L 1.819626 -1.642991 
L 0.108411 1.342056 
L -0.46729 1.342056 
L -1.02243 -1.654206 
L -1.763551 2.180374 
L -2.339252 2.180374 
z
" id="m2a64907eb8" style="stroke:#e377c2;stroke-width:0.5;"/>
    </defs>
    <g clip-path="url(#p15c8f1798a)">
     <use style="fill:#e377c2;stroke:#e377c2;stroke-width:0.5;" x="195.830597" xlink:href="#m2a64907eb8" y="188.571592"/>
    </g>
   </g>
   <g id="PathCollection_62">
    <g clip-path="url(#p15c8f1798a)">
     <use style="fill:#e377c2;stroke:#e377c2;stroke-width:0.5;" x="195.655082" xlink:href="#m2a64907eb8" y="187.898155"/>
    </g>
   </g>
   <g id="PathCollection_63">
    <g clip-path="url(#p15c8f1798a)">
     <use style="fill:#e377c2;stroke:#e377c2;stroke-width:0.5;" x="196.021712" xlink:href="#m2a64907eb8" y="187.179343"/>
    </g>
   </g>
   <g id="PathCollection_64">
    <g clip-path="url(#p15c8f1798a)">
     <use style="fill:#e377c2;stroke:#e377c2;stroke-width:0.5;" x="195.547508" xlink:href="#m2a64907eb8" y="188.40753"/>
    </g>
   </g>
   <g id="PathCollection_65">
    <g clip-path="url(#p15c8f1798a)">
     <use style="fill:#e377c2;stroke:#e377c2;stroke-width:0.5;" x="195.495819" xlink:href="#m2a64907eb8" y="186.861934"/>
    </g>
   </g>
   <g id="PathCollection_66">
    <defs>
     <path d="M -1.314831 -2.5 
L -0.403986 -2.5 
L 0.976211 1.786327 
L 1.813116 -2.5 
L 2.47321 -2.5 
L 1.498071 2.5 
L 0.584012 2.5 
L -0.791899 -1.813116 
L -1.628804 2.5 
L -2.288898 2.5 
z
" id="mf13e59b91b" style="stroke:#f7b6d2;stroke-width:0.5;"/>
    </defs>
    <g clip-path="url(#p15c8f1798a)">
     <use style="fill:#f7b6d2;stroke:#f7b6d2;stroke-width:0.5;" x="182.514397" xlink:href="#mf13e59b91b" y="190.43814"/>
    </g>
   </g>
   <g id="PathCollection_67">
    <g clip-path="url(#p15c8f1798a)">
     <use style="fill:#f7b6d2;stroke:#f7b6d2;stroke-width:0.5;" x="187.70281" xlink:href="#mf13e59b91b" y="217.146992"/>
    </g>
   </g>
   <g id="PathCollection_68">
    <g clip-path="url(#p15c8f1798a)">
     <use style="fill:#f7b6d2;stroke:#f7b6d2;stroke-width:0.5;" x="174.621318" xlink:href="#mf13e59b91b" y="203.17761"/>
    </g>
   </g>
   <g id="PathCollection_69">
    <g clip-path="url(#p15c8f1798a)">
     <use style="fill:#f7b6d2;stroke:#f7b6d2;stroke-width:0.5;" x="180.521204" xlink:href="#mf13e59b91b" y="198.623166"/>
    </g>
   </g>
   <g id="PathCollection_70">
    <g clip-path="url(#p15c8f1798a)">
     <use style="fill:#f7b6d2;stroke:#f7b6d2;stroke-width:0.5;" x="172.257504" xlink:href="#mf13e59b91b" y="194.668125"/>
    </g>
   </g>
   <g id="PathCollection_71">
    <defs>
     <path d="M 0.545858 -1.971184 
Q 0.009812 -1.971184 -0.400227 -1.710907 
Q -0.810266 -1.45063 -1.11289 -0.918715 
Q -1.307065 -0.579942 -1.409316 -0.198823 
Q -1.510535 0.182297 -1.510535 0.569614 
Q -1.510535 1.240963 -1.18932 1.605557 
Q -0.868106 1.970151 -0.280417 1.970151 
Q 0.248399 1.970151 0.66257 1.707808 
Q 1.077773 1.444433 1.372134 0.924912 
Q 1.568374 0.575811 1.671659 0.193658 
Q 1.774943 -0.189527 1.774943 -0.569614 
Q 1.774943 -1.237864 1.451663 -1.604524 
Q 1.129415 -1.971184 0.545858 -1.971184 
z
M -0.300041 2.5 
Q -1.187255 2.5 -1.696447 1.974282 
Q -2.204606 1.447532 -2.204606 0.533464 
Q -2.204606 0.010845 -2.0063 -0.534497 
Q -1.806961 -1.079839 -1.458893 -1.506404 
Q -1.048854 -2.0063 -0.545858 -2.25315 
Q -0.04183 -2.5 0.565482 -2.5 
Q 1.449597 -2.5 1.95879 -1.978414 
Q 2.469015 -1.45786 2.469015 -0.55722 
Q 2.469015 -0.001549 2.27484 0.534497 
Q 2.081698 1.06951 1.720202 1.505371 
Q 1.307065 2.009399 0.808201 2.255216 
Q 0.31037 2.5 -0.300041 2.5 
z
" id="mfb011ee93e" style="stroke:#7f7f7f;stroke-width:0.5;"/>
    </defs>
    <g clip-path="url(#p15c8f1798a)">
     <use style="fill:#7f7f7f;stroke:#7f7f7f;stroke-width:0.5;" x="274.412706" xlink:href="#mfb011ee93e" y="100.214502"/>
    </g>
   </g>
   <g id="PathCollection_72">
    <g clip-path="url(#p15c8f1798a)">
     <use style="fill:#7f7f7f;stroke:#7f7f7f;stroke-width:0.5;" x="273.165915" xlink:href="#mfb011ee93e" y="101.613879"/>
    </g>
   </g>
   <g id="PathCollection_73">
    <g clip-path="url(#p15c8f1798a)">
     <use style="fill:#7f7f7f;stroke:#7f7f7f;stroke-width:0.5;" x="275.800068" xlink:href="#mfb011ee93e" y="98.657352"/>
    </g>
   </g>
   <g id="PathCollection_74">
    <g clip-path="url(#p15c8f1798a)">
     <use style="fill:#7f7f7f;stroke:#7f7f7f;stroke-width:0.5;" x="275.396477" xlink:href="#mfb011ee93e" y="99.110336"/>
    </g>
   </g>
   <g id="PathCollection_75">
    <g clip-path="url(#p15c8f1798a)">
     <use style="fill:#7f7f7f;stroke:#7f7f7f;stroke-width:0.5;" x="273.835829" xlink:href="#mfb011ee93e" y="100.861979"/>
    </g>
   </g>
   <g id="text_16">
    <!-- GTV D98% -->
    <g transform="translate(197.64375 10.598677)scale(0.1 -0.1)">
     <defs>
      <path d="M 74.703125 5.421875 
Q 67.671875 2 60.109375 0.28125 
Q 52.546875 -1.421875 44.484375 -1.421875 
Q 26.265625 -1.421875 15.625 8.765625 
Q 4.984375 18.953125 4.984375 36.375 
Q 4.984375 54 15.8125 64.109375 
Q 26.65625 74.21875 45.515625 74.21875 
Q 52.78125 74.21875 59.4375 72.84375 
Q 66.109375 71.484375 72.015625 68.796875 
L 72.015625 53.71875 
Q 65.921875 57.171875 59.890625 58.875 
Q 53.859375 60.59375 47.796875 60.59375 
Q 36.578125 60.59375 30.5 54.3125 
Q 24.421875 48.046875 24.421875 36.375 
Q 24.421875 24.8125 30.28125 18.5 
Q 36.140625 12.203125 46.921875 12.203125 
Q 49.859375 12.203125 52.375 12.5625 
Q 54.890625 12.9375 56.890625 13.71875 
L 56.890625 27.875 
L 45.40625 27.875 
L 45.40625 40.484375 
L 74.703125 40.484375 
z
" id="DejaVuSans-Bold-71"/>
      <path d="M 0.484375 72.90625 
L 67.671875 72.90625 
L 67.671875 58.6875 
L 43.5 58.6875 
L 43.5 0 
L 24.703125 0 
L 24.703125 58.6875 
L 0.484375 58.6875 
z
" id="DejaVuSans-Bold-84"/>
      <path d="M 0.484375 72.90625 
L 19.390625 72.90625 
L 38.71875 19.09375 
L 58.015625 72.90625 
L 76.90625 72.90625 
L 49.90625 0 
L 27.484375 0 
z
" id="DejaVuSans-Bold-86"/>
      <path id="DejaVuSans-Bold-32"/>
      <path d="M 27.984375 58.6875 
L 27.984375 14.203125 
L 34.71875 14.203125 
Q 46.234375 14.203125 52.3125 19.921875 
Q 58.40625 25.640625 58.40625 36.53125 
Q 58.40625 47.359375 52.34375 53.015625 
Q 46.296875 58.6875 34.71875 58.6875 
z
M 9.1875 72.90625 
L 29 72.90625 
Q 45.609375 72.90625 53.734375 70.53125 
Q 61.859375 68.171875 67.671875 62.5 
Q 72.796875 57.5625 75.28125 51.109375 
Q 77.78125 44.671875 77.78125 36.53125 
Q 77.78125 28.265625 75.28125 21.796875 
Q 72.796875 15.328125 67.671875 10.40625 
Q 61.8125 4.734375 53.609375 2.359375 
Q 45.40625 0 29 0 
L 9.1875 0 
z
" id="DejaVuSans-Bold-68"/>
      <path d="M 10.015625 1.609375 
L 10.015625 15.09375 
Q 14.5 12.984375 18.59375 11.9375 
Q 22.703125 10.890625 26.703125 10.890625 
Q 35.109375 10.890625 39.796875 15.546875 
Q 44.484375 20.21875 45.3125 29.390625 
Q 42 26.953125 38.234375 25.734375 
Q 34.46875 24.515625 30.078125 24.515625 
Q 18.890625 24.515625 12.03125 31.03125 
Q 5.171875 37.546875 5.171875 48.1875 
Q 5.171875 59.96875 12.8125 67.046875 
Q 20.453125 74.125 33.296875 74.125 
Q 47.5625 74.125 55.375 64.5 
Q 63.1875 54.890625 63.1875 37.3125 
Q 63.1875 19.234375 54.046875 8.90625 
Q 44.921875 -1.421875 29 -1.421875 
Q 23.875 -1.421875 19.1875 -0.65625 
Q 14.5 0.09375 10.015625 1.609375 
z
M 33.203125 36.71875 
Q 38.140625 36.71875 40.625 39.90625 
Q 43.109375 43.109375 43.109375 49.515625 
Q 43.109375 55.859375 40.625 59.078125 
Q 38.140625 62.3125 33.203125 62.3125 
Q 28.265625 62.3125 25.78125 59.078125 
Q 23.296875 55.859375 23.296875 49.515625 
Q 23.296875 43.109375 25.78125 39.90625 
Q 28.265625 36.71875 33.203125 36.71875 
z
" id="DejaVuSans-Bold-57"/>
      <path d="M 34.8125 32.625 
Q 29.546875 32.625 26.703125 29.734375 
Q 23.875 26.859375 23.875 21.484375 
Q 23.875 16.109375 26.703125 13.25 
Q 29.546875 10.40625 34.8125 10.40625 
Q 40.046875 10.40625 42.828125 13.25 
Q 45.609375 16.109375 45.609375 21.484375 
Q 45.609375 26.90625 42.828125 29.765625 
Q 40.046875 32.625 34.8125 32.625 
z
M 21.09375 38.8125 
Q 14.453125 40.828125 11.078125 44.96875 
Q 7.71875 49.125 7.71875 55.328125 
Q 7.71875 64.546875 14.59375 69.375 
Q 21.484375 74.21875 34.8125 74.21875 
Q 48.046875 74.21875 54.921875 69.40625 
Q 61.8125 64.59375 61.8125 55.328125 
Q 61.8125 49.125 58.421875 44.96875 
Q 55.03125 40.828125 48.390625 38.8125 
Q 55.8125 36.765625 59.59375 32.15625 
Q 63.375 27.546875 63.375 20.515625 
Q 63.375 9.671875 56.171875 4.125 
Q 48.96875 -1.421875 34.8125 -1.421875 
Q 20.609375 -1.421875 13.359375 4.125 
Q 6.109375 9.671875 6.109375 20.515625 
Q 6.109375 27.546875 9.890625 32.15625 
Q 13.671875 36.765625 21.09375 38.8125 
z
M 25.484375 53.421875 
Q 25.484375 49.078125 27.90625 46.734375 
Q 30.328125 44.390625 34.8125 44.390625 
Q 39.203125 44.390625 41.59375 46.734375 
Q 44 49.078125 44 53.421875 
Q 44 57.765625 41.59375 60.078125 
Q 39.203125 62.40625 34.8125 62.40625 
Q 30.328125 62.40625 27.90625 60.0625 
Q 25.484375 57.71875 25.484375 53.421875 
z
" id="DejaVuSans-Bold-56"/>
      <path d="M 77.484375 30.078125 
Q 74.03125 30.078125 72.125 27.078125 
Q 70.21875 24.078125 70.21875 18.5 
Q 70.21875 12.890625 72.09375 9.890625 
Q 73.96875 6.890625 77.484375 6.890625 
Q 81 6.890625 82.859375 9.890625 
Q 84.71875 12.890625 84.71875 18.5 
Q 84.71875 24.078125 82.828125 27.078125 
Q 80.953125 30.078125 77.484375 30.078125 
z
M 77.484375 38.28125 
Q 86.578125 38.28125 91.796875 33 
Q 97.015625 27.734375 97.015625 18.5 
Q 97.015625 9.28125 91.796875 3.921875 
Q 86.578125 -1.421875 77.484375 -1.421875 
Q 68.40625 -1.421875 63.15625 3.921875 
Q 57.90625 9.28125 57.90625 18.5 
Q 57.90625 27.6875 63.15625 32.984375 
Q 68.40625 38.28125 77.484375 38.28125 
z
M 32.71875 -1.421875 
L 21.921875 -1.421875 
L 67.484375 74.21875 
L 78.328125 74.21875 
z
M 22.703125 74.21875 
Q 31.78125 74.21875 36.984375 68.921875 
Q 42.1875 63.625 42.1875 54.390625 
Q 42.1875 45.171875 36.984375 39.84375 
Q 31.78125 34.515625 22.703125 34.515625 
Q 13.625 34.515625 8.421875 39.84375 
Q 3.21875 45.171875 3.21875 54.390625 
Q 3.21875 63.625 8.421875 68.921875 
Q 13.625 74.21875 22.703125 74.21875 
z
M 22.703125 66.015625 
Q 19.1875 66.015625 17.28125 62.984375 
Q 15.375 59.96875 15.375 54.390625 
Q 15.375 48.78125 17.28125 45.71875 
Q 19.1875 42.671875 22.703125 42.671875 
Q 26.21875 42.671875 28.09375 45.71875 
Q 29.984375 48.78125 29.984375 54.390625 
Q 29.984375 59.96875 28.078125 62.984375 
Q 26.171875 66.015625 22.703125 66.015625 
z
" id="DejaVuSans-Bold-37"/>
     </defs>
     <use xlink:href="#DejaVuSans-Bold-71"/>
     <use x="80.330078" xlink:href="#DejaVuSans-Bold-84"/>
     <use x="148.542969" xlink:href="#DejaVuSans-Bold-86"/>
     <use x="225.935547" xlink:href="#DejaVuSans-Bold-32"/>
     <use x="260.75" xlink:href="#DejaVuSans-Bold-68"/>
     <use x="343.757812" xlink:href="#DejaVuSans-Bold-57"/>
     <use x="413.337891" xlink:href="#DejaVuSans-Bold-56"/>
     <use x="482.917969" xlink:href="#DejaVuSans-Bold-37"/>
    </g>
   </g>
  </g>
 </g>
 <defs>
  <clipPath id="p15c8f1798a">
   <rect height="239.980458" width="239.980457" x="106.809771" y="16.598677"/>
  </clipPath>
 </defs>
</svg>
