<?xml version="1.0" encoding="utf-8" standalone="no"?>
<!DOCTYPE svg PUBLIC "-//W3C//DTD SVG 1.1//EN"
  "http://www.w3.org/Graphics/SVG/1.1/DTD/svg11.dtd">
<!-- Created with matplotlib (https://matplotlib.org/) -->
<svg height="288pt" version="1.1" viewBox="0 0 453.6 288" width="453.6pt" xmlns="http://www.w3.org/2000/svg" xmlns:xlink="http://www.w3.org/1999/xlink">
 <metadata>
  <rdf:RDF xmlns:cc="http://creativecommons.org/ns#" xmlns:dc="http://purl.org/dc/elements/1.1/" xmlns:rdf="http://www.w3.org/1999/02/22-rdf-syntax-ns#">
   <cc:Work>
    <dc:type rdf:resource="http://purl.org/dc/dcmitype/StillImage"/>
    <dc:date>2020-11-23T19:13:41.989363</dc:date>
    <dc:format>image/svg+xml</dc:format>
    <dc:creator>
     <cc:Agent>
      <dc:title>Matplotlib v3.3.0, https://matplotlib.org/</dc:title>
     </cc:Agent>
    </dc:creator>
   </cc:Work>
  </rdf:RDF>
 </metadata>
 <defs>
  <style type="text/css">*{stroke-linecap:butt;stroke-linejoin:round;}</style>
 </defs>
 <g id="figure_1">
  <g id="patch_1">
   <path d="M 0 288 
L 453.6 288 
L 453.6 0 
L 0 0 
z
" style="fill:none;"/>
  </g>
  <g id="axes_1">
   <g id="patch_2">
    <path d="M 106.809771 256.579135 
L 346.790229 256.579135 
L 346.790229 16.598677 
L 106.809771 16.598677 
z
" style="fill:#ffffff;"/>
   </g>
   <g id="matplotlib.axis_1">
    <g id="xtick_1">
     <g id="line2d_1">
      <path clip-path="url(#p54c44d8429)" d="M 120.550659 256.579135 
L 120.550659 16.598677 
" style="fill:none;stroke:#b0b0b0;stroke-linecap:square;stroke-width:0.8;"/>
     </g>
     <g id="line2d_2">
      <defs>
       <path d="M 0 0 
L 0 3.5 
" id="m32cd7df526" style="stroke:#000000;stroke-width:0.8;"/>
      </defs>
      <g>
       <use style="stroke:#000000;stroke-width:0.8;" x="120.550659" xlink:href="#m32cd7df526" y="256.579135"/>
      </g>
     </g>
     <g id="text_1">
      <!-- 1 -->
      <g transform="translate(118.005659 269.657885)scale(0.08 -0.08)">
       <defs>
        <path d="M 12.40625 8.296875 
L 28.515625 8.296875 
L 28.515625 63.921875 
L 10.984375 60.40625 
L 10.984375 69.390625 
L 28.421875 72.90625 
L 38.28125 72.90625 
L 38.28125 8.296875 
L 54.390625 8.296875 
L 54.390625 0 
L 12.40625 0 
z
" id="DejaVuSans-49"/>
       </defs>
       <use xlink:href="#DejaVuSans-49"/>
      </g>
     </g>
    </g>
    <g id="xtick_2">
     <g id="line2d_3">
      <path clip-path="url(#p54c44d8429)" d="M 151.609884 256.579135 
L 151.609884 16.598677 
" style="fill:none;stroke:#b0b0b0;stroke-linecap:square;stroke-width:0.8;"/>
     </g>
     <g id="line2d_4">
      <g>
       <use style="stroke:#000000;stroke-width:0.8;" x="151.609884" xlink:href="#m32cd7df526" y="256.579135"/>
      </g>
     </g>
     <g id="text_2">
      <!-- 2 -->
      <g transform="translate(149.064884 269.657885)scale(0.08 -0.08)">
       <defs>
        <path d="M 19.1875 8.296875 
L 53.609375 8.296875 
L 53.609375 0 
L 7.328125 0 
L 7.328125 8.296875 
Q 12.9375 14.109375 22.625 23.890625 
Q 32.328125 33.6875 34.8125 36.53125 
Q 39.546875 41.84375 41.421875 45.53125 
Q 43.3125 49.21875 43.3125 52.78125 
Q 43.3125 58.59375 39.234375 62.25 
Q 35.15625 65.921875 28.609375 65.921875 
Q 23.96875 65.921875 18.8125 64.3125 
Q 13.671875 62.703125 7.8125 59.421875 
L 7.8125 69.390625 
Q 13.765625 71.78125 18.9375 73 
Q 24.125 74.21875 28.421875 74.21875 
Q 39.75 74.21875 46.484375 68.546875 
Q 53.21875 62.890625 53.21875 53.421875 
Q 53.21875 48.921875 51.53125 44.890625 
Q 49.859375 40.875 45.40625 35.40625 
Q 44.1875 33.984375 37.640625 27.21875 
Q 31.109375 20.453125 19.1875 8.296875 
z
" id="DejaVuSans-50"/>
       </defs>
       <use xlink:href="#DejaVuSans-50"/>
      </g>
     </g>
    </g>
    <g id="xtick_3">
     <g id="line2d_5">
      <path clip-path="url(#p54c44d8429)" d="M 182.669109 256.579135 
L 182.669109 16.598677 
" style="fill:none;stroke:#b0b0b0;stroke-linecap:square;stroke-width:0.8;"/>
     </g>
     <g id="line2d_6">
      <g>
       <use style="stroke:#000000;stroke-width:0.8;" x="182.669109" xlink:href="#m32cd7df526" y="256.579135"/>
      </g>
     </g>
     <g id="text_3">
      <!-- 3 -->
      <g transform="translate(180.124109 269.657885)scale(0.08 -0.08)">
       <defs>
        <path d="M 40.578125 39.3125 
Q 47.65625 37.796875 51.625 33 
Q 55.609375 28.21875 55.609375 21.1875 
Q 55.609375 10.40625 48.1875 4.484375 
Q 40.765625 -1.421875 27.09375 -1.421875 
Q 22.515625 -1.421875 17.65625 -0.515625 
Q 12.796875 0.390625 7.625 2.203125 
L 7.625 11.71875 
Q 11.71875 9.328125 16.59375 8.109375 
Q 21.484375 6.890625 26.8125 6.890625 
Q 36.078125 6.890625 40.9375 10.546875 
Q 45.796875 14.203125 45.796875 21.1875 
Q 45.796875 27.640625 41.28125 31.265625 
Q 36.765625 34.90625 28.71875 34.90625 
L 20.21875 34.90625 
L 20.21875 43.015625 
L 29.109375 43.015625 
Q 36.375 43.015625 40.234375 45.921875 
Q 44.09375 48.828125 44.09375 54.296875 
Q 44.09375 59.90625 40.109375 62.90625 
Q 36.140625 65.921875 28.71875 65.921875 
Q 24.65625 65.921875 20.015625 65.03125 
Q 15.375 64.15625 9.8125 62.3125 
L 9.8125 71.09375 
Q 15.4375 72.65625 20.34375 73.4375 
Q 25.25 74.21875 29.59375 74.21875 
Q 40.828125 74.21875 47.359375 69.109375 
Q 53.90625 64.015625 53.90625 55.328125 
Q 53.90625 49.265625 50.4375 45.09375 
Q 46.96875 40.921875 40.578125 39.3125 
z
" id="DejaVuSans-51"/>
       </defs>
       <use xlink:href="#DejaVuSans-51"/>
      </g>
     </g>
    </g>
    <g id="xtick_4">
     <g id="line2d_7">
      <path clip-path="url(#p54c44d8429)" d="M 213.728334 256.579135 
L 213.728334 16.598677 
" style="fill:none;stroke:#b0b0b0;stroke-linecap:square;stroke-width:0.8;"/>
     </g>
     <g id="line2d_8">
      <g>
       <use style="stroke:#000000;stroke-width:0.8;" x="213.728334" xlink:href="#m32cd7df526" y="256.579135"/>
      </g>
     </g>
     <g id="text_4">
      <!-- 4 -->
      <g transform="translate(211.183334 269.657885)scale(0.08 -0.08)">
       <defs>
        <path d="M 37.796875 64.3125 
L 12.890625 25.390625 
L 37.796875 25.390625 
z
M 35.203125 72.90625 
L 47.609375 72.90625 
L 47.609375 25.390625 
L 58.015625 25.390625 
L 58.015625 17.1875 
L 47.609375 17.1875 
L 47.609375 0 
L 37.796875 0 
L 37.796875 17.1875 
L 4.890625 17.1875 
L 4.890625 26.703125 
z
" id="DejaVuSans-52"/>
       </defs>
       <use xlink:href="#DejaVuSans-52"/>
      </g>
     </g>
    </g>
    <g id="xtick_5">
     <g id="line2d_9">
      <path clip-path="url(#p54c44d8429)" d="M 244.787559 256.579135 
L 244.787559 16.598677 
" style="fill:none;stroke:#b0b0b0;stroke-linecap:square;stroke-width:0.8;"/>
     </g>
     <g id="line2d_10">
      <g>
       <use style="stroke:#000000;stroke-width:0.8;" x="244.787559" xlink:href="#m32cd7df526" y="256.579135"/>
      </g>
     </g>
     <g id="text_5">
      <!-- 5 -->
      <g transform="translate(242.242559 269.657885)scale(0.08 -0.08)">
       <defs>
        <path d="M 10.796875 72.90625 
L 49.515625 72.90625 
L 49.515625 64.59375 
L 19.828125 64.59375 
L 19.828125 46.734375 
Q 21.96875 47.46875 24.109375 47.828125 
Q 26.265625 48.1875 28.421875 48.1875 
Q 40.625 48.1875 47.75 41.5 
Q 54.890625 34.8125 54.890625 23.390625 
Q 54.890625 11.625 47.5625 5.09375 
Q 40.234375 -1.421875 26.90625 -1.421875 
Q 22.3125 -1.421875 17.546875 -0.640625 
Q 12.796875 0.140625 7.71875 1.703125 
L 7.71875 11.625 
Q 12.109375 9.234375 16.796875 8.0625 
Q 21.484375 6.890625 26.703125 6.890625 
Q 35.15625 6.890625 40.078125 11.328125 
Q 45.015625 15.765625 45.015625 23.390625 
Q 45.015625 31 40.078125 35.4375 
Q 35.15625 39.890625 26.703125 39.890625 
Q 22.75 39.890625 18.8125 39.015625 
Q 14.890625 38.140625 10.796875 36.28125 
z
" id="DejaVuSans-53"/>
       </defs>
       <use xlink:href="#DejaVuSans-53"/>
      </g>
     </g>
    </g>
    <g id="xtick_6">
     <g id="line2d_11">
      <path clip-path="url(#p54c44d8429)" d="M 275.846784 256.579135 
L 275.846784 16.598677 
" style="fill:none;stroke:#b0b0b0;stroke-linecap:square;stroke-width:0.8;"/>
     </g>
     <g id="line2d_12">
      <g>
       <use style="stroke:#000000;stroke-width:0.8;" x="275.846784" xlink:href="#m32cd7df526" y="256.579135"/>
      </g>
     </g>
     <g id="text_6">
      <!-- 6 -->
      <g transform="translate(273.301784 269.657885)scale(0.08 -0.08)">
       <defs>
        <path d="M 33.015625 40.375 
Q 26.375 40.375 22.484375 35.828125 
Q 18.609375 31.296875 18.609375 23.390625 
Q 18.609375 15.53125 22.484375 10.953125 
Q 26.375 6.390625 33.015625 6.390625 
Q 39.65625 6.390625 43.53125 10.953125 
Q 47.40625 15.53125 47.40625 23.390625 
Q 47.40625 31.296875 43.53125 35.828125 
Q 39.65625 40.375 33.015625 40.375 
z
M 52.59375 71.296875 
L 52.59375 62.3125 
Q 48.875 64.0625 45.09375 64.984375 
Q 41.3125 65.921875 37.59375 65.921875 
Q 27.828125 65.921875 22.671875 59.328125 
Q 17.53125 52.734375 16.796875 39.40625 
Q 19.671875 43.65625 24.015625 45.921875 
Q 28.375 48.1875 33.59375 48.1875 
Q 44.578125 48.1875 50.953125 41.515625 
Q 57.328125 34.859375 57.328125 23.390625 
Q 57.328125 12.15625 50.6875 5.359375 
Q 44.046875 -1.421875 33.015625 -1.421875 
Q 20.359375 -1.421875 13.671875 8.265625 
Q 6.984375 17.96875 6.984375 36.375 
Q 6.984375 53.65625 15.1875 63.9375 
Q 23.390625 74.21875 37.203125 74.21875 
Q 40.921875 74.21875 44.703125 73.484375 
Q 48.484375 72.75 52.59375 71.296875 
z
" id="DejaVuSans-54"/>
       </defs>
       <use xlink:href="#DejaVuSans-54"/>
      </g>
     </g>
    </g>
    <g id="xtick_7">
     <g id="line2d_13">
      <path clip-path="url(#p54c44d8429)" d="M 306.906009 256.579135 
L 306.906009 16.598677 
" style="fill:none;stroke:#b0b0b0;stroke-linecap:square;stroke-width:0.8;"/>
     </g>
     <g id="line2d_14">
      <g>
       <use style="stroke:#000000;stroke-width:0.8;" x="306.906009" xlink:href="#m32cd7df526" y="256.579135"/>
      </g>
     </g>
     <g id="text_7">
      <!-- 7 -->
      <g transform="translate(304.361009 269.657885)scale(0.08 -0.08)">
       <defs>
        <path d="M 8.203125 72.90625 
L 55.078125 72.90625 
L 55.078125 68.703125 
L 28.609375 0 
L 18.3125 0 
L 43.21875 64.59375 
L 8.203125 64.59375 
z
" id="DejaVuSans-55"/>
       </defs>
       <use xlink:href="#DejaVuSans-55"/>
      </g>
     </g>
    </g>
    <g id="xtick_8">
     <g id="line2d_15">
      <path clip-path="url(#p54c44d8429)" d="M 337.965234 256.579135 
L 337.965234 16.598677 
" style="fill:none;stroke:#b0b0b0;stroke-linecap:square;stroke-width:0.8;"/>
     </g>
     <g id="line2d_16">
      <g>
       <use style="stroke:#000000;stroke-width:0.8;" x="337.965234" xlink:href="#m32cd7df526" y="256.579135"/>
      </g>
     </g>
     <g id="text_8">
      <!-- 8 -->
      <g transform="translate(335.420234 269.657885)scale(0.08 -0.08)">
       <defs>
        <path d="M 31.78125 34.625 
Q 24.75 34.625 20.71875 30.859375 
Q 16.703125 27.09375 16.703125 20.515625 
Q 16.703125 13.921875 20.71875 10.15625 
Q 24.75 6.390625 31.78125 6.390625 
Q 38.8125 6.390625 42.859375 10.171875 
Q 46.921875 13.96875 46.921875 20.515625 
Q 46.921875 27.09375 42.890625 30.859375 
Q 38.875 34.625 31.78125 34.625 
z
M 21.921875 38.8125 
Q 15.578125 40.375 12.03125 44.71875 
Q 8.5 49.078125 8.5 55.328125 
Q 8.5 64.0625 14.71875 69.140625 
Q 20.953125 74.21875 31.78125 74.21875 
Q 42.671875 74.21875 48.875 69.140625 
Q 55.078125 64.0625 55.078125 55.328125 
Q 55.078125 49.078125 51.53125 44.71875 
Q 48 40.375 41.703125 38.8125 
Q 48.828125 37.15625 52.796875 32.3125 
Q 56.78125 27.484375 56.78125 20.515625 
Q 56.78125 9.90625 50.3125 4.234375 
Q 43.84375 -1.421875 31.78125 -1.421875 
Q 19.734375 -1.421875 13.25 4.234375 
Q 6.78125 9.90625 6.78125 20.515625 
Q 6.78125 27.484375 10.78125 32.3125 
Q 14.796875 37.15625 21.921875 38.8125 
z
M 18.3125 54.390625 
Q 18.3125 48.734375 21.84375 45.5625 
Q 25.390625 42.390625 31.78125 42.390625 
Q 38.140625 42.390625 41.71875 45.5625 
Q 45.3125 48.734375 45.3125 54.390625 
Q 45.3125 60.0625 41.71875 63.234375 
Q 38.140625 66.40625 31.78125 66.40625 
Q 25.390625 66.40625 21.84375 63.234375 
Q 18.3125 60.0625 18.3125 54.390625 
z
" id="DejaVuSans-56"/>
       </defs>
       <use xlink:href="#DejaVuSans-56"/>
      </g>
     </g>
    </g>
    <g id="text_9">
     <!-- non-adaptive [Gy] -->
     <g transform="translate(181.413281 282.920073)scale(0.1 -0.1)">
      <defs>
       <path d="M 54.890625 33.015625 
L 54.890625 0 
L 45.90625 0 
L 45.90625 32.71875 
Q 45.90625 40.484375 42.875 44.328125 
Q 39.84375 48.1875 33.796875 48.1875 
Q 26.515625 48.1875 22.3125 43.546875 
Q 18.109375 38.921875 18.109375 30.90625 
L 18.109375 0 
L 9.078125 0 
L 9.078125 54.6875 
L 18.109375 54.6875 
L 18.109375 46.1875 
Q 21.34375 51.125 25.703125 53.5625 
Q 30.078125 56 35.796875 56 
Q 45.21875 56 50.046875 50.171875 
Q 54.890625 44.34375 54.890625 33.015625 
z
" id="DejaVuSans-110"/>
       <path d="M 30.609375 48.390625 
Q 23.390625 48.390625 19.1875 42.75 
Q 14.984375 37.109375 14.984375 27.296875 
Q 14.984375 17.484375 19.15625 11.84375 
Q 23.34375 6.203125 30.609375 6.203125 
Q 37.796875 6.203125 41.984375 11.859375 
Q 46.1875 17.53125 46.1875 27.296875 
Q 46.1875 37.015625 41.984375 42.703125 
Q 37.796875 48.390625 30.609375 48.390625 
z
M 30.609375 56 
Q 42.328125 56 49.015625 48.375 
Q 55.71875 40.765625 55.71875 27.296875 
Q 55.71875 13.875 49.015625 6.21875 
Q 42.328125 -1.421875 30.609375 -1.421875 
Q 18.84375 -1.421875 12.171875 6.21875 
Q 5.515625 13.875 5.515625 27.296875 
Q 5.515625 40.765625 12.171875 48.375 
Q 18.84375 56 30.609375 56 
z
" id="DejaVuSans-111"/>
       <path d="M 4.890625 31.390625 
L 31.203125 31.390625 
L 31.203125 23.390625 
L 4.890625 23.390625 
z
" id="DejaVuSans-45"/>
       <path d="M 34.28125 27.484375 
Q 23.390625 27.484375 19.1875 25 
Q 14.984375 22.515625 14.984375 16.5 
Q 14.984375 11.71875 18.140625 8.90625 
Q 21.296875 6.109375 26.703125 6.109375 
Q 34.1875 6.109375 38.703125 11.40625 
Q 43.21875 16.703125 43.21875 25.484375 
L 43.21875 27.484375 
z
M 52.203125 31.203125 
L 52.203125 0 
L 43.21875 0 
L 43.21875 8.296875 
Q 40.140625 3.328125 35.546875 0.953125 
Q 30.953125 -1.421875 24.3125 -1.421875 
Q 15.921875 -1.421875 10.953125 3.296875 
Q 6 8.015625 6 15.921875 
Q 6 25.140625 12.171875 29.828125 
Q 18.359375 34.515625 30.609375 34.515625 
L 43.21875 34.515625 
L 43.21875 35.40625 
Q 43.21875 41.609375 39.140625 45 
Q 35.0625 48.390625 27.6875 48.390625 
Q 23 48.390625 18.546875 47.265625 
Q 14.109375 46.140625 10.015625 43.890625 
L 10.015625 52.203125 
Q 14.9375 54.109375 19.578125 55.046875 
Q 24.21875 56 28.609375 56 
Q 40.484375 56 46.34375 49.84375 
Q 52.203125 43.703125 52.203125 31.203125 
z
" id="DejaVuSans-97"/>
       <path d="M 45.40625 46.390625 
L 45.40625 75.984375 
L 54.390625 75.984375 
L 54.390625 0 
L 45.40625 0 
L 45.40625 8.203125 
Q 42.578125 3.328125 38.25 0.953125 
Q 33.9375 -1.421875 27.875 -1.421875 
Q 17.96875 -1.421875 11.734375 6.484375 
Q 5.515625 14.40625 5.515625 27.296875 
Q 5.515625 40.1875 11.734375 48.09375 
Q 17.96875 56 27.875 56 
Q 33.9375 56 38.25 53.625 
Q 42.578125 51.265625 45.40625 46.390625 
z
M 14.796875 27.296875 
Q 14.796875 17.390625 18.875 11.75 
Q 22.953125 6.109375 30.078125 6.109375 
Q 37.203125 6.109375 41.296875 11.75 
Q 45.40625 17.390625 45.40625 27.296875 
Q 45.40625 37.203125 41.296875 42.84375 
Q 37.203125 48.484375 30.078125 48.484375 
Q 22.953125 48.484375 18.875 42.84375 
Q 14.796875 37.203125 14.796875 27.296875 
z
" id="DejaVuSans-100"/>
       <path d="M 18.109375 8.203125 
L 18.109375 -20.796875 
L 9.078125 -20.796875 
L 9.078125 54.6875 
L 18.109375 54.6875 
L 18.109375 46.390625 
Q 20.953125 51.265625 25.265625 53.625 
Q 29.59375 56 35.59375 56 
Q 45.5625 56 51.78125 48.09375 
Q 58.015625 40.1875 58.015625 27.296875 
Q 58.015625 14.40625 51.78125 6.484375 
Q 45.5625 -1.421875 35.59375 -1.421875 
Q 29.59375 -1.421875 25.265625 0.953125 
Q 20.953125 3.328125 18.109375 8.203125 
z
M 48.6875 27.296875 
Q 48.6875 37.203125 44.609375 42.84375 
Q 40.53125 48.484375 33.40625 48.484375 
Q 26.265625 48.484375 22.1875 42.84375 
Q 18.109375 37.203125 18.109375 27.296875 
Q 18.109375 17.390625 22.1875 11.75 
Q 26.265625 6.109375 33.40625 6.109375 
Q 40.53125 6.109375 44.609375 11.75 
Q 48.6875 17.390625 48.6875 27.296875 
z
" id="DejaVuSans-112"/>
       <path d="M 18.3125 70.21875 
L 18.3125 54.6875 
L 36.8125 54.6875 
L 36.8125 47.703125 
L 18.3125 47.703125 
L 18.3125 18.015625 
Q 18.3125 11.328125 20.140625 9.421875 
Q 21.96875 7.515625 27.59375 7.515625 
L 36.8125 7.515625 
L 36.8125 0 
L 27.59375 0 
Q 17.1875 0 13.234375 3.875 
Q 9.28125 7.765625 9.28125 18.015625 
L 9.28125 47.703125 
L 2.6875 47.703125 
L 2.6875 54.6875 
L 9.28125 54.6875 
L 9.28125 70.21875 
z
" id="DejaVuSans-116"/>
       <path d="M 9.421875 54.6875 
L 18.40625 54.6875 
L 18.40625 0 
L 9.421875 0 
z
M 9.421875 75.984375 
L 18.40625 75.984375 
L 18.40625 64.59375 
L 9.421875 64.59375 
z
" id="DejaVuSans-105"/>
       <path d="M 2.984375 54.6875 
L 12.5 54.6875 
L 29.59375 8.796875 
L 46.6875 54.6875 
L 56.203125 54.6875 
L 35.6875 0 
L 23.484375 0 
z
" id="DejaVuSans-118"/>
       <path d="M 56.203125 29.59375 
L 56.203125 25.203125 
L 14.890625 25.203125 
Q 15.484375 15.921875 20.484375 11.0625 
Q 25.484375 6.203125 34.421875 6.203125 
Q 39.59375 6.203125 44.453125 7.46875 
Q 49.3125 8.734375 54.109375 11.28125 
L 54.109375 2.78125 
Q 49.265625 0.734375 44.1875 -0.34375 
Q 39.109375 -1.421875 33.890625 -1.421875 
Q 20.796875 -1.421875 13.15625 6.1875 
Q 5.515625 13.8125 5.515625 26.8125 
Q 5.515625 40.234375 12.765625 48.109375 
Q 20.015625 56 32.328125 56 
Q 43.359375 56 49.78125 48.890625 
Q 56.203125 41.796875 56.203125 29.59375 
z
M 47.21875 32.234375 
Q 47.125 39.59375 43.09375 43.984375 
Q 39.0625 48.390625 32.421875 48.390625 
Q 24.90625 48.390625 20.390625 44.140625 
Q 15.875 39.890625 15.1875 32.171875 
z
" id="DejaVuSans-101"/>
       <path id="DejaVuSans-32"/>
       <path d="M 8.59375 75.984375 
L 29.296875 75.984375 
L 29.296875 69 
L 17.578125 69 
L 17.578125 -6.203125 
L 29.296875 -6.203125 
L 29.296875 -13.1875 
L 8.59375 -13.1875 
z
" id="DejaVuSans-91"/>
       <path d="M 59.515625 10.40625 
L 59.515625 29.984375 
L 43.40625 29.984375 
L 43.40625 38.09375 
L 69.28125 38.09375 
L 69.28125 6.78125 
Q 63.578125 2.734375 56.6875 0.65625 
Q 49.8125 -1.421875 42 -1.421875 
Q 24.90625 -1.421875 15.25 8.5625 
Q 5.609375 18.5625 5.609375 36.375 
Q 5.609375 54.25 15.25 64.234375 
Q 24.90625 74.21875 42 74.21875 
Q 49.125 74.21875 55.546875 72.453125 
Q 61.96875 70.703125 67.390625 67.28125 
L 67.390625 56.78125 
Q 61.921875 61.421875 55.765625 63.765625 
Q 49.609375 66.109375 42.828125 66.109375 
Q 29.4375 66.109375 22.71875 58.640625 
Q 16.015625 51.171875 16.015625 36.375 
Q 16.015625 21.625 22.71875 14.15625 
Q 29.4375 6.6875 42.828125 6.6875 
Q 48.046875 6.6875 52.140625 7.59375 
Q 56.25 8.5 59.515625 10.40625 
z
" id="DejaVuSans-71"/>
       <path d="M 32.171875 -5.078125 
Q 28.375 -14.84375 24.75 -17.8125 
Q 21.140625 -20.796875 15.09375 -20.796875 
L 7.90625 -20.796875 
L 7.90625 -13.28125 
L 13.1875 -13.28125 
Q 16.890625 -13.28125 18.9375 -11.515625 
Q 21 -9.765625 23.484375 -3.21875 
L 25.09375 0.875 
L 2.984375 54.6875 
L 12.5 54.6875 
L 29.59375 11.921875 
L 46.6875 54.6875 
L 56.203125 54.6875 
z
" id="DejaVuSans-121"/>
       <path d="M 30.421875 75.984375 
L 30.421875 -13.1875 
L 9.71875 -13.1875 
L 9.71875 -6.203125 
L 21.390625 -6.203125 
L 21.390625 69 
L 9.71875 69 
L 9.71875 75.984375 
z
" id="DejaVuSans-93"/>
      </defs>
      <use xlink:href="#DejaVuSans-110"/>
      <use x="63.378906" xlink:href="#DejaVuSans-111"/>
      <use x="124.560547" xlink:href="#DejaVuSans-110"/>
      <use x="187.939453" xlink:href="#DejaVuSans-45"/>
      <use x="224.023438" xlink:href="#DejaVuSans-97"/>
      <use x="285.302734" xlink:href="#DejaVuSans-100"/>
      <use x="348.779297" xlink:href="#DejaVuSans-97"/>
      <use x="410.058594" xlink:href="#DejaVuSans-112"/>
      <use x="473.535156" xlink:href="#DejaVuSans-116"/>
      <use x="512.744141" xlink:href="#DejaVuSans-105"/>
      <use x="540.527344" xlink:href="#DejaVuSans-118"/>
      <use x="599.707031" xlink:href="#DejaVuSans-101"/>
      <use x="661.230469" xlink:href="#DejaVuSans-32"/>
      <use x="693.017578" xlink:href="#DejaVuSans-91"/>
      <use x="732.03125" xlink:href="#DejaVuSans-71"/>
      <use x="809.521484" xlink:href="#DejaVuSans-121"/>
      <use x="868.701172" xlink:href="#DejaVuSans-93"/>
     </g>
    </g>
   </g>
   <g id="matplotlib.axis_2">
    <g id="ytick_1">
     <g id="line2d_17">
      <path clip-path="url(#p54c44d8429)" d="M 106.809771 234.268897 
L 346.790229 234.268897 
" style="fill:none;stroke:#b0b0b0;stroke-linecap:square;stroke-width:0.8;"/>
     </g>
     <g id="line2d_18">
      <defs>
       <path d="M 0 0 
L -3.5 0 
" id="mb7e9bc8e7e" style="stroke:#000000;stroke-width:0.8;"/>
      </defs>
      <g>
       <use style="stroke:#000000;stroke-width:0.8;" x="106.809771" xlink:href="#mb7e9bc8e7e" y="234.268897"/>
      </g>
     </g>
     <g id="text_10">
      <!-- 1 -->
      <g transform="translate(94.719771 237.308272)scale(0.08 -0.08)">
       <use xlink:href="#DejaVuSans-49"/>
      </g>
     </g>
    </g>
    <g id="ytick_2">
     <g id="line2d_19">
      <path clip-path="url(#p54c44d8429)" d="M 106.809771 190.817291 
L 346.790229 190.817291 
" style="fill:none;stroke:#b0b0b0;stroke-linecap:square;stroke-width:0.8;"/>
     </g>
     <g id="line2d_20">
      <g>
       <use style="stroke:#000000;stroke-width:0.8;" x="106.809771" xlink:href="#mb7e9bc8e7e" y="190.817291"/>
      </g>
     </g>
     <g id="text_11">
      <!-- 2 -->
      <g transform="translate(94.719771 193.856666)scale(0.08 -0.08)">
       <use xlink:href="#DejaVuSans-50"/>
      </g>
     </g>
    </g>
    <g id="ytick_3">
     <g id="line2d_21">
      <path clip-path="url(#p54c44d8429)" d="M 106.809771 147.365686 
L 346.790229 147.365686 
" style="fill:none;stroke:#b0b0b0;stroke-linecap:square;stroke-width:0.8;"/>
     </g>
     <g id="line2d_22">
      <g>
       <use style="stroke:#000000;stroke-width:0.8;" x="106.809771" xlink:href="#mb7e9bc8e7e" y="147.365686"/>
      </g>
     </g>
     <g id="text_12">
      <!-- 3 -->
      <g transform="translate(94.719771 150.405061)scale(0.08 -0.08)">
       <use xlink:href="#DejaVuSans-51"/>
      </g>
     </g>
    </g>
    <g id="ytick_4">
     <g id="line2d_23">
      <path clip-path="url(#p54c44d8429)" d="M 106.809771 103.914081 
L 346.790229 103.914081 
" style="fill:none;stroke:#b0b0b0;stroke-linecap:square;stroke-width:0.8;"/>
     </g>
     <g id="line2d_24">
      <g>
       <use style="stroke:#000000;stroke-width:0.8;" x="106.809771" xlink:href="#mb7e9bc8e7e" y="103.914081"/>
      </g>
     </g>
     <g id="text_13">
      <!-- 4 -->
      <g transform="translate(94.719771 106.953456)scale(0.08 -0.08)">
       <use xlink:href="#DejaVuSans-52"/>
      </g>
     </g>
    </g>
    <g id="ytick_5">
     <g id="line2d_25">
      <path clip-path="url(#p54c44d8429)" d="M 106.809771 60.462475 
L 346.790229 60.462475 
" style="fill:none;stroke:#b0b0b0;stroke-linecap:square;stroke-width:0.8;"/>
     </g>
     <g id="line2d_26">
      <g>
       <use style="stroke:#000000;stroke-width:0.8;" x="106.809771" xlink:href="#mb7e9bc8e7e" y="60.462475"/>
      </g>
     </g>
     <g id="text_14">
      <!-- 5 -->
      <g transform="translate(94.719771 63.50185)scale(0.08 -0.08)">
       <use xlink:href="#DejaVuSans-53"/>
      </g>
     </g>
    </g>
    <g id="ytick_6">
     <g id="line2d_27">
      <path clip-path="url(#p54c44d8429)" d="M 106.809771 17.01087 
L 346.790229 17.01087 
" style="fill:none;stroke:#b0b0b0;stroke-linecap:square;stroke-width:0.8;"/>
     </g>
     <g id="line2d_28">
      <g>
       <use style="stroke:#000000;stroke-width:0.8;" x="106.809771" xlink:href="#mb7e9bc8e7e" y="17.01087"/>
      </g>
     </g>
     <g id="text_15">
      <!-- 6 -->
      <g transform="translate(94.719771 20.050245)scale(0.08 -0.08)">
       <use xlink:href="#DejaVuSans-54"/>
      </g>
     </g>
    </g>
    <g id="text_16">
     <!-- adaptive [Gy] -->
     <g transform="translate(88.640084 170.774844)rotate(-90)scale(0.1 -0.1)">
      <use xlink:href="#DejaVuSans-97"/>
      <use x="61.279297" xlink:href="#DejaVuSans-100"/>
      <use x="124.755859" xlink:href="#DejaVuSans-97"/>
      <use x="186.035156" xlink:href="#DejaVuSans-112"/>
      <use x="249.511719" xlink:href="#DejaVuSans-116"/>
      <use x="288.720703" xlink:href="#DejaVuSans-105"/>
      <use x="316.503906" xlink:href="#DejaVuSans-118"/>
      <use x="375.683594" xlink:href="#DejaVuSans-101"/>
      <use x="437.207031" xlink:href="#DejaVuSans-32"/>
      <use x="468.994141" xlink:href="#DejaVuSans-91"/>
      <use x="508.007812" xlink:href="#DejaVuSans-71"/>
      <use x="585.498047" xlink:href="#DejaVuSans-121"/>
      <use x="644.677734" xlink:href="#DejaVuSans-93"/>
     </g>
    </g>
   </g>
   <g id="line2d_29">
    <path clip-path="url(#p54c44d8429)" d="M 106.809771 253.492288 
L 276.141419 16.598677 
" style="fill:none;stroke:#000000;stroke-linecap:square;stroke-width:1.5;"/>
   </g>
   <g id="patch_3">
    <path d="M 106.809771 256.579135 
L 106.809771 16.598677 
" style="fill:none;stroke:#000000;stroke-linecap:square;stroke-linejoin:miter;stroke-width:0.8;"/>
   </g>
   <g id="patch_4">
    <path d="M 346.790229 256.579135 
L 346.790229 16.598677 
" style="fill:none;stroke:#000000;stroke-linecap:square;stroke-linejoin:miter;stroke-width:0.8;"/>
   </g>
   <g id="patch_5">
    <path d="M 106.809771 256.579135 
L 346.790229 256.579135 
" style="fill:none;stroke:#000000;stroke-linecap:square;stroke-linejoin:miter;stroke-width:0.8;"/>
   </g>
   <g id="patch_6">
    <path d="M 106.809771 16.598677 
L 346.790229 16.598677 
" style="fill:none;stroke:#000000;stroke-linecap:square;stroke-linejoin:miter;stroke-width:0.8;"/>
   </g>
   <g id="PathCollection_1">
    <defs>
     <path d="M 0.597407 -2.5 
L 1.364659 -2.5 
L 2.292649 2.5 
L 1.585405 2.5 
L 1.377518 1.217317 
L -0.872803 1.217317 
L -1.578976 2.5 
L -2.292649 2.5 
z
M 0.841727 -1.833476 
L -0.560973 0.654736 
L 1.274646 0.654736 
z
" id="m90662de743" style="stroke:#1f77b4;stroke-width:0.5;"/>
    </defs>
    <g clip-path="url(#p54c44d8429)">
     <use style="fill:#1f77b4;stroke:#1f77b4;stroke-width:0.5;" x="122.871182" xlink:href="#m90662de743" y="224.295434"/>
    </g>
   </g>
   <g id="PathCollection_2">
    <g clip-path="url(#p54c44d8429)">
     <use style="fill:#1f77b4;stroke:#1f77b4;stroke-width:0.5;" x="123.495527" xlink:href="#m90662de743" y="226.405533"/>
    </g>
   </g>
   <g id="PathCollection_3">
    <g clip-path="url(#p54c44d8429)">
     <use style="fill:#1f77b4;stroke:#1f77b4;stroke-width:0.5;" x="118.856183" xlink:href="#m90662de743" y="230.751165"/>
    </g>
   </g>
   <g id="PathCollection_4">
    <g clip-path="url(#p54c44d8429)">
     <use style="fill:#1f77b4;stroke:#1f77b4;stroke-width:0.5;" x="123.313213" xlink:href="#m90662de743" y="229.047789"/>
    </g>
   </g>
   <g id="PathCollection_5">
    <g clip-path="url(#p54c44d8429)">
     <use style="fill:#1f77b4;stroke:#1f77b4;stroke-width:0.5;" x="117.407581" xlink:href="#m90662de743" y="230.749763"/>
    </g>
   </g>
   <g id="PathCollection_6">
    <defs>
     <path d="M -0.984784 -2.5 
L 0.743678 -2.5 
Q 1.446635 -2.5 1.794899 -2.238534 
Q 2.143163 -1.977068 2.143163 -1.451993 
Q 2.143163 -0.969781 1.84312 -0.619374 
Q 1.544149 -0.268967 1.058723 -0.196099 
Q 1.473425 -0.1018 1.681312 0.16288 
Q 1.889198 0.427561 1.889198 0.869053 
Q 1.889198 1.622375 1.330904 2.061723 
Q 0.773682 2.5 -0.193956 2.5 
L -1.958851 2.5 
z
M -0.820832 0.112516 
L -1.175525 1.943849 
L -0.086798 1.943849 
Q 0.526147 1.943849 0.857265 1.663095 
Q 1.188384 1.381269 1.188384 0.869053 
Q 1.188384 0.473639 0.96871 0.293613 
Q 0.750107 0.112516 0.264681 0.112516 
z
M -0.422203 -1.943849 
L -0.716888 -0.437205 
L 0.29147 -0.437205 
Q 0.830476 -0.437205 1.133733 -0.67081 
Q 1.436991 -0.905486 1.436991 -1.32126 
Q 1.436991 -1.645949 1.232319 -1.794899 
Q 1.027647 -1.943849 0.579726 -1.943849 
z
" id="m418b9ac6da" style="stroke:#aec7e8;stroke-width:0.5;"/>
    </defs>
    <g clip-path="url(#p54c44d8429)">
     <use style="fill:#aec7e8;stroke:#aec7e8;stroke-width:0.5;" x="170.884593" xlink:href="#m418b9ac6da" y="171.497308"/>
    </g>
   </g>
   <g id="PathCollection_7">
    <g clip-path="url(#p54c44d8429)">
     <use style="fill:#aec7e8;stroke:#aec7e8;stroke-width:0.5;" x="168.724496" xlink:href="#m418b9ac6da" y="179.121381"/>
    </g>
   </g>
   <g id="PathCollection_8">
    <g clip-path="url(#p54c44d8429)">
     <use style="fill:#aec7e8;stroke:#aec7e8;stroke-width:0.5;" x="183.756169" xlink:href="#m418b9ac6da" y="169.461286"/>
    </g>
   </g>
   <g id="PathCollection_9">
    <g clip-path="url(#p54c44d8429)">
     <use style="fill:#aec7e8;stroke:#aec7e8;stroke-width:0.5;" x="185.486898" xlink:href="#m418b9ac6da" y="147.830703"/>
    </g>
   </g>
   <g id="PathCollection_10">
    <g clip-path="url(#p54c44d8429)">
     <use style="fill:#aec7e8;stroke:#aec7e8;stroke-width:0.5;" x="180.358557" xlink:href="#m418b9ac6da" y="164.692639"/>
    </g>
   </g>
   <g id="PathCollection_11">
    <defs>
     <path d="M 2.29653 -2.041417 
L 2.164326 -1.354576 
Q 1.854472 -1.667527 1.507436 -1.819356 
Q 1.160401 -1.971184 0.756559 -1.971184 
Q 0.20502 -1.971184 -0.213282 -1.705743 
Q -0.630552 -1.441334 -0.934208 -0.899091 
Q -1.128383 -0.551023 -1.230634 -0.16164 
Q -1.331853 0.227742 -1.331853 0.621256 
Q -1.331853 1.279178 -0.991014 1.625181 
Q -0.650176 1.970151 -0.001549 1.970151 
Q 0.446705 1.970151 0.859843 1.826585 
Q 1.272981 1.68302 1.663396 1.395889 
L 1.512601 2.167424 
Q 1.128383 2.331646 0.735902 2.415307 
Q 0.343421 2.5 -0.050093 2.5 
Q -0.976554 2.5 -1.498141 1.997005 
Q -2.018694 1.492977 -2.018694 0.595435 
Q -2.018694 0.021173 -1.820388 -0.533464 
Q -1.622082 -1.089134 -1.250258 -1.547717 
Q -0.856744 -2.03522 -0.351684 -2.26761 
Q 0.153377 -2.5 0.824726 -2.5 
Q 1.237864 -2.5 1.607622 -2.385354 
Q 1.977381 -2.270709 2.29653 -2.041417 
z
" id="macae6ec836" style="stroke:#ff7f0e;stroke-width:0.5;"/>
    </defs>
    <g clip-path="url(#p54c44d8429)">
     <use style="fill:#ff7f0e;stroke:#ff7f0e;stroke-width:0.5;" x="149.496951" xlink:href="#macae6ec836" y="198.034818"/>
    </g>
   </g>
   <g id="PathCollection_12">
    <g clip-path="url(#p54c44d8429)">
     <use style="fill:#ff7f0e;stroke:#ff7f0e;stroke-width:0.5;" x="154.346568" xlink:href="#macae6ec836" y="187.286647"/>
    </g>
   </g>
   <g id="PathCollection_13">
    <g clip-path="url(#p54c44d8429)">
     <use style="fill:#ff7f0e;stroke:#ff7f0e;stroke-width:0.5;" x="132.694615" xlink:href="#macae6ec836" y="212.651477"/>
    </g>
   </g>
   <g id="PathCollection_14">
    <g clip-path="url(#p54c44d8429)">
     <use style="fill:#ff7f0e;stroke:#ff7f0e;stroke-width:0.5;" x="124.781955" xlink:href="#macae6ec836" y="225.679914"/>
    </g>
   </g>
   <g id="PathCollection_15">
    <g clip-path="url(#p54c44d8429)">
     <use style="fill:#ff7f0e;stroke:#ff7f0e;stroke-width:0.5;" x="133.091632" xlink:href="#macae6ec836" y="220.852085"/>
    </g>
   </g>
   <g id="PathCollection_16">
    <defs>
     <path d="M -1.318045 -2.5 
L 0.136091 -2.5 
Q 1.294471 -2.5 1.884912 -2.009216 
Q 2.476425 -1.518431 2.476425 -0.550793 
Q 2.476425 0.088941 2.251393 0.680454 
Q 2.027432 1.270896 1.632019 1.675954 
Q 1.234462 2.091727 0.621517 2.296399 
Q 0.008573 2.5 -0.828333 2.5 
L -2.292113 2.5 
z
M -0.747964 -1.943849 
L -1.502357 1.943849 
L -0.618303 1.943849 
Q 0.517574 1.943849 1.140163 1.291256 
Q 1.762752 0.637591 1.762752 -0.550793 
Q 1.762752 -1.270896 1.360909 -1.607372 
Q 0.959066 -1.943849 0.1018 -1.943849 
z
" id="m12e465c3a9" style="stroke:#ffbb78;stroke-width:0.5;"/>
    </defs>
    <g clip-path="url(#p54c44d8429)">
     <use style="fill:#ffbb78;stroke:#ffbb78;stroke-width:0.5;" x="115.651312" xlink:href="#m12e465c3a9" y="239.367608"/>
    </g>
   </g>
   <g id="PathCollection_17">
    <g clip-path="url(#p54c44d8429)">
     <use style="fill:#ffbb78;stroke:#ffbb78;stroke-width:0.5;" x="112.502895" xlink:href="#m12e465c3a9" y="245.258378"/>
    </g>
   </g>
   <g id="PathCollection_18">
    <g clip-path="url(#p54c44d8429)">
     <use style="fill:#ffbb78;stroke:#ffbb78;stroke-width:0.5;" x="113.389617" xlink:href="#m12e465c3a9" y="243.541216"/>
    </g>
   </g>
   <g id="PathCollection_19">
    <g clip-path="url(#p54c44d8429)">
     <use style="fill:#ffbb78;stroke:#ffbb78;stroke-width:0.5;" x="111.139356" xlink:href="#m12e465c3a9" y="242.0139"/>
    </g>
   </g>
   <g id="PathCollection_20">
    <g clip-path="url(#p54c44d8429)">
     <use style="fill:#ffbb78;stroke:#ffbb78;stroke-width:0.5;" x="116.553751" xlink:href="#m12e465c3a9" y="245.537288"/>
    </g>
   </g>
   <g id="PathCollection_21">
    <defs>
     <path d="M -1.001393 -2.5 
L 2.159773 -2.5 
L 2.0494 -1.929919 
L -0.438813 -1.929919 
L -0.725997 -0.450064 
L 1.661487 -0.450064 
L 1.551114 0.118946 
L -0.837441 0.118946 
L -1.185705 1.93099 
L 1.359301 1.93099 
L 1.248928 2.5 
L -1.975461 2.5 
z
" id="m870374a75e" style="stroke:#2ca02c;stroke-width:0.5;"/>
    </defs>
    <g clip-path="url(#p54c44d8429)">
     <use style="fill:#2ca02c;stroke:#2ca02c;stroke-width:0.5;" x="121.613667" xlink:href="#m870374a75e" y="230.873112"/>
    </g>
   </g>
   <g id="PathCollection_22">
    <g clip-path="url(#p54c44d8429)">
     <use style="fill:#2ca02c;stroke:#2ca02c;stroke-width:0.5;" x="124.167684" xlink:href="#m870374a75e" y="227.740487"/>
    </g>
   </g>
   <g id="PathCollection_23">
    <g clip-path="url(#p54c44d8429)">
     <use style="fill:#2ca02c;stroke:#2ca02c;stroke-width:0.5;" x="124.862324" xlink:href="#m870374a75e" y="222.730794"/>
    </g>
   </g>
   <g id="PathCollection_24">
    <g clip-path="url(#p54c44d8429)">
     <use style="fill:#2ca02c;stroke:#2ca02c;stroke-width:0.5;" x="125.298569" xlink:href="#m870374a75e" y="221.934632"/>
    </g>
   </g>
   <g id="PathCollection_25">
    <defs>
     <path d="M -0.854051 -2.5 
L 2.01243 -2.5 
L 1.902057 -1.929919 
L -0.29147 -1.929919 
L -0.578654 -0.456494 
L 1.403772 -0.456494 
L 1.292327 0.112516 
L -0.690099 0.112516 
L -1.155165 2.5 
L -1.828118 2.5 
z
" id="mf7c89fe15a" style="stroke:#98df8a;stroke-width:0.5;"/>
    </defs>
    <g clip-path="url(#p54c44d8429)">
     <use style="fill:#98df8a;stroke:#98df8a;stroke-width:0.5;" x="114.070016" xlink:href="#mf7c89fe15a" y="241.904707"/>
    </g>
   </g>
   <g id="PathCollection_26">
    <g clip-path="url(#p54c44d8429)">
     <use style="fill:#98df8a;stroke:#98df8a;stroke-width:0.5;" x="144.050317" xlink:href="#mf7c89fe15a" y="197.108261"/>
    </g>
   </g>
   <g id="PathCollection_27">
    <g clip-path="url(#p54c44d8429)">
     <use style="fill:#98df8a;stroke:#98df8a;stroke-width:0.5;" x="143.231012" xlink:href="#mf7c89fe15a" y="193.44112"/>
    </g>
   </g>
   <g id="PathCollection_28">
    <g clip-path="url(#p54c44d8429)">
     <use style="fill:#98df8a;stroke:#98df8a;stroke-width:0.5;" x="116.180293" xlink:href="#mf7c89fe15a" y="251.293793"/>
    </g>
   </g>
   <g id="PathCollection_29">
    <g clip-path="url(#p54c44d8429)">
     <use style="fill:#98df8a;stroke:#98df8a;stroke-width:0.5;" x="112.941431" xlink:href="#mf7c89fe15a" y="245.999771"/>
    </g>
   </g>
   <g id="PathCollection_30">
    <defs>
     <path d="M 1.212043 1.686119 
L 1.464057 0.423983 
L 0.391964 0.423983 
L 0.49215 -0.112064 
L 2.202541 -0.112064 
L 1.786304 2.009399 
Q 1.356641 2.244887 0.849515 2.37296 
Q 0.343421 2.5 -0.169903 2.5 
Q -1.07674 2.5 -1.587998 1.997005 
Q -2.099256 1.492977 -2.099256 0.595435 
Q -2.099256 -0.150279 -1.78837 -0.822661 
Q -1.476451 -1.496075 -0.928011 -1.945363 
Q -0.583041 -2.225263 -0.173001 -2.362632 
Q 0.237038 -2.5 0.736935 -2.5 
Q 1.18932 -2.5 1.603491 -2.385354 
Q 2.018694 -2.270709 2.396716 -2.041417 
L 2.264511 -1.347346 
Q 1.973249 -1.651002 1.582834 -1.811093 
Q 1.192419 -1.971184 0.750361 -1.971184 
Q 0.237038 -1.971184 -0.153377 -1.774943 
Q -0.543793 -1.579736 -0.850547 -1.170729 
Q -1.111857 -0.821628 -1.262652 -0.348585 
Q -1.412415 0.124458 -1.412415 0.615059 
Q -1.412415 1.289506 -1.067445 1.630345 
Q -0.721442 1.970151 -0.037699 1.970151 
Q 0.305206 1.970151 0.624354 1.897852 
Q 0.943503 1.82452 1.212043 1.686119 
z
" id="mec7b71d2ef" style="stroke:#d62728;stroke-width:0.5;"/>
    </defs>
    <g clip-path="url(#p54c44d8429)">
     <use style="fill:#d62728;stroke:#d62728;stroke-width:0.5;" x="129.428084" xlink:href="#mec7b71d2ef" y="218.185169"/>
    </g>
   </g>
   <g id="PathCollection_31">
    <g clip-path="url(#p54c44d8429)">
     <use style="fill:#d62728;stroke:#d62728;stroke-width:0.5;" x="125.553762" xlink:href="#mec7b71d2ef" y="211.622251"/>
    </g>
   </g>
   <g id="PathCollection_32">
    <g clip-path="url(#p54c44d8429)">
     <use style="fill:#d62728;stroke:#d62728;stroke-width:0.5;" x="128.213747" xlink:href="#mec7b71d2ef" y="223.346793"/>
    </g>
   </g>
   <g id="PathCollection_33">
    <g clip-path="url(#p54c44d8429)">
     <use style="fill:#d62728;stroke:#d62728;stroke-width:0.5;" x="127.310951" xlink:href="#mec7b71d2ef" y="227.149357"/>
    </g>
   </g>
   <g id="PathCollection_34">
    <g clip-path="url(#p54c44d8429)">
     <use style="fill:#d62728;stroke:#d62728;stroke-width:0.5;" x="123.957144" xlink:href="#mec7b71d2ef" y="228.305768"/>
    </g>
   </g>
   <g id="PathCollection_35">
    <defs>
     <path d="M -1.328225 -2.5 
L -0.647771 -2.5 
L -1.046399 -0.450064 
L 1.407523 -0.450064 
L 1.806151 -2.5 
L 2.486605 -2.5 
L 1.511466 2.5 
L 0.832083 2.5 
L 1.29715 0.118946 
L -1.156772 0.118946 
L -1.62291 2.5 
L -2.302293 2.5 
z
" id="m2988b9dc55" style="stroke:#ff9896;stroke-width:0.5;"/>
    </defs>
    <g clip-path="url(#p54c44d8429)">
     <use style="fill:#ff9896;stroke:#ff9896;stroke-width:0.5;" x="140.358095" xlink:href="#m2988b9dc55" y="202.734931"/>
    </g>
   </g>
   <g id="PathCollection_36">
    <g clip-path="url(#p54c44d8429)">
     <use style="fill:#ff9896;stroke:#ff9896;stroke-width:0.5;" x="128.831744" xlink:href="#m2988b9dc55" y="222.012906"/>
    </g>
   </g>
   <g id="PathCollection_37">
    <g clip-path="url(#p54c44d8429)">
     <use style="fill:#ff9896;stroke:#ff9896;stroke-width:0.5;" x="129.727036" xlink:href="#m2988b9dc55" y="214.001668"/>
    </g>
   </g>
   <g id="PathCollection_38">
    <g clip-path="url(#p54c44d8429)">
     <use style="fill:#ff9896;stroke:#ff9896;stroke-width:0.5;" x="130.839808" xlink:href="#m2988b9dc55" y="216.426871"/>
    </g>
   </g>
   <g id="PathCollection_39">
    <g clip-path="url(#p54c44d8429)">
     <use style="fill:#ff9896;stroke:#ff9896;stroke-width:0.5;" x="127.026043" xlink:href="#m2988b9dc55" y="225.209887"/>
    </g>
   </g>
   <g id="PathCollection_40">
    <defs>
     <path d="M 0.238963 -2.5 
L 0.919417 -2.5 
L -0.055722 2.5 
L -0.735105 2.5 
z
" id="me8a0e1121b" style="stroke:#9467bd;stroke-width:0.5;"/>
    </defs>
    <g clip-path="url(#p54c44d8429)">
     <use style="fill:#9467bd;stroke:#9467bd;stroke-width:0.5;" x="131.822155" xlink:href="#me8a0e1121b" y="213.004177"/>
    </g>
   </g>
   <g id="PathCollection_41">
    <g clip-path="url(#p54c44d8429)">
     <use style="fill:#9467bd;stroke:#9467bd;stroke-width:0.5;" x="132.525514" xlink:href="#me8a0e1121b" y="214.882889"/>
    </g>
   </g>
   <g id="PathCollection_42">
    <g clip-path="url(#p54c44d8429)">
     <use style="fill:#9467bd;stroke:#9467bd;stroke-width:0.5;" x="133.332083" xlink:href="#me8a0e1121b" y="212.502053"/>
    </g>
   </g>
   <g id="PathCollection_43">
    <g clip-path="url(#p54c44d8429)">
     <use style="fill:#9467bd;stroke:#9467bd;stroke-width:0.5;" x="131.64601" xlink:href="#me8a0e1121b" y="214.911156"/>
    </g>
   </g>
   <g id="PathCollection_44">
    <g clip-path="url(#p54c44d8429)">
     <use style="fill:#9467bd;stroke:#9467bd;stroke-width:0.5;" x="131.257106" xlink:href="#me8a0e1121b" y="212.583529"/>
    </g>
   </g>
   <g id="PathCollection_45">
    <defs>
     <path d="M 0.624264 -2.5 
L 1.157306 -2.5 
L 0.445182 1.149739 
Q 0.306457 1.861863 -0.023962 2.180511 
Q -0.35354 2.5 -0.947116 2.5 
L -1.157306 2.5 
L -1.070708 2.053556 
L -0.905078 2.053556 
Q -0.550277 2.053556 -0.366151 1.850933 
Q -0.182865 1.649151 -0.085337 1.149739 
z
" id="m90f3a754c0" style="stroke:#c5b0d5;stroke-width:0.5;"/>
    </defs>
    <g clip-path="url(#p54c44d8429)">
     <use style="fill:#c5b0d5;stroke:#c5b0d5;stroke-width:0.5;" x="141.197418" xlink:href="#m90f3a754c0" y="205.609116"/>
    </g>
   </g>
   <g id="PathCollection_46">
    <g clip-path="url(#p54c44d8429)">
     <use style="fill:#c5b0d5;stroke:#c5b0d5;stroke-width:0.5;" x="148.09427" xlink:href="#m90f3a754c0" y="187.988038"/>
    </g>
   </g>
   <g id="PathCollection_47">
    <g clip-path="url(#p54c44d8429)">
     <use style="fill:#c5b0d5;stroke:#c5b0d5;stroke-width:0.5;" x="135.012073" xlink:href="#m90f3a754c0" y="215.862731"/>
    </g>
   </g>
   <g id="PathCollection_48">
    <g clip-path="url(#p54c44d8429)">
     <use style="fill:#c5b0d5;stroke:#c5b0d5;stroke-width:0.5;" x="148.675766" xlink:href="#m90f3a754c0" y="193.036833"/>
    </g>
   </g>
   <g id="PathCollection_49">
    <g clip-path="url(#p54c44d8429)">
     <use style="fill:#c5b0d5;stroke:#c5b0d5;stroke-width:0.5;" x="153.787308" xlink:href="#m90f3a754c0" y="192.363265"/>
    </g>
   </g>
   <g id="PathCollection_50">
    <defs>
     <path d="M -0.5524 -2.5 
L 0.126982 -2.5 
L -0.730283 1.93742 
L 1.704351 1.93742 
L 1.593978 2.5 
L -1.520039 2.5 
z
" id="ma0d592cc8f" style="stroke:#c49c94;stroke-width:0.5;"/>
    </defs>
    <g clip-path="url(#p54c44d8429)">
     <use style="fill:#c49c94;stroke:#c49c94;stroke-width:0.5;" x="152.756009" xlink:href="#ma0d592cc8f" y="166.110645"/>
    </g>
   </g>
   <g id="PathCollection_51">
    <g clip-path="url(#p54c44d8429)">
     <use style="fill:#c49c94;stroke:#c49c94;stroke-width:0.5;" x="128.126944" xlink:href="#ma0d592cc8f" y="217.634176"/>
    </g>
   </g>
   <g id="PathCollection_52">
    <g clip-path="url(#p54c44d8429)">
     <use style="fill:#c49c94;stroke:#c49c94;stroke-width:0.5;" x="133.300194" xlink:href="#ma0d592cc8f" y="209.928831"/>
    </g>
   </g>
   <g id="PathCollection_53">
    <g clip-path="url(#p54c44d8429)">
     <use style="fill:#c49c94;stroke:#c49c94;stroke-width:0.5;" x="140.837444" xlink:href="#ma0d592cc8f" y="172.459081"/>
    </g>
   </g>
   <g id="PathCollection_54">
    <g clip-path="url(#p54c44d8429)">
     <use style="fill:#c49c94;stroke:#c49c94;stroke-width:0.5;" x="145.421087" xlink:href="#ma0d592cc8f" y="169.763997"/>
    </g>
   </g>
   <g id="PathCollection_55">
    <defs>
     <path d="M -1.48972 -2.180374 
L -0.604673 -2.180374 
L -0.096262 0.757944 
L 1.591589 -2.180374 
L 2.5 -2.180374 
L 1.650467 2.180374 
L 1.07757 2.180374 
L 1.819626 -1.642991 
L 0.108411 1.342056 
L -0.46729 1.342056 
L -1.02243 -1.654206 
L -1.763551 2.180374 
L -2.339252 2.180374 
z
" id="m03d51de267" style="stroke:#e377c2;stroke-width:0.5;"/>
    </defs>
    <g clip-path="url(#p54c44d8429)">
     <use style="fill:#e377c2;stroke:#e377c2;stroke-width:0.5;" x="162.388352" xlink:href="#m03d51de267" y="173.101622"/>
    </g>
   </g>
   <g id="PathCollection_56">
    <g clip-path="url(#p54c44d8429)">
     <use style="fill:#e377c2;stroke:#e377c2;stroke-width:0.5;" x="166.946441" xlink:href="#m03d51de267" y="167.833793"/>
    </g>
   </g>
   <g id="PathCollection_57">
    <g clip-path="url(#p54c44d8429)">
     <use style="fill:#e377c2;stroke:#e377c2;stroke-width:0.5;" x="161.753178" xlink:href="#m03d51de267" y="176.635105"/>
    </g>
   </g>
   <g id="PathCollection_58">
    <g clip-path="url(#p54c44d8429)">
     <use style="fill:#e377c2;stroke:#e377c2;stroke-width:0.5;" x="164.66322" xlink:href="#m03d51de267" y="166.232464"/>
    </g>
   </g>
   <g id="PathCollection_59">
    <g clip-path="url(#p54c44d8429)">
     <use style="fill:#e377c2;stroke:#e377c2;stroke-width:0.5;" x="163.547511" xlink:href="#m03d51de267" y="174.187385"/>
    </g>
   </g>
   <g id="PathCollection_60">
    <defs>
     <path d="M -1.314831 -2.5 
L -0.403986 -2.5 
L 0.976211 1.786327 
L 1.813116 -2.5 
L 2.47321 -2.5 
L 1.498071 2.5 
L 0.584012 2.5 
L -0.791899 -1.813116 
L -1.628804 2.5 
L -2.288898 2.5 
z
" id="m9b78f52861" style="stroke:#f7b6d2;stroke-width:0.5;"/>
    </defs>
    <g clip-path="url(#p54c44d8429)">
     <use style="fill:#f7b6d2;stroke:#f7b6d2;stroke-width:0.5;" x="267.898845" xlink:href="#m9b78f52861" y="40.337025"/>
    </g>
   </g>
   <g id="PathCollection_61">
    <g clip-path="url(#p54c44d8429)">
     <use style="fill:#f7b6d2;stroke:#f7b6d2;stroke-width:0.5;" x="290.418179" xlink:href="#m9b78f52861" y="43.577713"/>
    </g>
   </g>
   <g id="PathCollection_62">
    <g clip-path="url(#p54c44d8429)">
     <use style="fill:#f7b6d2;stroke:#f7b6d2;stroke-width:0.5;" x="281.190127" xlink:href="#m9b78f52861" y="43.957108"/>
    </g>
   </g>
   <g id="PathCollection_63">
    <g clip-path="url(#p54c44d8429)">
     <use style="fill:#f7b6d2;stroke:#f7b6d2;stroke-width:0.5;" x="273.585836" xlink:href="#m9b78f52861" y="45.454257"/>
    </g>
   </g>
   <g id="PathCollection_64">
    <g clip-path="url(#p54c44d8429)">
     <use style="fill:#f7b6d2;stroke:#f7b6d2;stroke-width:0.5;" x="323.399429" xlink:href="#m9b78f52861" y="41.605253"/>
    </g>
   </g>
   <g id="PathCollection_65">
    <defs>
     <path d="M 0.545858 -1.971184 
Q 0.009812 -1.971184 -0.400227 -1.710907 
Q -0.810266 -1.45063 -1.11289 -0.918715 
Q -1.307065 -0.579942 -1.409316 -0.198823 
Q -1.510535 0.182297 -1.510535 0.569614 
Q -1.510535 1.240963 -1.18932 1.605557 
Q -0.868106 1.970151 -0.280417 1.970151 
Q 0.248399 1.970151 0.66257 1.707808 
Q 1.077773 1.444433 1.372134 0.924912 
Q 1.568374 0.575811 1.671659 0.193658 
Q 1.774943 -0.189527 1.774943 -0.569614 
Q 1.774943 -1.237864 1.451663 -1.604524 
Q 1.129415 -1.971184 0.545858 -1.971184 
z
M -0.300041 2.5 
Q -1.187255 2.5 -1.696447 1.974282 
Q -2.204606 1.447532 -2.204606 0.533464 
Q -2.204606 0.010845 -2.0063 -0.534497 
Q -1.806961 -1.079839 -1.458893 -1.506404 
Q -1.048854 -2.0063 -0.545858 -2.25315 
Q -0.04183 -2.5 0.565482 -2.5 
Q 1.449597 -2.5 1.95879 -1.978414 
Q 2.469015 -1.45786 2.469015 -0.55722 
Q 2.469015 -0.001549 2.27484 0.534497 
Q 2.081698 1.06951 1.720202 1.505371 
Q 1.307065 2.009399 0.808201 2.255216 
Q 0.31037 2.5 -0.300041 2.5 
z
" id="mbd69eafdcd" style="stroke:#7f7f7f;stroke-width:0.5;"/>
    </defs>
    <g clip-path="url(#p54c44d8429)">
     <use style="fill:#7f7f7f;stroke:#7f7f7f;stroke-width:0.5;" x="126.04856" xlink:href="#mbd69eafdcd" y="226.577378"/>
    </g>
   </g>
   <g id="PathCollection_66">
    <g clip-path="url(#p54c44d8429)">
     <use style="fill:#7f7f7f;stroke:#7f7f7f;stroke-width:0.5;" x="116.139764" xlink:href="#mbd69eafdcd" y="240.439703"/>
    </g>
   </g>
   <g id="PathCollection_67">
    <g clip-path="url(#p54c44d8429)">
     <use style="fill:#7f7f7f;stroke:#7f7f7f;stroke-width:0.5;" x="126.272567" xlink:href="#mbd69eafdcd" y="226.263994"/>
    </g>
   </g>
   <g id="PathCollection_68">
    <g clip-path="url(#p54c44d8429)">
     <use style="fill:#7f7f7f;stroke:#7f7f7f;stroke-width:0.5;" x="126.963546" xlink:href="#mbd69eafdcd" y="225.297319"/>
    </g>
   </g>
   <g id="PathCollection_69">
    <g clip-path="url(#p54c44d8429)">
     <use style="fill:#7f7f7f;stroke:#7f7f7f;stroke-width:0.5;" x="131.193519" xlink:href="#mbd69eafdcd" y="219.379621"/>
    </g>
   </g>
   <g id="text_17">
    <!-- D1CC of STOMACH -->
    <g transform="translate(174.778125 10.598677)scale(0.1 -0.1)">
     <defs>
      <path d="M 27.984375 58.6875 
L 27.984375 14.203125 
L 34.71875 14.203125 
Q 46.234375 14.203125 52.3125 19.921875 
Q 58.40625 25.640625 58.40625 36.53125 
Q 58.40625 47.359375 52.34375 53.015625 
Q 46.296875 58.6875 34.71875 58.6875 
z
M 9.1875 72.90625 
L 29 72.90625 
Q 45.609375 72.90625 53.734375 70.53125 
Q 61.859375 68.171875 67.671875 62.5 
Q 72.796875 57.5625 75.28125 51.109375 
Q 77.78125 44.671875 77.78125 36.53125 
Q 77.78125 28.265625 75.28125 21.796875 
Q 72.796875 15.328125 67.671875 10.40625 
Q 61.8125 4.734375 53.609375 2.359375 
Q 45.40625 0 29 0 
L 9.1875 0 
z
" id="DejaVuSans-Bold-68"/>
      <path d="M 11.71875 12.984375 
L 28.328125 12.984375 
L 28.328125 60.109375 
L 11.28125 56.59375 
L 11.28125 69.390625 
L 28.21875 72.90625 
L 46.09375 72.90625 
L 46.09375 12.984375 
L 62.703125 12.984375 
L 62.703125 0 
L 11.71875 0 
z
" id="DejaVuSans-Bold-49"/>
      <path d="M 67 4 
Q 61.8125 1.3125 56.203125 -0.046875 
Q 50.59375 -1.421875 44.484375 -1.421875 
Q 26.265625 -1.421875 15.625 8.765625 
Q 4.984375 18.953125 4.984375 36.375 
Q 4.984375 53.859375 15.625 64.03125 
Q 26.265625 74.21875 44.484375 74.21875 
Q 50.59375 74.21875 56.203125 72.84375 
Q 61.8125 71.484375 67 68.796875 
L 67 53.71875 
Q 61.765625 57.28125 56.6875 58.9375 
Q 51.609375 60.59375 46 60.59375 
Q 35.9375 60.59375 30.171875 54.140625 
Q 24.421875 47.703125 24.421875 36.375 
Q 24.421875 25.09375 30.171875 18.640625 
Q 35.9375 12.203125 46 12.203125 
Q 51.609375 12.203125 56.6875 13.859375 
Q 61.765625 15.53125 67 19.09375 
z
" id="DejaVuSans-Bold-67"/>
      <path id="DejaVuSans-Bold-32"/>
      <path d="M 34.421875 43.5 
Q 28.609375 43.5 25.5625 39.328125 
Q 22.515625 35.15625 22.515625 27.296875 
Q 22.515625 19.4375 25.5625 15.25 
Q 28.609375 11.078125 34.421875 11.078125 
Q 40.140625 11.078125 43.15625 15.25 
Q 46.1875 19.4375 46.1875 27.296875 
Q 46.1875 35.15625 43.15625 39.328125 
Q 40.140625 43.5 34.421875 43.5 
z
M 34.421875 56 
Q 48.53125 56 56.46875 48.375 
Q 64.40625 40.765625 64.40625 27.296875 
Q 64.40625 13.8125 56.46875 6.1875 
Q 48.53125 -1.421875 34.421875 -1.421875 
Q 20.265625 -1.421875 12.28125 6.1875 
Q 4.296875 13.8125 4.296875 27.296875 
Q 4.296875 40.765625 12.28125 48.375 
Q 20.265625 56 34.421875 56 
z
" id="DejaVuSans-Bold-111"/>
      <path d="M 44.390625 75.984375 
L 44.390625 64.5 
L 34.71875 64.5 
Q 31 64.5 29.53125 63.15625 
Q 28.078125 61.8125 28.078125 58.5 
L 28.078125 54.6875 
L 43.015625 54.6875 
L 43.015625 42.1875 
L 28.078125 42.1875 
L 28.078125 0 
L 10.59375 0 
L 10.59375 42.1875 
L 1.90625 42.1875 
L 1.90625 54.6875 
L 10.59375 54.6875 
L 10.59375 58.5 
Q 10.59375 67.4375 15.578125 71.703125 
Q 20.5625 75.984375 31 75.984375 
z
" id="DejaVuSans-Bold-102"/>
      <path d="M 59.90625 70.609375 
L 59.90625 55.171875 
Q 53.90625 57.859375 48.1875 59.21875 
Q 42.484375 60.59375 37.40625 60.59375 
Q 30.671875 60.59375 27.4375 58.734375 
Q 24.21875 56.890625 24.21875 52.984375 
Q 24.21875 50.046875 26.390625 48.40625 
Q 28.5625 46.78125 34.28125 45.609375 
L 42.28125 44 
Q 54.4375 41.546875 59.5625 36.5625 
Q 64.703125 31.59375 64.703125 22.40625 
Q 64.703125 10.359375 57.546875 4.46875 
Q 50.390625 -1.421875 35.6875 -1.421875 
Q 28.765625 -1.421875 21.78125 -0.09375 
Q 14.796875 1.21875 7.8125 3.8125 
L 7.8125 19.671875 
Q 14.796875 15.96875 21.3125 14.078125 
Q 27.828125 12.203125 33.890625 12.203125 
Q 40.046875 12.203125 43.3125 14.25 
Q 46.578125 16.3125 46.578125 20.125 
Q 46.578125 23.53125 44.359375 25.390625 
Q 42.140625 27.25 35.5 28.71875 
L 28.21875 30.328125 
Q 17.28125 32.671875 12.21875 37.796875 
Q 7.171875 42.921875 7.171875 51.609375 
Q 7.171875 62.5 14.203125 68.359375 
Q 21.234375 74.21875 34.421875 74.21875 
Q 40.4375 74.21875 46.78125 73.3125 
Q 53.125 72.40625 59.90625 70.609375 
z
" id="DejaVuSans-Bold-83"/>
      <path d="M 0.484375 72.90625 
L 67.671875 72.90625 
L 67.671875 58.6875 
L 43.5 58.6875 
L 43.5 0 
L 24.703125 0 
L 24.703125 58.6875 
L 0.484375 58.6875 
z
" id="DejaVuSans-Bold-84"/>
      <path d="M 42.484375 60.59375 
Q 33.890625 60.59375 29.15625 54.25 
Q 24.421875 47.90625 24.421875 36.375 
Q 24.421875 24.90625 29.15625 18.546875 
Q 33.890625 12.203125 42.484375 12.203125 
Q 51.125 12.203125 55.859375 18.546875 
Q 60.59375 24.90625 60.59375 36.375 
Q 60.59375 47.90625 55.859375 54.25 
Q 51.125 60.59375 42.484375 60.59375 
z
M 42.484375 74.21875 
Q 60.0625 74.21875 70.015625 64.15625 
Q 79.984375 54.109375 79.984375 36.375 
Q 79.984375 18.703125 70.015625 8.640625 
Q 60.0625 -1.421875 42.484375 -1.421875 
Q 24.953125 -1.421875 14.96875 8.640625 
Q 4.984375 18.703125 4.984375 36.375 
Q 4.984375 54.109375 14.96875 64.15625 
Q 24.953125 74.21875 42.484375 74.21875 
z
" id="DejaVuSans-Bold-79"/>
      <path d="M 9.1875 72.90625 
L 33.109375 72.90625 
L 49.703125 33.890625 
L 66.40625 72.90625 
L 90.28125 72.90625 
L 90.28125 0 
L 72.515625 0 
L 72.515625 53.328125 
L 55.71875 14.015625 
L 43.796875 14.015625 
L 27 53.328125 
L 27 0 
L 9.1875 0 
z
" id="DejaVuSans-Bold-77"/>
      <path d="M 53.421875 13.28125 
L 24.03125 13.28125 
L 19.390625 0 
L 0.484375 0 
L 27.484375 72.90625 
L 49.90625 72.90625 
L 76.90625 0 
L 58.015625 0 
z
M 28.71875 26.8125 
L 48.6875 26.8125 
L 38.71875 55.8125 
z
" id="DejaVuSans-Bold-65"/>
      <path d="M 9.1875 72.90625 
L 27.984375 72.90625 
L 27.984375 45.125 
L 55.71875 45.125 
L 55.71875 72.90625 
L 74.515625 72.90625 
L 74.515625 0 
L 55.71875 0 
L 55.71875 30.90625 
L 27.984375 30.90625 
L 27.984375 0 
L 9.1875 0 
z
" id="DejaVuSans-Bold-72"/>
     </defs>
     <use xlink:href="#DejaVuSans-Bold-68"/>
     <use x="83.007812" xlink:href="#DejaVuSans-Bold-49"/>
     <use x="152.587891" xlink:href="#DejaVuSans-Bold-67"/>
     <use x="225.976562" xlink:href="#DejaVuSans-Bold-67"/>
     <use x="299.365234" xlink:href="#DejaVuSans-Bold-32"/>
     <use x="334.179688" xlink:href="#DejaVuSans-Bold-111"/>
     <use x="402.880859" xlink:href="#DejaVuSans-Bold-102"/>
     <use x="446.386719" xlink:href="#DejaVuSans-Bold-32"/>
     <use x="481.201172" xlink:href="#DejaVuSans-Bold-83"/>
     <use x="553.222656" xlink:href="#DejaVuSans-Bold-84"/>
     <use x="621.435547" xlink:href="#DejaVuSans-Bold-79"/>
     <use x="706.445312" xlink:href="#DejaVuSans-Bold-77"/>
     <use x="805.957031" xlink:href="#DejaVuSans-Bold-65"/>
     <use x="883.349609" xlink:href="#DejaVuSans-Bold-67"/>
     <use x="956.738281" xlink:href="#DejaVuSans-Bold-72"/>
    </g>
   </g>
  </g>
 </g>
 <defs>
  <clipPath id="p54c44d8429">
   <rect height="239.980458" width="239.980458" x="106.809771" y="16.598677"/>
  </clipPath>
 </defs>
</svg>
